G04 #@! TF.GenerationSoftware,KiCad,Pcbnew,(5.1.4)-1*
G04 #@! TF.CreationDate,2022-10-29T17:17:54+02:00*
G04 #@! TF.ProjectId,quaver-keypad,71756176-6572-42d6-9b65-797061642e6b,rev?*
G04 #@! TF.SameCoordinates,Original*
G04 #@! TF.FileFunction,Soldermask,Bot*
G04 #@! TF.FilePolarity,Negative*
%FSLAX46Y46*%
G04 Gerber Fmt 4.6, Leading zero omitted, Abs format (unit mm)*
G04 Created by KiCad (PCBNEW (5.1.4)-1) date 2022-10-29 17:17:54*
%MOMM*%
%LPD*%
G04 APERTURE LIST*
%ADD10C,0.100000*%
G04 APERTURE END LIST*
D10*
G36*
X52184000Y-105448000D02*
G01*
X50282000Y-105448000D01*
X50282000Y-104246000D01*
X52184000Y-104246000D01*
X52184000Y-105448000D01*
X52184000Y-105448000D01*
G37*
G36*
X45984000Y-105448000D02*
G01*
X44082000Y-105448000D01*
X44082000Y-104246000D01*
X45984000Y-104246000D01*
X45984000Y-105448000D01*
X45984000Y-105448000D01*
G37*
G36*
X45984000Y-101748000D02*
G01*
X44082000Y-101748000D01*
X44082000Y-100546000D01*
X45984000Y-100546000D01*
X45984000Y-101748000D01*
X45984000Y-101748000D01*
G37*
G36*
X52184000Y-101748000D02*
G01*
X50282000Y-101748000D01*
X50282000Y-100546000D01*
X52184000Y-100546000D01*
X52184000Y-101748000D01*
X52184000Y-101748000D01*
G37*
G36*
X91820425Y-97680988D02*
G01*
X91986710Y-97714063D01*
X92169336Y-97789709D01*
X92333694Y-97899530D01*
X92473470Y-98039306D01*
X92583291Y-98203664D01*
X92658937Y-98386290D01*
X92697500Y-98580164D01*
X92697500Y-98777836D01*
X92658937Y-98971710D01*
X92583291Y-99154336D01*
X92473470Y-99318694D01*
X92333694Y-99458470D01*
X92169336Y-99568291D01*
X91986710Y-99643937D01*
X91820425Y-99677012D01*
X91792837Y-99682500D01*
X91595163Y-99682500D01*
X91567575Y-99677012D01*
X91401290Y-99643937D01*
X91218664Y-99568291D01*
X91054306Y-99458470D01*
X90914530Y-99318694D01*
X90804709Y-99154336D01*
X90729063Y-98971710D01*
X90690500Y-98777836D01*
X90690500Y-98580164D01*
X90729063Y-98386290D01*
X90804709Y-98203664D01*
X90914530Y-98039306D01*
X91054306Y-97899530D01*
X91218664Y-97789709D01*
X91401290Y-97714063D01*
X91567575Y-97680988D01*
X91595163Y-97675500D01*
X91792837Y-97675500D01*
X91820425Y-97680988D01*
X91820425Y-97680988D01*
G37*
G36*
X110870425Y-97680988D02*
G01*
X111036710Y-97714063D01*
X111219336Y-97789709D01*
X111383694Y-97899530D01*
X111523470Y-98039306D01*
X111633291Y-98203664D01*
X111708937Y-98386290D01*
X111747500Y-98580164D01*
X111747500Y-98777836D01*
X111708937Y-98971710D01*
X111633291Y-99154336D01*
X111523470Y-99318694D01*
X111383694Y-99458470D01*
X111219336Y-99568291D01*
X111036710Y-99643937D01*
X110870425Y-99677012D01*
X110842837Y-99682500D01*
X110645163Y-99682500D01*
X110617575Y-99677012D01*
X110451290Y-99643937D01*
X110268664Y-99568291D01*
X110104306Y-99458470D01*
X109964530Y-99318694D01*
X109854709Y-99154336D01*
X109779063Y-98971710D01*
X109740500Y-98777836D01*
X109740500Y-98580164D01*
X109779063Y-98386290D01*
X109854709Y-98203664D01*
X109964530Y-98039306D01*
X110104306Y-97899530D01*
X110268664Y-97789709D01*
X110451290Y-97714063D01*
X110617575Y-97680988D01*
X110645163Y-97675500D01*
X110842837Y-97675500D01*
X110870425Y-97680988D01*
X110870425Y-97680988D01*
G37*
G36*
X95237500Y-99682500D02*
G01*
X93230500Y-99682500D01*
X93230500Y-97675500D01*
X95237500Y-97675500D01*
X95237500Y-99682500D01*
X95237500Y-99682500D01*
G37*
G36*
X114287500Y-99682500D02*
G01*
X112280500Y-99682500D01*
X112280500Y-97675500D01*
X114287500Y-97675500D01*
X114287500Y-99682500D01*
X114287500Y-99682500D01*
G37*
G36*
X77128468Y-96662565D02*
G01*
X77167138Y-96674296D01*
X77202777Y-96693346D01*
X77234017Y-96718983D01*
X77259654Y-96750223D01*
X77278704Y-96785862D01*
X77290435Y-96824532D01*
X77295000Y-96870888D01*
X77295000Y-97947112D01*
X77290435Y-97993468D01*
X77278704Y-98032138D01*
X77259654Y-98067777D01*
X77234017Y-98099017D01*
X77202777Y-98124654D01*
X77167138Y-98143704D01*
X77128468Y-98155435D01*
X77082112Y-98160000D01*
X76430888Y-98160000D01*
X76384532Y-98155435D01*
X76345862Y-98143704D01*
X76310223Y-98124654D01*
X76278983Y-98099017D01*
X76253346Y-98067777D01*
X76234296Y-98032138D01*
X76222565Y-97993468D01*
X76218000Y-97947112D01*
X76218000Y-96870888D01*
X76222565Y-96824532D01*
X76234296Y-96785862D01*
X76253346Y-96750223D01*
X76278983Y-96718983D01*
X76310223Y-96693346D01*
X76345862Y-96674296D01*
X76384532Y-96662565D01*
X76430888Y-96658000D01*
X77082112Y-96658000D01*
X77128468Y-96662565D01*
X77128468Y-96662565D01*
G37*
G36*
X75253468Y-96662565D02*
G01*
X75292138Y-96674296D01*
X75327777Y-96693346D01*
X75359017Y-96718983D01*
X75384654Y-96750223D01*
X75403704Y-96785862D01*
X75415435Y-96824532D01*
X75420000Y-96870888D01*
X75420000Y-97947112D01*
X75415435Y-97993468D01*
X75403704Y-98032138D01*
X75384654Y-98067777D01*
X75359017Y-98099017D01*
X75327777Y-98124654D01*
X75292138Y-98143704D01*
X75253468Y-98155435D01*
X75207112Y-98160000D01*
X74555888Y-98160000D01*
X74509532Y-98155435D01*
X74470862Y-98143704D01*
X74435223Y-98124654D01*
X74403983Y-98099017D01*
X74378346Y-98067777D01*
X74359296Y-98032138D01*
X74347565Y-97993468D01*
X74343000Y-97947112D01*
X74343000Y-96870888D01*
X74347565Y-96824532D01*
X74359296Y-96785862D01*
X74378346Y-96750223D01*
X74403983Y-96718983D01*
X74435223Y-96693346D01*
X74470862Y-96674296D01*
X74509532Y-96662565D01*
X74555888Y-96658000D01*
X75207112Y-96658000D01*
X75253468Y-96662565D01*
X75253468Y-96662565D01*
G37*
G36*
X112610474Y-91632684D02*
G01*
X112795137Y-91709174D01*
X112982623Y-91786833D01*
X113317548Y-92010623D01*
X113602377Y-92295452D01*
X113826167Y-92630377D01*
X113881807Y-92764704D01*
X113980316Y-93002526D01*
X114058900Y-93397594D01*
X114058900Y-93800406D01*
X113980316Y-94195474D01*
X113929451Y-94318272D01*
X113826167Y-94567623D01*
X113602377Y-94902548D01*
X113317548Y-95187377D01*
X112982623Y-95411167D01*
X112828474Y-95475017D01*
X112610474Y-95565316D01*
X112215406Y-95643900D01*
X111812594Y-95643900D01*
X111417526Y-95565316D01*
X111199526Y-95475017D01*
X111045377Y-95411167D01*
X110710452Y-95187377D01*
X110425623Y-94902548D01*
X110201833Y-94567623D01*
X110098549Y-94318272D01*
X110047684Y-94195474D01*
X109969100Y-93800406D01*
X109969100Y-93397594D01*
X110047684Y-93002526D01*
X110146193Y-92764704D01*
X110201833Y-92630377D01*
X110425623Y-92295452D01*
X110710452Y-92010623D01*
X111045377Y-91786833D01*
X111232863Y-91709174D01*
X111417526Y-91632684D01*
X111812594Y-91554100D01*
X112215406Y-91554100D01*
X112610474Y-91632684D01*
X112610474Y-91632684D01*
G37*
G36*
X93560474Y-91632684D02*
G01*
X93745137Y-91709174D01*
X93932623Y-91786833D01*
X94267548Y-92010623D01*
X94552377Y-92295452D01*
X94776167Y-92630377D01*
X94831807Y-92764704D01*
X94930316Y-93002526D01*
X95008900Y-93397594D01*
X95008900Y-93800406D01*
X94930316Y-94195474D01*
X94879451Y-94318272D01*
X94776167Y-94567623D01*
X94552377Y-94902548D01*
X94267548Y-95187377D01*
X93932623Y-95411167D01*
X93778474Y-95475017D01*
X93560474Y-95565316D01*
X93165406Y-95643900D01*
X92762594Y-95643900D01*
X92367526Y-95565316D01*
X92149526Y-95475017D01*
X91995377Y-95411167D01*
X91660452Y-95187377D01*
X91375623Y-94902548D01*
X91151833Y-94567623D01*
X91048549Y-94318272D01*
X90997684Y-94195474D01*
X90919100Y-93800406D01*
X90919100Y-93397594D01*
X90997684Y-93002526D01*
X91096193Y-92764704D01*
X91151833Y-92630377D01*
X91375623Y-92295452D01*
X91660452Y-92010623D01*
X91995377Y-91786833D01*
X92182863Y-91709174D01*
X92367526Y-91632684D01*
X92762594Y-91554100D01*
X93165406Y-91554100D01*
X93560474Y-91632684D01*
X93560474Y-91632684D01*
G37*
G36*
X102124000Y-95369000D02*
G01*
X100822000Y-95369000D01*
X100822000Y-94367000D01*
X102124000Y-94367000D01*
X102124000Y-95369000D01*
X102124000Y-95369000D01*
G37*
G36*
X120920000Y-95115000D02*
G01*
X119618000Y-95115000D01*
X119618000Y-94113000D01*
X120920000Y-94113000D01*
X120920000Y-95115000D01*
X120920000Y-95115000D01*
G37*
G36*
X59334468Y-93583565D02*
G01*
X59373138Y-93595296D01*
X59408777Y-93614346D01*
X59440017Y-93639983D01*
X59465654Y-93671223D01*
X59484704Y-93706862D01*
X59496435Y-93745532D01*
X59501000Y-93791888D01*
X59501000Y-94443112D01*
X59496435Y-94489468D01*
X59484704Y-94528138D01*
X59465654Y-94563777D01*
X59440017Y-94595017D01*
X59408777Y-94620654D01*
X59373138Y-94639704D01*
X59334468Y-94651435D01*
X59288112Y-94656000D01*
X58211888Y-94656000D01*
X58165532Y-94651435D01*
X58126862Y-94639704D01*
X58091223Y-94620654D01*
X58059983Y-94595017D01*
X58034346Y-94563777D01*
X58015296Y-94528138D01*
X58003565Y-94489468D01*
X57999000Y-94443112D01*
X57999000Y-93791888D01*
X58003565Y-93745532D01*
X58015296Y-93706862D01*
X58034346Y-93671223D01*
X58059983Y-93639983D01*
X58091223Y-93614346D01*
X58126862Y-93595296D01*
X58165532Y-93583565D01*
X58211888Y-93579000D01*
X59288112Y-93579000D01*
X59334468Y-93583565D01*
X59334468Y-93583565D01*
G37*
G36*
X81229468Y-93494565D02*
G01*
X81268138Y-93506296D01*
X81303777Y-93525346D01*
X81335017Y-93550983D01*
X81360654Y-93582223D01*
X81379704Y-93617862D01*
X81391435Y-93656532D01*
X81396000Y-93702888D01*
X81396000Y-94354112D01*
X81391435Y-94400468D01*
X81379704Y-94439138D01*
X81360654Y-94474777D01*
X81335017Y-94506017D01*
X81303777Y-94531654D01*
X81268138Y-94550704D01*
X81229468Y-94562435D01*
X81183112Y-94567000D01*
X80106888Y-94567000D01*
X80060532Y-94562435D01*
X80021862Y-94550704D01*
X79986223Y-94531654D01*
X79954983Y-94506017D01*
X79929346Y-94474777D01*
X79910296Y-94439138D01*
X79898565Y-94400468D01*
X79894000Y-94354112D01*
X79894000Y-93702888D01*
X79898565Y-93656532D01*
X79910296Y-93617862D01*
X79929346Y-93582223D01*
X79954983Y-93550983D01*
X79986223Y-93525346D01*
X80021862Y-93506296D01*
X80060532Y-93494565D01*
X80106888Y-93490000D01*
X81183112Y-93490000D01*
X81229468Y-93494565D01*
X81229468Y-93494565D01*
G37*
G36*
X98314104Y-92708585D02*
G01*
X98482626Y-92778389D01*
X98634291Y-92879728D01*
X98763272Y-93008709D01*
X98864611Y-93160374D01*
X98934415Y-93328896D01*
X98970000Y-93507797D01*
X98970000Y-93690203D01*
X98934415Y-93869104D01*
X98864611Y-94037626D01*
X98763272Y-94189291D01*
X98634291Y-94318272D01*
X98482626Y-94419611D01*
X98314104Y-94489415D01*
X98135203Y-94525000D01*
X97952797Y-94525000D01*
X97773896Y-94489415D01*
X97605374Y-94419611D01*
X97453709Y-94318272D01*
X97324728Y-94189291D01*
X97223389Y-94037626D01*
X97153585Y-93869104D01*
X97118000Y-93690203D01*
X97118000Y-93507797D01*
X97153585Y-93328896D01*
X97223389Y-93160374D01*
X97324728Y-93008709D01*
X97453709Y-92879728D01*
X97605374Y-92778389D01*
X97773896Y-92708585D01*
X97952797Y-92673000D01*
X98135203Y-92673000D01*
X98314104Y-92708585D01*
X98314104Y-92708585D01*
G37*
G36*
X88154104Y-92708585D02*
G01*
X88322626Y-92778389D01*
X88474291Y-92879728D01*
X88603272Y-93008709D01*
X88704611Y-93160374D01*
X88774415Y-93328896D01*
X88810000Y-93507797D01*
X88810000Y-93690203D01*
X88774415Y-93869104D01*
X88704611Y-94037626D01*
X88603272Y-94189291D01*
X88474291Y-94318272D01*
X88322626Y-94419611D01*
X88154104Y-94489415D01*
X87975203Y-94525000D01*
X87792797Y-94525000D01*
X87613896Y-94489415D01*
X87445374Y-94419611D01*
X87293709Y-94318272D01*
X87164728Y-94189291D01*
X87063389Y-94037626D01*
X86993585Y-93869104D01*
X86958000Y-93690203D01*
X86958000Y-93507797D01*
X86993585Y-93328896D01*
X87063389Y-93160374D01*
X87164728Y-93008709D01*
X87293709Y-92879728D01*
X87445374Y-92778389D01*
X87613896Y-92708585D01*
X87792797Y-92673000D01*
X87975203Y-92673000D01*
X88154104Y-92708585D01*
X88154104Y-92708585D01*
G37*
G36*
X117364104Y-92708585D02*
G01*
X117532626Y-92778389D01*
X117684291Y-92879728D01*
X117813272Y-93008709D01*
X117914611Y-93160374D01*
X117984415Y-93328896D01*
X118020000Y-93507797D01*
X118020000Y-93690203D01*
X117984415Y-93869104D01*
X117914611Y-94037626D01*
X117813272Y-94189291D01*
X117684291Y-94318272D01*
X117532626Y-94419611D01*
X117364104Y-94489415D01*
X117185203Y-94525000D01*
X117002797Y-94525000D01*
X116823896Y-94489415D01*
X116655374Y-94419611D01*
X116503709Y-94318272D01*
X116374728Y-94189291D01*
X116273389Y-94037626D01*
X116203585Y-93869104D01*
X116168000Y-93690203D01*
X116168000Y-93507797D01*
X116203585Y-93328896D01*
X116273389Y-93160374D01*
X116374728Y-93008709D01*
X116503709Y-92879728D01*
X116655374Y-92778389D01*
X116823896Y-92708585D01*
X117002797Y-92673000D01*
X117185203Y-92673000D01*
X117364104Y-92708585D01*
X117364104Y-92708585D01*
G37*
G36*
X107204104Y-92708585D02*
G01*
X107372626Y-92778389D01*
X107524291Y-92879728D01*
X107653272Y-93008709D01*
X107754611Y-93160374D01*
X107824415Y-93328896D01*
X107860000Y-93507797D01*
X107860000Y-93690203D01*
X107824415Y-93869104D01*
X107754611Y-94037626D01*
X107653272Y-94189291D01*
X107524291Y-94318272D01*
X107372626Y-94419611D01*
X107204104Y-94489415D01*
X107025203Y-94525000D01*
X106842797Y-94525000D01*
X106663896Y-94489415D01*
X106495374Y-94419611D01*
X106343709Y-94318272D01*
X106214728Y-94189291D01*
X106113389Y-94037626D01*
X106043585Y-93869104D01*
X106008000Y-93690203D01*
X106008000Y-93507797D01*
X106043585Y-93328896D01*
X106113389Y-93160374D01*
X106214728Y-93008709D01*
X106343709Y-92879728D01*
X106495374Y-92778389D01*
X106663896Y-92708585D01*
X106842797Y-92673000D01*
X107025203Y-92673000D01*
X107204104Y-92708585D01*
X107204104Y-92708585D01*
G37*
G36*
X75065000Y-94512000D02*
G01*
X66413000Y-94512000D01*
X66413000Y-92910000D01*
X75065000Y-92910000D01*
X75065000Y-94512000D01*
X75065000Y-94512000D01*
G37*
G36*
X59334468Y-91708565D02*
G01*
X59373138Y-91720296D01*
X59408777Y-91739346D01*
X59440017Y-91764983D01*
X59465654Y-91796223D01*
X59484704Y-91831862D01*
X59496435Y-91870532D01*
X59501000Y-91916888D01*
X59501000Y-92568112D01*
X59496435Y-92614468D01*
X59484704Y-92653138D01*
X59465654Y-92688777D01*
X59440017Y-92720017D01*
X59408777Y-92745654D01*
X59373138Y-92764704D01*
X59334468Y-92776435D01*
X59288112Y-92781000D01*
X58211888Y-92781000D01*
X58165532Y-92776435D01*
X58126862Y-92764704D01*
X58091223Y-92745654D01*
X58059983Y-92720017D01*
X58034346Y-92688777D01*
X58015296Y-92653138D01*
X58003565Y-92614468D01*
X57999000Y-92568112D01*
X57999000Y-91916888D01*
X58003565Y-91870532D01*
X58015296Y-91831862D01*
X58034346Y-91796223D01*
X58059983Y-91764983D01*
X58091223Y-91739346D01*
X58126862Y-91720296D01*
X58165532Y-91708565D01*
X58211888Y-91704000D01*
X59288112Y-91704000D01*
X59334468Y-91708565D01*
X59334468Y-91708565D01*
G37*
G36*
X81229468Y-91619565D02*
G01*
X81268138Y-91631296D01*
X81303777Y-91650346D01*
X81335017Y-91675983D01*
X81360654Y-91707223D01*
X81379704Y-91742862D01*
X81391435Y-91781532D01*
X81396000Y-91827888D01*
X81396000Y-92479112D01*
X81391435Y-92525468D01*
X81379704Y-92564138D01*
X81360654Y-92599777D01*
X81335017Y-92631017D01*
X81303777Y-92656654D01*
X81268138Y-92675704D01*
X81229468Y-92687435D01*
X81183112Y-92692000D01*
X80106888Y-92692000D01*
X80060532Y-92687435D01*
X80021862Y-92675704D01*
X79986223Y-92656654D01*
X79954983Y-92631017D01*
X79929346Y-92599777D01*
X79910296Y-92564138D01*
X79898565Y-92525468D01*
X79894000Y-92479112D01*
X79894000Y-91827888D01*
X79898565Y-91781532D01*
X79910296Y-91742862D01*
X79929346Y-91707223D01*
X79954983Y-91675983D01*
X79986223Y-91650346D01*
X80021862Y-91631296D01*
X80060532Y-91619565D01*
X80106888Y-91615000D01*
X81183112Y-91615000D01*
X81229468Y-91619565D01*
X81229468Y-91619565D01*
G37*
G36*
X65840000Y-92337000D02*
G01*
X64238000Y-92337000D01*
X64238000Y-83685000D01*
X65840000Y-83685000D01*
X65840000Y-92337000D01*
X65840000Y-92337000D01*
G37*
G36*
X77240000Y-92337000D02*
G01*
X75638000Y-92337000D01*
X75638000Y-83685000D01*
X77240000Y-83685000D01*
X77240000Y-92337000D01*
X77240000Y-92337000D01*
G37*
G36*
X109537205Y-88422881D02*
G01*
X109542645Y-88423000D01*
X109629828Y-88423000D01*
X109646097Y-88426236D01*
X109664956Y-88428515D01*
X109681532Y-88429246D01*
X109766223Y-88450010D01*
X109771518Y-88451184D01*
X109857027Y-88468193D01*
X109872362Y-88474545D01*
X109890401Y-88480455D01*
X109906521Y-88484407D01*
X109985504Y-88521280D01*
X109990494Y-88523477D01*
X110071045Y-88556842D01*
X110084841Y-88566060D01*
X110101393Y-88575382D01*
X110116426Y-88582400D01*
X110186694Y-88633971D01*
X110191192Y-88637122D01*
X110263656Y-88685541D01*
X110275383Y-88697268D01*
X110289809Y-88709648D01*
X110303179Y-88719461D01*
X110303180Y-88719462D01*
X110362021Y-88783733D01*
X110365829Y-88787714D01*
X110427459Y-88849344D01*
X110436674Y-88863135D01*
X110448396Y-88878078D01*
X110459605Y-88890321D01*
X110504799Y-88964874D01*
X110507746Y-88969501D01*
X110556158Y-89041955D01*
X110562505Y-89057277D01*
X110571092Y-89074231D01*
X110579691Y-89088417D01*
X110609478Y-89170368D01*
X110611452Y-89175448D01*
X110644807Y-89255973D01*
X110644807Y-89255974D01*
X110648041Y-89272233D01*
X110653158Y-89290542D01*
X110658825Y-89306134D01*
X110672055Y-89392345D01*
X110673001Y-89397713D01*
X110690000Y-89483173D01*
X110690000Y-89499752D01*
X110691444Y-89518692D01*
X110693963Y-89535104D01*
X110690120Y-89622249D01*
X110690000Y-89627689D01*
X110690000Y-89714825D01*
X110686766Y-89731083D01*
X110684488Y-89749941D01*
X110683756Y-89766531D01*
X110662988Y-89851237D01*
X110661812Y-89856537D01*
X110644807Y-89942027D01*
X110638457Y-89957357D01*
X110632549Y-89975393D01*
X110628595Y-89991520D01*
X110591711Y-90070526D01*
X110589511Y-90075523D01*
X110556158Y-90156045D01*
X110546944Y-90169835D01*
X110537622Y-90186387D01*
X110530602Y-90201424D01*
X110479011Y-90271720D01*
X110475866Y-90276210D01*
X110427461Y-90348654D01*
X110370460Y-90405655D01*
X110365811Y-90410563D01*
X110004720Y-90813000D01*
X109040723Y-91887376D01*
X108912679Y-92004602D01*
X108813630Y-92064646D01*
X108714583Y-92124689D01*
X108496866Y-92203823D01*
X108267895Y-92238961D01*
X108036470Y-92228754D01*
X107811481Y-92173593D01*
X107706727Y-92124689D01*
X107601579Y-92075602D01*
X107504838Y-92004602D01*
X107414823Y-91938539D01*
X107313521Y-91827888D01*
X107258398Y-91767679D01*
X107187270Y-91650346D01*
X107138311Y-91569583D01*
X107059177Y-91351866D01*
X107024039Y-91122895D01*
X107034246Y-90891470D01*
X107089407Y-90666481D01*
X107140972Y-90556028D01*
X107187398Y-90456580D01*
X107187400Y-90456577D01*
X107290114Y-90316622D01*
X108045245Y-89475027D01*
X108576787Y-88882621D01*
X108587681Y-88868589D01*
X108600539Y-88849346D01*
X108657573Y-88792312D01*
X108662223Y-88787403D01*
X108677278Y-88770624D01*
X108698701Y-88751011D01*
X108702682Y-88747203D01*
X108764346Y-88685539D01*
X108778143Y-88676320D01*
X108793102Y-88664585D01*
X108805321Y-88653398D01*
X108837385Y-88633961D01*
X108879830Y-88608231D01*
X108884421Y-88605308D01*
X108956955Y-88556842D01*
X108972300Y-88550486D01*
X108989248Y-88541901D01*
X109003416Y-88533312D01*
X109003417Y-88533312D01*
X109003418Y-88533311D01*
X109085312Y-88503545D01*
X109090410Y-88501563D01*
X109170973Y-88468193D01*
X109187252Y-88464955D01*
X109205542Y-88459844D01*
X109221135Y-88454177D01*
X109307300Y-88440954D01*
X109312663Y-88440009D01*
X109398173Y-88423000D01*
X109414766Y-88423000D01*
X109433709Y-88421555D01*
X109450106Y-88419039D01*
X109537205Y-88422881D01*
X109537205Y-88422881D01*
G37*
G36*
X90487205Y-88422881D02*
G01*
X90492645Y-88423000D01*
X90579828Y-88423000D01*
X90596097Y-88426236D01*
X90614956Y-88428515D01*
X90631532Y-88429246D01*
X90716223Y-88450010D01*
X90721518Y-88451184D01*
X90807027Y-88468193D01*
X90822362Y-88474545D01*
X90840401Y-88480455D01*
X90856521Y-88484407D01*
X90935504Y-88521280D01*
X90940494Y-88523477D01*
X91021045Y-88556842D01*
X91034841Y-88566060D01*
X91051393Y-88575382D01*
X91066426Y-88582400D01*
X91136694Y-88633971D01*
X91141192Y-88637122D01*
X91213656Y-88685541D01*
X91225383Y-88697268D01*
X91239809Y-88709648D01*
X91253179Y-88719461D01*
X91253180Y-88719462D01*
X91312021Y-88783733D01*
X91315829Y-88787714D01*
X91377459Y-88849344D01*
X91386674Y-88863135D01*
X91398396Y-88878078D01*
X91409605Y-88890321D01*
X91454799Y-88964874D01*
X91457746Y-88969501D01*
X91506158Y-89041955D01*
X91512505Y-89057277D01*
X91521092Y-89074231D01*
X91529691Y-89088417D01*
X91559478Y-89170368D01*
X91561452Y-89175448D01*
X91594807Y-89255973D01*
X91594807Y-89255974D01*
X91598041Y-89272233D01*
X91603158Y-89290542D01*
X91608825Y-89306134D01*
X91622055Y-89392345D01*
X91623001Y-89397713D01*
X91640000Y-89483173D01*
X91640000Y-89499752D01*
X91641444Y-89518692D01*
X91643963Y-89535104D01*
X91640120Y-89622249D01*
X91640000Y-89627689D01*
X91640000Y-89714825D01*
X91636766Y-89731083D01*
X91634488Y-89749941D01*
X91633756Y-89766531D01*
X91612988Y-89851237D01*
X91611812Y-89856537D01*
X91594807Y-89942027D01*
X91588457Y-89957357D01*
X91582549Y-89975393D01*
X91578595Y-89991520D01*
X91541711Y-90070526D01*
X91539511Y-90075523D01*
X91506158Y-90156045D01*
X91496944Y-90169835D01*
X91487622Y-90186387D01*
X91480602Y-90201424D01*
X91429011Y-90271720D01*
X91425866Y-90276210D01*
X91377461Y-90348654D01*
X91320460Y-90405655D01*
X91315811Y-90410563D01*
X90954720Y-90813000D01*
X89990723Y-91887376D01*
X89862679Y-92004602D01*
X89763630Y-92064646D01*
X89664583Y-92124689D01*
X89446866Y-92203823D01*
X89217895Y-92238961D01*
X88986470Y-92228754D01*
X88761481Y-92173593D01*
X88656727Y-92124689D01*
X88551579Y-92075602D01*
X88454838Y-92004602D01*
X88364823Y-91938539D01*
X88263521Y-91827888D01*
X88208398Y-91767679D01*
X88137270Y-91650346D01*
X88088311Y-91569583D01*
X88009177Y-91351866D01*
X87974039Y-91122895D01*
X87984246Y-90891470D01*
X88039407Y-90666481D01*
X88090972Y-90556028D01*
X88137398Y-90456580D01*
X88137400Y-90456577D01*
X88240114Y-90316622D01*
X88995245Y-89475027D01*
X89526787Y-88882621D01*
X89537681Y-88868589D01*
X89550539Y-88849346D01*
X89607573Y-88792312D01*
X89612223Y-88787403D01*
X89627278Y-88770624D01*
X89648701Y-88751011D01*
X89652682Y-88747203D01*
X89714346Y-88685539D01*
X89728143Y-88676320D01*
X89743102Y-88664585D01*
X89755321Y-88653398D01*
X89787385Y-88633961D01*
X89829830Y-88608231D01*
X89834421Y-88605308D01*
X89906955Y-88556842D01*
X89922300Y-88550486D01*
X89939248Y-88541901D01*
X89953416Y-88533312D01*
X89953417Y-88533312D01*
X89953418Y-88533311D01*
X90035312Y-88503545D01*
X90040410Y-88501563D01*
X90120973Y-88468193D01*
X90137252Y-88464955D01*
X90155542Y-88459844D01*
X90171135Y-88454177D01*
X90257300Y-88440954D01*
X90262663Y-88440009D01*
X90348173Y-88423000D01*
X90364766Y-88423000D01*
X90383709Y-88421555D01*
X90400106Y-88419039D01*
X90487205Y-88422881D01*
X90487205Y-88422881D01*
G37*
G36*
X102124000Y-92069000D02*
G01*
X100822000Y-92069000D01*
X100822000Y-91067000D01*
X102124000Y-91067000D01*
X102124000Y-92069000D01*
X102124000Y-92069000D01*
G37*
G36*
X120920000Y-91815000D02*
G01*
X119618000Y-91815000D01*
X119618000Y-90813000D01*
X120920000Y-90813000D01*
X120920000Y-91815000D01*
X120920000Y-91815000D01*
G37*
G36*
X114642127Y-87341261D02*
G01*
X114662900Y-87343000D01*
X114669827Y-87343000D01*
X114764754Y-87361882D01*
X114768348Y-87362542D01*
X114863730Y-87378624D01*
X114870203Y-87381085D01*
X114890228Y-87386841D01*
X114897027Y-87388193D01*
X114959414Y-87414034D01*
X114986443Y-87425230D01*
X114989844Y-87426581D01*
X115080255Y-87460961D01*
X115086127Y-87464640D01*
X115104636Y-87474187D01*
X115111045Y-87476842D01*
X115191563Y-87530642D01*
X115194554Y-87532578D01*
X115276557Y-87583959D01*
X115281584Y-87588700D01*
X115297896Y-87601691D01*
X115303652Y-87605537D01*
X115372110Y-87673995D01*
X115374689Y-87676499D01*
X115445090Y-87742889D01*
X115449095Y-87748519D01*
X115462559Y-87764444D01*
X115467459Y-87769344D01*
X115521244Y-87849839D01*
X115523291Y-87852807D01*
X115579380Y-87931645D01*
X115582214Y-87937958D01*
X115592308Y-87956193D01*
X115596158Y-87961955D01*
X115633220Y-88051430D01*
X115634624Y-88054685D01*
X115674265Y-88142973D01*
X115675815Y-88149725D01*
X115682152Y-88169562D01*
X115684807Y-88175973D01*
X115703692Y-88270917D01*
X115704438Y-88274401D01*
X115726098Y-88368751D01*
X115726098Y-88368754D01*
X115726300Y-88375654D01*
X115728647Y-88396370D01*
X115730000Y-88403174D01*
X115730000Y-88499986D01*
X115730053Y-88503584D01*
X115731188Y-88542277D01*
X115730295Y-88555225D01*
X115730000Y-88563797D01*
X115730000Y-88634826D01*
X115724081Y-88664585D01*
X115723604Y-88666979D01*
X115721500Y-88682750D01*
X115683238Y-89237545D01*
X115654376Y-89408730D01*
X115572038Y-89625255D01*
X115449041Y-89821557D01*
X115290111Y-89990090D01*
X115101355Y-90124380D01*
X114890027Y-90219265D01*
X114664249Y-90271098D01*
X114432698Y-90277889D01*
X114432697Y-90277889D01*
X114387012Y-90270186D01*
X114204270Y-90239376D01*
X113987745Y-90157038D01*
X113791443Y-90034041D01*
X113622910Y-89875111D01*
X113488620Y-89686355D01*
X113393735Y-89475027D01*
X113341902Y-89249249D01*
X113336812Y-89075723D01*
X113377704Y-88482794D01*
X113378000Y-88474196D01*
X113378000Y-88403175D01*
X113396882Y-88308250D01*
X113397544Y-88304645D01*
X113403231Y-88270917D01*
X113413624Y-88209270D01*
X113416085Y-88202799D01*
X113421842Y-88182767D01*
X113423193Y-88175974D01*
X113423193Y-88175973D01*
X113460264Y-88086476D01*
X113461553Y-88083230D01*
X113495962Y-87992745D01*
X113499636Y-87986881D01*
X113509187Y-87968365D01*
X113511842Y-87961955D01*
X113565657Y-87881415D01*
X113567577Y-87878449D01*
X113618959Y-87796443D01*
X113623711Y-87791404D01*
X113636689Y-87775107D01*
X113640537Y-87769348D01*
X113708993Y-87700892D01*
X113711546Y-87698262D01*
X113732023Y-87676548D01*
X113777889Y-87627910D01*
X113783521Y-87623903D01*
X113799447Y-87610438D01*
X113804346Y-87605539D01*
X113884824Y-87551766D01*
X113887806Y-87549710D01*
X113966645Y-87493620D01*
X113972955Y-87490787D01*
X113991194Y-87480691D01*
X113996951Y-87476844D01*
X113996954Y-87476843D01*
X113996955Y-87476842D01*
X114086429Y-87439781D01*
X114089687Y-87438375D01*
X114177973Y-87398735D01*
X114184725Y-87397185D01*
X114204562Y-87390848D01*
X114210973Y-87388193D01*
X114305899Y-87369311D01*
X114309446Y-87368551D01*
X114403751Y-87346901D01*
X114406130Y-87346831D01*
X114410665Y-87346698D01*
X114431381Y-87344351D01*
X114438174Y-87343000D01*
X114534959Y-87343000D01*
X114538584Y-87342947D01*
X114635302Y-87340110D01*
X114642127Y-87341261D01*
X114642127Y-87341261D01*
G37*
G36*
X95592127Y-87341261D02*
G01*
X95612900Y-87343000D01*
X95619827Y-87343000D01*
X95714754Y-87361882D01*
X95718348Y-87362542D01*
X95813730Y-87378624D01*
X95820203Y-87381085D01*
X95840228Y-87386841D01*
X95847027Y-87388193D01*
X95909414Y-87414034D01*
X95936443Y-87425230D01*
X95939844Y-87426581D01*
X96030255Y-87460961D01*
X96036127Y-87464640D01*
X96054636Y-87474187D01*
X96061045Y-87476842D01*
X96141563Y-87530642D01*
X96144554Y-87532578D01*
X96226557Y-87583959D01*
X96231584Y-87588700D01*
X96247896Y-87601691D01*
X96253652Y-87605537D01*
X96322110Y-87673995D01*
X96324689Y-87676499D01*
X96395090Y-87742889D01*
X96399095Y-87748519D01*
X96412559Y-87764444D01*
X96417459Y-87769344D01*
X96471244Y-87849839D01*
X96473291Y-87852807D01*
X96529380Y-87931645D01*
X96532214Y-87937958D01*
X96542308Y-87956193D01*
X96546158Y-87961955D01*
X96583220Y-88051430D01*
X96584624Y-88054685D01*
X96624265Y-88142973D01*
X96625815Y-88149725D01*
X96632152Y-88169562D01*
X96634807Y-88175973D01*
X96653692Y-88270917D01*
X96654438Y-88274401D01*
X96676098Y-88368751D01*
X96676098Y-88368754D01*
X96676300Y-88375654D01*
X96678647Y-88396370D01*
X96680000Y-88403174D01*
X96680000Y-88499986D01*
X96680053Y-88503584D01*
X96681188Y-88542277D01*
X96680295Y-88555225D01*
X96680000Y-88563797D01*
X96680000Y-88634826D01*
X96674081Y-88664585D01*
X96673604Y-88666979D01*
X96671500Y-88682750D01*
X96633238Y-89237545D01*
X96604376Y-89408730D01*
X96522038Y-89625255D01*
X96399041Y-89821557D01*
X96240111Y-89990090D01*
X96051355Y-90124380D01*
X95840027Y-90219265D01*
X95614249Y-90271098D01*
X95382698Y-90277889D01*
X95382697Y-90277889D01*
X95337012Y-90270186D01*
X95154270Y-90239376D01*
X94937745Y-90157038D01*
X94741443Y-90034041D01*
X94572910Y-89875111D01*
X94438620Y-89686355D01*
X94343735Y-89475027D01*
X94291902Y-89249249D01*
X94286812Y-89075723D01*
X94327704Y-88482794D01*
X94328000Y-88474196D01*
X94328000Y-88403175D01*
X94346882Y-88308250D01*
X94347544Y-88304645D01*
X94353231Y-88270917D01*
X94363624Y-88209270D01*
X94366085Y-88202799D01*
X94371842Y-88182767D01*
X94373193Y-88175974D01*
X94373193Y-88175973D01*
X94410264Y-88086476D01*
X94411553Y-88083230D01*
X94445962Y-87992745D01*
X94449636Y-87986881D01*
X94459187Y-87968365D01*
X94461842Y-87961955D01*
X94515657Y-87881415D01*
X94517577Y-87878449D01*
X94568959Y-87796443D01*
X94573711Y-87791404D01*
X94586689Y-87775107D01*
X94590537Y-87769348D01*
X94658993Y-87700892D01*
X94661546Y-87698262D01*
X94682023Y-87676548D01*
X94727889Y-87627910D01*
X94733521Y-87623903D01*
X94749447Y-87610438D01*
X94754346Y-87605539D01*
X94834824Y-87551766D01*
X94837806Y-87549710D01*
X94916645Y-87493620D01*
X94922955Y-87490787D01*
X94941194Y-87480691D01*
X94946951Y-87476844D01*
X94946954Y-87476843D01*
X94946955Y-87476842D01*
X95036429Y-87439781D01*
X95039687Y-87438375D01*
X95127973Y-87398735D01*
X95134725Y-87397185D01*
X95154562Y-87390848D01*
X95160973Y-87388193D01*
X95255899Y-87369311D01*
X95259446Y-87368551D01*
X95353751Y-87346901D01*
X95356130Y-87346831D01*
X95360665Y-87346698D01*
X95381381Y-87344351D01*
X95388174Y-87343000D01*
X95484959Y-87343000D01*
X95488584Y-87342947D01*
X95585302Y-87340110D01*
X95592127Y-87341261D01*
X95592127Y-87341261D01*
G37*
G36*
X59856468Y-86756565D02*
G01*
X59895138Y-86768296D01*
X59930777Y-86787346D01*
X59962017Y-86812983D01*
X59987654Y-86844223D01*
X60006704Y-86879862D01*
X60018435Y-86918532D01*
X60023000Y-86964888D01*
X60023000Y-88041112D01*
X60018435Y-88087468D01*
X60006704Y-88126138D01*
X59987654Y-88161777D01*
X59962017Y-88193017D01*
X59930777Y-88218654D01*
X59895138Y-88237704D01*
X59856468Y-88249435D01*
X59810112Y-88254000D01*
X59158888Y-88254000D01*
X59112532Y-88249435D01*
X59073862Y-88237704D01*
X59038223Y-88218654D01*
X59006983Y-88193017D01*
X58981346Y-88161777D01*
X58962296Y-88126138D01*
X58950565Y-88087468D01*
X58946000Y-88041112D01*
X58946000Y-86964888D01*
X58950565Y-86918532D01*
X58962296Y-86879862D01*
X58981346Y-86844223D01*
X59006983Y-86812983D01*
X59038223Y-86787346D01*
X59073862Y-86768296D01*
X59112532Y-86756565D01*
X59158888Y-86752000D01*
X59810112Y-86752000D01*
X59856468Y-86756565D01*
X59856468Y-86756565D01*
G37*
G36*
X57981468Y-86756565D02*
G01*
X58020138Y-86768296D01*
X58055777Y-86787346D01*
X58087017Y-86812983D01*
X58112654Y-86844223D01*
X58131704Y-86879862D01*
X58143435Y-86918532D01*
X58148000Y-86964888D01*
X58148000Y-88041112D01*
X58143435Y-88087468D01*
X58131704Y-88126138D01*
X58112654Y-88161777D01*
X58087017Y-88193017D01*
X58055777Y-88218654D01*
X58020138Y-88237704D01*
X57981468Y-88249435D01*
X57935112Y-88254000D01*
X57283888Y-88254000D01*
X57237532Y-88249435D01*
X57198862Y-88237704D01*
X57163223Y-88218654D01*
X57131983Y-88193017D01*
X57106346Y-88161777D01*
X57087296Y-88126138D01*
X57075565Y-88087468D01*
X57071000Y-88041112D01*
X57071000Y-86964888D01*
X57075565Y-86918532D01*
X57087296Y-86879862D01*
X57106346Y-86844223D01*
X57131983Y-86812983D01*
X57163223Y-86787346D01*
X57198862Y-86768296D01*
X57237532Y-86756565D01*
X57283888Y-86752000D01*
X57935112Y-86752000D01*
X57981468Y-86756565D01*
X57981468Y-86756565D01*
G37*
G36*
X81102468Y-83256065D02*
G01*
X81141138Y-83267796D01*
X81176777Y-83286846D01*
X81208017Y-83312483D01*
X81233654Y-83343723D01*
X81252704Y-83379362D01*
X81264435Y-83418032D01*
X81269000Y-83464388D01*
X81269000Y-84115612D01*
X81264435Y-84161968D01*
X81252704Y-84200638D01*
X81233654Y-84236277D01*
X81208017Y-84267517D01*
X81176777Y-84293154D01*
X81141138Y-84312204D01*
X81102468Y-84323935D01*
X81056112Y-84328500D01*
X79979888Y-84328500D01*
X79933532Y-84323935D01*
X79894862Y-84312204D01*
X79859223Y-84293154D01*
X79827983Y-84267517D01*
X79802346Y-84236277D01*
X79783296Y-84200638D01*
X79771565Y-84161968D01*
X79767000Y-84115612D01*
X79767000Y-83464388D01*
X79771565Y-83418032D01*
X79783296Y-83379362D01*
X79802346Y-83343723D01*
X79827983Y-83312483D01*
X79859223Y-83286846D01*
X79894862Y-83267796D01*
X79933532Y-83256065D01*
X79979888Y-83251500D01*
X81056112Y-83251500D01*
X81102468Y-83256065D01*
X81102468Y-83256065D01*
G37*
G36*
X75065000Y-83112000D02*
G01*
X66413000Y-83112000D01*
X66413000Y-81510000D01*
X75065000Y-81510000D01*
X75065000Y-83112000D01*
X75065000Y-83112000D01*
G37*
G36*
X81102468Y-81381065D02*
G01*
X81141138Y-81392796D01*
X81176777Y-81411846D01*
X81208017Y-81437483D01*
X81233654Y-81468723D01*
X81252704Y-81504362D01*
X81264435Y-81543032D01*
X81269000Y-81589388D01*
X81269000Y-82240612D01*
X81264435Y-82286968D01*
X81252704Y-82325638D01*
X81233654Y-82361277D01*
X81208017Y-82392517D01*
X81176777Y-82418154D01*
X81141138Y-82437204D01*
X81102468Y-82448935D01*
X81056112Y-82453500D01*
X79979888Y-82453500D01*
X79933532Y-82448935D01*
X79894862Y-82437204D01*
X79859223Y-82418154D01*
X79827983Y-82392517D01*
X79802346Y-82361277D01*
X79783296Y-82325638D01*
X79771565Y-82286968D01*
X79767000Y-82240612D01*
X79767000Y-81589388D01*
X79771565Y-81543032D01*
X79783296Y-81504362D01*
X79802346Y-81468723D01*
X79827983Y-81437483D01*
X79859223Y-81411846D01*
X79894862Y-81392796D01*
X79933532Y-81381065D01*
X79979888Y-81376500D01*
X81056112Y-81376500D01*
X81102468Y-81381065D01*
X81102468Y-81381065D01*
G37*
G36*
X59843468Y-80006565D02*
G01*
X59882138Y-80018296D01*
X59917777Y-80037346D01*
X59949017Y-80062983D01*
X59974654Y-80094223D01*
X59993704Y-80129862D01*
X60005435Y-80168532D01*
X60010000Y-80214888D01*
X60010000Y-80866112D01*
X60005435Y-80912468D01*
X59993704Y-80951138D01*
X59974654Y-80986777D01*
X59949017Y-81018017D01*
X59917777Y-81043654D01*
X59882138Y-81062704D01*
X59843468Y-81074435D01*
X59797112Y-81079000D01*
X58720888Y-81079000D01*
X58674532Y-81074435D01*
X58635862Y-81062704D01*
X58600223Y-81043654D01*
X58568983Y-81018017D01*
X58543346Y-80986777D01*
X58524296Y-80951138D01*
X58512565Y-80912468D01*
X58508000Y-80866112D01*
X58508000Y-80214888D01*
X58512565Y-80168532D01*
X58524296Y-80129862D01*
X58543346Y-80094223D01*
X58568983Y-80062983D01*
X58600223Y-80037346D01*
X58635862Y-80018296D01*
X58674532Y-80006565D01*
X58720888Y-80002000D01*
X59797112Y-80002000D01*
X59843468Y-80006565D01*
X59843468Y-80006565D01*
G37*
G36*
X63399468Y-79958065D02*
G01*
X63438138Y-79969796D01*
X63473777Y-79988846D01*
X63505017Y-80014483D01*
X63530654Y-80045723D01*
X63549704Y-80081362D01*
X63561435Y-80120032D01*
X63566000Y-80166388D01*
X63566000Y-80817612D01*
X63561435Y-80863968D01*
X63549704Y-80902638D01*
X63530654Y-80938277D01*
X63505017Y-80969517D01*
X63473777Y-80995154D01*
X63438138Y-81014204D01*
X63399468Y-81025935D01*
X63353112Y-81030500D01*
X62276888Y-81030500D01*
X62230532Y-81025935D01*
X62191862Y-81014204D01*
X62156223Y-80995154D01*
X62124983Y-80969517D01*
X62099346Y-80938277D01*
X62080296Y-80902638D01*
X62068565Y-80863968D01*
X62064000Y-80817612D01*
X62064000Y-80166388D01*
X62068565Y-80120032D01*
X62080296Y-80081362D01*
X62099346Y-80045723D01*
X62124983Y-80014483D01*
X62156223Y-79988846D01*
X62191862Y-79969796D01*
X62230532Y-79958065D01*
X62276888Y-79953500D01*
X63353112Y-79953500D01*
X63399468Y-79958065D01*
X63399468Y-79958065D01*
G37*
G36*
X110870425Y-78630988D02*
G01*
X111036710Y-78664063D01*
X111219336Y-78739709D01*
X111383694Y-78849530D01*
X111523470Y-78989306D01*
X111633291Y-79153664D01*
X111708937Y-79336290D01*
X111747500Y-79530164D01*
X111747500Y-79727836D01*
X111708937Y-79921710D01*
X111633291Y-80104336D01*
X111523470Y-80268694D01*
X111383694Y-80408470D01*
X111219336Y-80518291D01*
X111036710Y-80593937D01*
X110870425Y-80627012D01*
X110842837Y-80632500D01*
X110645163Y-80632500D01*
X110617575Y-80627012D01*
X110451290Y-80593937D01*
X110268664Y-80518291D01*
X110104306Y-80408470D01*
X109964530Y-80268694D01*
X109854709Y-80104336D01*
X109779063Y-79921710D01*
X109740500Y-79727836D01*
X109740500Y-79530164D01*
X109779063Y-79336290D01*
X109854709Y-79153664D01*
X109964530Y-78989306D01*
X110104306Y-78849530D01*
X110268664Y-78739709D01*
X110451290Y-78664063D01*
X110617575Y-78630988D01*
X110645163Y-78625500D01*
X110842837Y-78625500D01*
X110870425Y-78630988D01*
X110870425Y-78630988D01*
G37*
G36*
X91820425Y-78630988D02*
G01*
X91986710Y-78664063D01*
X92169336Y-78739709D01*
X92333694Y-78849530D01*
X92473470Y-78989306D01*
X92583291Y-79153664D01*
X92658937Y-79336290D01*
X92697500Y-79530164D01*
X92697500Y-79727836D01*
X92658937Y-79921710D01*
X92583291Y-80104336D01*
X92473470Y-80268694D01*
X92333694Y-80408470D01*
X92169336Y-80518291D01*
X91986710Y-80593937D01*
X91820425Y-80627012D01*
X91792837Y-80632500D01*
X91595163Y-80632500D01*
X91567575Y-80627012D01*
X91401290Y-80593937D01*
X91218664Y-80518291D01*
X91054306Y-80408470D01*
X90914530Y-80268694D01*
X90804709Y-80104336D01*
X90729063Y-79921710D01*
X90690500Y-79727836D01*
X90690500Y-79530164D01*
X90729063Y-79336290D01*
X90804709Y-79153664D01*
X90914530Y-78989306D01*
X91054306Y-78849530D01*
X91218664Y-78739709D01*
X91401290Y-78664063D01*
X91567575Y-78630988D01*
X91595163Y-78625500D01*
X91792837Y-78625500D01*
X91820425Y-78630988D01*
X91820425Y-78630988D01*
G37*
G36*
X114287500Y-80632500D02*
G01*
X112280500Y-80632500D01*
X112280500Y-78625500D01*
X114287500Y-78625500D01*
X114287500Y-80632500D01*
X114287500Y-80632500D01*
G37*
G36*
X95237500Y-80632500D02*
G01*
X93230500Y-80632500D01*
X93230500Y-78625500D01*
X95237500Y-78625500D01*
X95237500Y-80632500D01*
X95237500Y-80632500D01*
G37*
G36*
X45218604Y-79087347D02*
G01*
X45255144Y-79098432D01*
X45288821Y-79116433D01*
X45318341Y-79140659D01*
X45342567Y-79170179D01*
X45360568Y-79203856D01*
X45371653Y-79240396D01*
X45376000Y-79284538D01*
X45376000Y-80233462D01*
X45371653Y-80277604D01*
X45360568Y-80314144D01*
X45342567Y-80347821D01*
X45318341Y-80377341D01*
X45288821Y-80401567D01*
X45255144Y-80419568D01*
X45218604Y-80430653D01*
X45174462Y-80435000D01*
X43725538Y-80435000D01*
X43681396Y-80430653D01*
X43644856Y-80419568D01*
X43611179Y-80401567D01*
X43581659Y-80377341D01*
X43557433Y-80347821D01*
X43539432Y-80314144D01*
X43528347Y-80277604D01*
X43524000Y-80233462D01*
X43524000Y-79284538D01*
X43528347Y-79240396D01*
X43539432Y-79203856D01*
X43557433Y-79170179D01*
X43581659Y-79140659D01*
X43611179Y-79116433D01*
X43644856Y-79098432D01*
X43681396Y-79087347D01*
X43725538Y-79083000D01*
X45174462Y-79083000D01*
X45218604Y-79087347D01*
X45218604Y-79087347D01*
G37*
G36*
X59843468Y-78131565D02*
G01*
X59882138Y-78143296D01*
X59917777Y-78162346D01*
X59949017Y-78187983D01*
X59974654Y-78219223D01*
X59993704Y-78254862D01*
X60005435Y-78293532D01*
X60010000Y-78339888D01*
X60010000Y-78991112D01*
X60005435Y-79037468D01*
X59993704Y-79076138D01*
X59974654Y-79111777D01*
X59949017Y-79143017D01*
X59917777Y-79168654D01*
X59882138Y-79187704D01*
X59843468Y-79199435D01*
X59797112Y-79204000D01*
X58720888Y-79204000D01*
X58674532Y-79199435D01*
X58635862Y-79187704D01*
X58600223Y-79168654D01*
X58568983Y-79143017D01*
X58543346Y-79111777D01*
X58524296Y-79076138D01*
X58512565Y-79037468D01*
X58508000Y-78991112D01*
X58508000Y-78339888D01*
X58512565Y-78293532D01*
X58524296Y-78254862D01*
X58543346Y-78219223D01*
X58568983Y-78187983D01*
X58600223Y-78162346D01*
X58635862Y-78143296D01*
X58674532Y-78131565D01*
X58720888Y-78127000D01*
X59797112Y-78127000D01*
X59843468Y-78131565D01*
X59843468Y-78131565D01*
G37*
G36*
X63399468Y-78083065D02*
G01*
X63438138Y-78094796D01*
X63473777Y-78113846D01*
X63505017Y-78139483D01*
X63530654Y-78170723D01*
X63549704Y-78206362D01*
X63561435Y-78245032D01*
X63566000Y-78291388D01*
X63566000Y-78942612D01*
X63561435Y-78988968D01*
X63549704Y-79027638D01*
X63530654Y-79063277D01*
X63505017Y-79094517D01*
X63473777Y-79120154D01*
X63438138Y-79139204D01*
X63399468Y-79150935D01*
X63353112Y-79155500D01*
X62276888Y-79155500D01*
X62230532Y-79150935D01*
X62191862Y-79139204D01*
X62156223Y-79120154D01*
X62124983Y-79094517D01*
X62099346Y-79063277D01*
X62080296Y-79027638D01*
X62068565Y-78988968D01*
X62064000Y-78942612D01*
X62064000Y-78291388D01*
X62068565Y-78245032D01*
X62080296Y-78206362D01*
X62099346Y-78170723D01*
X62124983Y-78139483D01*
X62156223Y-78113846D01*
X62191862Y-78094796D01*
X62230532Y-78083065D01*
X62276888Y-78078500D01*
X63353112Y-78078500D01*
X63399468Y-78083065D01*
X63399468Y-78083065D01*
G37*
G36*
X45218604Y-76287347D02*
G01*
X45255144Y-76298432D01*
X45288821Y-76316433D01*
X45318341Y-76340659D01*
X45342567Y-76370179D01*
X45360568Y-76403856D01*
X45371653Y-76440396D01*
X45376000Y-76484538D01*
X45376000Y-77433462D01*
X45371653Y-77477604D01*
X45360568Y-77514144D01*
X45342567Y-77547821D01*
X45318341Y-77577341D01*
X45288821Y-77601567D01*
X45255144Y-77619568D01*
X45218604Y-77630653D01*
X45174462Y-77635000D01*
X43725538Y-77635000D01*
X43681396Y-77630653D01*
X43644856Y-77619568D01*
X43611179Y-77601567D01*
X43581659Y-77577341D01*
X43557433Y-77547821D01*
X43539432Y-77514144D01*
X43528347Y-77477604D01*
X43524000Y-77433462D01*
X43524000Y-76484538D01*
X43528347Y-76440396D01*
X43539432Y-76403856D01*
X43557433Y-76370179D01*
X43581659Y-76340659D01*
X43611179Y-76316433D01*
X43644856Y-76298432D01*
X43681396Y-76287347D01*
X43725538Y-76283000D01*
X45174462Y-76283000D01*
X45218604Y-76287347D01*
X45218604Y-76287347D01*
G37*
G36*
X72721000Y-77471000D02*
G01*
X71219000Y-77471000D01*
X71219000Y-76169000D01*
X72721000Y-76169000D01*
X72721000Y-77471000D01*
X72721000Y-77471000D01*
G37*
G36*
X70521000Y-77471000D02*
G01*
X69019000Y-77471000D01*
X69019000Y-76169000D01*
X70521000Y-76169000D01*
X70521000Y-77471000D01*
X70521000Y-77471000D01*
G37*
G36*
X65925968Y-76381315D02*
G01*
X65964638Y-76393046D01*
X66000277Y-76412096D01*
X66031517Y-76437733D01*
X66057154Y-76468973D01*
X66076204Y-76504612D01*
X66087935Y-76543282D01*
X66092500Y-76589638D01*
X66092500Y-77240862D01*
X66087935Y-77287218D01*
X66076204Y-77325888D01*
X66057154Y-77361527D01*
X66031517Y-77392767D01*
X66000277Y-77418404D01*
X65964638Y-77437454D01*
X65925968Y-77449185D01*
X65879612Y-77453750D01*
X64803388Y-77453750D01*
X64757032Y-77449185D01*
X64718362Y-77437454D01*
X64682723Y-77418404D01*
X64651483Y-77392767D01*
X64625846Y-77361527D01*
X64606796Y-77325888D01*
X64595065Y-77287218D01*
X64590500Y-77240862D01*
X64590500Y-76589638D01*
X64595065Y-76543282D01*
X64606796Y-76504612D01*
X64625846Y-76468973D01*
X64651483Y-76437733D01*
X64682723Y-76412096D01*
X64718362Y-76393046D01*
X64757032Y-76381315D01*
X64803388Y-76376750D01*
X65879612Y-76376750D01*
X65925968Y-76381315D01*
X65925968Y-76381315D01*
G37*
G36*
X77038468Y-76381315D02*
G01*
X77077138Y-76393046D01*
X77112777Y-76412096D01*
X77144017Y-76437733D01*
X77169654Y-76468973D01*
X77188704Y-76504612D01*
X77200435Y-76543282D01*
X77205000Y-76589638D01*
X77205000Y-77240862D01*
X77200435Y-77287218D01*
X77188704Y-77325888D01*
X77169654Y-77361527D01*
X77144017Y-77392767D01*
X77112777Y-77418404D01*
X77077138Y-77437454D01*
X77038468Y-77449185D01*
X76992112Y-77453750D01*
X75915888Y-77453750D01*
X75869532Y-77449185D01*
X75830862Y-77437454D01*
X75795223Y-77418404D01*
X75763983Y-77392767D01*
X75738346Y-77361527D01*
X75719296Y-77325888D01*
X75707565Y-77287218D01*
X75703000Y-77240862D01*
X75703000Y-76589638D01*
X75707565Y-76543282D01*
X75719296Y-76504612D01*
X75738346Y-76468973D01*
X75763983Y-76437733D01*
X75795223Y-76412096D01*
X75830862Y-76393046D01*
X75869532Y-76381315D01*
X75915888Y-76376750D01*
X76992112Y-76376750D01*
X77038468Y-76381315D01*
X77038468Y-76381315D01*
G37*
G36*
X112610474Y-72582684D02*
G01*
X112828474Y-72672983D01*
X112982623Y-72736833D01*
X113317548Y-72960623D01*
X113602377Y-73245452D01*
X113826167Y-73580377D01*
X113858562Y-73658586D01*
X113980316Y-73952526D01*
X114058900Y-74347594D01*
X114058900Y-74750406D01*
X113980316Y-75145474D01*
X113929451Y-75268272D01*
X113826167Y-75517623D01*
X113602377Y-75852548D01*
X113317548Y-76137377D01*
X112982623Y-76361167D01*
X112879562Y-76403856D01*
X112610474Y-76515316D01*
X112215406Y-76593900D01*
X111812594Y-76593900D01*
X111417526Y-76515316D01*
X111148438Y-76403856D01*
X111045377Y-76361167D01*
X110710452Y-76137377D01*
X110425623Y-75852548D01*
X110201833Y-75517623D01*
X110098549Y-75268272D01*
X110047684Y-75145474D01*
X109969100Y-74750406D01*
X109969100Y-74347594D01*
X110047684Y-73952526D01*
X110169438Y-73658586D01*
X110201833Y-73580377D01*
X110425623Y-73245452D01*
X110710452Y-72960623D01*
X111045377Y-72736833D01*
X111199526Y-72672983D01*
X111417526Y-72582684D01*
X111812594Y-72504100D01*
X112215406Y-72504100D01*
X112610474Y-72582684D01*
X112610474Y-72582684D01*
G37*
G36*
X93560474Y-72582684D02*
G01*
X93778474Y-72672983D01*
X93932623Y-72736833D01*
X94267548Y-72960623D01*
X94552377Y-73245452D01*
X94776167Y-73580377D01*
X94808562Y-73658586D01*
X94930316Y-73952526D01*
X95008900Y-74347594D01*
X95008900Y-74750406D01*
X94930316Y-75145474D01*
X94879451Y-75268272D01*
X94776167Y-75517623D01*
X94552377Y-75852548D01*
X94267548Y-76137377D01*
X93932623Y-76361167D01*
X93829562Y-76403856D01*
X93560474Y-76515316D01*
X93165406Y-76593900D01*
X92762594Y-76593900D01*
X92367526Y-76515316D01*
X92098438Y-76403856D01*
X91995377Y-76361167D01*
X91660452Y-76137377D01*
X91375623Y-75852548D01*
X91151833Y-75517623D01*
X91048549Y-75268272D01*
X90997684Y-75145474D01*
X90919100Y-74750406D01*
X90919100Y-74347594D01*
X90997684Y-73952526D01*
X91119438Y-73658586D01*
X91151833Y-73580377D01*
X91375623Y-73245452D01*
X91660452Y-72960623D01*
X91995377Y-72736833D01*
X92149526Y-72672983D01*
X92367526Y-72582684D01*
X92762594Y-72504100D01*
X93165406Y-72504100D01*
X93560474Y-72582684D01*
X93560474Y-72582684D01*
G37*
G36*
X101997000Y-76573000D02*
G01*
X100695000Y-76573000D01*
X100695000Y-75571000D01*
X101997000Y-75571000D01*
X101997000Y-76573000D01*
X101997000Y-76573000D01*
G37*
G36*
X121174000Y-76446000D02*
G01*
X119872000Y-76446000D01*
X119872000Y-75444000D01*
X121174000Y-75444000D01*
X121174000Y-76446000D01*
X121174000Y-76446000D01*
G37*
G36*
X72721000Y-75771000D02*
G01*
X71219000Y-75771000D01*
X71219000Y-74469000D01*
X72721000Y-74469000D01*
X72721000Y-75771000D01*
X72721000Y-75771000D01*
G37*
G36*
X70521000Y-75771000D02*
G01*
X69019000Y-75771000D01*
X69019000Y-74469000D01*
X70521000Y-74469000D01*
X70521000Y-75771000D01*
X70521000Y-75771000D01*
G37*
G36*
X65925968Y-74506315D02*
G01*
X65964638Y-74518046D01*
X66000277Y-74537096D01*
X66031517Y-74562733D01*
X66057154Y-74593973D01*
X66076204Y-74629612D01*
X66087935Y-74668282D01*
X66092500Y-74714638D01*
X66092500Y-75365862D01*
X66087935Y-75412218D01*
X66076204Y-75450888D01*
X66057154Y-75486527D01*
X66031517Y-75517767D01*
X66000277Y-75543404D01*
X65964638Y-75562454D01*
X65925968Y-75574185D01*
X65879612Y-75578750D01*
X64803388Y-75578750D01*
X64757032Y-75574185D01*
X64718362Y-75562454D01*
X64682723Y-75543404D01*
X64651483Y-75517767D01*
X64625846Y-75486527D01*
X64606796Y-75450888D01*
X64595065Y-75412218D01*
X64590500Y-75365862D01*
X64590500Y-74714638D01*
X64595065Y-74668282D01*
X64606796Y-74629612D01*
X64625846Y-74593973D01*
X64651483Y-74562733D01*
X64682723Y-74537096D01*
X64718362Y-74518046D01*
X64757032Y-74506315D01*
X64803388Y-74501750D01*
X65879612Y-74501750D01*
X65925968Y-74506315D01*
X65925968Y-74506315D01*
G37*
G36*
X77038468Y-74506315D02*
G01*
X77077138Y-74518046D01*
X77112777Y-74537096D01*
X77144017Y-74562733D01*
X77169654Y-74593973D01*
X77188704Y-74629612D01*
X77200435Y-74668282D01*
X77205000Y-74714638D01*
X77205000Y-75365862D01*
X77200435Y-75412218D01*
X77188704Y-75450888D01*
X77169654Y-75486527D01*
X77144017Y-75517767D01*
X77112777Y-75543404D01*
X77077138Y-75562454D01*
X77038468Y-75574185D01*
X76992112Y-75578750D01*
X75915888Y-75578750D01*
X75869532Y-75574185D01*
X75830862Y-75562454D01*
X75795223Y-75543404D01*
X75763983Y-75517767D01*
X75738346Y-75486527D01*
X75719296Y-75450888D01*
X75707565Y-75412218D01*
X75703000Y-75365862D01*
X75703000Y-74714638D01*
X75707565Y-74668282D01*
X75719296Y-74629612D01*
X75738346Y-74593973D01*
X75763983Y-74562733D01*
X75795223Y-74537096D01*
X75830862Y-74518046D01*
X75869532Y-74506315D01*
X75915888Y-74501750D01*
X76992112Y-74501750D01*
X77038468Y-74506315D01*
X77038468Y-74506315D01*
G37*
G36*
X98314104Y-73658585D02*
G01*
X98482626Y-73728389D01*
X98634291Y-73829728D01*
X98763272Y-73958709D01*
X98864611Y-74110374D01*
X98934415Y-74278896D01*
X98970000Y-74457797D01*
X98970000Y-74640203D01*
X98934415Y-74819104D01*
X98864611Y-74987626D01*
X98763272Y-75139291D01*
X98634291Y-75268272D01*
X98482626Y-75369611D01*
X98314104Y-75439415D01*
X98135203Y-75475000D01*
X97952797Y-75475000D01*
X97773896Y-75439415D01*
X97605374Y-75369611D01*
X97453709Y-75268272D01*
X97324728Y-75139291D01*
X97223389Y-74987626D01*
X97153585Y-74819104D01*
X97118000Y-74640203D01*
X97118000Y-74457797D01*
X97153585Y-74278896D01*
X97223389Y-74110374D01*
X97324728Y-73958709D01*
X97453709Y-73829728D01*
X97605374Y-73728389D01*
X97773896Y-73658585D01*
X97952797Y-73623000D01*
X98135203Y-73623000D01*
X98314104Y-73658585D01*
X98314104Y-73658585D01*
G37*
G36*
X88154104Y-73658585D02*
G01*
X88322626Y-73728389D01*
X88474291Y-73829728D01*
X88603272Y-73958709D01*
X88704611Y-74110374D01*
X88774415Y-74278896D01*
X88810000Y-74457797D01*
X88810000Y-74640203D01*
X88774415Y-74819104D01*
X88704611Y-74987626D01*
X88603272Y-75139291D01*
X88474291Y-75268272D01*
X88322626Y-75369611D01*
X88154104Y-75439415D01*
X87975203Y-75475000D01*
X87792797Y-75475000D01*
X87613896Y-75439415D01*
X87445374Y-75369611D01*
X87293709Y-75268272D01*
X87164728Y-75139291D01*
X87063389Y-74987626D01*
X86993585Y-74819104D01*
X86958000Y-74640203D01*
X86958000Y-74457797D01*
X86993585Y-74278896D01*
X87063389Y-74110374D01*
X87164728Y-73958709D01*
X87293709Y-73829728D01*
X87445374Y-73728389D01*
X87613896Y-73658585D01*
X87792797Y-73623000D01*
X87975203Y-73623000D01*
X88154104Y-73658585D01*
X88154104Y-73658585D01*
G37*
G36*
X117364104Y-73658585D02*
G01*
X117532626Y-73728389D01*
X117684291Y-73829728D01*
X117813272Y-73958709D01*
X117914611Y-74110374D01*
X117984415Y-74278896D01*
X118020000Y-74457797D01*
X118020000Y-74640203D01*
X117984415Y-74819104D01*
X117914611Y-74987626D01*
X117813272Y-75139291D01*
X117684291Y-75268272D01*
X117532626Y-75369611D01*
X117364104Y-75439415D01*
X117185203Y-75475000D01*
X117002797Y-75475000D01*
X116823896Y-75439415D01*
X116655374Y-75369611D01*
X116503709Y-75268272D01*
X116374728Y-75139291D01*
X116273389Y-74987626D01*
X116203585Y-74819104D01*
X116168000Y-74640203D01*
X116168000Y-74457797D01*
X116203585Y-74278896D01*
X116273389Y-74110374D01*
X116374728Y-73958709D01*
X116503709Y-73829728D01*
X116655374Y-73728389D01*
X116823896Y-73658585D01*
X117002797Y-73623000D01*
X117185203Y-73623000D01*
X117364104Y-73658585D01*
X117364104Y-73658585D01*
G37*
G36*
X107204104Y-73658585D02*
G01*
X107372626Y-73728389D01*
X107524291Y-73829728D01*
X107653272Y-73958709D01*
X107754611Y-74110374D01*
X107824415Y-74278896D01*
X107860000Y-74457797D01*
X107860000Y-74640203D01*
X107824415Y-74819104D01*
X107754611Y-74987626D01*
X107653272Y-75139291D01*
X107524291Y-75268272D01*
X107372626Y-75369611D01*
X107204104Y-75439415D01*
X107025203Y-75475000D01*
X106842797Y-75475000D01*
X106663896Y-75439415D01*
X106495374Y-75369611D01*
X106343709Y-75268272D01*
X106214728Y-75139291D01*
X106113389Y-74987626D01*
X106043585Y-74819104D01*
X106008000Y-74640203D01*
X106008000Y-74457797D01*
X106043585Y-74278896D01*
X106113389Y-74110374D01*
X106214728Y-73958709D01*
X106343709Y-73829728D01*
X106495374Y-73728389D01*
X106663896Y-73658585D01*
X106842797Y-73623000D01*
X107025203Y-73623000D01*
X107204104Y-73658585D01*
X107204104Y-73658585D01*
G37*
G36*
X101997000Y-73273000D02*
G01*
X100695000Y-73273000D01*
X100695000Y-72271000D01*
X101997000Y-72271000D01*
X101997000Y-73273000D01*
X101997000Y-73273000D01*
G37*
G36*
X53204468Y-72136065D02*
G01*
X53243138Y-72147796D01*
X53278777Y-72166846D01*
X53310017Y-72192483D01*
X53335654Y-72223723D01*
X53354704Y-72259362D01*
X53366435Y-72298032D01*
X53371000Y-72344388D01*
X53371000Y-72995612D01*
X53366435Y-73041968D01*
X53354704Y-73080638D01*
X53335654Y-73116277D01*
X53310017Y-73147517D01*
X53278777Y-73173154D01*
X53243138Y-73192204D01*
X53204468Y-73203935D01*
X53158112Y-73208500D01*
X52081888Y-73208500D01*
X52035532Y-73203935D01*
X51996862Y-73192204D01*
X51961223Y-73173154D01*
X51929983Y-73147517D01*
X51904346Y-73116277D01*
X51885296Y-73080638D01*
X51873565Y-73041968D01*
X51869000Y-72995612D01*
X51869000Y-72344388D01*
X51873565Y-72298032D01*
X51885296Y-72259362D01*
X51904346Y-72223723D01*
X51929983Y-72192483D01*
X51961223Y-72166846D01*
X51996862Y-72147796D01*
X52035532Y-72136065D01*
X52081888Y-72131500D01*
X53158112Y-72131500D01*
X53204468Y-72136065D01*
X53204468Y-72136065D01*
G37*
G36*
X109537205Y-69372881D02*
G01*
X109542645Y-69373000D01*
X109629828Y-69373000D01*
X109646097Y-69376236D01*
X109664956Y-69378515D01*
X109681532Y-69379246D01*
X109766223Y-69400010D01*
X109771518Y-69401184D01*
X109857027Y-69418193D01*
X109872362Y-69424545D01*
X109890401Y-69430455D01*
X109906521Y-69434407D01*
X109985504Y-69471280D01*
X109990494Y-69473477D01*
X110071045Y-69506842D01*
X110084841Y-69516060D01*
X110101393Y-69525382D01*
X110116426Y-69532400D01*
X110186694Y-69583971D01*
X110191192Y-69587122D01*
X110263656Y-69635541D01*
X110275383Y-69647268D01*
X110289809Y-69659648D01*
X110303179Y-69669461D01*
X110303180Y-69669462D01*
X110362021Y-69733733D01*
X110365829Y-69737714D01*
X110427459Y-69799344D01*
X110436674Y-69813135D01*
X110448396Y-69828078D01*
X110459605Y-69840321D01*
X110504799Y-69914874D01*
X110507746Y-69919501D01*
X110556158Y-69991955D01*
X110562505Y-70007277D01*
X110571092Y-70024231D01*
X110579691Y-70038417D01*
X110609478Y-70120368D01*
X110611452Y-70125448D01*
X110644807Y-70205973D01*
X110644807Y-70205974D01*
X110648041Y-70222233D01*
X110653158Y-70240542D01*
X110658825Y-70256134D01*
X110672055Y-70342345D01*
X110673001Y-70347713D01*
X110690000Y-70433173D01*
X110690000Y-70449752D01*
X110691444Y-70468692D01*
X110693963Y-70485104D01*
X110690120Y-70572249D01*
X110690000Y-70577689D01*
X110690000Y-70664825D01*
X110686766Y-70681083D01*
X110684488Y-70699941D01*
X110683756Y-70716531D01*
X110662988Y-70801237D01*
X110661812Y-70806537D01*
X110644807Y-70892027D01*
X110638457Y-70907357D01*
X110632549Y-70925393D01*
X110628595Y-70941520D01*
X110591711Y-71020526D01*
X110589511Y-71025523D01*
X110556158Y-71106045D01*
X110546944Y-71119835D01*
X110537622Y-71136387D01*
X110530602Y-71151424D01*
X110479011Y-71221720D01*
X110475866Y-71226210D01*
X110427461Y-71298654D01*
X110370460Y-71355655D01*
X110365811Y-71360563D01*
X109934311Y-71841470D01*
X109040723Y-72837376D01*
X108912679Y-72954602D01*
X108851353Y-72991778D01*
X108714583Y-73074689D01*
X108496866Y-73153823D01*
X108267895Y-73188961D01*
X108036470Y-73178754D01*
X107811481Y-73123593D01*
X107706727Y-73074689D01*
X107601579Y-73025602D01*
X107504838Y-72954602D01*
X107414823Y-72888539D01*
X107340394Y-72807241D01*
X107258398Y-72717679D01*
X107176564Y-72582685D01*
X107138311Y-72519583D01*
X107059177Y-72301866D01*
X107024039Y-72072895D01*
X107034246Y-71841470D01*
X107089407Y-71616481D01*
X107140972Y-71506028D01*
X107187398Y-71406580D01*
X107187400Y-71406577D01*
X107290114Y-71266622D01*
X107991340Y-70485104D01*
X108576787Y-69832621D01*
X108587681Y-69818589D01*
X108600539Y-69799346D01*
X108657573Y-69742312D01*
X108662223Y-69737403D01*
X108677278Y-69720624D01*
X108698701Y-69701011D01*
X108702682Y-69697203D01*
X108764346Y-69635539D01*
X108778143Y-69626320D01*
X108793102Y-69614585D01*
X108805321Y-69603398D01*
X108837385Y-69583961D01*
X108879830Y-69558231D01*
X108884421Y-69555308D01*
X108956955Y-69506842D01*
X108972300Y-69500486D01*
X108989248Y-69491901D01*
X109003416Y-69483312D01*
X109003417Y-69483312D01*
X109003418Y-69483311D01*
X109085312Y-69453545D01*
X109090410Y-69451563D01*
X109170973Y-69418193D01*
X109187252Y-69414955D01*
X109205542Y-69409844D01*
X109221135Y-69404177D01*
X109307300Y-69390954D01*
X109312663Y-69390009D01*
X109398173Y-69373000D01*
X109414766Y-69373000D01*
X109433709Y-69371555D01*
X109450106Y-69369039D01*
X109537205Y-69372881D01*
X109537205Y-69372881D01*
G37*
G36*
X90487205Y-69372881D02*
G01*
X90492645Y-69373000D01*
X90579828Y-69373000D01*
X90596097Y-69376236D01*
X90614956Y-69378515D01*
X90631532Y-69379246D01*
X90716223Y-69400010D01*
X90721518Y-69401184D01*
X90807027Y-69418193D01*
X90822362Y-69424545D01*
X90840401Y-69430455D01*
X90856521Y-69434407D01*
X90935504Y-69471280D01*
X90940494Y-69473477D01*
X91021045Y-69506842D01*
X91034841Y-69516060D01*
X91051393Y-69525382D01*
X91066426Y-69532400D01*
X91136694Y-69583971D01*
X91141192Y-69587122D01*
X91213656Y-69635541D01*
X91225383Y-69647268D01*
X91239809Y-69659648D01*
X91253179Y-69669461D01*
X91253180Y-69669462D01*
X91312021Y-69733733D01*
X91315829Y-69737714D01*
X91377459Y-69799344D01*
X91386674Y-69813135D01*
X91398396Y-69828078D01*
X91409605Y-69840321D01*
X91454799Y-69914874D01*
X91457746Y-69919501D01*
X91506158Y-69991955D01*
X91512505Y-70007277D01*
X91521092Y-70024231D01*
X91529691Y-70038417D01*
X91559478Y-70120368D01*
X91561452Y-70125448D01*
X91594807Y-70205973D01*
X91594807Y-70205974D01*
X91598041Y-70222233D01*
X91603158Y-70240542D01*
X91608825Y-70256134D01*
X91622055Y-70342345D01*
X91623001Y-70347713D01*
X91640000Y-70433173D01*
X91640000Y-70449752D01*
X91641444Y-70468692D01*
X91643963Y-70485104D01*
X91640120Y-70572249D01*
X91640000Y-70577689D01*
X91640000Y-70664825D01*
X91636766Y-70681083D01*
X91634488Y-70699941D01*
X91633756Y-70716531D01*
X91612988Y-70801237D01*
X91611812Y-70806537D01*
X91594807Y-70892027D01*
X91588457Y-70907357D01*
X91582549Y-70925393D01*
X91578595Y-70941520D01*
X91541711Y-71020526D01*
X91539511Y-71025523D01*
X91506158Y-71106045D01*
X91496944Y-71119835D01*
X91487622Y-71136387D01*
X91480602Y-71151424D01*
X91429011Y-71221720D01*
X91425866Y-71226210D01*
X91377461Y-71298654D01*
X91320460Y-71355655D01*
X91315811Y-71360563D01*
X90884311Y-71841470D01*
X89990723Y-72837376D01*
X89862679Y-72954602D01*
X89801353Y-72991778D01*
X89664583Y-73074689D01*
X89446866Y-73153823D01*
X89217895Y-73188961D01*
X88986470Y-73178754D01*
X88761481Y-73123593D01*
X88656727Y-73074689D01*
X88551579Y-73025602D01*
X88454838Y-72954602D01*
X88364823Y-72888539D01*
X88290394Y-72807241D01*
X88208398Y-72717679D01*
X88126564Y-72582685D01*
X88088311Y-72519583D01*
X88009177Y-72301866D01*
X87974039Y-72072895D01*
X87984246Y-71841470D01*
X88039407Y-71616481D01*
X88090972Y-71506028D01*
X88137398Y-71406580D01*
X88137400Y-71406577D01*
X88240114Y-71266622D01*
X88941340Y-70485104D01*
X89526787Y-69832621D01*
X89537681Y-69818589D01*
X89550539Y-69799346D01*
X89607573Y-69742312D01*
X89612223Y-69737403D01*
X89627278Y-69720624D01*
X89648701Y-69701011D01*
X89652682Y-69697203D01*
X89714346Y-69635539D01*
X89728143Y-69626320D01*
X89743102Y-69614585D01*
X89755321Y-69603398D01*
X89787385Y-69583961D01*
X89829830Y-69558231D01*
X89834421Y-69555308D01*
X89906955Y-69506842D01*
X89922300Y-69500486D01*
X89939248Y-69491901D01*
X89953416Y-69483312D01*
X89953417Y-69483312D01*
X89953418Y-69483311D01*
X90035312Y-69453545D01*
X90040410Y-69451563D01*
X90120973Y-69418193D01*
X90137252Y-69414955D01*
X90155542Y-69409844D01*
X90171135Y-69404177D01*
X90257300Y-69390954D01*
X90262663Y-69390009D01*
X90348173Y-69373000D01*
X90364766Y-69373000D01*
X90383709Y-69371555D01*
X90400106Y-69369039D01*
X90487205Y-69372881D01*
X90487205Y-69372881D01*
G37*
G36*
X50484468Y-72116065D02*
G01*
X50523138Y-72127796D01*
X50558777Y-72146846D01*
X50590017Y-72172483D01*
X50615654Y-72203723D01*
X50634704Y-72239362D01*
X50646435Y-72278032D01*
X50651000Y-72324388D01*
X50651000Y-72975612D01*
X50646435Y-73021968D01*
X50634704Y-73060638D01*
X50615654Y-73096277D01*
X50590017Y-73127517D01*
X50558777Y-73153154D01*
X50523138Y-73172204D01*
X50484468Y-73183935D01*
X50438112Y-73188500D01*
X49361888Y-73188500D01*
X49315532Y-73183935D01*
X49276862Y-73172204D01*
X49241223Y-73153154D01*
X49209983Y-73127517D01*
X49184346Y-73096277D01*
X49165296Y-73060638D01*
X49153565Y-73021968D01*
X49149000Y-72975612D01*
X49149000Y-72324388D01*
X49153565Y-72278032D01*
X49165296Y-72239362D01*
X49184346Y-72203723D01*
X49209983Y-72172483D01*
X49241223Y-72146846D01*
X49276862Y-72127796D01*
X49315532Y-72116065D01*
X49361888Y-72111500D01*
X50438112Y-72111500D01*
X50484468Y-72116065D01*
X50484468Y-72116065D01*
G37*
G36*
X121174000Y-73146000D02*
G01*
X119872000Y-73146000D01*
X119872000Y-72144000D01*
X121174000Y-72144000D01*
X121174000Y-73146000D01*
X121174000Y-73146000D01*
G37*
G36*
X53204468Y-70261065D02*
G01*
X53243138Y-70272796D01*
X53278777Y-70291846D01*
X53310017Y-70317483D01*
X53335654Y-70348723D01*
X53354704Y-70384362D01*
X53366435Y-70423032D01*
X53371000Y-70469388D01*
X53371000Y-71120612D01*
X53366435Y-71166968D01*
X53354704Y-71205638D01*
X53335654Y-71241277D01*
X53310017Y-71272517D01*
X53278777Y-71298154D01*
X53243138Y-71317204D01*
X53204468Y-71328935D01*
X53158112Y-71333500D01*
X52081888Y-71333500D01*
X52035532Y-71328935D01*
X51996862Y-71317204D01*
X51961223Y-71298154D01*
X51929983Y-71272517D01*
X51904346Y-71241277D01*
X51885296Y-71205638D01*
X51873565Y-71166968D01*
X51869000Y-71120612D01*
X51869000Y-70469388D01*
X51873565Y-70423032D01*
X51885296Y-70384362D01*
X51904346Y-70348723D01*
X51929983Y-70317483D01*
X51961223Y-70291846D01*
X51996862Y-70272796D01*
X52035532Y-70261065D01*
X52081888Y-70256500D01*
X53158112Y-70256500D01*
X53204468Y-70261065D01*
X53204468Y-70261065D01*
G37*
G36*
X50484468Y-70241065D02*
G01*
X50523138Y-70252796D01*
X50558777Y-70271846D01*
X50590017Y-70297483D01*
X50615654Y-70328723D01*
X50634704Y-70364362D01*
X50646435Y-70403032D01*
X50651000Y-70449388D01*
X50651000Y-71100612D01*
X50646435Y-71146968D01*
X50634704Y-71185638D01*
X50615654Y-71221277D01*
X50590017Y-71252517D01*
X50558777Y-71278154D01*
X50523138Y-71297204D01*
X50484468Y-71308935D01*
X50438112Y-71313500D01*
X49361888Y-71313500D01*
X49315532Y-71308935D01*
X49276862Y-71297204D01*
X49241223Y-71278154D01*
X49209983Y-71252517D01*
X49184346Y-71221277D01*
X49165296Y-71185638D01*
X49153565Y-71146968D01*
X49149000Y-71100612D01*
X49149000Y-70449388D01*
X49153565Y-70403032D01*
X49165296Y-70364362D01*
X49184346Y-70328723D01*
X49209983Y-70297483D01*
X49241223Y-70271846D01*
X49276862Y-70252796D01*
X49315532Y-70241065D01*
X49361888Y-70236500D01*
X50438112Y-70236500D01*
X50484468Y-70241065D01*
X50484468Y-70241065D01*
G37*
G36*
X95592127Y-68291261D02*
G01*
X95612900Y-68293000D01*
X95619827Y-68293000D01*
X95714754Y-68311882D01*
X95718348Y-68312542D01*
X95813730Y-68328624D01*
X95820203Y-68331085D01*
X95840228Y-68336841D01*
X95847027Y-68338193D01*
X95909414Y-68364034D01*
X95936443Y-68375230D01*
X95939844Y-68376581D01*
X96030255Y-68410961D01*
X96036127Y-68414640D01*
X96054636Y-68424187D01*
X96061045Y-68426842D01*
X96141563Y-68480642D01*
X96144554Y-68482578D01*
X96226557Y-68533959D01*
X96231584Y-68538700D01*
X96247896Y-68551691D01*
X96253652Y-68555537D01*
X96322110Y-68623995D01*
X96324689Y-68626499D01*
X96395090Y-68692889D01*
X96399095Y-68698519D01*
X96412559Y-68714444D01*
X96417459Y-68719344D01*
X96471244Y-68799839D01*
X96473291Y-68802807D01*
X96529380Y-68881645D01*
X96532214Y-68887958D01*
X96542308Y-68906193D01*
X96546158Y-68911955D01*
X96583220Y-69001430D01*
X96584624Y-69004685D01*
X96624265Y-69092973D01*
X96625815Y-69099725D01*
X96632152Y-69119562D01*
X96634807Y-69125973D01*
X96653692Y-69220917D01*
X96654438Y-69224401D01*
X96676098Y-69318751D01*
X96676098Y-69318754D01*
X96676300Y-69325654D01*
X96678647Y-69346370D01*
X96680000Y-69353174D01*
X96680000Y-69449986D01*
X96680053Y-69453584D01*
X96681188Y-69492277D01*
X96680295Y-69505225D01*
X96680000Y-69513797D01*
X96680000Y-69584826D01*
X96674081Y-69614585D01*
X96673604Y-69616979D01*
X96671500Y-69632750D01*
X96633238Y-70187545D01*
X96604376Y-70358730D01*
X96522038Y-70575255D01*
X96399041Y-70771557D01*
X96240111Y-70940090D01*
X96051355Y-71074380D01*
X95840027Y-71169265D01*
X95614249Y-71221098D01*
X95382698Y-71227889D01*
X95382697Y-71227889D01*
X95337012Y-71220186D01*
X95154270Y-71189376D01*
X94937745Y-71107038D01*
X94741443Y-70984041D01*
X94572910Y-70825111D01*
X94438620Y-70636355D01*
X94343735Y-70425027D01*
X94291902Y-70199249D01*
X94286812Y-70025723D01*
X94327704Y-69432794D01*
X94328000Y-69424196D01*
X94328000Y-69353175D01*
X94346882Y-69258250D01*
X94347544Y-69254645D01*
X94353231Y-69220917D01*
X94363624Y-69159270D01*
X94366085Y-69152799D01*
X94371842Y-69132767D01*
X94373193Y-69125974D01*
X94375843Y-69119576D01*
X94410264Y-69036476D01*
X94411553Y-69033230D01*
X94445962Y-68942745D01*
X94449636Y-68936881D01*
X94459187Y-68918365D01*
X94461842Y-68911955D01*
X94515657Y-68831415D01*
X94517577Y-68828449D01*
X94568959Y-68746443D01*
X94573711Y-68741404D01*
X94586689Y-68725107D01*
X94590537Y-68719348D01*
X94658993Y-68650892D01*
X94661546Y-68648262D01*
X94682023Y-68626548D01*
X94727889Y-68577910D01*
X94733521Y-68573903D01*
X94749447Y-68560438D01*
X94754346Y-68555539D01*
X94834824Y-68501766D01*
X94837806Y-68499710D01*
X94916645Y-68443620D01*
X94922955Y-68440787D01*
X94941194Y-68430691D01*
X94946951Y-68426844D01*
X94946954Y-68426843D01*
X94946955Y-68426842D01*
X95036429Y-68389781D01*
X95039687Y-68388375D01*
X95127973Y-68348735D01*
X95134725Y-68347185D01*
X95154562Y-68340848D01*
X95160973Y-68338193D01*
X95255899Y-68319311D01*
X95259446Y-68318551D01*
X95353751Y-68296901D01*
X95356130Y-68296831D01*
X95360665Y-68296698D01*
X95381381Y-68294351D01*
X95388174Y-68293000D01*
X95484959Y-68293000D01*
X95488584Y-68292947D01*
X95585302Y-68290110D01*
X95592127Y-68291261D01*
X95592127Y-68291261D01*
G37*
G36*
X114642127Y-68291261D02*
G01*
X114662900Y-68293000D01*
X114669827Y-68293000D01*
X114764754Y-68311882D01*
X114768348Y-68312542D01*
X114863730Y-68328624D01*
X114870203Y-68331085D01*
X114890228Y-68336841D01*
X114897027Y-68338193D01*
X114959414Y-68364034D01*
X114986443Y-68375230D01*
X114989844Y-68376581D01*
X115080255Y-68410961D01*
X115086127Y-68414640D01*
X115104636Y-68424187D01*
X115111045Y-68426842D01*
X115191563Y-68480642D01*
X115194554Y-68482578D01*
X115276557Y-68533959D01*
X115281584Y-68538700D01*
X115297896Y-68551691D01*
X115303652Y-68555537D01*
X115372110Y-68623995D01*
X115374689Y-68626499D01*
X115445090Y-68692889D01*
X115449095Y-68698519D01*
X115462559Y-68714444D01*
X115467459Y-68719344D01*
X115521244Y-68799839D01*
X115523291Y-68802807D01*
X115579380Y-68881645D01*
X115582214Y-68887958D01*
X115592308Y-68906193D01*
X115596158Y-68911955D01*
X115633220Y-69001430D01*
X115634624Y-69004685D01*
X115674265Y-69092973D01*
X115675815Y-69099725D01*
X115682152Y-69119562D01*
X115684807Y-69125973D01*
X115703692Y-69220917D01*
X115704438Y-69224401D01*
X115726098Y-69318751D01*
X115726098Y-69318754D01*
X115726300Y-69325654D01*
X115728647Y-69346370D01*
X115730000Y-69353174D01*
X115730000Y-69449986D01*
X115730053Y-69453584D01*
X115731188Y-69492277D01*
X115730295Y-69505225D01*
X115730000Y-69513797D01*
X115730000Y-69584826D01*
X115724081Y-69614585D01*
X115723604Y-69616979D01*
X115721500Y-69632750D01*
X115683238Y-70187545D01*
X115654376Y-70358730D01*
X115572038Y-70575255D01*
X115449041Y-70771557D01*
X115290111Y-70940090D01*
X115101355Y-71074380D01*
X114890027Y-71169265D01*
X114664249Y-71221098D01*
X114432698Y-71227889D01*
X114432697Y-71227889D01*
X114387012Y-71220186D01*
X114204270Y-71189376D01*
X113987745Y-71107038D01*
X113791443Y-70984041D01*
X113622910Y-70825111D01*
X113488620Y-70636355D01*
X113393735Y-70425027D01*
X113341902Y-70199249D01*
X113336812Y-70025723D01*
X113377704Y-69432794D01*
X113378000Y-69424196D01*
X113378000Y-69353175D01*
X113396882Y-69258250D01*
X113397544Y-69254645D01*
X113403231Y-69220917D01*
X113413624Y-69159270D01*
X113416085Y-69152799D01*
X113421842Y-69132767D01*
X113423193Y-69125974D01*
X113425843Y-69119576D01*
X113460264Y-69036476D01*
X113461553Y-69033230D01*
X113495962Y-68942745D01*
X113499636Y-68936881D01*
X113509187Y-68918365D01*
X113511842Y-68911955D01*
X113565657Y-68831415D01*
X113567577Y-68828449D01*
X113618959Y-68746443D01*
X113623711Y-68741404D01*
X113636689Y-68725107D01*
X113640537Y-68719348D01*
X113708993Y-68650892D01*
X113711546Y-68648262D01*
X113732023Y-68626548D01*
X113777889Y-68577910D01*
X113783521Y-68573903D01*
X113799447Y-68560438D01*
X113804346Y-68555539D01*
X113884824Y-68501766D01*
X113887806Y-68499710D01*
X113966645Y-68443620D01*
X113972955Y-68440787D01*
X113991194Y-68430691D01*
X113996951Y-68426844D01*
X113996954Y-68426843D01*
X113996955Y-68426842D01*
X114086429Y-68389781D01*
X114089687Y-68388375D01*
X114177973Y-68348735D01*
X114184725Y-68347185D01*
X114204562Y-68340848D01*
X114210973Y-68338193D01*
X114305899Y-68319311D01*
X114309446Y-68318551D01*
X114403751Y-68296901D01*
X114406130Y-68296831D01*
X114410665Y-68296698D01*
X114431381Y-68294351D01*
X114438174Y-68293000D01*
X114534959Y-68293000D01*
X114538584Y-68292947D01*
X114635302Y-68290110D01*
X114642127Y-68291261D01*
X114642127Y-68291261D01*
G37*
G36*
X48215627Y-64453037D02*
G01*
X48385466Y-64504557D01*
X48541991Y-64588222D01*
X48577729Y-64617552D01*
X48679186Y-64700814D01*
X48762448Y-64802271D01*
X48791778Y-64838009D01*
X48875443Y-64994534D01*
X48926963Y-65164373D01*
X48940000Y-65296742D01*
X48940000Y-66385258D01*
X48926963Y-66517627D01*
X48875443Y-66687466D01*
X48791778Y-66843991D01*
X48762448Y-66879729D01*
X48679186Y-66981186D01*
X48541989Y-67093779D01*
X48385467Y-67177442D01*
X48385465Y-67177443D01*
X48215626Y-67228963D01*
X48039000Y-67246359D01*
X47862373Y-67228963D01*
X47692534Y-67177443D01*
X47536009Y-67093778D01*
X47500271Y-67064448D01*
X47398814Y-66981186D01*
X47286221Y-66843989D01*
X47202558Y-66687467D01*
X47202557Y-66687465D01*
X47151037Y-66517626D01*
X47138000Y-66385257D01*
X47138001Y-65296742D01*
X47151038Y-65164373D01*
X47202558Y-64994534D01*
X47286223Y-64838009D01*
X47315553Y-64802271D01*
X47398815Y-64700814D01*
X47500272Y-64617552D01*
X47536010Y-64588222D01*
X47692535Y-64504557D01*
X47862374Y-64453037D01*
X48039000Y-64435641D01*
X48215627Y-64453037D01*
X48215627Y-64453037D01*
G37*
G36*
X55515627Y-64453037D02*
G01*
X55685466Y-64504557D01*
X55841991Y-64588222D01*
X55877729Y-64617552D01*
X55979186Y-64700814D01*
X56062448Y-64802271D01*
X56091778Y-64838009D01*
X56175443Y-64994534D01*
X56226963Y-65164373D01*
X56240000Y-65296742D01*
X56240000Y-66385258D01*
X56226963Y-66517627D01*
X56175443Y-66687466D01*
X56091778Y-66843991D01*
X56062448Y-66879729D01*
X55979186Y-66981186D01*
X55841989Y-67093779D01*
X55685467Y-67177442D01*
X55685465Y-67177443D01*
X55515626Y-67228963D01*
X55339000Y-67246359D01*
X55162373Y-67228963D01*
X54992534Y-67177443D01*
X54836009Y-67093778D01*
X54800271Y-67064448D01*
X54698814Y-66981186D01*
X54586221Y-66843989D01*
X54502558Y-66687467D01*
X54502557Y-66687465D01*
X54451037Y-66517626D01*
X54438000Y-66385257D01*
X54438001Y-65296742D01*
X54451038Y-65164373D01*
X54502558Y-64994534D01*
X54586223Y-64838009D01*
X54615553Y-64802271D01*
X54698815Y-64700814D01*
X54800272Y-64617552D01*
X54836010Y-64588222D01*
X54992535Y-64504557D01*
X55162374Y-64453037D01*
X55339000Y-64435641D01*
X55515627Y-64453037D01*
X55515627Y-64453037D01*
G37*
G36*
X53590000Y-67017000D02*
G01*
X49788000Y-67017000D01*
X49788000Y-64665000D01*
X53590000Y-64665000D01*
X53590000Y-67017000D01*
X53590000Y-67017000D01*
G37*
G36*
X55515627Y-59953037D02*
G01*
X55685466Y-60004557D01*
X55841991Y-60088222D01*
X55877729Y-60117552D01*
X55979186Y-60200814D01*
X56062448Y-60302271D01*
X56091778Y-60338009D01*
X56175443Y-60494534D01*
X56226963Y-60664373D01*
X56240000Y-60796742D01*
X56240000Y-61885258D01*
X56226963Y-62017627D01*
X56175443Y-62187466D01*
X56091778Y-62343991D01*
X56062448Y-62379729D01*
X55979186Y-62481186D01*
X55841989Y-62593779D01*
X55685467Y-62677442D01*
X55685465Y-62677443D01*
X55515626Y-62728963D01*
X55339000Y-62746359D01*
X55162373Y-62728963D01*
X54992534Y-62677443D01*
X54836009Y-62593778D01*
X54800271Y-62564448D01*
X54698814Y-62481186D01*
X54586221Y-62343989D01*
X54502558Y-62187467D01*
X54502557Y-62187465D01*
X54451037Y-62017626D01*
X54438000Y-61885257D01*
X54438001Y-60796742D01*
X54451038Y-60664373D01*
X54502558Y-60494534D01*
X54586223Y-60338009D01*
X54615553Y-60302271D01*
X54698815Y-60200814D01*
X54800272Y-60117552D01*
X54836010Y-60088222D01*
X54992535Y-60004557D01*
X55162374Y-59953037D01*
X55339000Y-59935641D01*
X55515627Y-59953037D01*
X55515627Y-59953037D01*
G37*
G36*
X48215627Y-59953037D02*
G01*
X48385466Y-60004557D01*
X48541991Y-60088222D01*
X48577729Y-60117552D01*
X48679186Y-60200814D01*
X48762448Y-60302271D01*
X48791778Y-60338009D01*
X48875443Y-60494534D01*
X48926963Y-60664373D01*
X48940000Y-60796742D01*
X48940000Y-61885258D01*
X48926963Y-62017627D01*
X48875443Y-62187466D01*
X48791778Y-62343991D01*
X48762448Y-62379729D01*
X48679186Y-62481186D01*
X48541989Y-62593779D01*
X48385467Y-62677442D01*
X48385465Y-62677443D01*
X48215626Y-62728963D01*
X48039000Y-62746359D01*
X47862373Y-62728963D01*
X47692534Y-62677443D01*
X47536009Y-62593778D01*
X47500271Y-62564448D01*
X47398814Y-62481186D01*
X47286221Y-62343989D01*
X47202558Y-62187467D01*
X47202557Y-62187465D01*
X47151037Y-62017626D01*
X47138000Y-61885257D01*
X47138001Y-60796742D01*
X47151038Y-60664373D01*
X47202558Y-60494534D01*
X47286223Y-60338009D01*
X47315553Y-60302271D01*
X47398815Y-60200814D01*
X47500272Y-60117552D01*
X47536010Y-60088222D01*
X47692535Y-60004557D01*
X47862374Y-59953037D01*
X48039000Y-59935641D01*
X48215627Y-59953037D01*
X48215627Y-59953037D01*
G37*
M02*
