M48
; DRILL file {KiCad (5.1.4)-1} date 31/10/2022 09:05:14
; FORMAT={-:-/ absolute / metric / decimal}
; #@! TF.CreationDate,2022-10-31T09:05:14+01:00
; #@! TF.GenerationSoftware,Kicad,Pcbnew,(5.1.4)-1
; #@! TF.FileFunction,Plated,1,2,PTH
FMAT,2
METRIC
T1C0.400
T2C0.700
T3C1.040
T4C1.470
%
G90
G05
T1
X138.43Y-108.077
X141.732Y-116.586
X143.637Y-123.19
X174.244Y-114.3
X179.451Y-95.123
X182.118Y-104.013
X187.706Y-102.235
X189.23Y-112.141
X189.23Y-116.205
X203.835Y-121.666
X203.835Y-121.666
X203.835Y-121.666
X208.741Y-107.776
T3
X128.905Y-109.855
X131.445Y-109.855
X147.955Y-109.855
X150.495Y-109.855
X241.935Y-109.855
X244.475Y-109.855
X260.985Y-109.855
X263.525Y-109.855
T4
X126.365Y-102.235
X127.675Y-100.775
X132.675Y-100.275
X132.715Y-99.695
X145.415Y-102.235
X146.725Y-100.775
X151.725Y-100.275
X151.765Y-99.695
X239.395Y-102.235
X240.705Y-100.775
X245.705Y-100.275
X245.745Y-99.695
X258.445Y-102.235
X259.755Y-100.775
X264.755Y-100.275
X264.795Y-99.695
T2
X169.997Y-86.34G85X169.997Y-87.54
G05
X169.997Y-90.84G85X169.997Y-92.04
G05
X177.297Y-86.34G85X177.297Y-87.54
G05
X177.297Y-90.84G85X177.297Y-92.04
G05
T0
M30
