G04 #@! TF.GenerationSoftware,KiCad,Pcbnew,(5.1.4)-1*
G04 #@! TF.CreationDate,2022-10-31T09:04:18+01:00*
G04 #@! TF.ProjectId,quaver-keypadrev1,71756176-6572-42d6-9b65-797061647265,rev?*
G04 #@! TF.SameCoordinates,Original*
G04 #@! TF.FileFunction,Legend,Bot*
G04 #@! TF.FilePolarity,Positive*
%FSLAX46Y46*%
G04 Gerber Fmt 4.6, Leading zero omitted, Abs format (unit mm)*
G04 Created by KiCad (PCBNEW (5.1.4)-1) date 2022-10-31 09:04:18*
%MOMM*%
%LPD*%
G04 APERTURE LIST*
%ADD10C,0.300000*%
%ADD11C,0.010000*%
%ADD12C,0.150000*%
%ADD13C,0.120000*%
%ADD14C,2.352000*%
%ADD15C,2.352000*%
%ADD16C,4.089800*%
%ADD17C,2.007000*%
%ADD18R,2.007000X2.007000*%
%ADD19C,1.852000*%
%ADD20R,0.602000X2.352000*%
%ADD21O,1.802000X2.802000*%
%ADD22R,1.502000X1.302000*%
%ADD23R,1.602000X0.652000*%
%ADD24R,0.652000X1.602000*%
%ADD25R,1.902000X1.202000*%
%ADD26C,0.100000*%
%ADD27C,1.077000*%
%ADD28C,1.352000*%
%ADD29R,1.302000X1.002000*%
G04 APERTURE END LIST*
D10*
X222395142Y-92706857D02*
X222395142Y-93506857D01*
X222680857Y-92249714D02*
X222966571Y-93106857D01*
X222223714Y-93106857D01*
X221766571Y-93506857D02*
X221766571Y-92306857D01*
X221652285Y-93049714D02*
X221309428Y-93506857D01*
X221309428Y-92706857D02*
X221766571Y-93164000D01*
X219080857Y-93621142D02*
X219195142Y-93564000D01*
X219309428Y-93449714D01*
X219480857Y-93278285D01*
X219595142Y-93221142D01*
X219709428Y-93221142D01*
X219652285Y-93506857D02*
X219766571Y-93449714D01*
X219880857Y-93335428D01*
X219938000Y-93106857D01*
X219938000Y-92706857D01*
X219880857Y-92478285D01*
X219766571Y-92364000D01*
X219652285Y-92306857D01*
X219423714Y-92306857D01*
X219309428Y-92364000D01*
X219195142Y-92478285D01*
X219138000Y-92706857D01*
X219138000Y-93106857D01*
X219195142Y-93335428D01*
X219309428Y-93449714D01*
X219423714Y-93506857D01*
X219652285Y-93506857D01*
X218109428Y-92706857D02*
X218109428Y-93506857D01*
X218623714Y-92706857D02*
X218623714Y-93335428D01*
X218566571Y-93449714D01*
X218452285Y-93506857D01*
X218280857Y-93506857D01*
X218166571Y-93449714D01*
X218109428Y-93392571D01*
X217023714Y-93506857D02*
X217023714Y-92878285D01*
X217080857Y-92764000D01*
X217195142Y-92706857D01*
X217423714Y-92706857D01*
X217538000Y-92764000D01*
X217023714Y-93449714D02*
X217138000Y-93506857D01*
X217423714Y-93506857D01*
X217538000Y-93449714D01*
X217595142Y-93335428D01*
X217595142Y-93221142D01*
X217538000Y-93106857D01*
X217423714Y-93049714D01*
X217138000Y-93049714D01*
X217023714Y-92992571D01*
X216566571Y-92706857D02*
X216280857Y-93506857D01*
X215995142Y-92706857D01*
X215080857Y-93449714D02*
X215195142Y-93506857D01*
X215423714Y-93506857D01*
X215538000Y-93449714D01*
X215595142Y-93335428D01*
X215595142Y-92878285D01*
X215538000Y-92764000D01*
X215423714Y-92706857D01*
X215195142Y-92706857D01*
X215080857Y-92764000D01*
X215023714Y-92878285D01*
X215023714Y-92992571D01*
X215595142Y-93106857D01*
X214509428Y-93506857D02*
X214509428Y-92706857D01*
X214509428Y-92935428D02*
X214452285Y-92821142D01*
X214395142Y-92764000D01*
X214280857Y-92706857D01*
X214166571Y-92706857D01*
X213766571Y-93049714D02*
X212852285Y-93049714D01*
X212280857Y-93506857D02*
X212280857Y-92306857D01*
X211595142Y-93506857D02*
X212109428Y-92821142D01*
X211595142Y-92306857D02*
X212280857Y-92992571D01*
X210623714Y-93449714D02*
X210738000Y-93506857D01*
X210966571Y-93506857D01*
X211080857Y-93449714D01*
X211138000Y-93335428D01*
X211138000Y-92878285D01*
X211080857Y-92764000D01*
X210966571Y-92706857D01*
X210738000Y-92706857D01*
X210623714Y-92764000D01*
X210566571Y-92878285D01*
X210566571Y-92992571D01*
X211138000Y-93106857D01*
X210166571Y-92706857D02*
X209880857Y-93506857D01*
X209595142Y-92706857D02*
X209880857Y-93506857D01*
X209995142Y-93792571D01*
X210052285Y-93849714D01*
X210166571Y-93906857D01*
X209138000Y-92706857D02*
X209138000Y-93906857D01*
X209138000Y-92764000D02*
X209023714Y-92706857D01*
X208795142Y-92706857D01*
X208680857Y-92764000D01*
X208623714Y-92821142D01*
X208566571Y-92935428D01*
X208566571Y-93278285D01*
X208623714Y-93392571D01*
X208680857Y-93449714D01*
X208795142Y-93506857D01*
X209023714Y-93506857D01*
X209138000Y-93449714D01*
X207538000Y-93506857D02*
X207538000Y-92878285D01*
X207595142Y-92764000D01*
X207709428Y-92706857D01*
X207938000Y-92706857D01*
X208052285Y-92764000D01*
X207538000Y-93449714D02*
X207652285Y-93506857D01*
X207938000Y-93506857D01*
X208052285Y-93449714D01*
X208109428Y-93335428D01*
X208109428Y-93221142D01*
X208052285Y-93106857D01*
X207938000Y-93049714D01*
X207652285Y-93049714D01*
X207538000Y-92992571D01*
X206452285Y-93506857D02*
X206452285Y-92306857D01*
X206452285Y-93449714D02*
X206566571Y-93506857D01*
X206795142Y-93506857D01*
X206909428Y-93449714D01*
X206966571Y-93392571D01*
X207023714Y-93278285D01*
X207023714Y-92935428D01*
X206966571Y-92821142D01*
X206909428Y-92764000D01*
X206795142Y-92706857D01*
X206566571Y-92706857D01*
X206452285Y-92764000D01*
D11*
G36*
X224521541Y-97383864D02*
G01*
X224519018Y-97416945D01*
X224523212Y-97424434D01*
X224532832Y-97418121D01*
X224534329Y-97396653D01*
X224529160Y-97374067D01*
X224521541Y-97383864D01*
X224521541Y-97383864D01*
G37*
X224521541Y-97383864D02*
X224519018Y-97416945D01*
X224523212Y-97424434D01*
X224532832Y-97418121D01*
X224534329Y-97396653D01*
X224529160Y-97374067D01*
X224521541Y-97383864D01*
G36*
X231221380Y-87092797D02*
G01*
X231061701Y-87095474D01*
X230921451Y-87100295D01*
X230807776Y-87107311D01*
X230727820Y-87116573D01*
X230716667Y-87118666D01*
X230638994Y-87132552D01*
X230538401Y-87147606D01*
X230434109Y-87160996D01*
X230413351Y-87163352D01*
X230319741Y-87175158D01*
X230234451Y-87188492D01*
X230172067Y-87200995D01*
X230159351Y-87204428D01*
X230089462Y-87225374D01*
X230018167Y-87246281D01*
X229935816Y-87271227D01*
X229845635Y-87300296D01*
X229762432Y-87328558D01*
X229701015Y-87351080D01*
X229690083Y-87355539D01*
X229639781Y-87372090D01*
X229576310Y-87387381D01*
X229573667Y-87387900D01*
X229504078Y-87406782D01*
X229442426Y-87431466D01*
X229386749Y-87452979D01*
X229343603Y-87460667D01*
X229306439Y-87469915D01*
X229243405Y-87494575D01*
X229165921Y-87530015D01*
X229136177Y-87544780D01*
X229037316Y-87594142D01*
X228929671Y-87646554D01*
X228820352Y-87698711D01*
X228716472Y-87747307D01*
X228625140Y-87789034D01*
X228553468Y-87820588D01*
X228508565Y-87838663D01*
X228497617Y-87841667D01*
X228472425Y-87854377D01*
X228428090Y-87886761D01*
X228399910Y-87909925D01*
X228330965Y-87962985D01*
X228237746Y-88027071D01*
X228133466Y-88093832D01*
X228031334Y-88154916D01*
X227944561Y-88201972D01*
X227917840Y-88214672D01*
X227864679Y-88245895D01*
X227830738Y-88279669D01*
X227826978Y-88287549D01*
X227805001Y-88317209D01*
X227757358Y-88362283D01*
X227693290Y-88414230D01*
X227675646Y-88427396D01*
X227599910Y-88487346D01*
X227508918Y-88565963D01*
X227416441Y-88651105D01*
X227364341Y-88701902D01*
X227291073Y-88773325D01*
X227224138Y-88834958D01*
X227171642Y-88879548D01*
X227144483Y-88898603D01*
X227104348Y-88931054D01*
X227059065Y-88984444D01*
X227041758Y-89009781D01*
X226999123Y-89067575D01*
X226937613Y-89139317D01*
X226869723Y-89210529D01*
X226862150Y-89217953D01*
X226804357Y-89276851D01*
X226760762Y-89326416D01*
X226738673Y-89358161D01*
X226737333Y-89362911D01*
X226725316Y-89387499D01*
X226692263Y-89439198D01*
X226642673Y-89511356D01*
X226581047Y-89597317D01*
X226553077Y-89635370D01*
X226475005Y-89745577D01*
X226395875Y-89865425D01*
X226324566Y-89980984D01*
X226269958Y-90078326D01*
X226266734Y-90084601D01*
X226220023Y-90172792D01*
X226175585Y-90250619D01*
X226139499Y-90307732D01*
X226122907Y-90329381D01*
X226092575Y-90367173D01*
X226081167Y-90391296D01*
X226072455Y-90419999D01*
X226049367Y-90476152D01*
X226016471Y-90549348D01*
X225978339Y-90629180D01*
X225964566Y-90656833D01*
X225940640Y-90716822D01*
X225922870Y-90779949D01*
X225905669Y-90834189D01*
X225874858Y-90909531D01*
X225837035Y-90989877D01*
X225836155Y-90991616D01*
X225800955Y-91066578D01*
X225775255Y-91131797D01*
X225764170Y-91174157D01*
X225764063Y-91176475D01*
X225754469Y-91222009D01*
X225743211Y-91240322D01*
X225727732Y-91272447D01*
X225707166Y-91339141D01*
X225683045Y-91433160D01*
X225656900Y-91547260D01*
X225630260Y-91674198D01*
X225604658Y-91806729D01*
X225581623Y-91937610D01*
X225562688Y-92059597D01*
X225551160Y-92149083D01*
X225538245Y-92256287D01*
X225523466Y-92367589D01*
X225509635Y-92462004D01*
X225507206Y-92477167D01*
X225498995Y-92554819D01*
X225493952Y-92663145D01*
X225491823Y-92796260D01*
X225492359Y-92948281D01*
X225495307Y-93113322D01*
X225500418Y-93285500D01*
X225507440Y-93458929D01*
X225516121Y-93627726D01*
X225526212Y-93786005D01*
X225537460Y-93927883D01*
X225549615Y-94047475D01*
X225562426Y-94138896D01*
X225575641Y-94196263D01*
X225581075Y-94208505D01*
X225589885Y-94237614D01*
X225602128Y-94296623D01*
X225615345Y-94373511D01*
X225617031Y-94384345D01*
X225630773Y-94463064D01*
X225644768Y-94525802D01*
X225656244Y-94560343D01*
X225657374Y-94562083D01*
X225669202Y-94592777D01*
X225683965Y-94651948D01*
X225697123Y-94719396D01*
X225712392Y-94792988D01*
X225729033Y-94850349D01*
X225742121Y-94877088D01*
X225760776Y-94915465D01*
X225763667Y-94937983D01*
X225772554Y-94973840D01*
X225796324Y-95036449D01*
X225830646Y-95114841D01*
X225848333Y-95152254D01*
X225885621Y-95231266D01*
X225914530Y-95296284D01*
X225930861Y-95337681D01*
X225933000Y-95346387D01*
X225943305Y-95389797D01*
X225971922Y-95462222D01*
X226015407Y-95556364D01*
X226070315Y-95664923D01*
X226133203Y-95780599D01*
X226160276Y-95828012D01*
X226210983Y-95917638D01*
X226252734Y-95995463D01*
X226281384Y-96053470D01*
X226292788Y-96083642D01*
X226292833Y-96084449D01*
X226304538Y-96120618D01*
X226329875Y-96162847D01*
X226364748Y-96212522D01*
X226388083Y-96248237D01*
X226408085Y-96277839D01*
X226447622Y-96333965D01*
X226501250Y-96408958D01*
X226563525Y-96495166D01*
X226573165Y-96508440D01*
X226636749Y-96596923D01*
X226692762Y-96676714D01*
X226735600Y-96739700D01*
X226759654Y-96777767D01*
X226761101Y-96780446D01*
X226787431Y-96817084D01*
X226835317Y-96871883D01*
X226895325Y-96934164D01*
X226907633Y-96946268D01*
X226997653Y-97040364D01*
X227054703Y-97116624D01*
X227081520Y-97179957D01*
X227080841Y-97235267D01*
X227076482Y-97248983D01*
X227026138Y-97341082D01*
X226944629Y-97442572D01*
X226839497Y-97545695D01*
X226718280Y-97642695D01*
X226646639Y-97691162D01*
X226566324Y-97738389D01*
X226470021Y-97789735D01*
X226369430Y-97839516D01*
X226276245Y-97882045D01*
X226202165Y-97911639D01*
X226176417Y-97919687D01*
X225958480Y-97960254D01*
X225737541Y-97971908D01*
X225526070Y-97954564D01*
X225389836Y-97924978D01*
X225286407Y-97888367D01*
X225163437Y-97833940D01*
X225035424Y-97769050D01*
X224916863Y-97701053D01*
X224822252Y-97637303D01*
X224821254Y-97636542D01*
X224778698Y-97609451D01*
X224750617Y-97599500D01*
X224725668Y-97584229D01*
X224686319Y-97545224D01*
X224660960Y-97515461D01*
X224612347Y-97464033D01*
X224578231Y-97446014D01*
X224562148Y-97461670D01*
X224566893Y-97508371D01*
X224575814Y-97538602D01*
X224589326Y-97566788D01*
X224612983Y-97600466D01*
X224652336Y-97647175D01*
X224712937Y-97714453D01*
X224742375Y-97746635D01*
X224795152Y-97806759D01*
X224834354Y-97856229D01*
X224852895Y-97885980D01*
X224853500Y-97888824D01*
X224868145Y-97912151D01*
X224907825Y-97957580D01*
X224966161Y-98018838D01*
X225036772Y-98089652D01*
X225113278Y-98163749D01*
X225189300Y-98234857D01*
X225258457Y-98296701D01*
X225314369Y-98343009D01*
X225319167Y-98346680D01*
X225379925Y-98389485D01*
X225433311Y-98421678D01*
X225456750Y-98432352D01*
X225496791Y-98453729D01*
X225551914Y-98493219D01*
X225583750Y-98519441D01*
X225636243Y-98564943D01*
X225677407Y-98600449D01*
X225691209Y-98612241D01*
X225728460Y-98633174D01*
X225765293Y-98647014D01*
X225822922Y-98667210D01*
X225880083Y-98690408D01*
X225938482Y-98716086D01*
X226012010Y-98748481D01*
X226042964Y-98762137D01*
X226104979Y-98787416D01*
X226152985Y-98803267D01*
X226168106Y-98806000D01*
X226197833Y-98812514D01*
X226257965Y-98830121D01*
X226338951Y-98855915D01*
X226407392Y-98878803D01*
X226704431Y-98959238D01*
X227016121Y-99004846D01*
X227331942Y-99014832D01*
X227641373Y-98988405D01*
X227711000Y-98977009D01*
X227829323Y-98951963D01*
X227962258Y-98917978D01*
X228084979Y-98881510D01*
X228109079Y-98873475D01*
X228197885Y-98844399D01*
X228274935Y-98821612D01*
X228329300Y-98808228D01*
X228345955Y-98806000D01*
X228385451Y-98796767D01*
X228397962Y-98786377D01*
X228424518Y-98767910D01*
X228475068Y-98746822D01*
X228489170Y-98742194D01*
X228693006Y-98659543D01*
X228875167Y-98543994D01*
X228942848Y-98494531D01*
X229004813Y-98452933D01*
X229044500Y-98429881D01*
X229102730Y-98396508D01*
X229177782Y-98346062D01*
X229258383Y-98287012D01*
X229333260Y-98227825D01*
X229391142Y-98176967D01*
X229414883Y-98151665D01*
X229451026Y-98108499D01*
X229504492Y-98047953D01*
X229561645Y-97985371D01*
X229618732Y-97922325D01*
X229667916Y-97865118D01*
X229698462Y-97826250D01*
X229736923Y-97776489D01*
X229780661Y-97726500D01*
X229847508Y-97642076D01*
X229876246Y-97571863D01*
X229866421Y-97516968D01*
X229866415Y-97516958D01*
X229836201Y-97490072D01*
X229780038Y-97454850D01*
X229711444Y-97418270D01*
X229643936Y-97387313D01*
X229591030Y-97368957D01*
X229575340Y-97366667D01*
X229547899Y-97357567D01*
X229493840Y-97333506D01*
X229423953Y-97299338D01*
X229410910Y-97292687D01*
X229338607Y-97257146D01*
X229279429Y-97230910D01*
X229244563Y-97218882D01*
X229241913Y-97218603D01*
X229212200Y-97206532D01*
X229162605Y-97175653D01*
X229125496Y-97148900D01*
X229057860Y-97100542D01*
X228973414Y-97044289D01*
X228901573Y-96999169D01*
X228832574Y-96956139D01*
X228776082Y-96918641D01*
X228743735Y-96894418D01*
X228742823Y-96893561D01*
X228716785Y-96871059D01*
X228664953Y-96828196D01*
X228594656Y-96770976D01*
X228513224Y-96705400D01*
X228507067Y-96700469D01*
X228356634Y-96574294D01*
X228208127Y-96439116D01*
X228066687Y-96300425D01*
X227937452Y-96163709D01*
X227825562Y-96034458D01*
X227736156Y-95918161D01*
X227674374Y-95820308D01*
X227664302Y-95800333D01*
X227639777Y-95758782D01*
X227599807Y-95700426D01*
X227553638Y-95637744D01*
X227510515Y-95583216D01*
X227479684Y-95549318D01*
X227476104Y-95546333D01*
X227462747Y-95524814D01*
X227435491Y-95473448D01*
X227398472Y-95400690D01*
X227355827Y-95314991D01*
X227311693Y-95224804D01*
X227270206Y-95138582D01*
X227235504Y-95064778D01*
X227211724Y-95011845D01*
X227203000Y-94988297D01*
X227193076Y-94965205D01*
X227167397Y-94917442D01*
X227140651Y-94870951D01*
X227102460Y-94796159D01*
X227073186Y-94720890D01*
X227063738Y-94684811D01*
X227046754Y-94615972D01*
X227024870Y-94555888D01*
X227022758Y-94551500D01*
X227002763Y-94496923D01*
X226985134Y-94425361D01*
X226981199Y-94403333D01*
X226956592Y-94285871D01*
X226919127Y-94151575D01*
X226874982Y-94022333D01*
X226843040Y-93911489D01*
X226816603Y-93766274D01*
X226795933Y-93594326D01*
X226781294Y-93403283D01*
X226772949Y-93200781D01*
X226771160Y-92994459D01*
X226776191Y-92791953D01*
X226788305Y-92600901D01*
X226807765Y-92428939D01*
X226817924Y-92365753D01*
X226836338Y-92266648D01*
X226853508Y-92182243D01*
X226867482Y-92121636D01*
X226876153Y-92094166D01*
X226888704Y-92062414D01*
X226906569Y-92003949D01*
X226920660Y-91951580D01*
X226944519Y-91857838D01*
X226970134Y-91757178D01*
X226980822Y-91715167D01*
X227021947Y-91559969D01*
X227058740Y-91437358D01*
X227094510Y-91338282D01*
X227132567Y-91253688D01*
X227176222Y-91174525D01*
X227182072Y-91164833D01*
X227201206Y-91129134D01*
X227230735Y-91069602D01*
X227255991Y-91016667D01*
X227288499Y-90948753D01*
X227316162Y-90893394D01*
X227329604Y-90868500D01*
X227347904Y-90832824D01*
X227376018Y-90772599D01*
X227401544Y-90715247D01*
X227441893Y-90636129D01*
X227489341Y-90561961D01*
X227519290Y-90524747D01*
X227562478Y-90472934D01*
X227592332Y-90426535D01*
X227597229Y-90415042D01*
X227617135Y-90369461D01*
X227628604Y-90351542D01*
X227696273Y-90265611D01*
X227746386Y-90197853D01*
X227789053Y-90134398D01*
X227803481Y-90111624D01*
X227852736Y-90043488D01*
X227908693Y-89980525D01*
X227926932Y-89963457D01*
X228033586Y-89863832D01*
X228155324Y-89737360D01*
X228178682Y-89711851D01*
X228222612Y-89667231D01*
X228285372Y-89607922D01*
X228353513Y-89546625D01*
X228354705Y-89545583D01*
X228446593Y-89464587D01*
X228510485Y-89406324D01*
X228550842Y-89366353D01*
X228572125Y-89340229D01*
X228578797Y-89323509D01*
X228578833Y-89322371D01*
X228595456Y-89303402D01*
X228604154Y-89302167D01*
X228632807Y-89291240D01*
X228681975Y-89264160D01*
X228737795Y-89229475D01*
X228786403Y-89195733D01*
X228811667Y-89174210D01*
X228834498Y-89157991D01*
X228882391Y-89128294D01*
X228927036Y-89101979D01*
X229007907Y-89051824D01*
X229091927Y-88994636D01*
X229124449Y-88970703D01*
X229180239Y-88931345D01*
X229224747Y-88905667D01*
X229241913Y-88899979D01*
X229271677Y-88891040D01*
X229327964Y-88867393D01*
X229399688Y-88833764D01*
X229414917Y-88826252D01*
X229487292Y-88791280D01*
X229545239Y-88765186D01*
X229578243Y-88752658D01*
X229581051Y-88752189D01*
X229613571Y-88743287D01*
X229670673Y-88721079D01*
X229739164Y-88691374D01*
X229805852Y-88659979D01*
X229857547Y-88632703D01*
X229870000Y-88624974D01*
X229921112Y-88596945D01*
X229991829Y-88569710D01*
X230087274Y-88541834D01*
X230212569Y-88511884D01*
X230372837Y-88478424D01*
X230441500Y-88464969D01*
X230528447Y-88446592D01*
X230607246Y-88427231D01*
X230661612Y-88410907D01*
X230663750Y-88410109D01*
X230703347Y-88402876D01*
X230778918Y-88396103D01*
X230884108Y-88389918D01*
X231012559Y-88384447D01*
X231157914Y-88379820D01*
X231313816Y-88376163D01*
X231473909Y-88373606D01*
X231631834Y-88372276D01*
X231781236Y-88372300D01*
X231915758Y-88373807D01*
X232029042Y-88376925D01*
X232105910Y-88381087D01*
X232200659Y-88389129D01*
X232261622Y-88397667D01*
X232297303Y-88409064D01*
X232316208Y-88425685D01*
X232324019Y-88441709D01*
X232325987Y-88494334D01*
X232301399Y-88537729D01*
X232273104Y-88579890D01*
X232261833Y-88608226D01*
X232251262Y-88635575D01*
X232223808Y-88686307D01*
X232192737Y-88737663D01*
X232136217Y-88828684D01*
X232097614Y-88896641D01*
X232071396Y-88953713D01*
X232052031Y-89012079D01*
X232033985Y-89083919D01*
X232032459Y-89090500D01*
X232016721Y-89189239D01*
X232006361Y-89318095D01*
X232001370Y-89465198D01*
X232001742Y-89618677D01*
X232007467Y-89766659D01*
X232018539Y-89897274D01*
X232033050Y-89990083D01*
X232058373Y-90086713D01*
X232090859Y-90179732D01*
X232126024Y-90258511D01*
X232159382Y-90312419D01*
X232175498Y-90327718D01*
X232194652Y-90352514D01*
X232223345Y-90403756D01*
X232247243Y-90452944D01*
X232291010Y-90525799D01*
X232360411Y-90615555D01*
X232447177Y-90713758D01*
X232543042Y-90811954D01*
X232639739Y-90901688D01*
X232729001Y-90974506D01*
X232802560Y-91021954D01*
X232804701Y-91023027D01*
X232880280Y-91062828D01*
X232968807Y-91112773D01*
X233030334Y-91149418D01*
X233155719Y-91211364D01*
X233294875Y-91247687D01*
X233305501Y-91249454D01*
X233393545Y-91264691D01*
X233475657Y-91280665D01*
X233531833Y-91293377D01*
X233642949Y-91310054D01*
X233778914Y-91311442D01*
X233929258Y-91299310D01*
X234083508Y-91275430D01*
X234231193Y-91241572D01*
X234361842Y-91199509D01*
X234464983Y-91151010D01*
X234496056Y-91130308D01*
X234560368Y-91088902D01*
X234633669Y-91051136D01*
X234643865Y-91046726D01*
X234774937Y-90974922D01*
X234909242Y-90871129D01*
X235038312Y-90744046D01*
X235153682Y-90602367D01*
X235246885Y-90454790D01*
X235274974Y-90398441D01*
X235302071Y-90346047D01*
X235325147Y-90312386D01*
X235329735Y-90308365D01*
X235357437Y-90274724D01*
X235389201Y-90211426D01*
X235420314Y-90130227D01*
X235446060Y-90042884D01*
X235457386Y-89990083D01*
X235483988Y-89833274D01*
X235502144Y-89709220D01*
X235512490Y-89609331D01*
X235515666Y-89525017D01*
X235512308Y-89447685D01*
X235503376Y-89370958D01*
X235482389Y-89229416D01*
X235464071Y-89121321D01*
X235445849Y-89038113D01*
X235425152Y-88971230D01*
X235399406Y-88912111D01*
X235366040Y-88852197D01*
X235330368Y-88795188D01*
X235284082Y-88720865D01*
X235248179Y-88659093D01*
X235227859Y-88619019D01*
X235225167Y-88610083D01*
X235212695Y-88580241D01*
X235182710Y-88538125D01*
X235182700Y-88538114D01*
X235101253Y-88440823D01*
X235041396Y-88370097D01*
X234997798Y-88319830D01*
X234965129Y-88283916D01*
X234938058Y-88256249D01*
X234928833Y-88247301D01*
X234878438Y-88202305D01*
X234815034Y-88150240D01*
X234747852Y-88098098D01*
X234686124Y-88052867D01*
X234639079Y-88021537D01*
X234616754Y-88011000D01*
X234590900Y-87997900D01*
X234547432Y-87964777D01*
X234525187Y-87945461D01*
X234474063Y-87906854D01*
X234403545Y-87862907D01*
X234325403Y-87819865D01*
X234251404Y-87783975D01*
X234193316Y-87761481D01*
X234170075Y-87757000D01*
X234146988Y-87742687D01*
X234145667Y-87735833D01*
X234129912Y-87715278D01*
X234124982Y-87714666D01*
X234095750Y-87705250D01*
X234036325Y-87679277D01*
X233953843Y-87640160D01*
X233855438Y-87591315D01*
X233748245Y-87536154D01*
X233711750Y-87516931D01*
X233642756Y-87485346D01*
X233580198Y-87464963D01*
X233551942Y-87460755D01*
X233503054Y-87453602D01*
X233477858Y-87441199D01*
X233447472Y-87425177D01*
X233390364Y-87404411D01*
X233341333Y-87389720D01*
X233213155Y-87354233D01*
X233119819Y-87327678D01*
X233055252Y-87308130D01*
X233013379Y-87293663D01*
X232988125Y-87282354D01*
X232975015Y-87273642D01*
X232935409Y-87255682D01*
X232856792Y-87233778D01*
X232742237Y-87208567D01*
X232594817Y-87180690D01*
X232417606Y-87150784D01*
X232283000Y-87129819D01*
X232187368Y-87118912D01*
X232061151Y-87109793D01*
X231911496Y-87102512D01*
X231745547Y-87097122D01*
X231570448Y-87093672D01*
X231393344Y-87092213D01*
X231221380Y-87092797D01*
X231221380Y-87092797D01*
G37*
X231221380Y-87092797D02*
X231061701Y-87095474D01*
X230921451Y-87100295D01*
X230807776Y-87107311D01*
X230727820Y-87116573D01*
X230716667Y-87118666D01*
X230638994Y-87132552D01*
X230538401Y-87147606D01*
X230434109Y-87160996D01*
X230413351Y-87163352D01*
X230319741Y-87175158D01*
X230234451Y-87188492D01*
X230172067Y-87200995D01*
X230159351Y-87204428D01*
X230089462Y-87225374D01*
X230018167Y-87246281D01*
X229935816Y-87271227D01*
X229845635Y-87300296D01*
X229762432Y-87328558D01*
X229701015Y-87351080D01*
X229690083Y-87355539D01*
X229639781Y-87372090D01*
X229576310Y-87387381D01*
X229573667Y-87387900D01*
X229504078Y-87406782D01*
X229442426Y-87431466D01*
X229386749Y-87452979D01*
X229343603Y-87460667D01*
X229306439Y-87469915D01*
X229243405Y-87494575D01*
X229165921Y-87530015D01*
X229136177Y-87544780D01*
X229037316Y-87594142D01*
X228929671Y-87646554D01*
X228820352Y-87698711D01*
X228716472Y-87747307D01*
X228625140Y-87789034D01*
X228553468Y-87820588D01*
X228508565Y-87838663D01*
X228497617Y-87841667D01*
X228472425Y-87854377D01*
X228428090Y-87886761D01*
X228399910Y-87909925D01*
X228330965Y-87962985D01*
X228237746Y-88027071D01*
X228133466Y-88093832D01*
X228031334Y-88154916D01*
X227944561Y-88201972D01*
X227917840Y-88214672D01*
X227864679Y-88245895D01*
X227830738Y-88279669D01*
X227826978Y-88287549D01*
X227805001Y-88317209D01*
X227757358Y-88362283D01*
X227693290Y-88414230D01*
X227675646Y-88427396D01*
X227599910Y-88487346D01*
X227508918Y-88565963D01*
X227416441Y-88651105D01*
X227364341Y-88701902D01*
X227291073Y-88773325D01*
X227224138Y-88834958D01*
X227171642Y-88879548D01*
X227144483Y-88898603D01*
X227104348Y-88931054D01*
X227059065Y-88984444D01*
X227041758Y-89009781D01*
X226999123Y-89067575D01*
X226937613Y-89139317D01*
X226869723Y-89210529D01*
X226862150Y-89217953D01*
X226804357Y-89276851D01*
X226760762Y-89326416D01*
X226738673Y-89358161D01*
X226737333Y-89362911D01*
X226725316Y-89387499D01*
X226692263Y-89439198D01*
X226642673Y-89511356D01*
X226581047Y-89597317D01*
X226553077Y-89635370D01*
X226475005Y-89745577D01*
X226395875Y-89865425D01*
X226324566Y-89980984D01*
X226269958Y-90078326D01*
X226266734Y-90084601D01*
X226220023Y-90172792D01*
X226175585Y-90250619D01*
X226139499Y-90307732D01*
X226122907Y-90329381D01*
X226092575Y-90367173D01*
X226081167Y-90391296D01*
X226072455Y-90419999D01*
X226049367Y-90476152D01*
X226016471Y-90549348D01*
X225978339Y-90629180D01*
X225964566Y-90656833D01*
X225940640Y-90716822D01*
X225922870Y-90779949D01*
X225905669Y-90834189D01*
X225874858Y-90909531D01*
X225837035Y-90989877D01*
X225836155Y-90991616D01*
X225800955Y-91066578D01*
X225775255Y-91131797D01*
X225764170Y-91174157D01*
X225764063Y-91176475D01*
X225754469Y-91222009D01*
X225743211Y-91240322D01*
X225727732Y-91272447D01*
X225707166Y-91339141D01*
X225683045Y-91433160D01*
X225656900Y-91547260D01*
X225630260Y-91674198D01*
X225604658Y-91806729D01*
X225581623Y-91937610D01*
X225562688Y-92059597D01*
X225551160Y-92149083D01*
X225538245Y-92256287D01*
X225523466Y-92367589D01*
X225509635Y-92462004D01*
X225507206Y-92477167D01*
X225498995Y-92554819D01*
X225493952Y-92663145D01*
X225491823Y-92796260D01*
X225492359Y-92948281D01*
X225495307Y-93113322D01*
X225500418Y-93285500D01*
X225507440Y-93458929D01*
X225516121Y-93627726D01*
X225526212Y-93786005D01*
X225537460Y-93927883D01*
X225549615Y-94047475D01*
X225562426Y-94138896D01*
X225575641Y-94196263D01*
X225581075Y-94208505D01*
X225589885Y-94237614D01*
X225602128Y-94296623D01*
X225615345Y-94373511D01*
X225617031Y-94384345D01*
X225630773Y-94463064D01*
X225644768Y-94525802D01*
X225656244Y-94560343D01*
X225657374Y-94562083D01*
X225669202Y-94592777D01*
X225683965Y-94651948D01*
X225697123Y-94719396D01*
X225712392Y-94792988D01*
X225729033Y-94850349D01*
X225742121Y-94877088D01*
X225760776Y-94915465D01*
X225763667Y-94937983D01*
X225772554Y-94973840D01*
X225796324Y-95036449D01*
X225830646Y-95114841D01*
X225848333Y-95152254D01*
X225885621Y-95231266D01*
X225914530Y-95296284D01*
X225930861Y-95337681D01*
X225933000Y-95346387D01*
X225943305Y-95389797D01*
X225971922Y-95462222D01*
X226015407Y-95556364D01*
X226070315Y-95664923D01*
X226133203Y-95780599D01*
X226160276Y-95828012D01*
X226210983Y-95917638D01*
X226252734Y-95995463D01*
X226281384Y-96053470D01*
X226292788Y-96083642D01*
X226292833Y-96084449D01*
X226304538Y-96120618D01*
X226329875Y-96162847D01*
X226364748Y-96212522D01*
X226388083Y-96248237D01*
X226408085Y-96277839D01*
X226447622Y-96333965D01*
X226501250Y-96408958D01*
X226563525Y-96495166D01*
X226573165Y-96508440D01*
X226636749Y-96596923D01*
X226692762Y-96676714D01*
X226735600Y-96739700D01*
X226759654Y-96777767D01*
X226761101Y-96780446D01*
X226787431Y-96817084D01*
X226835317Y-96871883D01*
X226895325Y-96934164D01*
X226907633Y-96946268D01*
X226997653Y-97040364D01*
X227054703Y-97116624D01*
X227081520Y-97179957D01*
X227080841Y-97235267D01*
X227076482Y-97248983D01*
X227026138Y-97341082D01*
X226944629Y-97442572D01*
X226839497Y-97545695D01*
X226718280Y-97642695D01*
X226646639Y-97691162D01*
X226566324Y-97738389D01*
X226470021Y-97789735D01*
X226369430Y-97839516D01*
X226276245Y-97882045D01*
X226202165Y-97911639D01*
X226176417Y-97919687D01*
X225958480Y-97960254D01*
X225737541Y-97971908D01*
X225526070Y-97954564D01*
X225389836Y-97924978D01*
X225286407Y-97888367D01*
X225163437Y-97833940D01*
X225035424Y-97769050D01*
X224916863Y-97701053D01*
X224822252Y-97637303D01*
X224821254Y-97636542D01*
X224778698Y-97609451D01*
X224750617Y-97599500D01*
X224725668Y-97584229D01*
X224686319Y-97545224D01*
X224660960Y-97515461D01*
X224612347Y-97464033D01*
X224578231Y-97446014D01*
X224562148Y-97461670D01*
X224566893Y-97508371D01*
X224575814Y-97538602D01*
X224589326Y-97566788D01*
X224612983Y-97600466D01*
X224652336Y-97647175D01*
X224712937Y-97714453D01*
X224742375Y-97746635D01*
X224795152Y-97806759D01*
X224834354Y-97856229D01*
X224852895Y-97885980D01*
X224853500Y-97888824D01*
X224868145Y-97912151D01*
X224907825Y-97957580D01*
X224966161Y-98018838D01*
X225036772Y-98089652D01*
X225113278Y-98163749D01*
X225189300Y-98234857D01*
X225258457Y-98296701D01*
X225314369Y-98343009D01*
X225319167Y-98346680D01*
X225379925Y-98389485D01*
X225433311Y-98421678D01*
X225456750Y-98432352D01*
X225496791Y-98453729D01*
X225551914Y-98493219D01*
X225583750Y-98519441D01*
X225636243Y-98564943D01*
X225677407Y-98600449D01*
X225691209Y-98612241D01*
X225728460Y-98633174D01*
X225765293Y-98647014D01*
X225822922Y-98667210D01*
X225880083Y-98690408D01*
X225938482Y-98716086D01*
X226012010Y-98748481D01*
X226042964Y-98762137D01*
X226104979Y-98787416D01*
X226152985Y-98803267D01*
X226168106Y-98806000D01*
X226197833Y-98812514D01*
X226257965Y-98830121D01*
X226338951Y-98855915D01*
X226407392Y-98878803D01*
X226704431Y-98959238D01*
X227016121Y-99004846D01*
X227331942Y-99014832D01*
X227641373Y-98988405D01*
X227711000Y-98977009D01*
X227829323Y-98951963D01*
X227962258Y-98917978D01*
X228084979Y-98881510D01*
X228109079Y-98873475D01*
X228197885Y-98844399D01*
X228274935Y-98821612D01*
X228329300Y-98808228D01*
X228345955Y-98806000D01*
X228385451Y-98796767D01*
X228397962Y-98786377D01*
X228424518Y-98767910D01*
X228475068Y-98746822D01*
X228489170Y-98742194D01*
X228693006Y-98659543D01*
X228875167Y-98543994D01*
X228942848Y-98494531D01*
X229004813Y-98452933D01*
X229044500Y-98429881D01*
X229102730Y-98396508D01*
X229177782Y-98346062D01*
X229258383Y-98287012D01*
X229333260Y-98227825D01*
X229391142Y-98176967D01*
X229414883Y-98151665D01*
X229451026Y-98108499D01*
X229504492Y-98047953D01*
X229561645Y-97985371D01*
X229618732Y-97922325D01*
X229667916Y-97865118D01*
X229698462Y-97826250D01*
X229736923Y-97776489D01*
X229780661Y-97726500D01*
X229847508Y-97642076D01*
X229876246Y-97571863D01*
X229866421Y-97516968D01*
X229866415Y-97516958D01*
X229836201Y-97490072D01*
X229780038Y-97454850D01*
X229711444Y-97418270D01*
X229643936Y-97387313D01*
X229591030Y-97368957D01*
X229575340Y-97366667D01*
X229547899Y-97357567D01*
X229493840Y-97333506D01*
X229423953Y-97299338D01*
X229410910Y-97292687D01*
X229338607Y-97257146D01*
X229279429Y-97230910D01*
X229244563Y-97218882D01*
X229241913Y-97218603D01*
X229212200Y-97206532D01*
X229162605Y-97175653D01*
X229125496Y-97148900D01*
X229057860Y-97100542D01*
X228973414Y-97044289D01*
X228901573Y-96999169D01*
X228832574Y-96956139D01*
X228776082Y-96918641D01*
X228743735Y-96894418D01*
X228742823Y-96893561D01*
X228716785Y-96871059D01*
X228664953Y-96828196D01*
X228594656Y-96770976D01*
X228513224Y-96705400D01*
X228507067Y-96700469D01*
X228356634Y-96574294D01*
X228208127Y-96439116D01*
X228066687Y-96300425D01*
X227937452Y-96163709D01*
X227825562Y-96034458D01*
X227736156Y-95918161D01*
X227674374Y-95820308D01*
X227664302Y-95800333D01*
X227639777Y-95758782D01*
X227599807Y-95700426D01*
X227553638Y-95637744D01*
X227510515Y-95583216D01*
X227479684Y-95549318D01*
X227476104Y-95546333D01*
X227462747Y-95524814D01*
X227435491Y-95473448D01*
X227398472Y-95400690D01*
X227355827Y-95314991D01*
X227311693Y-95224804D01*
X227270206Y-95138582D01*
X227235504Y-95064778D01*
X227211724Y-95011845D01*
X227203000Y-94988297D01*
X227193076Y-94965205D01*
X227167397Y-94917442D01*
X227140651Y-94870951D01*
X227102460Y-94796159D01*
X227073186Y-94720890D01*
X227063738Y-94684811D01*
X227046754Y-94615972D01*
X227024870Y-94555888D01*
X227022758Y-94551500D01*
X227002763Y-94496923D01*
X226985134Y-94425361D01*
X226981199Y-94403333D01*
X226956592Y-94285871D01*
X226919127Y-94151575D01*
X226874982Y-94022333D01*
X226843040Y-93911489D01*
X226816603Y-93766274D01*
X226795933Y-93594326D01*
X226781294Y-93403283D01*
X226772949Y-93200781D01*
X226771160Y-92994459D01*
X226776191Y-92791953D01*
X226788305Y-92600901D01*
X226807765Y-92428939D01*
X226817924Y-92365753D01*
X226836338Y-92266648D01*
X226853508Y-92182243D01*
X226867482Y-92121636D01*
X226876153Y-92094166D01*
X226888704Y-92062414D01*
X226906569Y-92003949D01*
X226920660Y-91951580D01*
X226944519Y-91857838D01*
X226970134Y-91757178D01*
X226980822Y-91715167D01*
X227021947Y-91559969D01*
X227058740Y-91437358D01*
X227094510Y-91338282D01*
X227132567Y-91253688D01*
X227176222Y-91174525D01*
X227182072Y-91164833D01*
X227201206Y-91129134D01*
X227230735Y-91069602D01*
X227255991Y-91016667D01*
X227288499Y-90948753D01*
X227316162Y-90893394D01*
X227329604Y-90868500D01*
X227347904Y-90832824D01*
X227376018Y-90772599D01*
X227401544Y-90715247D01*
X227441893Y-90636129D01*
X227489341Y-90561961D01*
X227519290Y-90524747D01*
X227562478Y-90472934D01*
X227592332Y-90426535D01*
X227597229Y-90415042D01*
X227617135Y-90369461D01*
X227628604Y-90351542D01*
X227696273Y-90265611D01*
X227746386Y-90197853D01*
X227789053Y-90134398D01*
X227803481Y-90111624D01*
X227852736Y-90043488D01*
X227908693Y-89980525D01*
X227926932Y-89963457D01*
X228033586Y-89863832D01*
X228155324Y-89737360D01*
X228178682Y-89711851D01*
X228222612Y-89667231D01*
X228285372Y-89607922D01*
X228353513Y-89546625D01*
X228354705Y-89545583D01*
X228446593Y-89464587D01*
X228510485Y-89406324D01*
X228550842Y-89366353D01*
X228572125Y-89340229D01*
X228578797Y-89323509D01*
X228578833Y-89322371D01*
X228595456Y-89303402D01*
X228604154Y-89302167D01*
X228632807Y-89291240D01*
X228681975Y-89264160D01*
X228737795Y-89229475D01*
X228786403Y-89195733D01*
X228811667Y-89174210D01*
X228834498Y-89157991D01*
X228882391Y-89128294D01*
X228927036Y-89101979D01*
X229007907Y-89051824D01*
X229091927Y-88994636D01*
X229124449Y-88970703D01*
X229180239Y-88931345D01*
X229224747Y-88905667D01*
X229241913Y-88899979D01*
X229271677Y-88891040D01*
X229327964Y-88867393D01*
X229399688Y-88833764D01*
X229414917Y-88826252D01*
X229487292Y-88791280D01*
X229545239Y-88765186D01*
X229578243Y-88752658D01*
X229581051Y-88752189D01*
X229613571Y-88743287D01*
X229670673Y-88721079D01*
X229739164Y-88691374D01*
X229805852Y-88659979D01*
X229857547Y-88632703D01*
X229870000Y-88624974D01*
X229921112Y-88596945D01*
X229991829Y-88569710D01*
X230087274Y-88541834D01*
X230212569Y-88511884D01*
X230372837Y-88478424D01*
X230441500Y-88464969D01*
X230528447Y-88446592D01*
X230607246Y-88427231D01*
X230661612Y-88410907D01*
X230663750Y-88410109D01*
X230703347Y-88402876D01*
X230778918Y-88396103D01*
X230884108Y-88389918D01*
X231012559Y-88384447D01*
X231157914Y-88379820D01*
X231313816Y-88376163D01*
X231473909Y-88373606D01*
X231631834Y-88372276D01*
X231781236Y-88372300D01*
X231915758Y-88373807D01*
X232029042Y-88376925D01*
X232105910Y-88381087D01*
X232200659Y-88389129D01*
X232261622Y-88397667D01*
X232297303Y-88409064D01*
X232316208Y-88425685D01*
X232324019Y-88441709D01*
X232325987Y-88494334D01*
X232301399Y-88537729D01*
X232273104Y-88579890D01*
X232261833Y-88608226D01*
X232251262Y-88635575D01*
X232223808Y-88686307D01*
X232192737Y-88737663D01*
X232136217Y-88828684D01*
X232097614Y-88896641D01*
X232071396Y-88953713D01*
X232052031Y-89012079D01*
X232033985Y-89083919D01*
X232032459Y-89090500D01*
X232016721Y-89189239D01*
X232006361Y-89318095D01*
X232001370Y-89465198D01*
X232001742Y-89618677D01*
X232007467Y-89766659D01*
X232018539Y-89897274D01*
X232033050Y-89990083D01*
X232058373Y-90086713D01*
X232090859Y-90179732D01*
X232126024Y-90258511D01*
X232159382Y-90312419D01*
X232175498Y-90327718D01*
X232194652Y-90352514D01*
X232223345Y-90403756D01*
X232247243Y-90452944D01*
X232291010Y-90525799D01*
X232360411Y-90615555D01*
X232447177Y-90713758D01*
X232543042Y-90811954D01*
X232639739Y-90901688D01*
X232729001Y-90974506D01*
X232802560Y-91021954D01*
X232804701Y-91023027D01*
X232880280Y-91062828D01*
X232968807Y-91112773D01*
X233030334Y-91149418D01*
X233155719Y-91211364D01*
X233294875Y-91247687D01*
X233305501Y-91249454D01*
X233393545Y-91264691D01*
X233475657Y-91280665D01*
X233531833Y-91293377D01*
X233642949Y-91310054D01*
X233778914Y-91311442D01*
X233929258Y-91299310D01*
X234083508Y-91275430D01*
X234231193Y-91241572D01*
X234361842Y-91199509D01*
X234464983Y-91151010D01*
X234496056Y-91130308D01*
X234560368Y-91088902D01*
X234633669Y-91051136D01*
X234643865Y-91046726D01*
X234774937Y-90974922D01*
X234909242Y-90871129D01*
X235038312Y-90744046D01*
X235153682Y-90602367D01*
X235246885Y-90454790D01*
X235274974Y-90398441D01*
X235302071Y-90346047D01*
X235325147Y-90312386D01*
X235329735Y-90308365D01*
X235357437Y-90274724D01*
X235389201Y-90211426D01*
X235420314Y-90130227D01*
X235446060Y-90042884D01*
X235457386Y-89990083D01*
X235483988Y-89833274D01*
X235502144Y-89709220D01*
X235512490Y-89609331D01*
X235515666Y-89525017D01*
X235512308Y-89447685D01*
X235503376Y-89370958D01*
X235482389Y-89229416D01*
X235464071Y-89121321D01*
X235445849Y-89038113D01*
X235425152Y-88971230D01*
X235399406Y-88912111D01*
X235366040Y-88852197D01*
X235330368Y-88795188D01*
X235284082Y-88720865D01*
X235248179Y-88659093D01*
X235227859Y-88619019D01*
X235225167Y-88610083D01*
X235212695Y-88580241D01*
X235182710Y-88538125D01*
X235182700Y-88538114D01*
X235101253Y-88440823D01*
X235041396Y-88370097D01*
X234997798Y-88319830D01*
X234965129Y-88283916D01*
X234938058Y-88256249D01*
X234928833Y-88247301D01*
X234878438Y-88202305D01*
X234815034Y-88150240D01*
X234747852Y-88098098D01*
X234686124Y-88052867D01*
X234639079Y-88021537D01*
X234616754Y-88011000D01*
X234590900Y-87997900D01*
X234547432Y-87964777D01*
X234525187Y-87945461D01*
X234474063Y-87906854D01*
X234403545Y-87862907D01*
X234325403Y-87819865D01*
X234251404Y-87783975D01*
X234193316Y-87761481D01*
X234170075Y-87757000D01*
X234146988Y-87742687D01*
X234145667Y-87735833D01*
X234129912Y-87715278D01*
X234124982Y-87714666D01*
X234095750Y-87705250D01*
X234036325Y-87679277D01*
X233953843Y-87640160D01*
X233855438Y-87591315D01*
X233748245Y-87536154D01*
X233711750Y-87516931D01*
X233642756Y-87485346D01*
X233580198Y-87464963D01*
X233551942Y-87460755D01*
X233503054Y-87453602D01*
X233477858Y-87441199D01*
X233447472Y-87425177D01*
X233390364Y-87404411D01*
X233341333Y-87389720D01*
X233213155Y-87354233D01*
X233119819Y-87327678D01*
X233055252Y-87308130D01*
X233013379Y-87293663D01*
X232988125Y-87282354D01*
X232975015Y-87273642D01*
X232935409Y-87255682D01*
X232856792Y-87233778D01*
X232742237Y-87208567D01*
X232594817Y-87180690D01*
X232417606Y-87150784D01*
X232283000Y-87129819D01*
X232187368Y-87118912D01*
X232061151Y-87109793D01*
X231911496Y-87102512D01*
X231745547Y-87097122D01*
X231570448Y-87093672D01*
X231393344Y-87092213D01*
X231221380Y-87092797D01*
G36*
X236613642Y-90251082D02*
G01*
X236601915Y-90303371D01*
X236589810Y-90378105D01*
X236573687Y-90450354D01*
X236551611Y-90514579D01*
X236546061Y-90526272D01*
X236524726Y-90574466D01*
X236516464Y-90606517D01*
X236505674Y-90650735D01*
X236477784Y-90718210D01*
X236439041Y-90796886D01*
X236395693Y-90874709D01*
X236353989Y-90939623D01*
X236325833Y-90974333D01*
X236312083Y-90997207D01*
X236285337Y-91048091D01*
X236250906Y-91116822D01*
X236244112Y-91130695D01*
X236194282Y-91218870D01*
X236133909Y-91306175D01*
X236080070Y-91369377D01*
X236014436Y-91448815D01*
X235987592Y-91519757D01*
X235998297Y-91587473D01*
X236019788Y-91625320D01*
X236058205Y-91700465D01*
X236095283Y-91812062D01*
X236129247Y-91954232D01*
X236145944Y-92043250D01*
X236163406Y-92138575D01*
X236182240Y-92231388D01*
X236198619Y-92302914D01*
X236199885Y-92307833D01*
X236208829Y-92365532D01*
X236215981Y-92458608D01*
X236221370Y-92580144D01*
X236225025Y-92723224D01*
X236226976Y-92880931D01*
X236227251Y-93046347D01*
X236225879Y-93212556D01*
X236222890Y-93372641D01*
X236218312Y-93519685D01*
X236212175Y-93646771D01*
X236204507Y-93746982D01*
X236195339Y-93813401D01*
X236193527Y-93821250D01*
X236172378Y-93914942D01*
X236154066Y-94014720D01*
X236146860Y-94064667D01*
X236119122Y-94214165D01*
X236075015Y-94361291D01*
X236030110Y-94466833D01*
X236000329Y-94536143D01*
X235978680Y-94604750D01*
X235977609Y-94609465D01*
X235961937Y-94660085D01*
X235944196Y-94689404D01*
X235943205Y-94690090D01*
X235927192Y-94718724D01*
X235922949Y-94748541D01*
X235913428Y-94796362D01*
X235890516Y-94859428D01*
X235881333Y-94879583D01*
X235856011Y-94937610D01*
X235841219Y-94982298D01*
X235839718Y-94992019D01*
X235827886Y-95038199D01*
X235798901Y-95105007D01*
X235760109Y-95178546D01*
X235718854Y-95244920D01*
X235682482Y-95290230D01*
X235681723Y-95290949D01*
X235640521Y-95343872D01*
X235616488Y-95399362D01*
X235596528Y-95452174D01*
X235573056Y-95483962D01*
X235547217Y-95514133D01*
X235542667Y-95527542D01*
X235531774Y-95552741D01*
X235502847Y-95603345D01*
X235461515Y-95669658D01*
X235448962Y-95688992D01*
X235382745Y-95786497D01*
X235317892Y-95872722D01*
X235241682Y-95964125D01*
X235196860Y-96015202D01*
X235164720Y-96063615D01*
X235152814Y-96091213D01*
X235130646Y-96128176D01*
X235087580Y-96179337D01*
X235052294Y-96215011D01*
X234957395Y-96305614D01*
X234884854Y-96377268D01*
X234825549Y-96439328D01*
X234770360Y-96501148D01*
X234748917Y-96526114D01*
X234699261Y-96578754D01*
X234655987Y-96614887D01*
X234632500Y-96625765D01*
X234604464Y-96639678D01*
X234554301Y-96676964D01*
X234490065Y-96731312D01*
X234443395Y-96773913D01*
X234372484Y-96837931D01*
X234308593Y-96890918D01*
X234260535Y-96925801D01*
X234242312Y-96935310D01*
X234205126Y-96954481D01*
X234146736Y-96992822D01*
X234078677Y-97042670D01*
X234066746Y-97051916D01*
X234002380Y-97100478D01*
X233950025Y-97136732D01*
X233919043Y-97154282D01*
X233915880Y-97155000D01*
X233887560Y-97169459D01*
X233872224Y-97184673D01*
X233833759Y-97212043D01*
X233790257Y-97228656D01*
X233735196Y-97249394D01*
X233701167Y-97270562D01*
X233655747Y-97297909D01*
X233616500Y-97312700D01*
X233557831Y-97332474D01*
X233500083Y-97356223D01*
X233393232Y-97404641D01*
X233317814Y-97437741D01*
X233266969Y-97458251D01*
X233233835Y-97468899D01*
X233211551Y-97472413D01*
X233207651Y-97472500D01*
X233177038Y-97480948D01*
X233172000Y-97489772D01*
X233153500Y-97508052D01*
X233105495Y-97533327D01*
X233039232Y-97561121D01*
X232965955Y-97586954D01*
X232896909Y-97606351D01*
X232862540Y-97612988D01*
X232787869Y-97629189D01*
X232717801Y-97652659D01*
X232713718Y-97654436D01*
X232647671Y-97675671D01*
X232586039Y-97684167D01*
X232530835Y-97689918D01*
X232456034Y-97704639D01*
X232409321Y-97716494D01*
X232337452Y-97730292D01*
X232225234Y-97743065D01*
X232074643Y-97754643D01*
X231887655Y-97764859D01*
X231796642Y-97768787D01*
X231652601Y-97775001D01*
X231519988Y-97781527D01*
X231405576Y-97787967D01*
X231316137Y-97793924D01*
X231258445Y-97799000D01*
X231242543Y-97801306D01*
X231199691Y-97825502D01*
X231144474Y-97876642D01*
X231085410Y-97944848D01*
X231031017Y-98020239D01*
X230989813Y-98092937D01*
X230988335Y-98096142D01*
X230964817Y-98135341D01*
X230946103Y-98149833D01*
X230931498Y-98167530D01*
X230928333Y-98190786D01*
X230914290Y-98222478D01*
X230876386Y-98275537D01*
X230820964Y-98341665D01*
X230774875Y-98391565D01*
X230691978Y-98478706D01*
X230602684Y-98573850D01*
X230522017Y-98660951D01*
X230496137Y-98689279D01*
X230436806Y-98751250D01*
X230385536Y-98798787D01*
X230350464Y-98824577D01*
X230342678Y-98827167D01*
X230316690Y-98837685D01*
X230323340Y-98864011D01*
X230360155Y-98898306D01*
X230366464Y-98902572D01*
X230418470Y-98922523D01*
X230507739Y-98940204D01*
X230629218Y-98954648D01*
X230646922Y-98956221D01*
X230764562Y-98966972D01*
X230888745Y-98979391D01*
X230999935Y-98991486D01*
X231044195Y-98996745D01*
X231173111Y-99007759D01*
X231330615Y-99013595D01*
X231503301Y-99014409D01*
X231677760Y-99010356D01*
X231840585Y-99001590D01*
X231978370Y-98988267D01*
X231997250Y-98985716D01*
X232106320Y-98970194D01*
X232221550Y-98953744D01*
X232320946Y-98939507D01*
X232335917Y-98937356D01*
X232438767Y-98918865D01*
X232552935Y-98892860D01*
X232632250Y-98871220D01*
X232729908Y-98844087D01*
X232833826Y-98818919D01*
X232907417Y-98803832D01*
X232989068Y-98786270D01*
X233064156Y-98765061D01*
X233101116Y-98751303D01*
X233166824Y-98729889D01*
X233228116Y-98721203D01*
X233293281Y-98710856D01*
X233345199Y-98691448D01*
X233408671Y-98665610D01*
X233472199Y-98648242D01*
X233527896Y-98633045D01*
X233597841Y-98608166D01*
X233668993Y-98579013D01*
X233728309Y-98550991D01*
X233762747Y-98529510D01*
X233765330Y-98526712D01*
X233789220Y-98510872D01*
X233840568Y-98484382D01*
X233902914Y-98455399D01*
X233983648Y-98419130D01*
X234082499Y-98374174D01*
X234186858Y-98326323D01*
X234284120Y-98281369D01*
X234361676Y-98245103D01*
X234389083Y-98232057D01*
X234430804Y-98205646D01*
X234485215Y-98163557D01*
X234505500Y-98146188D01*
X234569423Y-98097505D01*
X234637095Y-98057171D01*
X234653667Y-98049474D01*
X234693294Y-98026912D01*
X234757753Y-97983922D01*
X234838875Y-97926594D01*
X234928493Y-97861014D01*
X235018438Y-97793270D01*
X235100541Y-97729452D01*
X235166635Y-97675647D01*
X235208550Y-97637943D01*
X235214583Y-97631406D01*
X235248595Y-97603064D01*
X235288667Y-97578472D01*
X235324975Y-97551651D01*
X235381025Y-97501411D01*
X235448193Y-97435757D01*
X235497584Y-97384515D01*
X235563268Y-97316673D01*
X235619668Y-97262223D01*
X235659882Y-97227601D01*
X235675612Y-97218500D01*
X235702020Y-97203634D01*
X235741437Y-97167677D01*
X235781723Y-97123589D01*
X235810735Y-97084331D01*
X235817833Y-97066684D01*
X235831696Y-97045135D01*
X235869059Y-97000833D01*
X235923583Y-96941056D01*
X235966000Y-96896550D01*
X236028586Y-96829491D01*
X236078094Y-96771769D01*
X236108125Y-96731119D01*
X236114167Y-96717522D01*
X236129948Y-96683611D01*
X236140687Y-96674510D01*
X236166807Y-96648045D01*
X236204832Y-96598697D01*
X236229835Y-96562333D01*
X236275284Y-96496270D01*
X236334212Y-96414664D01*
X236393815Y-96335246D01*
X236441703Y-96270681D01*
X236477388Y-96218238D01*
X236494519Y-96187373D01*
X236495167Y-96184379D01*
X236509641Y-96156175D01*
X236525556Y-96140129D01*
X236552094Y-96101793D01*
X236569751Y-96052053D01*
X236590654Y-95997986D01*
X236628155Y-95931670D01*
X236650486Y-95899293D01*
X236686743Y-95848064D01*
X236719356Y-95794822D01*
X236753612Y-95729683D01*
X236794798Y-95642761D01*
X236833598Y-95556917D01*
X236882531Y-95445846D01*
X236915140Y-95367669D01*
X236933488Y-95317147D01*
X236939640Y-95289042D01*
X236939667Y-95287715D01*
X236947869Y-95255387D01*
X236968747Y-95200381D01*
X236983314Y-95166724D01*
X237054629Y-95005311D01*
X237107617Y-94876855D01*
X237143859Y-94776956D01*
X237164938Y-94701210D01*
X237172436Y-94645218D01*
X237172500Y-94640369D01*
X237181133Y-94571820D01*
X237202028Y-94500689D01*
X237203210Y-94497808D01*
X237222267Y-94435675D01*
X237239120Y-94352727D01*
X237247313Y-94292113D01*
X237261052Y-94199002D01*
X237281765Y-94103485D01*
X237295978Y-94054083D01*
X237304681Y-94023609D01*
X237311853Y-93986552D01*
X237317636Y-93938797D01*
X237322173Y-93876228D01*
X237325608Y-93794732D01*
X237328082Y-93690192D01*
X237329739Y-93558495D01*
X237330722Y-93395525D01*
X237331174Y-93197167D01*
X237331250Y-93038083D01*
X237330958Y-92803694D01*
X237330021Y-92608490D01*
X237328352Y-92449327D01*
X237325862Y-92323059D01*
X237322461Y-92226543D01*
X237318062Y-92156633D01*
X237312575Y-92110185D01*
X237305912Y-92084055D01*
X237304244Y-92080660D01*
X237289081Y-92037832D01*
X237273017Y-91966497D01*
X237259001Y-91880302D01*
X237256208Y-91858410D01*
X237243969Y-91771541D01*
X237230233Y-91696995D01*
X237217521Y-91647972D01*
X237214718Y-91641083D01*
X237199673Y-91596590D01*
X237183362Y-91528602D01*
X237174589Y-91482333D01*
X237130554Y-91302684D01*
X237061670Y-91122648D01*
X237056701Y-91111917D01*
X237005894Y-91001480D01*
X236971578Y-90921339D01*
X236950989Y-90864089D01*
X236941362Y-90822324D01*
X236939667Y-90798317D01*
X236933413Y-90756701D01*
X236920182Y-90741500D01*
X236902812Y-90723190D01*
X236886940Y-90678691D01*
X236885975Y-90674472D01*
X236863769Y-90607675D01*
X236831456Y-90542180D01*
X236803899Y-90481381D01*
X236791619Y-90423437D01*
X236791579Y-90420973D01*
X236780757Y-90374952D01*
X236759750Y-90352845D01*
X236731614Y-90325919D01*
X236728000Y-90310682D01*
X236711786Y-90278289D01*
X236676393Y-90246887D01*
X236646608Y-90229315D01*
X236627116Y-90228555D01*
X236613642Y-90251082D01*
X236613642Y-90251082D01*
G37*
X236613642Y-90251082D02*
X236601915Y-90303371D01*
X236589810Y-90378105D01*
X236573687Y-90450354D01*
X236551611Y-90514579D01*
X236546061Y-90526272D01*
X236524726Y-90574466D01*
X236516464Y-90606517D01*
X236505674Y-90650735D01*
X236477784Y-90718210D01*
X236439041Y-90796886D01*
X236395693Y-90874709D01*
X236353989Y-90939623D01*
X236325833Y-90974333D01*
X236312083Y-90997207D01*
X236285337Y-91048091D01*
X236250906Y-91116822D01*
X236244112Y-91130695D01*
X236194282Y-91218870D01*
X236133909Y-91306175D01*
X236080070Y-91369377D01*
X236014436Y-91448815D01*
X235987592Y-91519757D01*
X235998297Y-91587473D01*
X236019788Y-91625320D01*
X236058205Y-91700465D01*
X236095283Y-91812062D01*
X236129247Y-91954232D01*
X236145944Y-92043250D01*
X236163406Y-92138575D01*
X236182240Y-92231388D01*
X236198619Y-92302914D01*
X236199885Y-92307833D01*
X236208829Y-92365532D01*
X236215981Y-92458608D01*
X236221370Y-92580144D01*
X236225025Y-92723224D01*
X236226976Y-92880931D01*
X236227251Y-93046347D01*
X236225879Y-93212556D01*
X236222890Y-93372641D01*
X236218312Y-93519685D01*
X236212175Y-93646771D01*
X236204507Y-93746982D01*
X236195339Y-93813401D01*
X236193527Y-93821250D01*
X236172378Y-93914942D01*
X236154066Y-94014720D01*
X236146860Y-94064667D01*
X236119122Y-94214165D01*
X236075015Y-94361291D01*
X236030110Y-94466833D01*
X236000329Y-94536143D01*
X235978680Y-94604750D01*
X235977609Y-94609465D01*
X235961937Y-94660085D01*
X235944196Y-94689404D01*
X235943205Y-94690090D01*
X235927192Y-94718724D01*
X235922949Y-94748541D01*
X235913428Y-94796362D01*
X235890516Y-94859428D01*
X235881333Y-94879583D01*
X235856011Y-94937610D01*
X235841219Y-94982298D01*
X235839718Y-94992019D01*
X235827886Y-95038199D01*
X235798901Y-95105007D01*
X235760109Y-95178546D01*
X235718854Y-95244920D01*
X235682482Y-95290230D01*
X235681723Y-95290949D01*
X235640521Y-95343872D01*
X235616488Y-95399362D01*
X235596528Y-95452174D01*
X235573056Y-95483962D01*
X235547217Y-95514133D01*
X235542667Y-95527542D01*
X235531774Y-95552741D01*
X235502847Y-95603345D01*
X235461515Y-95669658D01*
X235448962Y-95688992D01*
X235382745Y-95786497D01*
X235317892Y-95872722D01*
X235241682Y-95964125D01*
X235196860Y-96015202D01*
X235164720Y-96063615D01*
X235152814Y-96091213D01*
X235130646Y-96128176D01*
X235087580Y-96179337D01*
X235052294Y-96215011D01*
X234957395Y-96305614D01*
X234884854Y-96377268D01*
X234825549Y-96439328D01*
X234770360Y-96501148D01*
X234748917Y-96526114D01*
X234699261Y-96578754D01*
X234655987Y-96614887D01*
X234632500Y-96625765D01*
X234604464Y-96639678D01*
X234554301Y-96676964D01*
X234490065Y-96731312D01*
X234443395Y-96773913D01*
X234372484Y-96837931D01*
X234308593Y-96890918D01*
X234260535Y-96925801D01*
X234242312Y-96935310D01*
X234205126Y-96954481D01*
X234146736Y-96992822D01*
X234078677Y-97042670D01*
X234066746Y-97051916D01*
X234002380Y-97100478D01*
X233950025Y-97136732D01*
X233919043Y-97154282D01*
X233915880Y-97155000D01*
X233887560Y-97169459D01*
X233872224Y-97184673D01*
X233833759Y-97212043D01*
X233790257Y-97228656D01*
X233735196Y-97249394D01*
X233701167Y-97270562D01*
X233655747Y-97297909D01*
X233616500Y-97312700D01*
X233557831Y-97332474D01*
X233500083Y-97356223D01*
X233393232Y-97404641D01*
X233317814Y-97437741D01*
X233266969Y-97458251D01*
X233233835Y-97468899D01*
X233211551Y-97472413D01*
X233207651Y-97472500D01*
X233177038Y-97480948D01*
X233172000Y-97489772D01*
X233153500Y-97508052D01*
X233105495Y-97533327D01*
X233039232Y-97561121D01*
X232965955Y-97586954D01*
X232896909Y-97606351D01*
X232862540Y-97612988D01*
X232787869Y-97629189D01*
X232717801Y-97652659D01*
X232713718Y-97654436D01*
X232647671Y-97675671D01*
X232586039Y-97684167D01*
X232530835Y-97689918D01*
X232456034Y-97704639D01*
X232409321Y-97716494D01*
X232337452Y-97730292D01*
X232225234Y-97743065D01*
X232074643Y-97754643D01*
X231887655Y-97764859D01*
X231796642Y-97768787D01*
X231652601Y-97775001D01*
X231519988Y-97781527D01*
X231405576Y-97787967D01*
X231316137Y-97793924D01*
X231258445Y-97799000D01*
X231242543Y-97801306D01*
X231199691Y-97825502D01*
X231144474Y-97876642D01*
X231085410Y-97944848D01*
X231031017Y-98020239D01*
X230989813Y-98092937D01*
X230988335Y-98096142D01*
X230964817Y-98135341D01*
X230946103Y-98149833D01*
X230931498Y-98167530D01*
X230928333Y-98190786D01*
X230914290Y-98222478D01*
X230876386Y-98275537D01*
X230820964Y-98341665D01*
X230774875Y-98391565D01*
X230691978Y-98478706D01*
X230602684Y-98573850D01*
X230522017Y-98660951D01*
X230496137Y-98689279D01*
X230436806Y-98751250D01*
X230385536Y-98798787D01*
X230350464Y-98824577D01*
X230342678Y-98827167D01*
X230316690Y-98837685D01*
X230323340Y-98864011D01*
X230360155Y-98898306D01*
X230366464Y-98902572D01*
X230418470Y-98922523D01*
X230507739Y-98940204D01*
X230629218Y-98954648D01*
X230646922Y-98956221D01*
X230764562Y-98966972D01*
X230888745Y-98979391D01*
X230999935Y-98991486D01*
X231044195Y-98996745D01*
X231173111Y-99007759D01*
X231330615Y-99013595D01*
X231503301Y-99014409D01*
X231677760Y-99010356D01*
X231840585Y-99001590D01*
X231978370Y-98988267D01*
X231997250Y-98985716D01*
X232106320Y-98970194D01*
X232221550Y-98953744D01*
X232320946Y-98939507D01*
X232335917Y-98937356D01*
X232438767Y-98918865D01*
X232552935Y-98892860D01*
X232632250Y-98871220D01*
X232729908Y-98844087D01*
X232833826Y-98818919D01*
X232907417Y-98803832D01*
X232989068Y-98786270D01*
X233064156Y-98765061D01*
X233101116Y-98751303D01*
X233166824Y-98729889D01*
X233228116Y-98721203D01*
X233293281Y-98710856D01*
X233345199Y-98691448D01*
X233408671Y-98665610D01*
X233472199Y-98648242D01*
X233527896Y-98633045D01*
X233597841Y-98608166D01*
X233668993Y-98579013D01*
X233728309Y-98550991D01*
X233762747Y-98529510D01*
X233765330Y-98526712D01*
X233789220Y-98510872D01*
X233840568Y-98484382D01*
X233902914Y-98455399D01*
X233983648Y-98419130D01*
X234082499Y-98374174D01*
X234186858Y-98326323D01*
X234284120Y-98281369D01*
X234361676Y-98245103D01*
X234389083Y-98232057D01*
X234430804Y-98205646D01*
X234485215Y-98163557D01*
X234505500Y-98146188D01*
X234569423Y-98097505D01*
X234637095Y-98057171D01*
X234653667Y-98049474D01*
X234693294Y-98026912D01*
X234757753Y-97983922D01*
X234838875Y-97926594D01*
X234928493Y-97861014D01*
X235018438Y-97793270D01*
X235100541Y-97729452D01*
X235166635Y-97675647D01*
X235208550Y-97637943D01*
X235214583Y-97631406D01*
X235248595Y-97603064D01*
X235288667Y-97578472D01*
X235324975Y-97551651D01*
X235381025Y-97501411D01*
X235448193Y-97435757D01*
X235497584Y-97384515D01*
X235563268Y-97316673D01*
X235619668Y-97262223D01*
X235659882Y-97227601D01*
X235675612Y-97218500D01*
X235702020Y-97203634D01*
X235741437Y-97167677D01*
X235781723Y-97123589D01*
X235810735Y-97084331D01*
X235817833Y-97066684D01*
X235831696Y-97045135D01*
X235869059Y-97000833D01*
X235923583Y-96941056D01*
X235966000Y-96896550D01*
X236028586Y-96829491D01*
X236078094Y-96771769D01*
X236108125Y-96731119D01*
X236114167Y-96717522D01*
X236129948Y-96683611D01*
X236140687Y-96674510D01*
X236166807Y-96648045D01*
X236204832Y-96598697D01*
X236229835Y-96562333D01*
X236275284Y-96496270D01*
X236334212Y-96414664D01*
X236393815Y-96335246D01*
X236441703Y-96270681D01*
X236477388Y-96218238D01*
X236494519Y-96187373D01*
X236495167Y-96184379D01*
X236509641Y-96156175D01*
X236525556Y-96140129D01*
X236552094Y-96101793D01*
X236569751Y-96052053D01*
X236590654Y-95997986D01*
X236628155Y-95931670D01*
X236650486Y-95899293D01*
X236686743Y-95848064D01*
X236719356Y-95794822D01*
X236753612Y-95729683D01*
X236794798Y-95642761D01*
X236833598Y-95556917D01*
X236882531Y-95445846D01*
X236915140Y-95367669D01*
X236933488Y-95317147D01*
X236939640Y-95289042D01*
X236939667Y-95287715D01*
X236947869Y-95255387D01*
X236968747Y-95200381D01*
X236983314Y-95166724D01*
X237054629Y-95005311D01*
X237107617Y-94876855D01*
X237143859Y-94776956D01*
X237164938Y-94701210D01*
X237172436Y-94645218D01*
X237172500Y-94640369D01*
X237181133Y-94571820D01*
X237202028Y-94500689D01*
X237203210Y-94497808D01*
X237222267Y-94435675D01*
X237239120Y-94352727D01*
X237247313Y-94292113D01*
X237261052Y-94199002D01*
X237281765Y-94103485D01*
X237295978Y-94054083D01*
X237304681Y-94023609D01*
X237311853Y-93986552D01*
X237317636Y-93938797D01*
X237322173Y-93876228D01*
X237325608Y-93794732D01*
X237328082Y-93690192D01*
X237329739Y-93558495D01*
X237330722Y-93395525D01*
X237331174Y-93197167D01*
X237331250Y-93038083D01*
X237330958Y-92803694D01*
X237330021Y-92608490D01*
X237328352Y-92449327D01*
X237325862Y-92323059D01*
X237322461Y-92226543D01*
X237318062Y-92156633D01*
X237312575Y-92110185D01*
X237305912Y-92084055D01*
X237304244Y-92080660D01*
X237289081Y-92037832D01*
X237273017Y-91966497D01*
X237259001Y-91880302D01*
X237256208Y-91858410D01*
X237243969Y-91771541D01*
X237230233Y-91696995D01*
X237217521Y-91647972D01*
X237214718Y-91641083D01*
X237199673Y-91596590D01*
X237183362Y-91528602D01*
X237174589Y-91482333D01*
X237130554Y-91302684D01*
X237061670Y-91122648D01*
X237056701Y-91111917D01*
X237005894Y-91001480D01*
X236971578Y-90921339D01*
X236950989Y-90864089D01*
X236941362Y-90822324D01*
X236939667Y-90798317D01*
X236933413Y-90756701D01*
X236920182Y-90741500D01*
X236902812Y-90723190D01*
X236886940Y-90678691D01*
X236885975Y-90674472D01*
X236863769Y-90607675D01*
X236831456Y-90542180D01*
X236803899Y-90481381D01*
X236791619Y-90423437D01*
X236791579Y-90420973D01*
X236780757Y-90374952D01*
X236759750Y-90352845D01*
X236731614Y-90325919D01*
X236728000Y-90310682D01*
X236711786Y-90278289D01*
X236676393Y-90246887D01*
X236646608Y-90229315D01*
X236627116Y-90228555D01*
X236613642Y-90251082D01*
D12*
X169797000Y-92390000D02*
X177497000Y-92390000D01*
X177497000Y-86940000D02*
X177497000Y-92390000D01*
X169797000Y-86940000D02*
X169797000Y-92390000D01*
D13*
X198457750Y-98196500D02*
X198457750Y-101496500D01*
X198457750Y-101496500D02*
X194457750Y-101496500D01*
D12*
X191675000Y-118078000D02*
X191675000Y-117503000D01*
X202025000Y-118078000D02*
X202025000Y-117403000D01*
X202025000Y-107728000D02*
X202025000Y-108403000D01*
X191675000Y-107728000D02*
X191675000Y-108403000D01*
X191675000Y-118078000D02*
X192350000Y-118078000D01*
X191675000Y-107728000D02*
X192350000Y-107728000D01*
X202025000Y-107728000D02*
X201350000Y-107728000D01*
X202025000Y-118078000D02*
X201350000Y-118078000D01*
X191675000Y-117503000D02*
X190400000Y-117503000D01*
X170291000Y-116205000D02*
G75*
G03X170291000Y-116205000I-1000000J0D01*
G01*
X171891000Y-118805000D02*
X171891000Y-113605000D01*
X166691000Y-118805000D02*
X171891000Y-118805000D01*
X166691000Y-113605000D02*
X166691000Y-118805000D01*
X171891000Y-113605000D02*
X166691000Y-113605000D01*
D13*
X207593000Y-118241578D02*
X207593000Y-117724422D01*
X206173000Y-118241578D02*
X206173000Y-117724422D01*
X172541000Y-99064578D02*
X172541000Y-98547422D01*
X171121000Y-99064578D02*
X171121000Y-98547422D01*
X175208000Y-99064578D02*
X175208000Y-98547422D01*
X173788000Y-99064578D02*
X173788000Y-98547422D01*
X184583000Y-102816922D02*
X184583000Y-103334078D01*
X186003000Y-102816922D02*
X186003000Y-103334078D01*
X168931000Y-99532064D02*
X168931000Y-98327936D01*
X167111000Y-99532064D02*
X167111000Y-98327936D01*
X271383000Y-106898000D02*
X269383000Y-106898000D01*
X269383000Y-106898000D02*
X269383000Y-102998000D01*
X271383000Y-106898000D02*
X271383000Y-102998000D01*
X252460000Y-107025000D02*
X250460000Y-107025000D01*
X250460000Y-107025000D02*
X250460000Y-103125000D01*
X252460000Y-107025000D02*
X252460000Y-103125000D01*
X158353000Y-107025000D02*
X156353000Y-107025000D01*
X156353000Y-107025000D02*
X156353000Y-103125000D01*
X158353000Y-107025000D02*
X158353000Y-103125000D01*
X139430000Y-106771000D02*
X137430000Y-106771000D01*
X137430000Y-106771000D02*
X137430000Y-102871000D01*
X139430000Y-106771000D02*
X139430000Y-102871000D01*
X187059500Y-116898922D02*
X187059500Y-117416078D01*
X188479500Y-116898922D02*
X188479500Y-117416078D01*
X201553578Y-120956000D02*
X201036422Y-120956000D01*
X201553578Y-122376000D02*
X201036422Y-122376000D01*
X207529500Y-107097328D02*
X207529500Y-106580172D01*
X206109500Y-107097328D02*
X206109500Y-106580172D01*
X190067000Y-103272328D02*
X190067000Y-102755172D01*
X188647000Y-103272328D02*
X188647000Y-102755172D01*
X186440578Y-109303750D02*
X185923422Y-109303750D01*
X186440578Y-110723750D02*
X185923422Y-110723750D01*
X191472750Y-99531672D02*
X191472750Y-100048828D01*
X192892750Y-99531672D02*
X192892750Y-100048828D01*
X201624000Y-100048828D02*
X201624000Y-99531672D01*
X200204000Y-100048828D02*
X200204000Y-99531672D01*
D12*
X175385095Y-88424380D02*
X175385095Y-89233904D01*
X175337476Y-89329142D01*
X175289857Y-89376761D01*
X175194619Y-89424380D01*
X175004142Y-89424380D01*
X174908904Y-89376761D01*
X174861285Y-89329142D01*
X174813666Y-89233904D01*
X174813666Y-88424380D01*
X174385095Y-89376761D02*
X174242238Y-89424380D01*
X174004142Y-89424380D01*
X173908904Y-89376761D01*
X173861285Y-89329142D01*
X173813666Y-89233904D01*
X173813666Y-89138666D01*
X173861285Y-89043428D01*
X173908904Y-88995809D01*
X174004142Y-88948190D01*
X174194619Y-88900571D01*
X174289857Y-88852952D01*
X174337476Y-88805333D01*
X174385095Y-88710095D01*
X174385095Y-88614857D01*
X174337476Y-88519619D01*
X174289857Y-88472000D01*
X174194619Y-88424380D01*
X173956523Y-88424380D01*
X173813666Y-88472000D01*
X173051761Y-88900571D02*
X172908904Y-88948190D01*
X172861285Y-88995809D01*
X172813666Y-89091047D01*
X172813666Y-89233904D01*
X172861285Y-89329142D01*
X172908904Y-89376761D01*
X173004142Y-89424380D01*
X173385095Y-89424380D01*
X173385095Y-88424380D01*
X173051761Y-88424380D01*
X172956523Y-88472000D01*
X172908904Y-88519619D01*
X172861285Y-88614857D01*
X172861285Y-88710095D01*
X172908904Y-88805333D01*
X172956523Y-88852952D01*
X173051761Y-88900571D01*
X173385095Y-88900571D01*
X171861285Y-89424380D02*
X172432714Y-89424380D01*
X172147000Y-89424380D02*
X172147000Y-88424380D01*
X172242238Y-88567238D01*
X172337476Y-88662476D01*
X172432714Y-88710095D01*
X196933940Y-97372690D02*
X196933940Y-97848880D01*
X197267273Y-96848880D02*
X196933940Y-97372690D01*
X196600607Y-96848880D01*
X195743464Y-97848880D02*
X196314892Y-97848880D01*
X196029178Y-97848880D02*
X196029178Y-96848880D01*
X196124416Y-96991738D01*
X196219654Y-97086976D01*
X196314892Y-97134595D01*
X197611904Y-119805380D02*
X197611904Y-120614904D01*
X197564285Y-120710142D01*
X197516666Y-120757761D01*
X197421428Y-120805380D01*
X197230952Y-120805380D01*
X197135714Y-120757761D01*
X197088095Y-120710142D01*
X197040476Y-120614904D01*
X197040476Y-119805380D01*
X196040476Y-120805380D02*
X196611904Y-120805380D01*
X196326190Y-120805380D02*
X196326190Y-119805380D01*
X196421428Y-119948238D01*
X196516666Y-120043476D01*
X196611904Y-120091095D01*
X170624333Y-120673761D02*
X170481476Y-120721380D01*
X170243380Y-120721380D01*
X170148142Y-120673761D01*
X170100523Y-120626142D01*
X170052904Y-120530904D01*
X170052904Y-120435666D01*
X170100523Y-120340428D01*
X170148142Y-120292809D01*
X170243380Y-120245190D01*
X170433857Y-120197571D01*
X170529095Y-120149952D01*
X170576714Y-120102333D01*
X170624333Y-120007095D01*
X170624333Y-119911857D01*
X170576714Y-119816619D01*
X170529095Y-119769000D01*
X170433857Y-119721380D01*
X170195761Y-119721380D01*
X170052904Y-119769000D01*
X169719571Y-119721380D02*
X169481476Y-120721380D01*
X169291000Y-120007095D01*
X169100523Y-120721380D01*
X168862428Y-119721380D01*
X167957666Y-120721380D02*
X168529095Y-120721380D01*
X168243380Y-120721380D02*
X168243380Y-119721380D01*
X168338619Y-119864238D01*
X168433857Y-119959476D01*
X168529095Y-120007095D01*
X208985380Y-117816333D02*
X208509190Y-117483000D01*
X208985380Y-117244904D02*
X207985380Y-117244904D01*
X207985380Y-117625857D01*
X208033000Y-117721095D01*
X208080619Y-117768714D01*
X208175857Y-117816333D01*
X208318714Y-117816333D01*
X208413952Y-117768714D01*
X208461571Y-117721095D01*
X208509190Y-117625857D01*
X208509190Y-117244904D01*
X208318714Y-118673476D02*
X208985380Y-118673476D01*
X207937761Y-118435380D02*
X208652047Y-118197285D01*
X208652047Y-118816333D01*
X173933380Y-98639333D02*
X173457190Y-98306000D01*
X173933380Y-98067904D02*
X172933380Y-98067904D01*
X172933380Y-98448857D01*
X172981000Y-98544095D01*
X173028619Y-98591714D01*
X173123857Y-98639333D01*
X173266714Y-98639333D01*
X173361952Y-98591714D01*
X173409571Y-98544095D01*
X173457190Y-98448857D01*
X173457190Y-98067904D01*
X172933380Y-98972666D02*
X172933380Y-99591714D01*
X173314333Y-99258380D01*
X173314333Y-99401238D01*
X173361952Y-99496476D01*
X173409571Y-99544095D01*
X173504809Y-99591714D01*
X173742904Y-99591714D01*
X173838142Y-99544095D01*
X173885761Y-99496476D01*
X173933380Y-99401238D01*
X173933380Y-99115523D01*
X173885761Y-99020285D01*
X173838142Y-98972666D01*
X176600380Y-98639333D02*
X176124190Y-98306000D01*
X176600380Y-98067904D02*
X175600380Y-98067904D01*
X175600380Y-98448857D01*
X175648000Y-98544095D01*
X175695619Y-98591714D01*
X175790857Y-98639333D01*
X175933714Y-98639333D01*
X176028952Y-98591714D01*
X176076571Y-98544095D01*
X176124190Y-98448857D01*
X176124190Y-98067904D01*
X175695619Y-99020285D02*
X175648000Y-99067904D01*
X175600380Y-99163142D01*
X175600380Y-99401238D01*
X175648000Y-99496476D01*
X175695619Y-99544095D01*
X175790857Y-99591714D01*
X175886095Y-99591714D01*
X176028952Y-99544095D01*
X176600380Y-98972666D01*
X176600380Y-99591714D01*
X184095380Y-102908833D02*
X183619190Y-102575500D01*
X184095380Y-102337404D02*
X183095380Y-102337404D01*
X183095380Y-102718357D01*
X183143000Y-102813595D01*
X183190619Y-102861214D01*
X183285857Y-102908833D01*
X183428714Y-102908833D01*
X183523952Y-102861214D01*
X183571571Y-102813595D01*
X183619190Y-102718357D01*
X183619190Y-102337404D01*
X184095380Y-103861214D02*
X184095380Y-103289785D01*
X184095380Y-103575500D02*
X183095380Y-103575500D01*
X183238238Y-103480261D01*
X183333476Y-103385023D01*
X183381095Y-103289785D01*
X169769571Y-98596666D02*
X169769571Y-98263333D01*
X170293380Y-98263333D02*
X169293380Y-98263333D01*
X169293380Y-98739523D01*
X170293380Y-99644285D02*
X170293380Y-99072857D01*
X170293380Y-99358571D02*
X169293380Y-99358571D01*
X169436238Y-99263333D01*
X169531476Y-99168095D01*
X169579095Y-99072857D01*
X272835380Y-103909904D02*
X271835380Y-103909904D01*
X271835380Y-104148000D01*
X271883000Y-104290857D01*
X271978238Y-104386095D01*
X272073476Y-104433714D01*
X272263952Y-104481333D01*
X272406809Y-104481333D01*
X272597285Y-104433714D01*
X272692523Y-104386095D01*
X272787761Y-104290857D01*
X272835380Y-104148000D01*
X272835380Y-103909904D01*
X272168714Y-105338476D02*
X272835380Y-105338476D01*
X271787761Y-105100380D02*
X272502047Y-104862285D01*
X272502047Y-105481333D01*
X253912380Y-104036904D02*
X252912380Y-104036904D01*
X252912380Y-104275000D01*
X252960000Y-104417857D01*
X253055238Y-104513095D01*
X253150476Y-104560714D01*
X253340952Y-104608333D01*
X253483809Y-104608333D01*
X253674285Y-104560714D01*
X253769523Y-104513095D01*
X253864761Y-104417857D01*
X253912380Y-104275000D01*
X253912380Y-104036904D01*
X252912380Y-104941666D02*
X252912380Y-105560714D01*
X253293333Y-105227380D01*
X253293333Y-105370238D01*
X253340952Y-105465476D01*
X253388571Y-105513095D01*
X253483809Y-105560714D01*
X253721904Y-105560714D01*
X253817142Y-105513095D01*
X253864761Y-105465476D01*
X253912380Y-105370238D01*
X253912380Y-105084523D01*
X253864761Y-104989285D01*
X253817142Y-104941666D01*
X159805380Y-104036904D02*
X158805380Y-104036904D01*
X158805380Y-104275000D01*
X158853000Y-104417857D01*
X158948238Y-104513095D01*
X159043476Y-104560714D01*
X159233952Y-104608333D01*
X159376809Y-104608333D01*
X159567285Y-104560714D01*
X159662523Y-104513095D01*
X159757761Y-104417857D01*
X159805380Y-104275000D01*
X159805380Y-104036904D01*
X158900619Y-104989285D02*
X158853000Y-105036904D01*
X158805380Y-105132142D01*
X158805380Y-105370238D01*
X158853000Y-105465476D01*
X158900619Y-105513095D01*
X158995857Y-105560714D01*
X159091095Y-105560714D01*
X159233952Y-105513095D01*
X159805380Y-104941666D01*
X159805380Y-105560714D01*
X140882380Y-103782904D02*
X139882380Y-103782904D01*
X139882380Y-104021000D01*
X139930000Y-104163857D01*
X140025238Y-104259095D01*
X140120476Y-104306714D01*
X140310952Y-104354333D01*
X140453809Y-104354333D01*
X140644285Y-104306714D01*
X140739523Y-104259095D01*
X140834761Y-104163857D01*
X140882380Y-104021000D01*
X140882380Y-103782904D01*
X140882380Y-105306714D02*
X140882380Y-104735285D01*
X140882380Y-105021000D02*
X139882380Y-105021000D01*
X140025238Y-104925761D01*
X140120476Y-104830523D01*
X140168095Y-104735285D01*
X186476642Y-116990833D02*
X186524261Y-116943214D01*
X186571880Y-116800357D01*
X186571880Y-116705119D01*
X186524261Y-116562261D01*
X186429023Y-116467023D01*
X186333785Y-116419404D01*
X186143309Y-116371785D01*
X186000452Y-116371785D01*
X185809976Y-116419404D01*
X185714738Y-116467023D01*
X185619500Y-116562261D01*
X185571880Y-116705119D01*
X185571880Y-116800357D01*
X185619500Y-116943214D01*
X185667119Y-116990833D01*
X185571880Y-117324166D02*
X185571880Y-117990833D01*
X186571880Y-117562261D01*
X201461666Y-120373142D02*
X201509285Y-120420761D01*
X201652142Y-120468380D01*
X201747380Y-120468380D01*
X201890238Y-120420761D01*
X201985476Y-120325523D01*
X202033095Y-120230285D01*
X202080714Y-120039809D01*
X202080714Y-119896952D01*
X202033095Y-119706476D01*
X201985476Y-119611238D01*
X201890238Y-119516000D01*
X201747380Y-119468380D01*
X201652142Y-119468380D01*
X201509285Y-119516000D01*
X201461666Y-119563619D01*
X200604523Y-119468380D02*
X200795000Y-119468380D01*
X200890238Y-119516000D01*
X200937857Y-119563619D01*
X201033095Y-119706476D01*
X201080714Y-119896952D01*
X201080714Y-120277904D01*
X201033095Y-120373142D01*
X200985476Y-120420761D01*
X200890238Y-120468380D01*
X200699761Y-120468380D01*
X200604523Y-120420761D01*
X200556904Y-120373142D01*
X200509285Y-120277904D01*
X200509285Y-120039809D01*
X200556904Y-119944571D01*
X200604523Y-119896952D01*
X200699761Y-119849333D01*
X200890238Y-119849333D01*
X200985476Y-119896952D01*
X201033095Y-119944571D01*
X201080714Y-120039809D01*
X208826642Y-106672083D02*
X208874261Y-106624464D01*
X208921880Y-106481607D01*
X208921880Y-106386369D01*
X208874261Y-106243511D01*
X208779023Y-106148273D01*
X208683785Y-106100654D01*
X208493309Y-106053035D01*
X208350452Y-106053035D01*
X208159976Y-106100654D01*
X208064738Y-106148273D01*
X207969500Y-106243511D01*
X207921880Y-106386369D01*
X207921880Y-106481607D01*
X207969500Y-106624464D01*
X208017119Y-106672083D01*
X207921880Y-107576845D02*
X207921880Y-107100654D01*
X208398071Y-107053035D01*
X208350452Y-107100654D01*
X208302833Y-107195892D01*
X208302833Y-107433988D01*
X208350452Y-107529226D01*
X208398071Y-107576845D01*
X208493309Y-107624464D01*
X208731404Y-107624464D01*
X208826642Y-107576845D01*
X208874261Y-107529226D01*
X208921880Y-107433988D01*
X208921880Y-107195892D01*
X208874261Y-107100654D01*
X208826642Y-107053035D01*
X191364142Y-102847083D02*
X191411761Y-102799464D01*
X191459380Y-102656607D01*
X191459380Y-102561369D01*
X191411761Y-102418511D01*
X191316523Y-102323273D01*
X191221285Y-102275654D01*
X191030809Y-102228035D01*
X190887952Y-102228035D01*
X190697476Y-102275654D01*
X190602238Y-102323273D01*
X190507000Y-102418511D01*
X190459380Y-102561369D01*
X190459380Y-102656607D01*
X190507000Y-102799464D01*
X190554619Y-102847083D01*
X190792714Y-103704226D02*
X191459380Y-103704226D01*
X190411761Y-103466130D02*
X191126047Y-103228035D01*
X191126047Y-103847083D01*
X186348666Y-108720892D02*
X186396285Y-108768511D01*
X186539142Y-108816130D01*
X186634380Y-108816130D01*
X186777238Y-108768511D01*
X186872476Y-108673273D01*
X186920095Y-108578035D01*
X186967714Y-108387559D01*
X186967714Y-108244702D01*
X186920095Y-108054226D01*
X186872476Y-107958988D01*
X186777238Y-107863750D01*
X186634380Y-107816130D01*
X186539142Y-107816130D01*
X186396285Y-107863750D01*
X186348666Y-107911369D01*
X186015333Y-107816130D02*
X185396285Y-107816130D01*
X185729619Y-108197083D01*
X185586761Y-108197083D01*
X185491523Y-108244702D01*
X185443904Y-108292321D01*
X185396285Y-108387559D01*
X185396285Y-108625654D01*
X185443904Y-108720892D01*
X185491523Y-108768511D01*
X185586761Y-108816130D01*
X185872476Y-108816130D01*
X185967714Y-108768511D01*
X186015333Y-108720892D01*
X190889892Y-99623583D02*
X190937511Y-99575964D01*
X190985130Y-99433107D01*
X190985130Y-99337869D01*
X190937511Y-99195011D01*
X190842273Y-99099773D01*
X190747035Y-99052154D01*
X190556559Y-99004535D01*
X190413702Y-99004535D01*
X190223226Y-99052154D01*
X190127988Y-99099773D01*
X190032750Y-99195011D01*
X189985130Y-99337869D01*
X189985130Y-99433107D01*
X190032750Y-99575964D01*
X190080369Y-99623583D01*
X190080369Y-100004535D02*
X190032750Y-100052154D01*
X189985130Y-100147392D01*
X189985130Y-100385488D01*
X190032750Y-100480726D01*
X190080369Y-100528345D01*
X190175607Y-100575964D01*
X190270845Y-100575964D01*
X190413702Y-100528345D01*
X190985130Y-99956916D01*
X190985130Y-100575964D01*
X202921142Y-99623583D02*
X202968761Y-99575964D01*
X203016380Y-99433107D01*
X203016380Y-99337869D01*
X202968761Y-99195011D01*
X202873523Y-99099773D01*
X202778285Y-99052154D01*
X202587809Y-99004535D01*
X202444952Y-99004535D01*
X202254476Y-99052154D01*
X202159238Y-99099773D01*
X202064000Y-99195011D01*
X202016380Y-99337869D01*
X202016380Y-99433107D01*
X202064000Y-99575964D01*
X202111619Y-99623583D01*
X203016380Y-100575964D02*
X203016380Y-100004535D01*
X203016380Y-100290250D02*
X202016380Y-100290250D01*
X202159238Y-100195011D01*
X202254476Y-100099773D01*
X202302095Y-100004535D01*
%LPC*%
D14*
X245725000Y-99985000D03*
D15*
X245705000Y-100275000D02*
X245745000Y-99695000D01*
D14*
X245745000Y-99695000D03*
X240050001Y-101505000D03*
D15*
X239395000Y-102235000D02*
X240705002Y-100775000D01*
D16*
X243205000Y-104775000D03*
D14*
X240705000Y-100775000D03*
D17*
X241935000Y-109855000D03*
D18*
X244475000Y-109855000D03*
D19*
X238125000Y-104775000D03*
X248285000Y-104775000D03*
D20*
X175247000Y-91440000D03*
X174447000Y-91440000D03*
X173647000Y-91440000D03*
X172847000Y-91440000D03*
X172047000Y-91440000D03*
D21*
X169997000Y-91440000D03*
X177297000Y-91440000D03*
X177297000Y-86940000D03*
X169997000Y-86940000D03*
D14*
X264775000Y-99985000D03*
D15*
X264755000Y-100275000D02*
X264795000Y-99695000D01*
D14*
X264795000Y-99695000D03*
X259100001Y-101505000D03*
D15*
X258445000Y-102235000D02*
X259755002Y-100775000D01*
D16*
X262255000Y-104775000D03*
D14*
X259755000Y-100775000D03*
D17*
X260985000Y-109855000D03*
D18*
X263525000Y-109855000D03*
D19*
X257175000Y-104775000D03*
X267335000Y-104775000D03*
D22*
X197557750Y-100696500D03*
X195357750Y-100696500D03*
X195357750Y-98996500D03*
X197557750Y-98996500D03*
D23*
X191150000Y-116903000D03*
X191150000Y-116103000D03*
X191150000Y-115303000D03*
X191150000Y-114503000D03*
X191150000Y-113703000D03*
X191150000Y-112903000D03*
X191150000Y-112103000D03*
X191150000Y-111303000D03*
X191150000Y-110503000D03*
X191150000Y-109703000D03*
X191150000Y-108903000D03*
D24*
X192850000Y-107203000D03*
X193650000Y-107203000D03*
X194450000Y-107203000D03*
X195250000Y-107203000D03*
X196050000Y-107203000D03*
X196850000Y-107203000D03*
X197650000Y-107203000D03*
X198450000Y-107203000D03*
X199250000Y-107203000D03*
X200050000Y-107203000D03*
X200850000Y-107203000D03*
D23*
X202550000Y-108903000D03*
X202550000Y-109703000D03*
X202550000Y-110503000D03*
X202550000Y-111303000D03*
X202550000Y-112103000D03*
X202550000Y-112903000D03*
X202550000Y-113703000D03*
X202550000Y-114503000D03*
X202550000Y-115303000D03*
X202550000Y-116103000D03*
X202550000Y-116903000D03*
D24*
X200850000Y-118603000D03*
X200050000Y-118603000D03*
X199250000Y-118603000D03*
X198450000Y-118603000D03*
X197650000Y-118603000D03*
X196850000Y-118603000D03*
X196050000Y-118603000D03*
X195250000Y-118603000D03*
X194450000Y-118603000D03*
X193650000Y-118603000D03*
X192850000Y-118603000D03*
D25*
X166191000Y-118055000D03*
X172391000Y-114355000D03*
X166191000Y-114355000D03*
X172391000Y-118055000D03*
D26*
G36*
X207391141Y-118383297D02*
G01*
X207417278Y-118387174D01*
X207442909Y-118393594D01*
X207467788Y-118402495D01*
X207491674Y-118413793D01*
X207514337Y-118427377D01*
X207535560Y-118443117D01*
X207555139Y-118460861D01*
X207572883Y-118480440D01*
X207588623Y-118501663D01*
X207602207Y-118524326D01*
X207613505Y-118548212D01*
X207622406Y-118573091D01*
X207628826Y-118598722D01*
X207632703Y-118624859D01*
X207634000Y-118651250D01*
X207634000Y-119189750D01*
X207632703Y-119216141D01*
X207628826Y-119242278D01*
X207622406Y-119267909D01*
X207613505Y-119292788D01*
X207602207Y-119316674D01*
X207588623Y-119339337D01*
X207572883Y-119360560D01*
X207555139Y-119380139D01*
X207535560Y-119397883D01*
X207514337Y-119413623D01*
X207491674Y-119427207D01*
X207467788Y-119438505D01*
X207442909Y-119447406D01*
X207417278Y-119453826D01*
X207391141Y-119457703D01*
X207364750Y-119459000D01*
X206401250Y-119459000D01*
X206374859Y-119457703D01*
X206348722Y-119453826D01*
X206323091Y-119447406D01*
X206298212Y-119438505D01*
X206274326Y-119427207D01*
X206251663Y-119413623D01*
X206230440Y-119397883D01*
X206210861Y-119380139D01*
X206193117Y-119360560D01*
X206177377Y-119339337D01*
X206163793Y-119316674D01*
X206152495Y-119292788D01*
X206143594Y-119267909D01*
X206137174Y-119242278D01*
X206133297Y-119216141D01*
X206132000Y-119189750D01*
X206132000Y-118651250D01*
X206133297Y-118624859D01*
X206137174Y-118598722D01*
X206143594Y-118573091D01*
X206152495Y-118548212D01*
X206163793Y-118524326D01*
X206177377Y-118501663D01*
X206193117Y-118480440D01*
X206210861Y-118460861D01*
X206230440Y-118443117D01*
X206251663Y-118427377D01*
X206274326Y-118413793D01*
X206298212Y-118402495D01*
X206323091Y-118393594D01*
X206348722Y-118387174D01*
X206374859Y-118383297D01*
X206401250Y-118382000D01*
X207364750Y-118382000D01*
X207391141Y-118383297D01*
X207391141Y-118383297D01*
G37*
D27*
X206883000Y-118920500D03*
D26*
G36*
X207391141Y-116508297D02*
G01*
X207417278Y-116512174D01*
X207442909Y-116518594D01*
X207467788Y-116527495D01*
X207491674Y-116538793D01*
X207514337Y-116552377D01*
X207535560Y-116568117D01*
X207555139Y-116585861D01*
X207572883Y-116605440D01*
X207588623Y-116626663D01*
X207602207Y-116649326D01*
X207613505Y-116673212D01*
X207622406Y-116698091D01*
X207628826Y-116723722D01*
X207632703Y-116749859D01*
X207634000Y-116776250D01*
X207634000Y-117314750D01*
X207632703Y-117341141D01*
X207628826Y-117367278D01*
X207622406Y-117392909D01*
X207613505Y-117417788D01*
X207602207Y-117441674D01*
X207588623Y-117464337D01*
X207572883Y-117485560D01*
X207555139Y-117505139D01*
X207535560Y-117522883D01*
X207514337Y-117538623D01*
X207491674Y-117552207D01*
X207467788Y-117563505D01*
X207442909Y-117572406D01*
X207417278Y-117578826D01*
X207391141Y-117582703D01*
X207364750Y-117584000D01*
X206401250Y-117584000D01*
X206374859Y-117582703D01*
X206348722Y-117578826D01*
X206323091Y-117572406D01*
X206298212Y-117563505D01*
X206274326Y-117552207D01*
X206251663Y-117538623D01*
X206230440Y-117522883D01*
X206210861Y-117505139D01*
X206193117Y-117485560D01*
X206177377Y-117464337D01*
X206163793Y-117441674D01*
X206152495Y-117417788D01*
X206143594Y-117392909D01*
X206137174Y-117367278D01*
X206133297Y-117341141D01*
X206132000Y-117314750D01*
X206132000Y-116776250D01*
X206133297Y-116749859D01*
X206137174Y-116723722D01*
X206143594Y-116698091D01*
X206152495Y-116673212D01*
X206163793Y-116649326D01*
X206177377Y-116626663D01*
X206193117Y-116605440D01*
X206210861Y-116585861D01*
X206230440Y-116568117D01*
X206251663Y-116552377D01*
X206274326Y-116538793D01*
X206298212Y-116527495D01*
X206323091Y-116518594D01*
X206348722Y-116512174D01*
X206374859Y-116508297D01*
X206401250Y-116507000D01*
X207364750Y-116507000D01*
X207391141Y-116508297D01*
X207391141Y-116508297D01*
G37*
D27*
X206883000Y-117045500D03*
D26*
G36*
X172339141Y-99206297D02*
G01*
X172365278Y-99210174D01*
X172390909Y-99216594D01*
X172415788Y-99225495D01*
X172439674Y-99236793D01*
X172462337Y-99250377D01*
X172483560Y-99266117D01*
X172503139Y-99283861D01*
X172520883Y-99303440D01*
X172536623Y-99324663D01*
X172550207Y-99347326D01*
X172561505Y-99371212D01*
X172570406Y-99396091D01*
X172576826Y-99421722D01*
X172580703Y-99447859D01*
X172582000Y-99474250D01*
X172582000Y-100012750D01*
X172580703Y-100039141D01*
X172576826Y-100065278D01*
X172570406Y-100090909D01*
X172561505Y-100115788D01*
X172550207Y-100139674D01*
X172536623Y-100162337D01*
X172520883Y-100183560D01*
X172503139Y-100203139D01*
X172483560Y-100220883D01*
X172462337Y-100236623D01*
X172439674Y-100250207D01*
X172415788Y-100261505D01*
X172390909Y-100270406D01*
X172365278Y-100276826D01*
X172339141Y-100280703D01*
X172312750Y-100282000D01*
X171349250Y-100282000D01*
X171322859Y-100280703D01*
X171296722Y-100276826D01*
X171271091Y-100270406D01*
X171246212Y-100261505D01*
X171222326Y-100250207D01*
X171199663Y-100236623D01*
X171178440Y-100220883D01*
X171158861Y-100203139D01*
X171141117Y-100183560D01*
X171125377Y-100162337D01*
X171111793Y-100139674D01*
X171100495Y-100115788D01*
X171091594Y-100090909D01*
X171085174Y-100065278D01*
X171081297Y-100039141D01*
X171080000Y-100012750D01*
X171080000Y-99474250D01*
X171081297Y-99447859D01*
X171085174Y-99421722D01*
X171091594Y-99396091D01*
X171100495Y-99371212D01*
X171111793Y-99347326D01*
X171125377Y-99324663D01*
X171141117Y-99303440D01*
X171158861Y-99283861D01*
X171178440Y-99266117D01*
X171199663Y-99250377D01*
X171222326Y-99236793D01*
X171246212Y-99225495D01*
X171271091Y-99216594D01*
X171296722Y-99210174D01*
X171322859Y-99206297D01*
X171349250Y-99205000D01*
X172312750Y-99205000D01*
X172339141Y-99206297D01*
X172339141Y-99206297D01*
G37*
D27*
X171831000Y-99743500D03*
D26*
G36*
X172339141Y-97331297D02*
G01*
X172365278Y-97335174D01*
X172390909Y-97341594D01*
X172415788Y-97350495D01*
X172439674Y-97361793D01*
X172462337Y-97375377D01*
X172483560Y-97391117D01*
X172503139Y-97408861D01*
X172520883Y-97428440D01*
X172536623Y-97449663D01*
X172550207Y-97472326D01*
X172561505Y-97496212D01*
X172570406Y-97521091D01*
X172576826Y-97546722D01*
X172580703Y-97572859D01*
X172582000Y-97599250D01*
X172582000Y-98137750D01*
X172580703Y-98164141D01*
X172576826Y-98190278D01*
X172570406Y-98215909D01*
X172561505Y-98240788D01*
X172550207Y-98264674D01*
X172536623Y-98287337D01*
X172520883Y-98308560D01*
X172503139Y-98328139D01*
X172483560Y-98345883D01*
X172462337Y-98361623D01*
X172439674Y-98375207D01*
X172415788Y-98386505D01*
X172390909Y-98395406D01*
X172365278Y-98401826D01*
X172339141Y-98405703D01*
X172312750Y-98407000D01*
X171349250Y-98407000D01*
X171322859Y-98405703D01*
X171296722Y-98401826D01*
X171271091Y-98395406D01*
X171246212Y-98386505D01*
X171222326Y-98375207D01*
X171199663Y-98361623D01*
X171178440Y-98345883D01*
X171158861Y-98328139D01*
X171141117Y-98308560D01*
X171125377Y-98287337D01*
X171111793Y-98264674D01*
X171100495Y-98240788D01*
X171091594Y-98215909D01*
X171085174Y-98190278D01*
X171081297Y-98164141D01*
X171080000Y-98137750D01*
X171080000Y-97599250D01*
X171081297Y-97572859D01*
X171085174Y-97546722D01*
X171091594Y-97521091D01*
X171100495Y-97496212D01*
X171111793Y-97472326D01*
X171125377Y-97449663D01*
X171141117Y-97428440D01*
X171158861Y-97408861D01*
X171178440Y-97391117D01*
X171199663Y-97375377D01*
X171222326Y-97361793D01*
X171246212Y-97350495D01*
X171271091Y-97341594D01*
X171296722Y-97335174D01*
X171322859Y-97331297D01*
X171349250Y-97330000D01*
X172312750Y-97330000D01*
X172339141Y-97331297D01*
X172339141Y-97331297D01*
G37*
D27*
X171831000Y-97868500D03*
D26*
G36*
X175006141Y-99206297D02*
G01*
X175032278Y-99210174D01*
X175057909Y-99216594D01*
X175082788Y-99225495D01*
X175106674Y-99236793D01*
X175129337Y-99250377D01*
X175150560Y-99266117D01*
X175170139Y-99283861D01*
X175187883Y-99303440D01*
X175203623Y-99324663D01*
X175217207Y-99347326D01*
X175228505Y-99371212D01*
X175237406Y-99396091D01*
X175243826Y-99421722D01*
X175247703Y-99447859D01*
X175249000Y-99474250D01*
X175249000Y-100012750D01*
X175247703Y-100039141D01*
X175243826Y-100065278D01*
X175237406Y-100090909D01*
X175228505Y-100115788D01*
X175217207Y-100139674D01*
X175203623Y-100162337D01*
X175187883Y-100183560D01*
X175170139Y-100203139D01*
X175150560Y-100220883D01*
X175129337Y-100236623D01*
X175106674Y-100250207D01*
X175082788Y-100261505D01*
X175057909Y-100270406D01*
X175032278Y-100276826D01*
X175006141Y-100280703D01*
X174979750Y-100282000D01*
X174016250Y-100282000D01*
X173989859Y-100280703D01*
X173963722Y-100276826D01*
X173938091Y-100270406D01*
X173913212Y-100261505D01*
X173889326Y-100250207D01*
X173866663Y-100236623D01*
X173845440Y-100220883D01*
X173825861Y-100203139D01*
X173808117Y-100183560D01*
X173792377Y-100162337D01*
X173778793Y-100139674D01*
X173767495Y-100115788D01*
X173758594Y-100090909D01*
X173752174Y-100065278D01*
X173748297Y-100039141D01*
X173747000Y-100012750D01*
X173747000Y-99474250D01*
X173748297Y-99447859D01*
X173752174Y-99421722D01*
X173758594Y-99396091D01*
X173767495Y-99371212D01*
X173778793Y-99347326D01*
X173792377Y-99324663D01*
X173808117Y-99303440D01*
X173825861Y-99283861D01*
X173845440Y-99266117D01*
X173866663Y-99250377D01*
X173889326Y-99236793D01*
X173913212Y-99225495D01*
X173938091Y-99216594D01*
X173963722Y-99210174D01*
X173989859Y-99206297D01*
X174016250Y-99205000D01*
X174979750Y-99205000D01*
X175006141Y-99206297D01*
X175006141Y-99206297D01*
G37*
D27*
X174498000Y-99743500D03*
D26*
G36*
X175006141Y-97331297D02*
G01*
X175032278Y-97335174D01*
X175057909Y-97341594D01*
X175082788Y-97350495D01*
X175106674Y-97361793D01*
X175129337Y-97375377D01*
X175150560Y-97391117D01*
X175170139Y-97408861D01*
X175187883Y-97428440D01*
X175203623Y-97449663D01*
X175217207Y-97472326D01*
X175228505Y-97496212D01*
X175237406Y-97521091D01*
X175243826Y-97546722D01*
X175247703Y-97572859D01*
X175249000Y-97599250D01*
X175249000Y-98137750D01*
X175247703Y-98164141D01*
X175243826Y-98190278D01*
X175237406Y-98215909D01*
X175228505Y-98240788D01*
X175217207Y-98264674D01*
X175203623Y-98287337D01*
X175187883Y-98308560D01*
X175170139Y-98328139D01*
X175150560Y-98345883D01*
X175129337Y-98361623D01*
X175106674Y-98375207D01*
X175082788Y-98386505D01*
X175057909Y-98395406D01*
X175032278Y-98401826D01*
X175006141Y-98405703D01*
X174979750Y-98407000D01*
X174016250Y-98407000D01*
X173989859Y-98405703D01*
X173963722Y-98401826D01*
X173938091Y-98395406D01*
X173913212Y-98386505D01*
X173889326Y-98375207D01*
X173866663Y-98361623D01*
X173845440Y-98345883D01*
X173825861Y-98328139D01*
X173808117Y-98308560D01*
X173792377Y-98287337D01*
X173778793Y-98264674D01*
X173767495Y-98240788D01*
X173758594Y-98215909D01*
X173752174Y-98190278D01*
X173748297Y-98164141D01*
X173747000Y-98137750D01*
X173747000Y-97599250D01*
X173748297Y-97572859D01*
X173752174Y-97546722D01*
X173758594Y-97521091D01*
X173767495Y-97496212D01*
X173778793Y-97472326D01*
X173792377Y-97449663D01*
X173808117Y-97428440D01*
X173825861Y-97408861D01*
X173845440Y-97391117D01*
X173866663Y-97375377D01*
X173889326Y-97361793D01*
X173913212Y-97350495D01*
X173938091Y-97341594D01*
X173963722Y-97335174D01*
X173989859Y-97331297D01*
X174016250Y-97330000D01*
X174979750Y-97330000D01*
X175006141Y-97331297D01*
X175006141Y-97331297D01*
G37*
D27*
X174498000Y-97868500D03*
D26*
G36*
X185801141Y-101600797D02*
G01*
X185827278Y-101604674D01*
X185852909Y-101611094D01*
X185877788Y-101619995D01*
X185901674Y-101631293D01*
X185924337Y-101644877D01*
X185945560Y-101660617D01*
X185965139Y-101678361D01*
X185982883Y-101697940D01*
X185998623Y-101719163D01*
X186012207Y-101741826D01*
X186023505Y-101765712D01*
X186032406Y-101790591D01*
X186038826Y-101816222D01*
X186042703Y-101842359D01*
X186044000Y-101868750D01*
X186044000Y-102407250D01*
X186042703Y-102433641D01*
X186038826Y-102459778D01*
X186032406Y-102485409D01*
X186023505Y-102510288D01*
X186012207Y-102534174D01*
X185998623Y-102556837D01*
X185982883Y-102578060D01*
X185965139Y-102597639D01*
X185945560Y-102615383D01*
X185924337Y-102631123D01*
X185901674Y-102644707D01*
X185877788Y-102656005D01*
X185852909Y-102664906D01*
X185827278Y-102671326D01*
X185801141Y-102675203D01*
X185774750Y-102676500D01*
X184811250Y-102676500D01*
X184784859Y-102675203D01*
X184758722Y-102671326D01*
X184733091Y-102664906D01*
X184708212Y-102656005D01*
X184684326Y-102644707D01*
X184661663Y-102631123D01*
X184640440Y-102615383D01*
X184620861Y-102597639D01*
X184603117Y-102578060D01*
X184587377Y-102556837D01*
X184573793Y-102534174D01*
X184562495Y-102510288D01*
X184553594Y-102485409D01*
X184547174Y-102459778D01*
X184543297Y-102433641D01*
X184542000Y-102407250D01*
X184542000Y-101868750D01*
X184543297Y-101842359D01*
X184547174Y-101816222D01*
X184553594Y-101790591D01*
X184562495Y-101765712D01*
X184573793Y-101741826D01*
X184587377Y-101719163D01*
X184603117Y-101697940D01*
X184620861Y-101678361D01*
X184640440Y-101660617D01*
X184661663Y-101644877D01*
X184684326Y-101631293D01*
X184708212Y-101619995D01*
X184733091Y-101611094D01*
X184758722Y-101604674D01*
X184784859Y-101600797D01*
X184811250Y-101599500D01*
X185774750Y-101599500D01*
X185801141Y-101600797D01*
X185801141Y-101600797D01*
G37*
D27*
X185293000Y-102138000D03*
D26*
G36*
X185801141Y-103475797D02*
G01*
X185827278Y-103479674D01*
X185852909Y-103486094D01*
X185877788Y-103494995D01*
X185901674Y-103506293D01*
X185924337Y-103519877D01*
X185945560Y-103535617D01*
X185965139Y-103553361D01*
X185982883Y-103572940D01*
X185998623Y-103594163D01*
X186012207Y-103616826D01*
X186023505Y-103640712D01*
X186032406Y-103665591D01*
X186038826Y-103691222D01*
X186042703Y-103717359D01*
X186044000Y-103743750D01*
X186044000Y-104282250D01*
X186042703Y-104308641D01*
X186038826Y-104334778D01*
X186032406Y-104360409D01*
X186023505Y-104385288D01*
X186012207Y-104409174D01*
X185998623Y-104431837D01*
X185982883Y-104453060D01*
X185965139Y-104472639D01*
X185945560Y-104490383D01*
X185924337Y-104506123D01*
X185901674Y-104519707D01*
X185877788Y-104531005D01*
X185852909Y-104539906D01*
X185827278Y-104546326D01*
X185801141Y-104550203D01*
X185774750Y-104551500D01*
X184811250Y-104551500D01*
X184784859Y-104550203D01*
X184758722Y-104546326D01*
X184733091Y-104539906D01*
X184708212Y-104531005D01*
X184684326Y-104519707D01*
X184661663Y-104506123D01*
X184640440Y-104490383D01*
X184620861Y-104472639D01*
X184603117Y-104453060D01*
X184587377Y-104431837D01*
X184573793Y-104409174D01*
X184562495Y-104385288D01*
X184553594Y-104360409D01*
X184547174Y-104334778D01*
X184543297Y-104308641D01*
X184542000Y-104282250D01*
X184542000Y-103743750D01*
X184543297Y-103717359D01*
X184547174Y-103691222D01*
X184553594Y-103665591D01*
X184562495Y-103640712D01*
X184573793Y-103616826D01*
X184587377Y-103594163D01*
X184603117Y-103572940D01*
X184620861Y-103553361D01*
X184640440Y-103535617D01*
X184661663Y-103519877D01*
X184684326Y-103506293D01*
X184708212Y-103494995D01*
X184733091Y-103486094D01*
X184758722Y-103479674D01*
X184784859Y-103475797D01*
X184811250Y-103474500D01*
X185774750Y-103474500D01*
X185801141Y-103475797D01*
X185801141Y-103475797D01*
G37*
D27*
X185293000Y-104013000D03*
D14*
X151745000Y-99985000D03*
D15*
X151725000Y-100275000D02*
X151765000Y-99695000D01*
D14*
X151765000Y-99695000D03*
X146070001Y-101505000D03*
D15*
X145415000Y-102235000D02*
X146725002Y-100775000D01*
D16*
X149225000Y-104775000D03*
D14*
X146725000Y-100775000D03*
D17*
X147955000Y-109855000D03*
D18*
X150495000Y-109855000D03*
D19*
X144145000Y-104775000D03*
X154305000Y-104775000D03*
D14*
X132695000Y-99985000D03*
D15*
X132675000Y-100275000D02*
X132715000Y-99695000D01*
D14*
X132715000Y-99695000D03*
X127020001Y-101505000D03*
D15*
X126365000Y-102235000D02*
X127675002Y-100775000D01*
D16*
X130175000Y-104775000D03*
D14*
X127675000Y-100775000D03*
D17*
X128905000Y-109855000D03*
D18*
X131445000Y-109855000D03*
D19*
X125095000Y-104775000D03*
X135255000Y-104775000D03*
D26*
G36*
X168703104Y-99655302D02*
G01*
X168729352Y-99659196D01*
X168755093Y-99665643D01*
X168780078Y-99674583D01*
X168804066Y-99685928D01*
X168826826Y-99699571D01*
X168848140Y-99715378D01*
X168867802Y-99733198D01*
X168885622Y-99752860D01*
X168901429Y-99774174D01*
X168915072Y-99796934D01*
X168926417Y-99820922D01*
X168935357Y-99845907D01*
X168941804Y-99871648D01*
X168945698Y-99897896D01*
X168947000Y-99924400D01*
X168947000Y-100735600D01*
X168945698Y-100762104D01*
X168941804Y-100788352D01*
X168935357Y-100814093D01*
X168926417Y-100839078D01*
X168915072Y-100863066D01*
X168901429Y-100885826D01*
X168885622Y-100907140D01*
X168867802Y-100926802D01*
X168848140Y-100944622D01*
X168826826Y-100960429D01*
X168804066Y-100974072D01*
X168780078Y-100985417D01*
X168755093Y-100994357D01*
X168729352Y-101000804D01*
X168703104Y-101004698D01*
X168676600Y-101006000D01*
X167365400Y-101006000D01*
X167338896Y-101004698D01*
X167312648Y-101000804D01*
X167286907Y-100994357D01*
X167261922Y-100985417D01*
X167237934Y-100974072D01*
X167215174Y-100960429D01*
X167193860Y-100944622D01*
X167174198Y-100926802D01*
X167156378Y-100907140D01*
X167140571Y-100885826D01*
X167126928Y-100863066D01*
X167115583Y-100839078D01*
X167106643Y-100814093D01*
X167100196Y-100788352D01*
X167096302Y-100762104D01*
X167095000Y-100735600D01*
X167095000Y-99924400D01*
X167096302Y-99897896D01*
X167100196Y-99871648D01*
X167106643Y-99845907D01*
X167115583Y-99820922D01*
X167126928Y-99796934D01*
X167140571Y-99774174D01*
X167156378Y-99752860D01*
X167174198Y-99733198D01*
X167193860Y-99715378D01*
X167215174Y-99699571D01*
X167237934Y-99685928D01*
X167261922Y-99674583D01*
X167286907Y-99665643D01*
X167312648Y-99659196D01*
X167338896Y-99655302D01*
X167365400Y-99654000D01*
X168676600Y-99654000D01*
X168703104Y-99655302D01*
X168703104Y-99655302D01*
G37*
D28*
X168021000Y-100330000D03*
D26*
G36*
X168703104Y-96855302D02*
G01*
X168729352Y-96859196D01*
X168755093Y-96865643D01*
X168780078Y-96874583D01*
X168804066Y-96885928D01*
X168826826Y-96899571D01*
X168848140Y-96915378D01*
X168867802Y-96933198D01*
X168885622Y-96952860D01*
X168901429Y-96974174D01*
X168915072Y-96996934D01*
X168926417Y-97020922D01*
X168935357Y-97045907D01*
X168941804Y-97071648D01*
X168945698Y-97097896D01*
X168947000Y-97124400D01*
X168947000Y-97935600D01*
X168945698Y-97962104D01*
X168941804Y-97988352D01*
X168935357Y-98014093D01*
X168926417Y-98039078D01*
X168915072Y-98063066D01*
X168901429Y-98085826D01*
X168885622Y-98107140D01*
X168867802Y-98126802D01*
X168848140Y-98144622D01*
X168826826Y-98160429D01*
X168804066Y-98174072D01*
X168780078Y-98185417D01*
X168755093Y-98194357D01*
X168729352Y-98200804D01*
X168703104Y-98204698D01*
X168676600Y-98206000D01*
X167365400Y-98206000D01*
X167338896Y-98204698D01*
X167312648Y-98200804D01*
X167286907Y-98194357D01*
X167261922Y-98185417D01*
X167237934Y-98174072D01*
X167215174Y-98160429D01*
X167193860Y-98144622D01*
X167174198Y-98126802D01*
X167156378Y-98107140D01*
X167140571Y-98085826D01*
X167126928Y-98063066D01*
X167115583Y-98039078D01*
X167106643Y-98014093D01*
X167100196Y-97988352D01*
X167096302Y-97962104D01*
X167095000Y-97935600D01*
X167095000Y-97124400D01*
X167096302Y-97097896D01*
X167100196Y-97071648D01*
X167106643Y-97045907D01*
X167115583Y-97020922D01*
X167126928Y-96996934D01*
X167140571Y-96974174D01*
X167156378Y-96952860D01*
X167174198Y-96933198D01*
X167193860Y-96915378D01*
X167215174Y-96899571D01*
X167237934Y-96885928D01*
X167261922Y-96874583D01*
X167286907Y-96865643D01*
X167312648Y-96859196D01*
X167338896Y-96855302D01*
X167365400Y-96854000D01*
X168676600Y-96854000D01*
X168703104Y-96855302D01*
X168703104Y-96855302D01*
G37*
D28*
X168021000Y-97530000D03*
D29*
X270383000Y-106298000D03*
X270383000Y-102998000D03*
X251460000Y-106425000D03*
X251460000Y-103125000D03*
X157353000Y-106425000D03*
X157353000Y-103125000D03*
X138430000Y-106171000D03*
X138430000Y-102871000D03*
D26*
G36*
X188277641Y-115682797D02*
G01*
X188303778Y-115686674D01*
X188329409Y-115693094D01*
X188354288Y-115701995D01*
X188378174Y-115713293D01*
X188400837Y-115726877D01*
X188422060Y-115742617D01*
X188441639Y-115760361D01*
X188459383Y-115779940D01*
X188475123Y-115801163D01*
X188488707Y-115823826D01*
X188500005Y-115847712D01*
X188508906Y-115872591D01*
X188515326Y-115898222D01*
X188519203Y-115924359D01*
X188520500Y-115950750D01*
X188520500Y-116489250D01*
X188519203Y-116515641D01*
X188515326Y-116541778D01*
X188508906Y-116567409D01*
X188500005Y-116592288D01*
X188488707Y-116616174D01*
X188475123Y-116638837D01*
X188459383Y-116660060D01*
X188441639Y-116679639D01*
X188422060Y-116697383D01*
X188400837Y-116713123D01*
X188378174Y-116726707D01*
X188354288Y-116738005D01*
X188329409Y-116746906D01*
X188303778Y-116753326D01*
X188277641Y-116757203D01*
X188251250Y-116758500D01*
X187287750Y-116758500D01*
X187261359Y-116757203D01*
X187235222Y-116753326D01*
X187209591Y-116746906D01*
X187184712Y-116738005D01*
X187160826Y-116726707D01*
X187138163Y-116713123D01*
X187116940Y-116697383D01*
X187097361Y-116679639D01*
X187079617Y-116660060D01*
X187063877Y-116638837D01*
X187050293Y-116616174D01*
X187038995Y-116592288D01*
X187030094Y-116567409D01*
X187023674Y-116541778D01*
X187019797Y-116515641D01*
X187018500Y-116489250D01*
X187018500Y-115950750D01*
X187019797Y-115924359D01*
X187023674Y-115898222D01*
X187030094Y-115872591D01*
X187038995Y-115847712D01*
X187050293Y-115823826D01*
X187063877Y-115801163D01*
X187079617Y-115779940D01*
X187097361Y-115760361D01*
X187116940Y-115742617D01*
X187138163Y-115726877D01*
X187160826Y-115713293D01*
X187184712Y-115701995D01*
X187209591Y-115693094D01*
X187235222Y-115686674D01*
X187261359Y-115682797D01*
X187287750Y-115681500D01*
X188251250Y-115681500D01*
X188277641Y-115682797D01*
X188277641Y-115682797D01*
G37*
D27*
X187769500Y-116220000D03*
D26*
G36*
X188277641Y-117557797D02*
G01*
X188303778Y-117561674D01*
X188329409Y-117568094D01*
X188354288Y-117576995D01*
X188378174Y-117588293D01*
X188400837Y-117601877D01*
X188422060Y-117617617D01*
X188441639Y-117635361D01*
X188459383Y-117654940D01*
X188475123Y-117676163D01*
X188488707Y-117698826D01*
X188500005Y-117722712D01*
X188508906Y-117747591D01*
X188515326Y-117773222D01*
X188519203Y-117799359D01*
X188520500Y-117825750D01*
X188520500Y-118364250D01*
X188519203Y-118390641D01*
X188515326Y-118416778D01*
X188508906Y-118442409D01*
X188500005Y-118467288D01*
X188488707Y-118491174D01*
X188475123Y-118513837D01*
X188459383Y-118535060D01*
X188441639Y-118554639D01*
X188422060Y-118572383D01*
X188400837Y-118588123D01*
X188378174Y-118601707D01*
X188354288Y-118613005D01*
X188329409Y-118621906D01*
X188303778Y-118628326D01*
X188277641Y-118632203D01*
X188251250Y-118633500D01*
X187287750Y-118633500D01*
X187261359Y-118632203D01*
X187235222Y-118628326D01*
X187209591Y-118621906D01*
X187184712Y-118613005D01*
X187160826Y-118601707D01*
X187138163Y-118588123D01*
X187116940Y-118572383D01*
X187097361Y-118554639D01*
X187079617Y-118535060D01*
X187063877Y-118513837D01*
X187050293Y-118491174D01*
X187038995Y-118467288D01*
X187030094Y-118442409D01*
X187023674Y-118416778D01*
X187019797Y-118390641D01*
X187018500Y-118364250D01*
X187018500Y-117825750D01*
X187019797Y-117799359D01*
X187023674Y-117773222D01*
X187030094Y-117747591D01*
X187038995Y-117722712D01*
X187050293Y-117698826D01*
X187063877Y-117676163D01*
X187079617Y-117654940D01*
X187097361Y-117635361D01*
X187116940Y-117617617D01*
X187138163Y-117601877D01*
X187160826Y-117588293D01*
X187184712Y-117576995D01*
X187209591Y-117568094D01*
X187235222Y-117561674D01*
X187261359Y-117557797D01*
X187287750Y-117556500D01*
X188251250Y-117556500D01*
X188277641Y-117557797D01*
X188277641Y-117557797D01*
G37*
D27*
X187769500Y-118095000D03*
D26*
G36*
X202528141Y-120916297D02*
G01*
X202554278Y-120920174D01*
X202579909Y-120926594D01*
X202604788Y-120935495D01*
X202628674Y-120946793D01*
X202651337Y-120960377D01*
X202672560Y-120976117D01*
X202692139Y-120993861D01*
X202709883Y-121013440D01*
X202725623Y-121034663D01*
X202739207Y-121057326D01*
X202750505Y-121081212D01*
X202759406Y-121106091D01*
X202765826Y-121131722D01*
X202769703Y-121157859D01*
X202771000Y-121184250D01*
X202771000Y-122147750D01*
X202769703Y-122174141D01*
X202765826Y-122200278D01*
X202759406Y-122225909D01*
X202750505Y-122250788D01*
X202739207Y-122274674D01*
X202725623Y-122297337D01*
X202709883Y-122318560D01*
X202692139Y-122338139D01*
X202672560Y-122355883D01*
X202651337Y-122371623D01*
X202628674Y-122385207D01*
X202604788Y-122396505D01*
X202579909Y-122405406D01*
X202554278Y-122411826D01*
X202528141Y-122415703D01*
X202501750Y-122417000D01*
X201963250Y-122417000D01*
X201936859Y-122415703D01*
X201910722Y-122411826D01*
X201885091Y-122405406D01*
X201860212Y-122396505D01*
X201836326Y-122385207D01*
X201813663Y-122371623D01*
X201792440Y-122355883D01*
X201772861Y-122338139D01*
X201755117Y-122318560D01*
X201739377Y-122297337D01*
X201725793Y-122274674D01*
X201714495Y-122250788D01*
X201705594Y-122225909D01*
X201699174Y-122200278D01*
X201695297Y-122174141D01*
X201694000Y-122147750D01*
X201694000Y-121184250D01*
X201695297Y-121157859D01*
X201699174Y-121131722D01*
X201705594Y-121106091D01*
X201714495Y-121081212D01*
X201725793Y-121057326D01*
X201739377Y-121034663D01*
X201755117Y-121013440D01*
X201772861Y-120993861D01*
X201792440Y-120976117D01*
X201813663Y-120960377D01*
X201836326Y-120946793D01*
X201860212Y-120935495D01*
X201885091Y-120926594D01*
X201910722Y-120920174D01*
X201936859Y-120916297D01*
X201963250Y-120915000D01*
X202501750Y-120915000D01*
X202528141Y-120916297D01*
X202528141Y-120916297D01*
G37*
D27*
X202232500Y-121666000D03*
D26*
G36*
X200653141Y-120916297D02*
G01*
X200679278Y-120920174D01*
X200704909Y-120926594D01*
X200729788Y-120935495D01*
X200753674Y-120946793D01*
X200776337Y-120960377D01*
X200797560Y-120976117D01*
X200817139Y-120993861D01*
X200834883Y-121013440D01*
X200850623Y-121034663D01*
X200864207Y-121057326D01*
X200875505Y-121081212D01*
X200884406Y-121106091D01*
X200890826Y-121131722D01*
X200894703Y-121157859D01*
X200896000Y-121184250D01*
X200896000Y-122147750D01*
X200894703Y-122174141D01*
X200890826Y-122200278D01*
X200884406Y-122225909D01*
X200875505Y-122250788D01*
X200864207Y-122274674D01*
X200850623Y-122297337D01*
X200834883Y-122318560D01*
X200817139Y-122338139D01*
X200797560Y-122355883D01*
X200776337Y-122371623D01*
X200753674Y-122385207D01*
X200729788Y-122396505D01*
X200704909Y-122405406D01*
X200679278Y-122411826D01*
X200653141Y-122415703D01*
X200626750Y-122417000D01*
X200088250Y-122417000D01*
X200061859Y-122415703D01*
X200035722Y-122411826D01*
X200010091Y-122405406D01*
X199985212Y-122396505D01*
X199961326Y-122385207D01*
X199938663Y-122371623D01*
X199917440Y-122355883D01*
X199897861Y-122338139D01*
X199880117Y-122318560D01*
X199864377Y-122297337D01*
X199850793Y-122274674D01*
X199839495Y-122250788D01*
X199830594Y-122225909D01*
X199824174Y-122200278D01*
X199820297Y-122174141D01*
X199819000Y-122147750D01*
X199819000Y-121184250D01*
X199820297Y-121157859D01*
X199824174Y-121131722D01*
X199830594Y-121106091D01*
X199839495Y-121081212D01*
X199850793Y-121057326D01*
X199864377Y-121034663D01*
X199880117Y-121013440D01*
X199897861Y-120993861D01*
X199917440Y-120976117D01*
X199938663Y-120960377D01*
X199961326Y-120946793D01*
X199985212Y-120935495D01*
X200010091Y-120926594D01*
X200035722Y-120920174D01*
X200061859Y-120916297D01*
X200088250Y-120915000D01*
X200626750Y-120915000D01*
X200653141Y-120916297D01*
X200653141Y-120916297D01*
G37*
D27*
X200357500Y-121666000D03*
D26*
G36*
X207327641Y-107239047D02*
G01*
X207353778Y-107242924D01*
X207379409Y-107249344D01*
X207404288Y-107258245D01*
X207428174Y-107269543D01*
X207450837Y-107283127D01*
X207472060Y-107298867D01*
X207491639Y-107316611D01*
X207509383Y-107336190D01*
X207525123Y-107357413D01*
X207538707Y-107380076D01*
X207550005Y-107403962D01*
X207558906Y-107428841D01*
X207565326Y-107454472D01*
X207569203Y-107480609D01*
X207570500Y-107507000D01*
X207570500Y-108045500D01*
X207569203Y-108071891D01*
X207565326Y-108098028D01*
X207558906Y-108123659D01*
X207550005Y-108148538D01*
X207538707Y-108172424D01*
X207525123Y-108195087D01*
X207509383Y-108216310D01*
X207491639Y-108235889D01*
X207472060Y-108253633D01*
X207450837Y-108269373D01*
X207428174Y-108282957D01*
X207404288Y-108294255D01*
X207379409Y-108303156D01*
X207353778Y-108309576D01*
X207327641Y-108313453D01*
X207301250Y-108314750D01*
X206337750Y-108314750D01*
X206311359Y-108313453D01*
X206285222Y-108309576D01*
X206259591Y-108303156D01*
X206234712Y-108294255D01*
X206210826Y-108282957D01*
X206188163Y-108269373D01*
X206166940Y-108253633D01*
X206147361Y-108235889D01*
X206129617Y-108216310D01*
X206113877Y-108195087D01*
X206100293Y-108172424D01*
X206088995Y-108148538D01*
X206080094Y-108123659D01*
X206073674Y-108098028D01*
X206069797Y-108071891D01*
X206068500Y-108045500D01*
X206068500Y-107507000D01*
X206069797Y-107480609D01*
X206073674Y-107454472D01*
X206080094Y-107428841D01*
X206088995Y-107403962D01*
X206100293Y-107380076D01*
X206113877Y-107357413D01*
X206129617Y-107336190D01*
X206147361Y-107316611D01*
X206166940Y-107298867D01*
X206188163Y-107283127D01*
X206210826Y-107269543D01*
X206234712Y-107258245D01*
X206259591Y-107249344D01*
X206285222Y-107242924D01*
X206311359Y-107239047D01*
X206337750Y-107237750D01*
X207301250Y-107237750D01*
X207327641Y-107239047D01*
X207327641Y-107239047D01*
G37*
D27*
X206819500Y-107776250D03*
D26*
G36*
X207327641Y-105364047D02*
G01*
X207353778Y-105367924D01*
X207379409Y-105374344D01*
X207404288Y-105383245D01*
X207428174Y-105394543D01*
X207450837Y-105408127D01*
X207472060Y-105423867D01*
X207491639Y-105441611D01*
X207509383Y-105461190D01*
X207525123Y-105482413D01*
X207538707Y-105505076D01*
X207550005Y-105528962D01*
X207558906Y-105553841D01*
X207565326Y-105579472D01*
X207569203Y-105605609D01*
X207570500Y-105632000D01*
X207570500Y-106170500D01*
X207569203Y-106196891D01*
X207565326Y-106223028D01*
X207558906Y-106248659D01*
X207550005Y-106273538D01*
X207538707Y-106297424D01*
X207525123Y-106320087D01*
X207509383Y-106341310D01*
X207491639Y-106360889D01*
X207472060Y-106378633D01*
X207450837Y-106394373D01*
X207428174Y-106407957D01*
X207404288Y-106419255D01*
X207379409Y-106428156D01*
X207353778Y-106434576D01*
X207327641Y-106438453D01*
X207301250Y-106439750D01*
X206337750Y-106439750D01*
X206311359Y-106438453D01*
X206285222Y-106434576D01*
X206259591Y-106428156D01*
X206234712Y-106419255D01*
X206210826Y-106407957D01*
X206188163Y-106394373D01*
X206166940Y-106378633D01*
X206147361Y-106360889D01*
X206129617Y-106341310D01*
X206113877Y-106320087D01*
X206100293Y-106297424D01*
X206088995Y-106273538D01*
X206080094Y-106248659D01*
X206073674Y-106223028D01*
X206069797Y-106196891D01*
X206068500Y-106170500D01*
X206068500Y-105632000D01*
X206069797Y-105605609D01*
X206073674Y-105579472D01*
X206080094Y-105553841D01*
X206088995Y-105528962D01*
X206100293Y-105505076D01*
X206113877Y-105482413D01*
X206129617Y-105461190D01*
X206147361Y-105441611D01*
X206166940Y-105423867D01*
X206188163Y-105408127D01*
X206210826Y-105394543D01*
X206234712Y-105383245D01*
X206259591Y-105374344D01*
X206285222Y-105367924D01*
X206311359Y-105364047D01*
X206337750Y-105362750D01*
X207301250Y-105362750D01*
X207327641Y-105364047D01*
X207327641Y-105364047D01*
G37*
D27*
X206819500Y-105901250D03*
D26*
G36*
X189865141Y-103414047D02*
G01*
X189891278Y-103417924D01*
X189916909Y-103424344D01*
X189941788Y-103433245D01*
X189965674Y-103444543D01*
X189988337Y-103458127D01*
X190009560Y-103473867D01*
X190029139Y-103491611D01*
X190046883Y-103511190D01*
X190062623Y-103532413D01*
X190076207Y-103555076D01*
X190087505Y-103578962D01*
X190096406Y-103603841D01*
X190102826Y-103629472D01*
X190106703Y-103655609D01*
X190108000Y-103682000D01*
X190108000Y-104220500D01*
X190106703Y-104246891D01*
X190102826Y-104273028D01*
X190096406Y-104298659D01*
X190087505Y-104323538D01*
X190076207Y-104347424D01*
X190062623Y-104370087D01*
X190046883Y-104391310D01*
X190029139Y-104410889D01*
X190009560Y-104428633D01*
X189988337Y-104444373D01*
X189965674Y-104457957D01*
X189941788Y-104469255D01*
X189916909Y-104478156D01*
X189891278Y-104484576D01*
X189865141Y-104488453D01*
X189838750Y-104489750D01*
X188875250Y-104489750D01*
X188848859Y-104488453D01*
X188822722Y-104484576D01*
X188797091Y-104478156D01*
X188772212Y-104469255D01*
X188748326Y-104457957D01*
X188725663Y-104444373D01*
X188704440Y-104428633D01*
X188684861Y-104410889D01*
X188667117Y-104391310D01*
X188651377Y-104370087D01*
X188637793Y-104347424D01*
X188626495Y-104323538D01*
X188617594Y-104298659D01*
X188611174Y-104273028D01*
X188607297Y-104246891D01*
X188606000Y-104220500D01*
X188606000Y-103682000D01*
X188607297Y-103655609D01*
X188611174Y-103629472D01*
X188617594Y-103603841D01*
X188626495Y-103578962D01*
X188637793Y-103555076D01*
X188651377Y-103532413D01*
X188667117Y-103511190D01*
X188684861Y-103491611D01*
X188704440Y-103473867D01*
X188725663Y-103458127D01*
X188748326Y-103444543D01*
X188772212Y-103433245D01*
X188797091Y-103424344D01*
X188822722Y-103417924D01*
X188848859Y-103414047D01*
X188875250Y-103412750D01*
X189838750Y-103412750D01*
X189865141Y-103414047D01*
X189865141Y-103414047D01*
G37*
D27*
X189357000Y-103951250D03*
D26*
G36*
X189865141Y-101539047D02*
G01*
X189891278Y-101542924D01*
X189916909Y-101549344D01*
X189941788Y-101558245D01*
X189965674Y-101569543D01*
X189988337Y-101583127D01*
X190009560Y-101598867D01*
X190029139Y-101616611D01*
X190046883Y-101636190D01*
X190062623Y-101657413D01*
X190076207Y-101680076D01*
X190087505Y-101703962D01*
X190096406Y-101728841D01*
X190102826Y-101754472D01*
X190106703Y-101780609D01*
X190108000Y-101807000D01*
X190108000Y-102345500D01*
X190106703Y-102371891D01*
X190102826Y-102398028D01*
X190096406Y-102423659D01*
X190087505Y-102448538D01*
X190076207Y-102472424D01*
X190062623Y-102495087D01*
X190046883Y-102516310D01*
X190029139Y-102535889D01*
X190009560Y-102553633D01*
X189988337Y-102569373D01*
X189965674Y-102582957D01*
X189941788Y-102594255D01*
X189916909Y-102603156D01*
X189891278Y-102609576D01*
X189865141Y-102613453D01*
X189838750Y-102614750D01*
X188875250Y-102614750D01*
X188848859Y-102613453D01*
X188822722Y-102609576D01*
X188797091Y-102603156D01*
X188772212Y-102594255D01*
X188748326Y-102582957D01*
X188725663Y-102569373D01*
X188704440Y-102553633D01*
X188684861Y-102535889D01*
X188667117Y-102516310D01*
X188651377Y-102495087D01*
X188637793Y-102472424D01*
X188626495Y-102448538D01*
X188617594Y-102423659D01*
X188611174Y-102398028D01*
X188607297Y-102371891D01*
X188606000Y-102345500D01*
X188606000Y-101807000D01*
X188607297Y-101780609D01*
X188611174Y-101754472D01*
X188617594Y-101728841D01*
X188626495Y-101703962D01*
X188637793Y-101680076D01*
X188651377Y-101657413D01*
X188667117Y-101636190D01*
X188684861Y-101616611D01*
X188704440Y-101598867D01*
X188725663Y-101583127D01*
X188748326Y-101569543D01*
X188772212Y-101558245D01*
X188797091Y-101549344D01*
X188822722Y-101542924D01*
X188848859Y-101539047D01*
X188875250Y-101537750D01*
X189838750Y-101537750D01*
X189865141Y-101539047D01*
X189865141Y-101539047D01*
G37*
D27*
X189357000Y-102076250D03*
D26*
G36*
X187415141Y-109264047D02*
G01*
X187441278Y-109267924D01*
X187466909Y-109274344D01*
X187491788Y-109283245D01*
X187515674Y-109294543D01*
X187538337Y-109308127D01*
X187559560Y-109323867D01*
X187579139Y-109341611D01*
X187596883Y-109361190D01*
X187612623Y-109382413D01*
X187626207Y-109405076D01*
X187637505Y-109428962D01*
X187646406Y-109453841D01*
X187652826Y-109479472D01*
X187656703Y-109505609D01*
X187658000Y-109532000D01*
X187658000Y-110495500D01*
X187656703Y-110521891D01*
X187652826Y-110548028D01*
X187646406Y-110573659D01*
X187637505Y-110598538D01*
X187626207Y-110622424D01*
X187612623Y-110645087D01*
X187596883Y-110666310D01*
X187579139Y-110685889D01*
X187559560Y-110703633D01*
X187538337Y-110719373D01*
X187515674Y-110732957D01*
X187491788Y-110744255D01*
X187466909Y-110753156D01*
X187441278Y-110759576D01*
X187415141Y-110763453D01*
X187388750Y-110764750D01*
X186850250Y-110764750D01*
X186823859Y-110763453D01*
X186797722Y-110759576D01*
X186772091Y-110753156D01*
X186747212Y-110744255D01*
X186723326Y-110732957D01*
X186700663Y-110719373D01*
X186679440Y-110703633D01*
X186659861Y-110685889D01*
X186642117Y-110666310D01*
X186626377Y-110645087D01*
X186612793Y-110622424D01*
X186601495Y-110598538D01*
X186592594Y-110573659D01*
X186586174Y-110548028D01*
X186582297Y-110521891D01*
X186581000Y-110495500D01*
X186581000Y-109532000D01*
X186582297Y-109505609D01*
X186586174Y-109479472D01*
X186592594Y-109453841D01*
X186601495Y-109428962D01*
X186612793Y-109405076D01*
X186626377Y-109382413D01*
X186642117Y-109361190D01*
X186659861Y-109341611D01*
X186679440Y-109323867D01*
X186700663Y-109308127D01*
X186723326Y-109294543D01*
X186747212Y-109283245D01*
X186772091Y-109274344D01*
X186797722Y-109267924D01*
X186823859Y-109264047D01*
X186850250Y-109262750D01*
X187388750Y-109262750D01*
X187415141Y-109264047D01*
X187415141Y-109264047D01*
G37*
D27*
X187119500Y-110013750D03*
D26*
G36*
X185540141Y-109264047D02*
G01*
X185566278Y-109267924D01*
X185591909Y-109274344D01*
X185616788Y-109283245D01*
X185640674Y-109294543D01*
X185663337Y-109308127D01*
X185684560Y-109323867D01*
X185704139Y-109341611D01*
X185721883Y-109361190D01*
X185737623Y-109382413D01*
X185751207Y-109405076D01*
X185762505Y-109428962D01*
X185771406Y-109453841D01*
X185777826Y-109479472D01*
X185781703Y-109505609D01*
X185783000Y-109532000D01*
X185783000Y-110495500D01*
X185781703Y-110521891D01*
X185777826Y-110548028D01*
X185771406Y-110573659D01*
X185762505Y-110598538D01*
X185751207Y-110622424D01*
X185737623Y-110645087D01*
X185721883Y-110666310D01*
X185704139Y-110685889D01*
X185684560Y-110703633D01*
X185663337Y-110719373D01*
X185640674Y-110732957D01*
X185616788Y-110744255D01*
X185591909Y-110753156D01*
X185566278Y-110759576D01*
X185540141Y-110763453D01*
X185513750Y-110764750D01*
X184975250Y-110764750D01*
X184948859Y-110763453D01*
X184922722Y-110759576D01*
X184897091Y-110753156D01*
X184872212Y-110744255D01*
X184848326Y-110732957D01*
X184825663Y-110719373D01*
X184804440Y-110703633D01*
X184784861Y-110685889D01*
X184767117Y-110666310D01*
X184751377Y-110645087D01*
X184737793Y-110622424D01*
X184726495Y-110598538D01*
X184717594Y-110573659D01*
X184711174Y-110548028D01*
X184707297Y-110521891D01*
X184706000Y-110495500D01*
X184706000Y-109532000D01*
X184707297Y-109505609D01*
X184711174Y-109479472D01*
X184717594Y-109453841D01*
X184726495Y-109428962D01*
X184737793Y-109405076D01*
X184751377Y-109382413D01*
X184767117Y-109361190D01*
X184784861Y-109341611D01*
X184804440Y-109323867D01*
X184825663Y-109308127D01*
X184848326Y-109294543D01*
X184872212Y-109283245D01*
X184897091Y-109274344D01*
X184922722Y-109267924D01*
X184948859Y-109264047D01*
X184975250Y-109262750D01*
X185513750Y-109262750D01*
X185540141Y-109264047D01*
X185540141Y-109264047D01*
G37*
D27*
X185244500Y-110013750D03*
D26*
G36*
X192690891Y-98315547D02*
G01*
X192717028Y-98319424D01*
X192742659Y-98325844D01*
X192767538Y-98334745D01*
X192791424Y-98346043D01*
X192814087Y-98359627D01*
X192835310Y-98375367D01*
X192854889Y-98393111D01*
X192872633Y-98412690D01*
X192888373Y-98433913D01*
X192901957Y-98456576D01*
X192913255Y-98480462D01*
X192922156Y-98505341D01*
X192928576Y-98530972D01*
X192932453Y-98557109D01*
X192933750Y-98583500D01*
X192933750Y-99122000D01*
X192932453Y-99148391D01*
X192928576Y-99174528D01*
X192922156Y-99200159D01*
X192913255Y-99225038D01*
X192901957Y-99248924D01*
X192888373Y-99271587D01*
X192872633Y-99292810D01*
X192854889Y-99312389D01*
X192835310Y-99330133D01*
X192814087Y-99345873D01*
X192791424Y-99359457D01*
X192767538Y-99370755D01*
X192742659Y-99379656D01*
X192717028Y-99386076D01*
X192690891Y-99389953D01*
X192664500Y-99391250D01*
X191701000Y-99391250D01*
X191674609Y-99389953D01*
X191648472Y-99386076D01*
X191622841Y-99379656D01*
X191597962Y-99370755D01*
X191574076Y-99359457D01*
X191551413Y-99345873D01*
X191530190Y-99330133D01*
X191510611Y-99312389D01*
X191492867Y-99292810D01*
X191477127Y-99271587D01*
X191463543Y-99248924D01*
X191452245Y-99225038D01*
X191443344Y-99200159D01*
X191436924Y-99174528D01*
X191433047Y-99148391D01*
X191431750Y-99122000D01*
X191431750Y-98583500D01*
X191433047Y-98557109D01*
X191436924Y-98530972D01*
X191443344Y-98505341D01*
X191452245Y-98480462D01*
X191463543Y-98456576D01*
X191477127Y-98433913D01*
X191492867Y-98412690D01*
X191510611Y-98393111D01*
X191530190Y-98375367D01*
X191551413Y-98359627D01*
X191574076Y-98346043D01*
X191597962Y-98334745D01*
X191622841Y-98325844D01*
X191648472Y-98319424D01*
X191674609Y-98315547D01*
X191701000Y-98314250D01*
X192664500Y-98314250D01*
X192690891Y-98315547D01*
X192690891Y-98315547D01*
G37*
D27*
X192182750Y-98852750D03*
D26*
G36*
X192690891Y-100190547D02*
G01*
X192717028Y-100194424D01*
X192742659Y-100200844D01*
X192767538Y-100209745D01*
X192791424Y-100221043D01*
X192814087Y-100234627D01*
X192835310Y-100250367D01*
X192854889Y-100268111D01*
X192872633Y-100287690D01*
X192888373Y-100308913D01*
X192901957Y-100331576D01*
X192913255Y-100355462D01*
X192922156Y-100380341D01*
X192928576Y-100405972D01*
X192932453Y-100432109D01*
X192933750Y-100458500D01*
X192933750Y-100997000D01*
X192932453Y-101023391D01*
X192928576Y-101049528D01*
X192922156Y-101075159D01*
X192913255Y-101100038D01*
X192901957Y-101123924D01*
X192888373Y-101146587D01*
X192872633Y-101167810D01*
X192854889Y-101187389D01*
X192835310Y-101205133D01*
X192814087Y-101220873D01*
X192791424Y-101234457D01*
X192767538Y-101245755D01*
X192742659Y-101254656D01*
X192717028Y-101261076D01*
X192690891Y-101264953D01*
X192664500Y-101266250D01*
X191701000Y-101266250D01*
X191674609Y-101264953D01*
X191648472Y-101261076D01*
X191622841Y-101254656D01*
X191597962Y-101245755D01*
X191574076Y-101234457D01*
X191551413Y-101220873D01*
X191530190Y-101205133D01*
X191510611Y-101187389D01*
X191492867Y-101167810D01*
X191477127Y-101146587D01*
X191463543Y-101123924D01*
X191452245Y-101100038D01*
X191443344Y-101075159D01*
X191436924Y-101049528D01*
X191433047Y-101023391D01*
X191431750Y-100997000D01*
X191431750Y-100458500D01*
X191433047Y-100432109D01*
X191436924Y-100405972D01*
X191443344Y-100380341D01*
X191452245Y-100355462D01*
X191463543Y-100331576D01*
X191477127Y-100308913D01*
X191492867Y-100287690D01*
X191510611Y-100268111D01*
X191530190Y-100250367D01*
X191551413Y-100234627D01*
X191574076Y-100221043D01*
X191597962Y-100209745D01*
X191622841Y-100200844D01*
X191648472Y-100194424D01*
X191674609Y-100190547D01*
X191701000Y-100189250D01*
X192664500Y-100189250D01*
X192690891Y-100190547D01*
X192690891Y-100190547D01*
G37*
D27*
X192182750Y-100727750D03*
D26*
G36*
X201422141Y-100190547D02*
G01*
X201448278Y-100194424D01*
X201473909Y-100200844D01*
X201498788Y-100209745D01*
X201522674Y-100221043D01*
X201545337Y-100234627D01*
X201566560Y-100250367D01*
X201586139Y-100268111D01*
X201603883Y-100287690D01*
X201619623Y-100308913D01*
X201633207Y-100331576D01*
X201644505Y-100355462D01*
X201653406Y-100380341D01*
X201659826Y-100405972D01*
X201663703Y-100432109D01*
X201665000Y-100458500D01*
X201665000Y-100997000D01*
X201663703Y-101023391D01*
X201659826Y-101049528D01*
X201653406Y-101075159D01*
X201644505Y-101100038D01*
X201633207Y-101123924D01*
X201619623Y-101146587D01*
X201603883Y-101167810D01*
X201586139Y-101187389D01*
X201566560Y-101205133D01*
X201545337Y-101220873D01*
X201522674Y-101234457D01*
X201498788Y-101245755D01*
X201473909Y-101254656D01*
X201448278Y-101261076D01*
X201422141Y-101264953D01*
X201395750Y-101266250D01*
X200432250Y-101266250D01*
X200405859Y-101264953D01*
X200379722Y-101261076D01*
X200354091Y-101254656D01*
X200329212Y-101245755D01*
X200305326Y-101234457D01*
X200282663Y-101220873D01*
X200261440Y-101205133D01*
X200241861Y-101187389D01*
X200224117Y-101167810D01*
X200208377Y-101146587D01*
X200194793Y-101123924D01*
X200183495Y-101100038D01*
X200174594Y-101075159D01*
X200168174Y-101049528D01*
X200164297Y-101023391D01*
X200163000Y-100997000D01*
X200163000Y-100458500D01*
X200164297Y-100432109D01*
X200168174Y-100405972D01*
X200174594Y-100380341D01*
X200183495Y-100355462D01*
X200194793Y-100331576D01*
X200208377Y-100308913D01*
X200224117Y-100287690D01*
X200241861Y-100268111D01*
X200261440Y-100250367D01*
X200282663Y-100234627D01*
X200305326Y-100221043D01*
X200329212Y-100209745D01*
X200354091Y-100200844D01*
X200379722Y-100194424D01*
X200405859Y-100190547D01*
X200432250Y-100189250D01*
X201395750Y-100189250D01*
X201422141Y-100190547D01*
X201422141Y-100190547D01*
G37*
D27*
X200914000Y-100727750D03*
D26*
G36*
X201422141Y-98315547D02*
G01*
X201448278Y-98319424D01*
X201473909Y-98325844D01*
X201498788Y-98334745D01*
X201522674Y-98346043D01*
X201545337Y-98359627D01*
X201566560Y-98375367D01*
X201586139Y-98393111D01*
X201603883Y-98412690D01*
X201619623Y-98433913D01*
X201633207Y-98456576D01*
X201644505Y-98480462D01*
X201653406Y-98505341D01*
X201659826Y-98530972D01*
X201663703Y-98557109D01*
X201665000Y-98583500D01*
X201665000Y-99122000D01*
X201663703Y-99148391D01*
X201659826Y-99174528D01*
X201653406Y-99200159D01*
X201644505Y-99225038D01*
X201633207Y-99248924D01*
X201619623Y-99271587D01*
X201603883Y-99292810D01*
X201586139Y-99312389D01*
X201566560Y-99330133D01*
X201545337Y-99345873D01*
X201522674Y-99359457D01*
X201498788Y-99370755D01*
X201473909Y-99379656D01*
X201448278Y-99386076D01*
X201422141Y-99389953D01*
X201395750Y-99391250D01*
X200432250Y-99391250D01*
X200405859Y-99389953D01*
X200379722Y-99386076D01*
X200354091Y-99379656D01*
X200329212Y-99370755D01*
X200305326Y-99359457D01*
X200282663Y-99345873D01*
X200261440Y-99330133D01*
X200241861Y-99312389D01*
X200224117Y-99292810D01*
X200208377Y-99271587D01*
X200194793Y-99248924D01*
X200183495Y-99225038D01*
X200174594Y-99200159D01*
X200168174Y-99174528D01*
X200164297Y-99148391D01*
X200163000Y-99122000D01*
X200163000Y-98583500D01*
X200164297Y-98557109D01*
X200168174Y-98530972D01*
X200174594Y-98505341D01*
X200183495Y-98480462D01*
X200194793Y-98456576D01*
X200208377Y-98433913D01*
X200224117Y-98412690D01*
X200241861Y-98393111D01*
X200261440Y-98375367D01*
X200282663Y-98359627D01*
X200305326Y-98346043D01*
X200329212Y-98334745D01*
X200354091Y-98325844D01*
X200379722Y-98319424D01*
X200405859Y-98315547D01*
X200432250Y-98314250D01*
X201395750Y-98314250D01*
X201422141Y-98315547D01*
X201422141Y-98315547D01*
G37*
D27*
X200914000Y-98852750D03*
M02*
