G04 #@! TF.GenerationSoftware,KiCad,Pcbnew,(5.1.4)-1*
G04 #@! TF.CreationDate,2022-10-29T17:19:06+02:00*
G04 #@! TF.ProjectId,quaver-keypad,71756176-6572-42d6-9b65-797061642e6b,rev?*
G04 #@! TF.SameCoordinates,Original*
G04 #@! TF.FileFunction,Copper,L2,Bot*
G04 #@! TF.FilePolarity,Positive*
%FSLAX46Y46*%
G04 Gerber Fmt 4.6, Leading zero omitted, Abs format (unit mm)*
G04 Created by KiCad (PCBNEW (5.1.4)-1) date 2022-10-29 17:19:06*
%MOMM*%
%LPD*%
G04 APERTURE LIST*
%ADD10R,1.905000X1.905000*%
%ADD11C,1.905000*%
%ADD12C,2.250000*%
%ADD13C,2.250000*%
%ADD14R,1.200000X0.900000*%
%ADD15R,1.400000X1.200000*%
%ADD16O,1.700000X2.700000*%
%ADD17R,0.500000X2.250000*%
%ADD18R,0.550000X1.500000*%
%ADD19R,1.500000X0.550000*%
%ADD20R,1.800000X1.100000*%
%ADD21C,0.100000*%
%ADD22C,0.975000*%
%ADD23C,1.250000*%
%ADD24C,0.800000*%
%ADD25C,0.381000*%
%ADD26C,0.250000*%
%ADD27C,0.254000*%
G04 APERTURE END LIST*
D10*
X113284000Y-98679000D03*
D11*
X110744000Y-98679000D03*
D12*
X109514000Y-89599000D03*
X108859001Y-90329000D03*
D13*
X108204000Y-91059000D02*
X109514002Y-89599000D01*
D12*
X114554000Y-88519000D03*
X114534000Y-88809000D03*
D13*
X114514000Y-89099000D02*
X114554000Y-88519000D01*
D10*
X94234000Y-98679000D03*
D11*
X91694000Y-98679000D03*
D12*
X90464000Y-89599000D03*
X89809001Y-90329000D03*
D13*
X89154000Y-91059000D02*
X90464002Y-89599000D01*
D12*
X95504000Y-88519000D03*
X95484000Y-88809000D03*
D13*
X95464000Y-89099000D02*
X95504000Y-88519000D01*
D10*
X113284000Y-79629000D03*
D11*
X110744000Y-79629000D03*
D12*
X109514000Y-70549000D03*
X108859001Y-71279000D03*
D13*
X108204000Y-72009000D02*
X109514002Y-70549000D01*
D12*
X114554000Y-69469000D03*
X114534000Y-69759000D03*
D13*
X114514000Y-70049000D02*
X114554000Y-69469000D01*
D10*
X94234000Y-79629000D03*
D11*
X91694000Y-79629000D03*
D12*
X90464000Y-70549000D03*
X89809001Y-71279000D03*
D13*
X89154000Y-72009000D02*
X90464002Y-70549000D01*
D12*
X95504000Y-69469000D03*
X95484000Y-69759000D03*
D13*
X95464000Y-70049000D02*
X95504000Y-69469000D01*
D14*
X120269000Y-91314000D03*
X120269000Y-94614000D03*
X101473000Y-91568000D03*
X101473000Y-94868000D03*
X120523000Y-72645000D03*
X120523000Y-75945000D03*
X101346000Y-72772000D03*
X101346000Y-76072000D03*
D15*
X71970000Y-75120000D03*
X69770000Y-75120000D03*
X69770000Y-76820000D03*
X71970000Y-76820000D03*
D16*
X48039000Y-61341000D03*
X55339000Y-61341000D03*
X55339000Y-65841000D03*
X48039000Y-65841000D03*
D17*
X50089000Y-65841000D03*
X50889000Y-65841000D03*
X51689000Y-65841000D03*
X52489000Y-65841000D03*
X53289000Y-65841000D03*
D18*
X66739000Y-93711000D03*
X67539000Y-93711000D03*
X68339000Y-93711000D03*
X69139000Y-93711000D03*
X69939000Y-93711000D03*
X70739000Y-93711000D03*
X71539000Y-93711000D03*
X72339000Y-93711000D03*
X73139000Y-93711000D03*
X73939000Y-93711000D03*
X74739000Y-93711000D03*
D19*
X76439000Y-92011000D03*
X76439000Y-91211000D03*
X76439000Y-90411000D03*
X76439000Y-89611000D03*
X76439000Y-88811000D03*
X76439000Y-88011000D03*
X76439000Y-87211000D03*
X76439000Y-86411000D03*
X76439000Y-85611000D03*
X76439000Y-84811000D03*
X76439000Y-84011000D03*
D18*
X74739000Y-82311000D03*
X73939000Y-82311000D03*
X73139000Y-82311000D03*
X72339000Y-82311000D03*
X71539000Y-82311000D03*
X70739000Y-82311000D03*
X69939000Y-82311000D03*
X69139000Y-82311000D03*
X68339000Y-82311000D03*
X67539000Y-82311000D03*
X66739000Y-82311000D03*
D19*
X65039000Y-84011000D03*
X65039000Y-84811000D03*
X65039000Y-85611000D03*
X65039000Y-86411000D03*
X65039000Y-87211000D03*
X65039000Y-88011000D03*
X65039000Y-88811000D03*
X65039000Y-89611000D03*
X65039000Y-90411000D03*
X65039000Y-91211000D03*
X65039000Y-92011000D03*
D20*
X51233000Y-104847000D03*
X45033000Y-101147000D03*
X51233000Y-101147000D03*
X45033000Y-104847000D03*
D21*
G36*
X81125142Y-93542174D02*
G01*
X81148803Y-93545684D01*
X81172007Y-93551496D01*
X81194529Y-93559554D01*
X81216153Y-93569782D01*
X81236670Y-93582079D01*
X81255883Y-93596329D01*
X81273607Y-93612393D01*
X81289671Y-93630117D01*
X81303921Y-93649330D01*
X81316218Y-93669847D01*
X81326446Y-93691471D01*
X81334504Y-93713993D01*
X81340316Y-93737197D01*
X81343826Y-93760858D01*
X81345000Y-93784750D01*
X81345000Y-94272250D01*
X81343826Y-94296142D01*
X81340316Y-94319803D01*
X81334504Y-94343007D01*
X81326446Y-94365529D01*
X81316218Y-94387153D01*
X81303921Y-94407670D01*
X81289671Y-94426883D01*
X81273607Y-94444607D01*
X81255883Y-94460671D01*
X81236670Y-94474921D01*
X81216153Y-94487218D01*
X81194529Y-94497446D01*
X81172007Y-94505504D01*
X81148803Y-94511316D01*
X81125142Y-94514826D01*
X81101250Y-94516000D01*
X80188750Y-94516000D01*
X80164858Y-94514826D01*
X80141197Y-94511316D01*
X80117993Y-94505504D01*
X80095471Y-94497446D01*
X80073847Y-94487218D01*
X80053330Y-94474921D01*
X80034117Y-94460671D01*
X80016393Y-94444607D01*
X80000329Y-94426883D01*
X79986079Y-94407670D01*
X79973782Y-94387153D01*
X79963554Y-94365529D01*
X79955496Y-94343007D01*
X79949684Y-94319803D01*
X79946174Y-94296142D01*
X79945000Y-94272250D01*
X79945000Y-93784750D01*
X79946174Y-93760858D01*
X79949684Y-93737197D01*
X79955496Y-93713993D01*
X79963554Y-93691471D01*
X79973782Y-93669847D01*
X79986079Y-93649330D01*
X80000329Y-93630117D01*
X80016393Y-93612393D01*
X80034117Y-93596329D01*
X80053330Y-93582079D01*
X80073847Y-93569782D01*
X80095471Y-93559554D01*
X80117993Y-93551496D01*
X80141197Y-93545684D01*
X80164858Y-93542174D01*
X80188750Y-93541000D01*
X81101250Y-93541000D01*
X81125142Y-93542174D01*
X81125142Y-93542174D01*
G37*
D22*
X80645000Y-94028500D03*
D21*
G36*
X81125142Y-91667174D02*
G01*
X81148803Y-91670684D01*
X81172007Y-91676496D01*
X81194529Y-91684554D01*
X81216153Y-91694782D01*
X81236670Y-91707079D01*
X81255883Y-91721329D01*
X81273607Y-91737393D01*
X81289671Y-91755117D01*
X81303921Y-91774330D01*
X81316218Y-91794847D01*
X81326446Y-91816471D01*
X81334504Y-91838993D01*
X81340316Y-91862197D01*
X81343826Y-91885858D01*
X81345000Y-91909750D01*
X81345000Y-92397250D01*
X81343826Y-92421142D01*
X81340316Y-92444803D01*
X81334504Y-92468007D01*
X81326446Y-92490529D01*
X81316218Y-92512153D01*
X81303921Y-92532670D01*
X81289671Y-92551883D01*
X81273607Y-92569607D01*
X81255883Y-92585671D01*
X81236670Y-92599921D01*
X81216153Y-92612218D01*
X81194529Y-92622446D01*
X81172007Y-92630504D01*
X81148803Y-92636316D01*
X81125142Y-92639826D01*
X81101250Y-92641000D01*
X80188750Y-92641000D01*
X80164858Y-92639826D01*
X80141197Y-92636316D01*
X80117993Y-92630504D01*
X80095471Y-92622446D01*
X80073847Y-92612218D01*
X80053330Y-92599921D01*
X80034117Y-92585671D01*
X80016393Y-92569607D01*
X80000329Y-92551883D01*
X79986079Y-92532670D01*
X79973782Y-92512153D01*
X79963554Y-92490529D01*
X79955496Y-92468007D01*
X79949684Y-92444803D01*
X79946174Y-92421142D01*
X79945000Y-92397250D01*
X79945000Y-91909750D01*
X79946174Y-91885858D01*
X79949684Y-91862197D01*
X79955496Y-91838993D01*
X79963554Y-91816471D01*
X79973782Y-91794847D01*
X79986079Y-91774330D01*
X80000329Y-91755117D01*
X80016393Y-91737393D01*
X80034117Y-91721329D01*
X80053330Y-91707079D01*
X80073847Y-91694782D01*
X80095471Y-91684554D01*
X80117993Y-91676496D01*
X80141197Y-91670684D01*
X80164858Y-91667174D01*
X80188750Y-91666000D01*
X81101250Y-91666000D01*
X81125142Y-91667174D01*
X81125142Y-91667174D01*
G37*
D22*
X80645000Y-92153500D03*
D21*
G36*
X59739142Y-80054174D02*
G01*
X59762803Y-80057684D01*
X59786007Y-80063496D01*
X59808529Y-80071554D01*
X59830153Y-80081782D01*
X59850670Y-80094079D01*
X59869883Y-80108329D01*
X59887607Y-80124393D01*
X59903671Y-80142117D01*
X59917921Y-80161330D01*
X59930218Y-80181847D01*
X59940446Y-80203471D01*
X59948504Y-80225993D01*
X59954316Y-80249197D01*
X59957826Y-80272858D01*
X59959000Y-80296750D01*
X59959000Y-80784250D01*
X59957826Y-80808142D01*
X59954316Y-80831803D01*
X59948504Y-80855007D01*
X59940446Y-80877529D01*
X59930218Y-80899153D01*
X59917921Y-80919670D01*
X59903671Y-80938883D01*
X59887607Y-80956607D01*
X59869883Y-80972671D01*
X59850670Y-80986921D01*
X59830153Y-80999218D01*
X59808529Y-81009446D01*
X59786007Y-81017504D01*
X59762803Y-81023316D01*
X59739142Y-81026826D01*
X59715250Y-81028000D01*
X58802750Y-81028000D01*
X58778858Y-81026826D01*
X58755197Y-81023316D01*
X58731993Y-81017504D01*
X58709471Y-81009446D01*
X58687847Y-80999218D01*
X58667330Y-80986921D01*
X58648117Y-80972671D01*
X58630393Y-80956607D01*
X58614329Y-80938883D01*
X58600079Y-80919670D01*
X58587782Y-80899153D01*
X58577554Y-80877529D01*
X58569496Y-80855007D01*
X58563684Y-80831803D01*
X58560174Y-80808142D01*
X58559000Y-80784250D01*
X58559000Y-80296750D01*
X58560174Y-80272858D01*
X58563684Y-80249197D01*
X58569496Y-80225993D01*
X58577554Y-80203471D01*
X58587782Y-80181847D01*
X58600079Y-80161330D01*
X58614329Y-80142117D01*
X58630393Y-80124393D01*
X58648117Y-80108329D01*
X58667330Y-80094079D01*
X58687847Y-80081782D01*
X58709471Y-80071554D01*
X58731993Y-80063496D01*
X58755197Y-80057684D01*
X58778858Y-80054174D01*
X58802750Y-80053000D01*
X59715250Y-80053000D01*
X59739142Y-80054174D01*
X59739142Y-80054174D01*
G37*
D22*
X59259000Y-80540500D03*
D21*
G36*
X59739142Y-78179174D02*
G01*
X59762803Y-78182684D01*
X59786007Y-78188496D01*
X59808529Y-78196554D01*
X59830153Y-78206782D01*
X59850670Y-78219079D01*
X59869883Y-78233329D01*
X59887607Y-78249393D01*
X59903671Y-78267117D01*
X59917921Y-78286330D01*
X59930218Y-78306847D01*
X59940446Y-78328471D01*
X59948504Y-78350993D01*
X59954316Y-78374197D01*
X59957826Y-78397858D01*
X59959000Y-78421750D01*
X59959000Y-78909250D01*
X59957826Y-78933142D01*
X59954316Y-78956803D01*
X59948504Y-78980007D01*
X59940446Y-79002529D01*
X59930218Y-79024153D01*
X59917921Y-79044670D01*
X59903671Y-79063883D01*
X59887607Y-79081607D01*
X59869883Y-79097671D01*
X59850670Y-79111921D01*
X59830153Y-79124218D01*
X59808529Y-79134446D01*
X59786007Y-79142504D01*
X59762803Y-79148316D01*
X59739142Y-79151826D01*
X59715250Y-79153000D01*
X58802750Y-79153000D01*
X58778858Y-79151826D01*
X58755197Y-79148316D01*
X58731993Y-79142504D01*
X58709471Y-79134446D01*
X58687847Y-79124218D01*
X58667330Y-79111921D01*
X58648117Y-79097671D01*
X58630393Y-79081607D01*
X58614329Y-79063883D01*
X58600079Y-79044670D01*
X58587782Y-79024153D01*
X58577554Y-79002529D01*
X58569496Y-78980007D01*
X58563684Y-78956803D01*
X58560174Y-78933142D01*
X58559000Y-78909250D01*
X58559000Y-78421750D01*
X58560174Y-78397858D01*
X58563684Y-78374197D01*
X58569496Y-78350993D01*
X58577554Y-78328471D01*
X58587782Y-78306847D01*
X58600079Y-78286330D01*
X58614329Y-78267117D01*
X58630393Y-78249393D01*
X58648117Y-78233329D01*
X58667330Y-78219079D01*
X58687847Y-78206782D01*
X58709471Y-78196554D01*
X58731993Y-78188496D01*
X58755197Y-78182684D01*
X58778858Y-78179174D01*
X58802750Y-78178000D01*
X59715250Y-78178000D01*
X59739142Y-78179174D01*
X59739142Y-78179174D01*
G37*
D22*
X59259000Y-78665500D03*
D21*
G36*
X53100142Y-70308674D02*
G01*
X53123803Y-70312184D01*
X53147007Y-70317996D01*
X53169529Y-70326054D01*
X53191153Y-70336282D01*
X53211670Y-70348579D01*
X53230883Y-70362829D01*
X53248607Y-70378893D01*
X53264671Y-70396617D01*
X53278921Y-70415830D01*
X53291218Y-70436347D01*
X53301446Y-70457971D01*
X53309504Y-70480493D01*
X53315316Y-70503697D01*
X53318826Y-70527358D01*
X53320000Y-70551250D01*
X53320000Y-71038750D01*
X53318826Y-71062642D01*
X53315316Y-71086303D01*
X53309504Y-71109507D01*
X53301446Y-71132029D01*
X53291218Y-71153653D01*
X53278921Y-71174170D01*
X53264671Y-71193383D01*
X53248607Y-71211107D01*
X53230883Y-71227171D01*
X53211670Y-71241421D01*
X53191153Y-71253718D01*
X53169529Y-71263946D01*
X53147007Y-71272004D01*
X53123803Y-71277816D01*
X53100142Y-71281326D01*
X53076250Y-71282500D01*
X52163750Y-71282500D01*
X52139858Y-71281326D01*
X52116197Y-71277816D01*
X52092993Y-71272004D01*
X52070471Y-71263946D01*
X52048847Y-71253718D01*
X52028330Y-71241421D01*
X52009117Y-71227171D01*
X51991393Y-71211107D01*
X51975329Y-71193383D01*
X51961079Y-71174170D01*
X51948782Y-71153653D01*
X51938554Y-71132029D01*
X51930496Y-71109507D01*
X51924684Y-71086303D01*
X51921174Y-71062642D01*
X51920000Y-71038750D01*
X51920000Y-70551250D01*
X51921174Y-70527358D01*
X51924684Y-70503697D01*
X51930496Y-70480493D01*
X51938554Y-70457971D01*
X51948782Y-70436347D01*
X51961079Y-70415830D01*
X51975329Y-70396617D01*
X51991393Y-70378893D01*
X52009117Y-70362829D01*
X52028330Y-70348579D01*
X52048847Y-70336282D01*
X52070471Y-70326054D01*
X52092993Y-70317996D01*
X52116197Y-70312184D01*
X52139858Y-70308674D01*
X52163750Y-70307500D01*
X53076250Y-70307500D01*
X53100142Y-70308674D01*
X53100142Y-70308674D01*
G37*
D22*
X52620000Y-70795000D03*
D21*
G36*
X53100142Y-72183674D02*
G01*
X53123803Y-72187184D01*
X53147007Y-72192996D01*
X53169529Y-72201054D01*
X53191153Y-72211282D01*
X53211670Y-72223579D01*
X53230883Y-72237829D01*
X53248607Y-72253893D01*
X53264671Y-72271617D01*
X53278921Y-72290830D01*
X53291218Y-72311347D01*
X53301446Y-72332971D01*
X53309504Y-72355493D01*
X53315316Y-72378697D01*
X53318826Y-72402358D01*
X53320000Y-72426250D01*
X53320000Y-72913750D01*
X53318826Y-72937642D01*
X53315316Y-72961303D01*
X53309504Y-72984507D01*
X53301446Y-73007029D01*
X53291218Y-73028653D01*
X53278921Y-73049170D01*
X53264671Y-73068383D01*
X53248607Y-73086107D01*
X53230883Y-73102171D01*
X53211670Y-73116421D01*
X53191153Y-73128718D01*
X53169529Y-73138946D01*
X53147007Y-73147004D01*
X53123803Y-73152816D01*
X53100142Y-73156326D01*
X53076250Y-73157500D01*
X52163750Y-73157500D01*
X52139858Y-73156326D01*
X52116197Y-73152816D01*
X52092993Y-73147004D01*
X52070471Y-73138946D01*
X52048847Y-73128718D01*
X52028330Y-73116421D01*
X52009117Y-73102171D01*
X51991393Y-73086107D01*
X51975329Y-73068383D01*
X51961079Y-73049170D01*
X51948782Y-73028653D01*
X51938554Y-73007029D01*
X51930496Y-72984507D01*
X51924684Y-72961303D01*
X51921174Y-72937642D01*
X51920000Y-72913750D01*
X51920000Y-72426250D01*
X51921174Y-72402358D01*
X51924684Y-72378697D01*
X51930496Y-72355493D01*
X51938554Y-72332971D01*
X51948782Y-72311347D01*
X51961079Y-72290830D01*
X51975329Y-72271617D01*
X51991393Y-72253893D01*
X52009117Y-72237829D01*
X52028330Y-72223579D01*
X52048847Y-72211282D01*
X52070471Y-72201054D01*
X52092993Y-72192996D01*
X52116197Y-72187184D01*
X52139858Y-72183674D01*
X52163750Y-72182500D01*
X53076250Y-72182500D01*
X53100142Y-72183674D01*
X53100142Y-72183674D01*
G37*
D22*
X52620000Y-72670000D03*
D21*
G36*
X50380142Y-70288674D02*
G01*
X50403803Y-70292184D01*
X50427007Y-70297996D01*
X50449529Y-70306054D01*
X50471153Y-70316282D01*
X50491670Y-70328579D01*
X50510883Y-70342829D01*
X50528607Y-70358893D01*
X50544671Y-70376617D01*
X50558921Y-70395830D01*
X50571218Y-70416347D01*
X50581446Y-70437971D01*
X50589504Y-70460493D01*
X50595316Y-70483697D01*
X50598826Y-70507358D01*
X50600000Y-70531250D01*
X50600000Y-71018750D01*
X50598826Y-71042642D01*
X50595316Y-71066303D01*
X50589504Y-71089507D01*
X50581446Y-71112029D01*
X50571218Y-71133653D01*
X50558921Y-71154170D01*
X50544671Y-71173383D01*
X50528607Y-71191107D01*
X50510883Y-71207171D01*
X50491670Y-71221421D01*
X50471153Y-71233718D01*
X50449529Y-71243946D01*
X50427007Y-71252004D01*
X50403803Y-71257816D01*
X50380142Y-71261326D01*
X50356250Y-71262500D01*
X49443750Y-71262500D01*
X49419858Y-71261326D01*
X49396197Y-71257816D01*
X49372993Y-71252004D01*
X49350471Y-71243946D01*
X49328847Y-71233718D01*
X49308330Y-71221421D01*
X49289117Y-71207171D01*
X49271393Y-71191107D01*
X49255329Y-71173383D01*
X49241079Y-71154170D01*
X49228782Y-71133653D01*
X49218554Y-71112029D01*
X49210496Y-71089507D01*
X49204684Y-71066303D01*
X49201174Y-71042642D01*
X49200000Y-71018750D01*
X49200000Y-70531250D01*
X49201174Y-70507358D01*
X49204684Y-70483697D01*
X49210496Y-70460493D01*
X49218554Y-70437971D01*
X49228782Y-70416347D01*
X49241079Y-70395830D01*
X49255329Y-70376617D01*
X49271393Y-70358893D01*
X49289117Y-70342829D01*
X49308330Y-70328579D01*
X49328847Y-70316282D01*
X49350471Y-70306054D01*
X49372993Y-70297996D01*
X49396197Y-70292184D01*
X49419858Y-70288674D01*
X49443750Y-70287500D01*
X50356250Y-70287500D01*
X50380142Y-70288674D01*
X50380142Y-70288674D01*
G37*
D22*
X49900000Y-70775000D03*
D21*
G36*
X50380142Y-72163674D02*
G01*
X50403803Y-72167184D01*
X50427007Y-72172996D01*
X50449529Y-72181054D01*
X50471153Y-72191282D01*
X50491670Y-72203579D01*
X50510883Y-72217829D01*
X50528607Y-72233893D01*
X50544671Y-72251617D01*
X50558921Y-72270830D01*
X50571218Y-72291347D01*
X50581446Y-72312971D01*
X50589504Y-72335493D01*
X50595316Y-72358697D01*
X50598826Y-72382358D01*
X50600000Y-72406250D01*
X50600000Y-72893750D01*
X50598826Y-72917642D01*
X50595316Y-72941303D01*
X50589504Y-72964507D01*
X50581446Y-72987029D01*
X50571218Y-73008653D01*
X50558921Y-73029170D01*
X50544671Y-73048383D01*
X50528607Y-73066107D01*
X50510883Y-73082171D01*
X50491670Y-73096421D01*
X50471153Y-73108718D01*
X50449529Y-73118946D01*
X50427007Y-73127004D01*
X50403803Y-73132816D01*
X50380142Y-73136326D01*
X50356250Y-73137500D01*
X49443750Y-73137500D01*
X49419858Y-73136326D01*
X49396197Y-73132816D01*
X49372993Y-73127004D01*
X49350471Y-73118946D01*
X49328847Y-73108718D01*
X49308330Y-73096421D01*
X49289117Y-73082171D01*
X49271393Y-73066107D01*
X49255329Y-73048383D01*
X49241079Y-73029170D01*
X49228782Y-73008653D01*
X49218554Y-72987029D01*
X49210496Y-72964507D01*
X49204684Y-72941303D01*
X49201174Y-72917642D01*
X49200000Y-72893750D01*
X49200000Y-72406250D01*
X49201174Y-72382358D01*
X49204684Y-72358697D01*
X49210496Y-72335493D01*
X49218554Y-72312971D01*
X49228782Y-72291347D01*
X49241079Y-72270830D01*
X49255329Y-72251617D01*
X49271393Y-72233893D01*
X49289117Y-72217829D01*
X49308330Y-72203579D01*
X49328847Y-72191282D01*
X49350471Y-72181054D01*
X49372993Y-72172996D01*
X49396197Y-72167184D01*
X49419858Y-72163674D01*
X49443750Y-72162500D01*
X50356250Y-72162500D01*
X50380142Y-72163674D01*
X50380142Y-72163674D01*
G37*
D22*
X49900000Y-72650000D03*
D21*
G36*
X45099504Y-76335204D02*
G01*
X45123773Y-76338804D01*
X45147571Y-76344765D01*
X45170671Y-76353030D01*
X45192849Y-76363520D01*
X45213893Y-76376133D01*
X45233598Y-76390747D01*
X45251777Y-76407223D01*
X45268253Y-76425402D01*
X45282867Y-76445107D01*
X45295480Y-76466151D01*
X45305970Y-76488329D01*
X45314235Y-76511429D01*
X45320196Y-76535227D01*
X45323796Y-76559496D01*
X45325000Y-76584000D01*
X45325000Y-77334000D01*
X45323796Y-77358504D01*
X45320196Y-77382773D01*
X45314235Y-77406571D01*
X45305970Y-77429671D01*
X45295480Y-77451849D01*
X45282867Y-77472893D01*
X45268253Y-77492598D01*
X45251777Y-77510777D01*
X45233598Y-77527253D01*
X45213893Y-77541867D01*
X45192849Y-77554480D01*
X45170671Y-77564970D01*
X45147571Y-77573235D01*
X45123773Y-77579196D01*
X45099504Y-77582796D01*
X45075000Y-77584000D01*
X43825000Y-77584000D01*
X43800496Y-77582796D01*
X43776227Y-77579196D01*
X43752429Y-77573235D01*
X43729329Y-77564970D01*
X43707151Y-77554480D01*
X43686107Y-77541867D01*
X43666402Y-77527253D01*
X43648223Y-77510777D01*
X43631747Y-77492598D01*
X43617133Y-77472893D01*
X43604520Y-77451849D01*
X43594030Y-77429671D01*
X43585765Y-77406571D01*
X43579804Y-77382773D01*
X43576204Y-77358504D01*
X43575000Y-77334000D01*
X43575000Y-76584000D01*
X43576204Y-76559496D01*
X43579804Y-76535227D01*
X43585765Y-76511429D01*
X43594030Y-76488329D01*
X43604520Y-76466151D01*
X43617133Y-76445107D01*
X43631747Y-76425402D01*
X43648223Y-76407223D01*
X43666402Y-76390747D01*
X43686107Y-76376133D01*
X43707151Y-76363520D01*
X43729329Y-76353030D01*
X43752429Y-76344765D01*
X43776227Y-76338804D01*
X43800496Y-76335204D01*
X43825000Y-76334000D01*
X45075000Y-76334000D01*
X45099504Y-76335204D01*
X45099504Y-76335204D01*
G37*
D23*
X44450000Y-76959000D03*
D21*
G36*
X45099504Y-79135204D02*
G01*
X45123773Y-79138804D01*
X45147571Y-79144765D01*
X45170671Y-79153030D01*
X45192849Y-79163520D01*
X45213893Y-79176133D01*
X45233598Y-79190747D01*
X45251777Y-79207223D01*
X45268253Y-79225402D01*
X45282867Y-79245107D01*
X45295480Y-79266151D01*
X45305970Y-79288329D01*
X45314235Y-79311429D01*
X45320196Y-79335227D01*
X45323796Y-79359496D01*
X45325000Y-79384000D01*
X45325000Y-80134000D01*
X45323796Y-80158504D01*
X45320196Y-80182773D01*
X45314235Y-80206571D01*
X45305970Y-80229671D01*
X45295480Y-80251849D01*
X45282867Y-80272893D01*
X45268253Y-80292598D01*
X45251777Y-80310777D01*
X45233598Y-80327253D01*
X45213893Y-80341867D01*
X45192849Y-80354480D01*
X45170671Y-80364970D01*
X45147571Y-80373235D01*
X45123773Y-80379196D01*
X45099504Y-80382796D01*
X45075000Y-80384000D01*
X43825000Y-80384000D01*
X43800496Y-80382796D01*
X43776227Y-80379196D01*
X43752429Y-80373235D01*
X43729329Y-80364970D01*
X43707151Y-80354480D01*
X43686107Y-80341867D01*
X43666402Y-80327253D01*
X43648223Y-80310777D01*
X43631747Y-80292598D01*
X43617133Y-80272893D01*
X43604520Y-80251849D01*
X43594030Y-80229671D01*
X43585765Y-80206571D01*
X43579804Y-80182773D01*
X43576204Y-80158504D01*
X43575000Y-80134000D01*
X43575000Y-79384000D01*
X43576204Y-79359496D01*
X43579804Y-79335227D01*
X43585765Y-79311429D01*
X43594030Y-79288329D01*
X43604520Y-79266151D01*
X43617133Y-79245107D01*
X43631747Y-79225402D01*
X43648223Y-79207223D01*
X43666402Y-79190747D01*
X43686107Y-79176133D01*
X43707151Y-79163520D01*
X43729329Y-79153030D01*
X43752429Y-79144765D01*
X43776227Y-79138804D01*
X43800496Y-79135204D01*
X43825000Y-79134000D01*
X45075000Y-79134000D01*
X45099504Y-79135204D01*
X45099504Y-79135204D01*
G37*
D23*
X44450000Y-79759000D03*
D21*
G36*
X59230142Y-93631174D02*
G01*
X59253803Y-93634684D01*
X59277007Y-93640496D01*
X59299529Y-93648554D01*
X59321153Y-93658782D01*
X59341670Y-93671079D01*
X59360883Y-93685329D01*
X59378607Y-93701393D01*
X59394671Y-93719117D01*
X59408921Y-93738330D01*
X59421218Y-93758847D01*
X59431446Y-93780471D01*
X59439504Y-93802993D01*
X59445316Y-93826197D01*
X59448826Y-93849858D01*
X59450000Y-93873750D01*
X59450000Y-94361250D01*
X59448826Y-94385142D01*
X59445316Y-94408803D01*
X59439504Y-94432007D01*
X59431446Y-94454529D01*
X59421218Y-94476153D01*
X59408921Y-94496670D01*
X59394671Y-94515883D01*
X59378607Y-94533607D01*
X59360883Y-94549671D01*
X59341670Y-94563921D01*
X59321153Y-94576218D01*
X59299529Y-94586446D01*
X59277007Y-94594504D01*
X59253803Y-94600316D01*
X59230142Y-94603826D01*
X59206250Y-94605000D01*
X58293750Y-94605000D01*
X58269858Y-94603826D01*
X58246197Y-94600316D01*
X58222993Y-94594504D01*
X58200471Y-94586446D01*
X58178847Y-94576218D01*
X58158330Y-94563921D01*
X58139117Y-94549671D01*
X58121393Y-94533607D01*
X58105329Y-94515883D01*
X58091079Y-94496670D01*
X58078782Y-94476153D01*
X58068554Y-94454529D01*
X58060496Y-94432007D01*
X58054684Y-94408803D01*
X58051174Y-94385142D01*
X58050000Y-94361250D01*
X58050000Y-93873750D01*
X58051174Y-93849858D01*
X58054684Y-93826197D01*
X58060496Y-93802993D01*
X58068554Y-93780471D01*
X58078782Y-93758847D01*
X58091079Y-93738330D01*
X58105329Y-93719117D01*
X58121393Y-93701393D01*
X58139117Y-93685329D01*
X58158330Y-93671079D01*
X58178847Y-93658782D01*
X58200471Y-93648554D01*
X58222993Y-93640496D01*
X58246197Y-93634684D01*
X58269858Y-93631174D01*
X58293750Y-93630000D01*
X59206250Y-93630000D01*
X59230142Y-93631174D01*
X59230142Y-93631174D01*
G37*
D22*
X58750000Y-94117500D03*
D21*
G36*
X59230142Y-91756174D02*
G01*
X59253803Y-91759684D01*
X59277007Y-91765496D01*
X59299529Y-91773554D01*
X59321153Y-91783782D01*
X59341670Y-91796079D01*
X59360883Y-91810329D01*
X59378607Y-91826393D01*
X59394671Y-91844117D01*
X59408921Y-91863330D01*
X59421218Y-91883847D01*
X59431446Y-91905471D01*
X59439504Y-91927993D01*
X59445316Y-91951197D01*
X59448826Y-91974858D01*
X59450000Y-91998750D01*
X59450000Y-92486250D01*
X59448826Y-92510142D01*
X59445316Y-92533803D01*
X59439504Y-92557007D01*
X59431446Y-92579529D01*
X59421218Y-92601153D01*
X59408921Y-92621670D01*
X59394671Y-92640883D01*
X59378607Y-92658607D01*
X59360883Y-92674671D01*
X59341670Y-92688921D01*
X59321153Y-92701218D01*
X59299529Y-92711446D01*
X59277007Y-92719504D01*
X59253803Y-92725316D01*
X59230142Y-92728826D01*
X59206250Y-92730000D01*
X58293750Y-92730000D01*
X58269858Y-92728826D01*
X58246197Y-92725316D01*
X58222993Y-92719504D01*
X58200471Y-92711446D01*
X58178847Y-92701218D01*
X58158330Y-92688921D01*
X58139117Y-92674671D01*
X58121393Y-92658607D01*
X58105329Y-92640883D01*
X58091079Y-92621670D01*
X58078782Y-92601153D01*
X58068554Y-92579529D01*
X58060496Y-92557007D01*
X58054684Y-92533803D01*
X58051174Y-92510142D01*
X58050000Y-92486250D01*
X58050000Y-91998750D01*
X58051174Y-91974858D01*
X58054684Y-91951197D01*
X58060496Y-91927993D01*
X58068554Y-91905471D01*
X58078782Y-91883847D01*
X58091079Y-91863330D01*
X58105329Y-91844117D01*
X58121393Y-91826393D01*
X58139117Y-91810329D01*
X58158330Y-91796079D01*
X58178847Y-91783782D01*
X58200471Y-91773554D01*
X58222993Y-91765496D01*
X58246197Y-91759684D01*
X58269858Y-91756174D01*
X58293750Y-91755000D01*
X59206250Y-91755000D01*
X59230142Y-91756174D01*
X59230142Y-91756174D01*
G37*
D22*
X58750000Y-92242500D03*
D21*
G36*
X57877142Y-86804174D02*
G01*
X57900803Y-86807684D01*
X57924007Y-86813496D01*
X57946529Y-86821554D01*
X57968153Y-86831782D01*
X57988670Y-86844079D01*
X58007883Y-86858329D01*
X58025607Y-86874393D01*
X58041671Y-86892117D01*
X58055921Y-86911330D01*
X58068218Y-86931847D01*
X58078446Y-86953471D01*
X58086504Y-86975993D01*
X58092316Y-86999197D01*
X58095826Y-87022858D01*
X58097000Y-87046750D01*
X58097000Y-87959250D01*
X58095826Y-87983142D01*
X58092316Y-88006803D01*
X58086504Y-88030007D01*
X58078446Y-88052529D01*
X58068218Y-88074153D01*
X58055921Y-88094670D01*
X58041671Y-88113883D01*
X58025607Y-88131607D01*
X58007883Y-88147671D01*
X57988670Y-88161921D01*
X57968153Y-88174218D01*
X57946529Y-88184446D01*
X57924007Y-88192504D01*
X57900803Y-88198316D01*
X57877142Y-88201826D01*
X57853250Y-88203000D01*
X57365750Y-88203000D01*
X57341858Y-88201826D01*
X57318197Y-88198316D01*
X57294993Y-88192504D01*
X57272471Y-88184446D01*
X57250847Y-88174218D01*
X57230330Y-88161921D01*
X57211117Y-88147671D01*
X57193393Y-88131607D01*
X57177329Y-88113883D01*
X57163079Y-88094670D01*
X57150782Y-88074153D01*
X57140554Y-88052529D01*
X57132496Y-88030007D01*
X57126684Y-88006803D01*
X57123174Y-87983142D01*
X57122000Y-87959250D01*
X57122000Y-87046750D01*
X57123174Y-87022858D01*
X57126684Y-86999197D01*
X57132496Y-86975993D01*
X57140554Y-86953471D01*
X57150782Y-86931847D01*
X57163079Y-86911330D01*
X57177329Y-86892117D01*
X57193393Y-86874393D01*
X57211117Y-86858329D01*
X57230330Y-86844079D01*
X57250847Y-86831782D01*
X57272471Y-86821554D01*
X57294993Y-86813496D01*
X57318197Y-86807684D01*
X57341858Y-86804174D01*
X57365750Y-86803000D01*
X57853250Y-86803000D01*
X57877142Y-86804174D01*
X57877142Y-86804174D01*
G37*
D22*
X57609500Y-87503000D03*
D21*
G36*
X59752142Y-86804174D02*
G01*
X59775803Y-86807684D01*
X59799007Y-86813496D01*
X59821529Y-86821554D01*
X59843153Y-86831782D01*
X59863670Y-86844079D01*
X59882883Y-86858329D01*
X59900607Y-86874393D01*
X59916671Y-86892117D01*
X59930921Y-86911330D01*
X59943218Y-86931847D01*
X59953446Y-86953471D01*
X59961504Y-86975993D01*
X59967316Y-86999197D01*
X59970826Y-87022858D01*
X59972000Y-87046750D01*
X59972000Y-87959250D01*
X59970826Y-87983142D01*
X59967316Y-88006803D01*
X59961504Y-88030007D01*
X59953446Y-88052529D01*
X59943218Y-88074153D01*
X59930921Y-88094670D01*
X59916671Y-88113883D01*
X59900607Y-88131607D01*
X59882883Y-88147671D01*
X59863670Y-88161921D01*
X59843153Y-88174218D01*
X59821529Y-88184446D01*
X59799007Y-88192504D01*
X59775803Y-88198316D01*
X59752142Y-88201826D01*
X59728250Y-88203000D01*
X59240750Y-88203000D01*
X59216858Y-88201826D01*
X59193197Y-88198316D01*
X59169993Y-88192504D01*
X59147471Y-88184446D01*
X59125847Y-88174218D01*
X59105330Y-88161921D01*
X59086117Y-88147671D01*
X59068393Y-88131607D01*
X59052329Y-88113883D01*
X59038079Y-88094670D01*
X59025782Y-88074153D01*
X59015554Y-88052529D01*
X59007496Y-88030007D01*
X59001684Y-88006803D01*
X58998174Y-87983142D01*
X58997000Y-87959250D01*
X58997000Y-87046750D01*
X58998174Y-87022858D01*
X59001684Y-86999197D01*
X59007496Y-86975993D01*
X59015554Y-86953471D01*
X59025782Y-86931847D01*
X59038079Y-86911330D01*
X59052329Y-86892117D01*
X59068393Y-86874393D01*
X59086117Y-86858329D01*
X59105330Y-86844079D01*
X59125847Y-86831782D01*
X59147471Y-86821554D01*
X59169993Y-86813496D01*
X59193197Y-86807684D01*
X59216858Y-86804174D01*
X59240750Y-86803000D01*
X59728250Y-86803000D01*
X59752142Y-86804174D01*
X59752142Y-86804174D01*
G37*
D22*
X59484500Y-87503000D03*
D21*
G36*
X75149142Y-96710174D02*
G01*
X75172803Y-96713684D01*
X75196007Y-96719496D01*
X75218529Y-96727554D01*
X75240153Y-96737782D01*
X75260670Y-96750079D01*
X75279883Y-96764329D01*
X75297607Y-96780393D01*
X75313671Y-96798117D01*
X75327921Y-96817330D01*
X75340218Y-96837847D01*
X75350446Y-96859471D01*
X75358504Y-96881993D01*
X75364316Y-96905197D01*
X75367826Y-96928858D01*
X75369000Y-96952750D01*
X75369000Y-97865250D01*
X75367826Y-97889142D01*
X75364316Y-97912803D01*
X75358504Y-97936007D01*
X75350446Y-97958529D01*
X75340218Y-97980153D01*
X75327921Y-98000670D01*
X75313671Y-98019883D01*
X75297607Y-98037607D01*
X75279883Y-98053671D01*
X75260670Y-98067921D01*
X75240153Y-98080218D01*
X75218529Y-98090446D01*
X75196007Y-98098504D01*
X75172803Y-98104316D01*
X75149142Y-98107826D01*
X75125250Y-98109000D01*
X74637750Y-98109000D01*
X74613858Y-98107826D01*
X74590197Y-98104316D01*
X74566993Y-98098504D01*
X74544471Y-98090446D01*
X74522847Y-98080218D01*
X74502330Y-98067921D01*
X74483117Y-98053671D01*
X74465393Y-98037607D01*
X74449329Y-98019883D01*
X74435079Y-98000670D01*
X74422782Y-97980153D01*
X74412554Y-97958529D01*
X74404496Y-97936007D01*
X74398684Y-97912803D01*
X74395174Y-97889142D01*
X74394000Y-97865250D01*
X74394000Y-96952750D01*
X74395174Y-96928858D01*
X74398684Y-96905197D01*
X74404496Y-96881993D01*
X74412554Y-96859471D01*
X74422782Y-96837847D01*
X74435079Y-96817330D01*
X74449329Y-96798117D01*
X74465393Y-96780393D01*
X74483117Y-96764329D01*
X74502330Y-96750079D01*
X74522847Y-96737782D01*
X74544471Y-96727554D01*
X74566993Y-96719496D01*
X74590197Y-96713684D01*
X74613858Y-96710174D01*
X74637750Y-96709000D01*
X75125250Y-96709000D01*
X75149142Y-96710174D01*
X75149142Y-96710174D01*
G37*
D22*
X74881500Y-97409000D03*
D21*
G36*
X77024142Y-96710174D02*
G01*
X77047803Y-96713684D01*
X77071007Y-96719496D01*
X77093529Y-96727554D01*
X77115153Y-96737782D01*
X77135670Y-96750079D01*
X77154883Y-96764329D01*
X77172607Y-96780393D01*
X77188671Y-96798117D01*
X77202921Y-96817330D01*
X77215218Y-96837847D01*
X77225446Y-96859471D01*
X77233504Y-96881993D01*
X77239316Y-96905197D01*
X77242826Y-96928858D01*
X77244000Y-96952750D01*
X77244000Y-97865250D01*
X77242826Y-97889142D01*
X77239316Y-97912803D01*
X77233504Y-97936007D01*
X77225446Y-97958529D01*
X77215218Y-97980153D01*
X77202921Y-98000670D01*
X77188671Y-98019883D01*
X77172607Y-98037607D01*
X77154883Y-98053671D01*
X77135670Y-98067921D01*
X77115153Y-98080218D01*
X77093529Y-98090446D01*
X77071007Y-98098504D01*
X77047803Y-98104316D01*
X77024142Y-98107826D01*
X77000250Y-98109000D01*
X76512750Y-98109000D01*
X76488858Y-98107826D01*
X76465197Y-98104316D01*
X76441993Y-98098504D01*
X76419471Y-98090446D01*
X76397847Y-98080218D01*
X76377330Y-98067921D01*
X76358117Y-98053671D01*
X76340393Y-98037607D01*
X76324329Y-98019883D01*
X76310079Y-98000670D01*
X76297782Y-97980153D01*
X76287554Y-97958529D01*
X76279496Y-97936007D01*
X76273684Y-97912803D01*
X76270174Y-97889142D01*
X76269000Y-97865250D01*
X76269000Y-96952750D01*
X76270174Y-96928858D01*
X76273684Y-96905197D01*
X76279496Y-96881993D01*
X76287554Y-96859471D01*
X76297782Y-96837847D01*
X76310079Y-96817330D01*
X76324329Y-96798117D01*
X76340393Y-96780393D01*
X76358117Y-96764329D01*
X76377330Y-96750079D01*
X76397847Y-96737782D01*
X76419471Y-96727554D01*
X76441993Y-96719496D01*
X76465197Y-96713684D01*
X76488858Y-96710174D01*
X76512750Y-96709000D01*
X77000250Y-96709000D01*
X77024142Y-96710174D01*
X77024142Y-96710174D01*
G37*
D22*
X76756500Y-97409000D03*
D21*
G36*
X80998142Y-81428674D02*
G01*
X81021803Y-81432184D01*
X81045007Y-81437996D01*
X81067529Y-81446054D01*
X81089153Y-81456282D01*
X81109670Y-81468579D01*
X81128883Y-81482829D01*
X81146607Y-81498893D01*
X81162671Y-81516617D01*
X81176921Y-81535830D01*
X81189218Y-81556347D01*
X81199446Y-81577971D01*
X81207504Y-81600493D01*
X81213316Y-81623697D01*
X81216826Y-81647358D01*
X81218000Y-81671250D01*
X81218000Y-82158750D01*
X81216826Y-82182642D01*
X81213316Y-82206303D01*
X81207504Y-82229507D01*
X81199446Y-82252029D01*
X81189218Y-82273653D01*
X81176921Y-82294170D01*
X81162671Y-82313383D01*
X81146607Y-82331107D01*
X81128883Y-82347171D01*
X81109670Y-82361421D01*
X81089153Y-82373718D01*
X81067529Y-82383946D01*
X81045007Y-82392004D01*
X81021803Y-82397816D01*
X80998142Y-82401326D01*
X80974250Y-82402500D01*
X80061750Y-82402500D01*
X80037858Y-82401326D01*
X80014197Y-82397816D01*
X79990993Y-82392004D01*
X79968471Y-82383946D01*
X79946847Y-82373718D01*
X79926330Y-82361421D01*
X79907117Y-82347171D01*
X79889393Y-82331107D01*
X79873329Y-82313383D01*
X79859079Y-82294170D01*
X79846782Y-82273653D01*
X79836554Y-82252029D01*
X79828496Y-82229507D01*
X79822684Y-82206303D01*
X79819174Y-82182642D01*
X79818000Y-82158750D01*
X79818000Y-81671250D01*
X79819174Y-81647358D01*
X79822684Y-81623697D01*
X79828496Y-81600493D01*
X79836554Y-81577971D01*
X79846782Y-81556347D01*
X79859079Y-81535830D01*
X79873329Y-81516617D01*
X79889393Y-81498893D01*
X79907117Y-81482829D01*
X79926330Y-81468579D01*
X79946847Y-81456282D01*
X79968471Y-81446054D01*
X79990993Y-81437996D01*
X80014197Y-81432184D01*
X80037858Y-81428674D01*
X80061750Y-81427500D01*
X80974250Y-81427500D01*
X80998142Y-81428674D01*
X80998142Y-81428674D01*
G37*
D22*
X80518000Y-81915000D03*
D21*
G36*
X80998142Y-83303674D02*
G01*
X81021803Y-83307184D01*
X81045007Y-83312996D01*
X81067529Y-83321054D01*
X81089153Y-83331282D01*
X81109670Y-83343579D01*
X81128883Y-83357829D01*
X81146607Y-83373893D01*
X81162671Y-83391617D01*
X81176921Y-83410830D01*
X81189218Y-83431347D01*
X81199446Y-83452971D01*
X81207504Y-83475493D01*
X81213316Y-83498697D01*
X81216826Y-83522358D01*
X81218000Y-83546250D01*
X81218000Y-84033750D01*
X81216826Y-84057642D01*
X81213316Y-84081303D01*
X81207504Y-84104507D01*
X81199446Y-84127029D01*
X81189218Y-84148653D01*
X81176921Y-84169170D01*
X81162671Y-84188383D01*
X81146607Y-84206107D01*
X81128883Y-84222171D01*
X81109670Y-84236421D01*
X81089153Y-84248718D01*
X81067529Y-84258946D01*
X81045007Y-84267004D01*
X81021803Y-84272816D01*
X80998142Y-84276326D01*
X80974250Y-84277500D01*
X80061750Y-84277500D01*
X80037858Y-84276326D01*
X80014197Y-84272816D01*
X79990993Y-84267004D01*
X79968471Y-84258946D01*
X79946847Y-84248718D01*
X79926330Y-84236421D01*
X79907117Y-84222171D01*
X79889393Y-84206107D01*
X79873329Y-84188383D01*
X79859079Y-84169170D01*
X79846782Y-84148653D01*
X79836554Y-84127029D01*
X79828496Y-84104507D01*
X79822684Y-84081303D01*
X79819174Y-84057642D01*
X79818000Y-84033750D01*
X79818000Y-83546250D01*
X79819174Y-83522358D01*
X79822684Y-83498697D01*
X79828496Y-83475493D01*
X79836554Y-83452971D01*
X79846782Y-83431347D01*
X79859079Y-83410830D01*
X79873329Y-83391617D01*
X79889393Y-83373893D01*
X79907117Y-83357829D01*
X79926330Y-83343579D01*
X79946847Y-83331282D01*
X79968471Y-83321054D01*
X79990993Y-83312996D01*
X80014197Y-83307184D01*
X80037858Y-83303674D01*
X80061750Y-83302500D01*
X80974250Y-83302500D01*
X80998142Y-83303674D01*
X80998142Y-83303674D01*
G37*
D22*
X80518000Y-83790000D03*
D21*
G36*
X65821642Y-76428924D02*
G01*
X65845303Y-76432434D01*
X65868507Y-76438246D01*
X65891029Y-76446304D01*
X65912653Y-76456532D01*
X65933170Y-76468829D01*
X65952383Y-76483079D01*
X65970107Y-76499143D01*
X65986171Y-76516867D01*
X66000421Y-76536080D01*
X66012718Y-76556597D01*
X66022946Y-76578221D01*
X66031004Y-76600743D01*
X66036816Y-76623947D01*
X66040326Y-76647608D01*
X66041500Y-76671500D01*
X66041500Y-77159000D01*
X66040326Y-77182892D01*
X66036816Y-77206553D01*
X66031004Y-77229757D01*
X66022946Y-77252279D01*
X66012718Y-77273903D01*
X66000421Y-77294420D01*
X65986171Y-77313633D01*
X65970107Y-77331357D01*
X65952383Y-77347421D01*
X65933170Y-77361671D01*
X65912653Y-77373968D01*
X65891029Y-77384196D01*
X65868507Y-77392254D01*
X65845303Y-77398066D01*
X65821642Y-77401576D01*
X65797750Y-77402750D01*
X64885250Y-77402750D01*
X64861358Y-77401576D01*
X64837697Y-77398066D01*
X64814493Y-77392254D01*
X64791971Y-77384196D01*
X64770347Y-77373968D01*
X64749830Y-77361671D01*
X64730617Y-77347421D01*
X64712893Y-77331357D01*
X64696829Y-77313633D01*
X64682579Y-77294420D01*
X64670282Y-77273903D01*
X64660054Y-77252279D01*
X64651996Y-77229757D01*
X64646184Y-77206553D01*
X64642674Y-77182892D01*
X64641500Y-77159000D01*
X64641500Y-76671500D01*
X64642674Y-76647608D01*
X64646184Y-76623947D01*
X64651996Y-76600743D01*
X64660054Y-76578221D01*
X64670282Y-76556597D01*
X64682579Y-76536080D01*
X64696829Y-76516867D01*
X64712893Y-76499143D01*
X64730617Y-76483079D01*
X64749830Y-76468829D01*
X64770347Y-76456532D01*
X64791971Y-76446304D01*
X64814493Y-76438246D01*
X64837697Y-76432434D01*
X64861358Y-76428924D01*
X64885250Y-76427750D01*
X65797750Y-76427750D01*
X65821642Y-76428924D01*
X65821642Y-76428924D01*
G37*
D22*
X65341500Y-76915250D03*
D21*
G36*
X65821642Y-74553924D02*
G01*
X65845303Y-74557434D01*
X65868507Y-74563246D01*
X65891029Y-74571304D01*
X65912653Y-74581532D01*
X65933170Y-74593829D01*
X65952383Y-74608079D01*
X65970107Y-74624143D01*
X65986171Y-74641867D01*
X66000421Y-74661080D01*
X66012718Y-74681597D01*
X66022946Y-74703221D01*
X66031004Y-74725743D01*
X66036816Y-74748947D01*
X66040326Y-74772608D01*
X66041500Y-74796500D01*
X66041500Y-75284000D01*
X66040326Y-75307892D01*
X66036816Y-75331553D01*
X66031004Y-75354757D01*
X66022946Y-75377279D01*
X66012718Y-75398903D01*
X66000421Y-75419420D01*
X65986171Y-75438633D01*
X65970107Y-75456357D01*
X65952383Y-75472421D01*
X65933170Y-75486671D01*
X65912653Y-75498968D01*
X65891029Y-75509196D01*
X65868507Y-75517254D01*
X65845303Y-75523066D01*
X65821642Y-75526576D01*
X65797750Y-75527750D01*
X64885250Y-75527750D01*
X64861358Y-75526576D01*
X64837697Y-75523066D01*
X64814493Y-75517254D01*
X64791971Y-75509196D01*
X64770347Y-75498968D01*
X64749830Y-75486671D01*
X64730617Y-75472421D01*
X64712893Y-75456357D01*
X64696829Y-75438633D01*
X64682579Y-75419420D01*
X64670282Y-75398903D01*
X64660054Y-75377279D01*
X64651996Y-75354757D01*
X64646184Y-75331553D01*
X64642674Y-75307892D01*
X64641500Y-75284000D01*
X64641500Y-74796500D01*
X64642674Y-74772608D01*
X64646184Y-74748947D01*
X64651996Y-74725743D01*
X64660054Y-74703221D01*
X64670282Y-74681597D01*
X64682579Y-74661080D01*
X64696829Y-74641867D01*
X64712893Y-74624143D01*
X64730617Y-74608079D01*
X64749830Y-74593829D01*
X64770347Y-74581532D01*
X64791971Y-74571304D01*
X64814493Y-74563246D01*
X64837697Y-74557434D01*
X64861358Y-74553924D01*
X64885250Y-74552750D01*
X65797750Y-74552750D01*
X65821642Y-74553924D01*
X65821642Y-74553924D01*
G37*
D22*
X65341500Y-75040250D03*
D21*
G36*
X76934142Y-74553924D02*
G01*
X76957803Y-74557434D01*
X76981007Y-74563246D01*
X77003529Y-74571304D01*
X77025153Y-74581532D01*
X77045670Y-74593829D01*
X77064883Y-74608079D01*
X77082607Y-74624143D01*
X77098671Y-74641867D01*
X77112921Y-74661080D01*
X77125218Y-74681597D01*
X77135446Y-74703221D01*
X77143504Y-74725743D01*
X77149316Y-74748947D01*
X77152826Y-74772608D01*
X77154000Y-74796500D01*
X77154000Y-75284000D01*
X77152826Y-75307892D01*
X77149316Y-75331553D01*
X77143504Y-75354757D01*
X77135446Y-75377279D01*
X77125218Y-75398903D01*
X77112921Y-75419420D01*
X77098671Y-75438633D01*
X77082607Y-75456357D01*
X77064883Y-75472421D01*
X77045670Y-75486671D01*
X77025153Y-75498968D01*
X77003529Y-75509196D01*
X76981007Y-75517254D01*
X76957803Y-75523066D01*
X76934142Y-75526576D01*
X76910250Y-75527750D01*
X75997750Y-75527750D01*
X75973858Y-75526576D01*
X75950197Y-75523066D01*
X75926993Y-75517254D01*
X75904471Y-75509196D01*
X75882847Y-75498968D01*
X75862330Y-75486671D01*
X75843117Y-75472421D01*
X75825393Y-75456357D01*
X75809329Y-75438633D01*
X75795079Y-75419420D01*
X75782782Y-75398903D01*
X75772554Y-75377279D01*
X75764496Y-75354757D01*
X75758684Y-75331553D01*
X75755174Y-75307892D01*
X75754000Y-75284000D01*
X75754000Y-74796500D01*
X75755174Y-74772608D01*
X75758684Y-74748947D01*
X75764496Y-74725743D01*
X75772554Y-74703221D01*
X75782782Y-74681597D01*
X75795079Y-74661080D01*
X75809329Y-74641867D01*
X75825393Y-74624143D01*
X75843117Y-74608079D01*
X75862330Y-74593829D01*
X75882847Y-74581532D01*
X75904471Y-74571304D01*
X75926993Y-74563246D01*
X75950197Y-74557434D01*
X75973858Y-74553924D01*
X75997750Y-74552750D01*
X76910250Y-74552750D01*
X76934142Y-74553924D01*
X76934142Y-74553924D01*
G37*
D22*
X76454000Y-75040250D03*
D21*
G36*
X76934142Y-76428924D02*
G01*
X76957803Y-76432434D01*
X76981007Y-76438246D01*
X77003529Y-76446304D01*
X77025153Y-76456532D01*
X77045670Y-76468829D01*
X77064883Y-76483079D01*
X77082607Y-76499143D01*
X77098671Y-76516867D01*
X77112921Y-76536080D01*
X77125218Y-76556597D01*
X77135446Y-76578221D01*
X77143504Y-76600743D01*
X77149316Y-76623947D01*
X77152826Y-76647608D01*
X77154000Y-76671500D01*
X77154000Y-77159000D01*
X77152826Y-77182892D01*
X77149316Y-77206553D01*
X77143504Y-77229757D01*
X77135446Y-77252279D01*
X77125218Y-77273903D01*
X77112921Y-77294420D01*
X77098671Y-77313633D01*
X77082607Y-77331357D01*
X77064883Y-77347421D01*
X77045670Y-77361671D01*
X77025153Y-77373968D01*
X77003529Y-77384196D01*
X76981007Y-77392254D01*
X76957803Y-77398066D01*
X76934142Y-77401576D01*
X76910250Y-77402750D01*
X75997750Y-77402750D01*
X75973858Y-77401576D01*
X75950197Y-77398066D01*
X75926993Y-77392254D01*
X75904471Y-77384196D01*
X75882847Y-77373968D01*
X75862330Y-77361671D01*
X75843117Y-77347421D01*
X75825393Y-77331357D01*
X75809329Y-77313633D01*
X75795079Y-77294420D01*
X75782782Y-77273903D01*
X75772554Y-77252279D01*
X75764496Y-77229757D01*
X75758684Y-77206553D01*
X75755174Y-77182892D01*
X75754000Y-77159000D01*
X75754000Y-76671500D01*
X75755174Y-76647608D01*
X75758684Y-76623947D01*
X75764496Y-76600743D01*
X75772554Y-76578221D01*
X75782782Y-76556597D01*
X75795079Y-76536080D01*
X75809329Y-76516867D01*
X75825393Y-76499143D01*
X75843117Y-76483079D01*
X75862330Y-76468829D01*
X75882847Y-76456532D01*
X75904471Y-76446304D01*
X75926993Y-76438246D01*
X75950197Y-76432434D01*
X75973858Y-76428924D01*
X75997750Y-76427750D01*
X76910250Y-76427750D01*
X76934142Y-76428924D01*
X76934142Y-76428924D01*
G37*
D22*
X76454000Y-76915250D03*
D21*
G36*
X63295142Y-78130674D02*
G01*
X63318803Y-78134184D01*
X63342007Y-78139996D01*
X63364529Y-78148054D01*
X63386153Y-78158282D01*
X63406670Y-78170579D01*
X63425883Y-78184829D01*
X63443607Y-78200893D01*
X63459671Y-78218617D01*
X63473921Y-78237830D01*
X63486218Y-78258347D01*
X63496446Y-78279971D01*
X63504504Y-78302493D01*
X63510316Y-78325697D01*
X63513826Y-78349358D01*
X63515000Y-78373250D01*
X63515000Y-78860750D01*
X63513826Y-78884642D01*
X63510316Y-78908303D01*
X63504504Y-78931507D01*
X63496446Y-78954029D01*
X63486218Y-78975653D01*
X63473921Y-78996170D01*
X63459671Y-79015383D01*
X63443607Y-79033107D01*
X63425883Y-79049171D01*
X63406670Y-79063421D01*
X63386153Y-79075718D01*
X63364529Y-79085946D01*
X63342007Y-79094004D01*
X63318803Y-79099816D01*
X63295142Y-79103326D01*
X63271250Y-79104500D01*
X62358750Y-79104500D01*
X62334858Y-79103326D01*
X62311197Y-79099816D01*
X62287993Y-79094004D01*
X62265471Y-79085946D01*
X62243847Y-79075718D01*
X62223330Y-79063421D01*
X62204117Y-79049171D01*
X62186393Y-79033107D01*
X62170329Y-79015383D01*
X62156079Y-78996170D01*
X62143782Y-78975653D01*
X62133554Y-78954029D01*
X62125496Y-78931507D01*
X62119684Y-78908303D01*
X62116174Y-78884642D01*
X62115000Y-78860750D01*
X62115000Y-78373250D01*
X62116174Y-78349358D01*
X62119684Y-78325697D01*
X62125496Y-78302493D01*
X62133554Y-78279971D01*
X62143782Y-78258347D01*
X62156079Y-78237830D01*
X62170329Y-78218617D01*
X62186393Y-78200893D01*
X62204117Y-78184829D01*
X62223330Y-78170579D01*
X62243847Y-78158282D01*
X62265471Y-78148054D01*
X62287993Y-78139996D01*
X62311197Y-78134184D01*
X62334858Y-78130674D01*
X62358750Y-78129500D01*
X63271250Y-78129500D01*
X63295142Y-78130674D01*
X63295142Y-78130674D01*
G37*
D22*
X62815000Y-78617000D03*
D21*
G36*
X63295142Y-80005674D02*
G01*
X63318803Y-80009184D01*
X63342007Y-80014996D01*
X63364529Y-80023054D01*
X63386153Y-80033282D01*
X63406670Y-80045579D01*
X63425883Y-80059829D01*
X63443607Y-80075893D01*
X63459671Y-80093617D01*
X63473921Y-80112830D01*
X63486218Y-80133347D01*
X63496446Y-80154971D01*
X63504504Y-80177493D01*
X63510316Y-80200697D01*
X63513826Y-80224358D01*
X63515000Y-80248250D01*
X63515000Y-80735750D01*
X63513826Y-80759642D01*
X63510316Y-80783303D01*
X63504504Y-80806507D01*
X63496446Y-80829029D01*
X63486218Y-80850653D01*
X63473921Y-80871170D01*
X63459671Y-80890383D01*
X63443607Y-80908107D01*
X63425883Y-80924171D01*
X63406670Y-80938421D01*
X63386153Y-80950718D01*
X63364529Y-80960946D01*
X63342007Y-80969004D01*
X63318803Y-80974816D01*
X63295142Y-80978326D01*
X63271250Y-80979500D01*
X62358750Y-80979500D01*
X62334858Y-80978326D01*
X62311197Y-80974816D01*
X62287993Y-80969004D01*
X62265471Y-80960946D01*
X62243847Y-80950718D01*
X62223330Y-80938421D01*
X62204117Y-80924171D01*
X62186393Y-80908107D01*
X62170329Y-80890383D01*
X62156079Y-80871170D01*
X62143782Y-80850653D01*
X62133554Y-80829029D01*
X62125496Y-80806507D01*
X62119684Y-80783303D01*
X62116174Y-80759642D01*
X62115000Y-80735750D01*
X62115000Y-80248250D01*
X62116174Y-80224358D01*
X62119684Y-80200697D01*
X62125496Y-80177493D01*
X62133554Y-80154971D01*
X62143782Y-80133347D01*
X62156079Y-80112830D01*
X62170329Y-80093617D01*
X62186393Y-80075893D01*
X62204117Y-80059829D01*
X62223330Y-80045579D01*
X62243847Y-80033282D01*
X62265471Y-80023054D01*
X62287993Y-80014996D01*
X62311197Y-80009184D01*
X62334858Y-80005674D01*
X62358750Y-80004500D01*
X63271250Y-80004500D01*
X63295142Y-80005674D01*
X63295142Y-80005674D01*
G37*
D22*
X62815000Y-80492000D03*
D24*
X62860000Y-86940000D03*
X62931000Y-91211000D03*
X78520000Y-97490000D03*
X82760000Y-83830000D03*
X55270000Y-83380000D03*
X55270000Y-99770000D03*
X61910000Y-81960000D03*
X63830000Y-81960000D03*
D25*
X71772902Y-75120000D02*
X71970000Y-75120000D01*
X70072902Y-76820000D02*
X71772902Y-75120000D01*
X69770000Y-76820000D02*
X70072902Y-76820000D01*
X76374250Y-75120000D02*
X76454000Y-75040250D01*
X71970000Y-75120000D02*
X76374250Y-75120000D01*
X63785250Y-76915250D02*
X65341500Y-76915250D01*
X71970000Y-74139000D02*
X71401000Y-73570000D01*
X71970000Y-75120000D02*
X71970000Y-74139000D01*
X71401000Y-73570000D02*
X64180000Y-73570000D01*
X64180000Y-73570000D02*
X63730000Y-74020000D01*
X63730000Y-74020000D02*
X63730000Y-76860000D01*
X63730000Y-76860000D02*
X63785250Y-76915250D01*
X65341500Y-76915250D02*
X66756209Y-76915250D01*
X66756209Y-76915250D02*
X66756209Y-76936209D01*
X69139000Y-79319000D02*
X69139000Y-82311000D01*
X66756209Y-76936209D02*
X69139000Y-79319000D01*
X69139000Y-81180000D02*
X69139000Y-82311000D01*
X62815000Y-78617000D02*
X66576000Y-78617000D01*
X66576000Y-78617000D02*
X69139000Y-81180000D01*
X61597500Y-94117500D02*
X58750000Y-94117500D01*
X64090000Y-96610000D02*
X61597500Y-94117500D01*
X65771000Y-96610000D02*
X64090000Y-96610000D01*
X67539000Y-93711000D02*
X67539000Y-94842000D01*
X67539000Y-94842000D02*
X65771000Y-96610000D01*
X58750000Y-94117500D02*
X47772500Y-94117500D01*
X47772500Y-94117500D02*
X42450000Y-99440000D01*
X45033000Y-103916000D02*
X45033000Y-104847000D01*
X42450000Y-101333000D02*
X45033000Y-103916000D01*
X42450000Y-99440000D02*
X42450000Y-101333000D01*
X74881500Y-99651500D02*
X74881500Y-97409000D01*
X80645000Y-94616000D02*
X80650000Y-94621000D01*
X80645000Y-94028500D02*
X80645000Y-94616000D01*
X80650000Y-94621000D02*
X80650000Y-97280000D01*
X80650000Y-97280000D02*
X77280000Y-100650000D01*
X77280000Y-100650000D02*
X75880000Y-100650000D01*
X75880000Y-100650000D02*
X74881500Y-99651500D01*
X73939000Y-96466500D02*
X74881500Y-97409000D01*
X73939000Y-93711000D02*
X73939000Y-96466500D01*
X78422000Y-84011000D02*
X80518000Y-81915000D01*
X76439000Y-84011000D02*
X78422000Y-84011000D01*
X58917500Y-88811000D02*
X57609500Y-87503000D01*
X65039000Y-88811000D02*
X58917500Y-88811000D01*
X58917500Y-88811000D02*
X56851000Y-88811000D01*
X56851000Y-88811000D02*
X52480000Y-84440000D01*
X52480000Y-84440000D02*
X52480000Y-76000000D01*
X52480000Y-76000000D02*
X54090000Y-74390000D01*
X53289000Y-67347000D02*
X53289000Y-65841000D01*
X54090000Y-68148000D02*
X53289000Y-67347000D01*
X54090000Y-74390000D02*
X54090000Y-68148000D01*
X69139000Y-83238902D02*
X71170098Y-85270000D01*
X69139000Y-82311000D02*
X69139000Y-83238902D01*
X71170098Y-85270000D02*
X72550000Y-85270000D01*
X73809000Y-84011000D02*
X76439000Y-84011000D01*
X72550000Y-85270000D02*
X73809000Y-84011000D01*
X72550000Y-85270000D02*
X72550000Y-90550000D01*
X73939000Y-91939000D02*
X73939000Y-93711000D01*
X72550000Y-90550000D02*
X73939000Y-91939000D01*
X67539000Y-92580000D02*
X67539000Y-93711000D01*
X69569000Y-90550000D02*
X67539000Y-92580000D01*
X72550000Y-90550000D02*
X69569000Y-90550000D01*
X67830000Y-88811000D02*
X65039000Y-88811000D01*
X69569000Y-90550000D02*
X67830000Y-88811000D01*
X68339000Y-81383098D02*
X68339000Y-82311000D01*
X67447902Y-80492000D02*
X68339000Y-81383098D01*
X62815000Y-80492000D02*
X67447902Y-80492000D01*
X56933500Y-92242500D02*
X58750000Y-92242500D01*
X44450000Y-79759000D02*
X56933500Y-92242500D01*
X58750000Y-92242500D02*
X59781500Y-91211000D01*
X66739000Y-94186000D02*
X65210000Y-95715000D01*
X66739000Y-93711000D02*
X66739000Y-94186000D01*
X65210000Y-95715000D02*
X64355000Y-95715000D01*
X62361000Y-93721000D02*
X62361000Y-91211000D01*
X64355000Y-95715000D02*
X62361000Y-93721000D01*
X59781500Y-91211000D02*
X62361000Y-91211000D01*
X76756500Y-97409000D02*
X76756500Y-96296500D01*
X74739000Y-94186000D02*
X74739000Y-93711000D01*
X76193500Y-96296500D02*
X76756500Y-96296500D01*
X74739000Y-94842000D02*
X76193500Y-96296500D01*
X74739000Y-93711000D02*
X74739000Y-94842000D01*
X79497000Y-84811000D02*
X80518000Y-83790000D01*
X76439000Y-84811000D02*
X79497000Y-84811000D01*
X63908000Y-87211000D02*
X65039000Y-87211000D01*
X62815000Y-86118000D02*
X63908000Y-87211000D01*
X62815000Y-80492000D02*
X62815000Y-86118000D01*
X62815000Y-86118000D02*
X62815000Y-86895000D01*
X62815000Y-86895000D02*
X62860000Y-86940000D01*
X62361000Y-91211000D02*
X62931000Y-91211000D01*
X62931000Y-91211000D02*
X65039000Y-91211000D01*
X76837500Y-97490000D02*
X76756500Y-97409000D01*
X78520000Y-97490000D02*
X76837500Y-97490000D01*
X80558000Y-83830000D02*
X80518000Y-83790000D01*
X82760000Y-83830000D02*
X80558000Y-83830000D01*
X60988500Y-78665500D02*
X62815000Y-80492000D01*
X59259000Y-78665500D02*
X60988500Y-78665500D01*
D26*
X69939000Y-79369000D02*
X69939000Y-82311000D01*
X68460000Y-77890000D02*
X69939000Y-79369000D01*
X68460000Y-76330000D02*
X68460000Y-77890000D01*
X69770000Y-75120000D02*
X69670000Y-75120000D01*
X69670000Y-75120000D02*
X68460000Y-76330000D01*
X69690250Y-75040250D02*
X69770000Y-75120000D01*
X65341500Y-75040250D02*
X69690250Y-75040250D01*
X64039000Y-88011000D02*
X65039000Y-88011000D01*
X60580000Y-88011000D02*
X64039000Y-88011000D01*
X60072000Y-87503000D02*
X60580000Y-88011000D01*
X59484500Y-87503000D02*
X60072000Y-87503000D01*
X101196000Y-72772000D02*
X101346000Y-72772000D01*
X95464000Y-70049000D02*
X100599000Y-70049000D01*
X101346000Y-70796000D02*
X101346000Y-72772000D01*
X100599000Y-70049000D02*
X101346000Y-70796000D01*
X101496000Y-76072000D02*
X102974000Y-77550000D01*
X101346000Y-76072000D02*
X101496000Y-76072000D01*
X119673000Y-75945000D02*
X120523000Y-75945000D01*
X118068000Y-77550000D02*
X119673000Y-75945000D01*
X102974000Y-77550000D02*
X118068000Y-77550000D01*
X101196000Y-76072000D02*
X101346000Y-76072000D01*
X77439000Y-87211000D02*
X78188000Y-87960000D01*
X76439000Y-87211000D02*
X77439000Y-87211000D01*
X100496000Y-76072000D02*
X101346000Y-76072000D01*
X88608000Y-87960000D02*
X100496000Y-76072000D01*
X78188000Y-87960000D02*
X88608000Y-87960000D01*
X114514000Y-70049000D02*
X119919000Y-70049000D01*
X119919000Y-70049000D02*
X120530000Y-70660000D01*
X120523000Y-70667000D02*
X120523000Y-72645000D01*
X120530000Y-70660000D02*
X120523000Y-70667000D01*
X102323000Y-94868000D02*
X103975000Y-96520000D01*
X101473000Y-94868000D02*
X102323000Y-94868000D01*
X119419000Y-94614000D02*
X120269000Y-94614000D01*
X117513000Y-96520000D02*
X119419000Y-94614000D01*
X103975000Y-96520000D02*
X117513000Y-96520000D01*
X77439000Y-89611000D02*
X77670000Y-89380000D01*
X76439000Y-89611000D02*
X77439000Y-89611000D01*
X85240000Y-89380000D02*
X85340000Y-89480000D01*
X77670000Y-89380000D02*
X85240000Y-89380000D01*
X85340000Y-89480000D02*
X85340000Y-94740000D01*
X85340000Y-94740000D02*
X87340000Y-96740000D01*
X100623000Y-94868000D02*
X101473000Y-94868000D01*
X98751000Y-96740000D02*
X100623000Y-94868000D01*
X87340000Y-96740000D02*
X98751000Y-96740000D01*
X101473000Y-89681000D02*
X101473000Y-91568000D01*
X95464000Y-89099000D02*
X100891000Y-89099000D01*
X100891000Y-89099000D02*
X101473000Y-89681000D01*
X114514000Y-89099000D02*
X119799000Y-89099000D01*
X119799000Y-89099000D02*
X120330000Y-89630000D01*
X120269000Y-89691000D02*
X120269000Y-91314000D01*
X120330000Y-89630000D02*
X120269000Y-89691000D01*
D25*
X44450000Y-76234000D02*
X44450000Y-76959000D01*
X44450000Y-72986000D02*
X44450000Y-76234000D01*
X50089000Y-67347000D02*
X44450000Y-72986000D01*
X50089000Y-65841000D02*
X50089000Y-67347000D01*
D26*
X86955020Y-88860020D02*
X89154000Y-91059000D01*
X77488020Y-88860020D02*
X86955020Y-88860020D01*
X76439000Y-88811000D02*
X77439000Y-88811000D01*
X77439000Y-88811000D02*
X77488020Y-88860020D01*
X104213999Y-87068999D02*
X108204000Y-91059000D01*
X90847999Y-87068999D02*
X104213999Y-87068999D01*
X89506988Y-88410010D02*
X90847999Y-87068999D01*
X78001600Y-88410010D02*
X89506988Y-88410010D01*
X77602590Y-88011000D02*
X78001600Y-88410010D01*
X76439000Y-88011000D02*
X77602590Y-88011000D01*
X50889000Y-69786000D02*
X49900000Y-70775000D01*
X50889000Y-65841000D02*
X50889000Y-69786000D01*
X51689000Y-69864000D02*
X52620000Y-70795000D01*
X51689000Y-65841000D02*
X51689000Y-69864000D01*
X65041000Y-89611000D02*
X65240999Y-89810999D01*
X56401000Y-89611000D02*
X65039000Y-89611000D01*
X51610000Y-84820000D02*
X56401000Y-89611000D01*
X51610000Y-74267500D02*
X51610000Y-84820000D01*
X52620000Y-72670000D02*
X52620000Y-73257500D01*
X52620000Y-73257500D02*
X51610000Y-74267500D01*
X80502500Y-92011000D02*
X80645000Y-92153500D01*
X76439000Y-92011000D02*
X80502500Y-92011000D01*
X70739000Y-79821000D02*
X70739000Y-82311000D01*
X71970000Y-76820000D02*
X71970000Y-78590000D01*
X71970000Y-78590000D02*
X70739000Y-79821000D01*
X76358750Y-76820000D02*
X76454000Y-76915250D01*
X71970000Y-76820000D02*
X76358750Y-76820000D01*
X59259000Y-80540500D02*
X58109500Y-80540500D01*
X58109500Y-80540500D02*
X55270000Y-83380000D01*
X51233000Y-100347000D02*
X51233000Y-101147000D01*
X51810000Y-99770000D02*
X51233000Y-100347000D01*
X55270000Y-99770000D02*
X51810000Y-99770000D01*
X59259000Y-80540500D02*
X60340500Y-80540500D01*
X60340500Y-80540500D02*
X61760000Y-81960000D01*
X61760000Y-81960000D02*
X61910000Y-81960000D01*
X64782490Y-81007510D02*
X67137510Y-81007510D01*
X63830000Y-81960000D02*
X64782490Y-81007510D01*
X67539000Y-81409000D02*
X67539000Y-82311000D01*
X67137510Y-81007510D02*
X67539000Y-81409000D01*
X56181000Y-90411000D02*
X65039000Y-90411000D01*
X50920000Y-85150000D02*
X56181000Y-90411000D01*
X50920000Y-74257500D02*
X50920000Y-85150000D01*
X49900000Y-72650000D02*
X49900000Y-73237500D01*
X49900000Y-73237500D02*
X50920000Y-74257500D01*
D27*
G36*
X69212815Y-83512185D02*
G01*
X69309506Y-83591537D01*
X69332667Y-83603917D01*
X69424750Y-83696000D01*
X69538337Y-83686454D01*
X69539518Y-83686812D01*
X69664000Y-83699072D01*
X70214000Y-83699072D01*
X70338482Y-83686812D01*
X70339000Y-83686655D01*
X70339518Y-83686812D01*
X70464000Y-83699072D01*
X71014000Y-83699072D01*
X71138482Y-83686812D01*
X71139000Y-83686655D01*
X71139518Y-83686812D01*
X71264000Y-83699072D01*
X71814000Y-83699072D01*
X71938482Y-83686812D01*
X71939000Y-83686655D01*
X71939518Y-83686812D01*
X72064000Y-83699072D01*
X72614000Y-83699072D01*
X72738482Y-83686812D01*
X72739000Y-83686655D01*
X72739518Y-83686812D01*
X72864000Y-83699072D01*
X73414000Y-83699072D01*
X73538482Y-83686812D01*
X73539000Y-83686655D01*
X73539518Y-83686812D01*
X73664000Y-83699072D01*
X74214000Y-83699072D01*
X74338482Y-83686812D01*
X74339000Y-83686655D01*
X74339518Y-83686812D01*
X74464000Y-83699072D01*
X75014000Y-83699072D01*
X75056552Y-83694881D01*
X75054000Y-83725250D01*
X75176341Y-83847591D01*
X75178341Y-84157285D01*
X75158463Y-84181506D01*
X75146083Y-84204667D01*
X75054000Y-84296750D01*
X75063546Y-84410337D01*
X75063188Y-84411518D01*
X75050928Y-84536000D01*
X75050928Y-85086000D01*
X75063188Y-85210482D01*
X75063345Y-85211000D01*
X75063188Y-85211518D01*
X75050928Y-85336000D01*
X75050928Y-85886000D01*
X75063188Y-86010482D01*
X75063345Y-86011000D01*
X75063188Y-86011518D01*
X75050928Y-86136000D01*
X75050928Y-86686000D01*
X75063188Y-86810482D01*
X75063345Y-86811000D01*
X75063188Y-86811518D01*
X75050928Y-86936000D01*
X75050928Y-87486000D01*
X75063188Y-87610482D01*
X75063345Y-87611000D01*
X75063188Y-87611518D01*
X75050928Y-87736000D01*
X75050928Y-88286000D01*
X75063188Y-88410482D01*
X75063345Y-88411000D01*
X75063188Y-88411518D01*
X75050928Y-88536000D01*
X75050928Y-89086000D01*
X75063188Y-89210482D01*
X75063345Y-89211000D01*
X75063188Y-89211518D01*
X75050928Y-89336000D01*
X75050928Y-89886000D01*
X75063188Y-90010482D01*
X75063345Y-90011000D01*
X75063188Y-90011518D01*
X75050928Y-90136000D01*
X75050928Y-90686000D01*
X75063188Y-90810482D01*
X75063345Y-90811000D01*
X75063188Y-90811518D01*
X75050928Y-90936000D01*
X75050928Y-91486000D01*
X75063188Y-91610482D01*
X75063345Y-91611000D01*
X75063188Y-91611518D01*
X75050928Y-91736000D01*
X75050928Y-92286000D01*
X75054962Y-92326962D01*
X75014000Y-92322928D01*
X74464000Y-92322928D01*
X74339518Y-92335188D01*
X74338337Y-92335546D01*
X74224750Y-92326000D01*
X74132667Y-92418083D01*
X74109506Y-92430463D01*
X74033304Y-92493000D01*
X73844696Y-92493000D01*
X73768494Y-92430463D01*
X73745333Y-92418083D01*
X73653250Y-92326000D01*
X73539663Y-92335546D01*
X73538482Y-92335188D01*
X73414000Y-92322928D01*
X72864000Y-92322928D01*
X72739518Y-92335188D01*
X72739000Y-92335345D01*
X72738482Y-92335188D01*
X72614000Y-92322928D01*
X72064000Y-92322928D01*
X71939518Y-92335188D01*
X71939000Y-92335345D01*
X71938482Y-92335188D01*
X71814000Y-92322928D01*
X71264000Y-92322928D01*
X71139518Y-92335188D01*
X71139000Y-92335345D01*
X71138482Y-92335188D01*
X71014000Y-92322928D01*
X70464000Y-92322928D01*
X70339518Y-92335188D01*
X70339000Y-92335345D01*
X70338482Y-92335188D01*
X70214000Y-92322928D01*
X69664000Y-92322928D01*
X69539518Y-92335188D01*
X69539000Y-92335345D01*
X69538482Y-92335188D01*
X69414000Y-92322928D01*
X68864000Y-92322928D01*
X68739518Y-92335188D01*
X68739000Y-92335345D01*
X68738482Y-92335188D01*
X68614000Y-92322928D01*
X68064000Y-92322928D01*
X67939518Y-92335188D01*
X67938337Y-92335546D01*
X67824750Y-92326000D01*
X67732667Y-92418083D01*
X67709506Y-92430463D01*
X67633304Y-92493000D01*
X67444696Y-92493000D01*
X67368494Y-92430463D01*
X67345333Y-92418083D01*
X67253250Y-92326000D01*
X67139663Y-92335546D01*
X67138482Y-92335188D01*
X67014000Y-92322928D01*
X66464000Y-92322928D01*
X66423038Y-92326962D01*
X66427072Y-92286000D01*
X66427072Y-91736000D01*
X66414812Y-91611518D01*
X66414655Y-91611000D01*
X66414812Y-91610482D01*
X66427072Y-91486000D01*
X66427072Y-90936000D01*
X66414812Y-90811518D01*
X66414655Y-90811000D01*
X66414812Y-90810482D01*
X66427072Y-90686000D01*
X66427072Y-90136000D01*
X66414812Y-90011518D01*
X66414655Y-90011000D01*
X66414812Y-90010482D01*
X66427072Y-89886000D01*
X66427072Y-89336000D01*
X66414812Y-89211518D01*
X66414454Y-89210337D01*
X66424000Y-89096750D01*
X66331917Y-89004667D01*
X66319537Y-88981506D01*
X66240185Y-88884815D01*
X66187000Y-88841167D01*
X66187000Y-88780833D01*
X66240185Y-88737185D01*
X66319537Y-88640494D01*
X66331917Y-88617333D01*
X66424000Y-88525250D01*
X66414454Y-88411663D01*
X66414812Y-88410482D01*
X66427072Y-88286000D01*
X66427072Y-87736000D01*
X66414812Y-87611518D01*
X66414655Y-87611000D01*
X66414812Y-87610482D01*
X66427072Y-87486000D01*
X66427072Y-86936000D01*
X66414812Y-86811518D01*
X66414655Y-86811000D01*
X66414812Y-86810482D01*
X66427072Y-86686000D01*
X66427072Y-86136000D01*
X66414812Y-86011518D01*
X66414655Y-86011000D01*
X66414812Y-86010482D01*
X66427072Y-85886000D01*
X66427072Y-85336000D01*
X66414812Y-85211518D01*
X66414655Y-85211000D01*
X66414812Y-85210482D01*
X66427072Y-85086000D01*
X66427072Y-84536000D01*
X66414812Y-84411518D01*
X66414655Y-84411000D01*
X66414812Y-84410482D01*
X66427072Y-84286000D01*
X66427072Y-83736000D01*
X66423038Y-83695038D01*
X66464000Y-83699072D01*
X67014000Y-83699072D01*
X67138482Y-83686812D01*
X67139000Y-83686655D01*
X67139518Y-83686812D01*
X67264000Y-83699072D01*
X67814000Y-83699072D01*
X67938482Y-83686812D01*
X67939000Y-83686655D01*
X67939518Y-83686812D01*
X68064000Y-83699072D01*
X68614000Y-83699072D01*
X68738482Y-83686812D01*
X68739663Y-83686454D01*
X68853250Y-83696000D01*
X68945333Y-83603917D01*
X68968494Y-83591537D01*
X69065185Y-83512185D01*
X69110474Y-83457000D01*
X69167526Y-83457000D01*
X69212815Y-83512185D01*
X69212815Y-83512185D01*
G37*
X69212815Y-83512185D02*
X69309506Y-83591537D01*
X69332667Y-83603917D01*
X69424750Y-83696000D01*
X69538337Y-83686454D01*
X69539518Y-83686812D01*
X69664000Y-83699072D01*
X70214000Y-83699072D01*
X70338482Y-83686812D01*
X70339000Y-83686655D01*
X70339518Y-83686812D01*
X70464000Y-83699072D01*
X71014000Y-83699072D01*
X71138482Y-83686812D01*
X71139000Y-83686655D01*
X71139518Y-83686812D01*
X71264000Y-83699072D01*
X71814000Y-83699072D01*
X71938482Y-83686812D01*
X71939000Y-83686655D01*
X71939518Y-83686812D01*
X72064000Y-83699072D01*
X72614000Y-83699072D01*
X72738482Y-83686812D01*
X72739000Y-83686655D01*
X72739518Y-83686812D01*
X72864000Y-83699072D01*
X73414000Y-83699072D01*
X73538482Y-83686812D01*
X73539000Y-83686655D01*
X73539518Y-83686812D01*
X73664000Y-83699072D01*
X74214000Y-83699072D01*
X74338482Y-83686812D01*
X74339000Y-83686655D01*
X74339518Y-83686812D01*
X74464000Y-83699072D01*
X75014000Y-83699072D01*
X75056552Y-83694881D01*
X75054000Y-83725250D01*
X75176341Y-83847591D01*
X75178341Y-84157285D01*
X75158463Y-84181506D01*
X75146083Y-84204667D01*
X75054000Y-84296750D01*
X75063546Y-84410337D01*
X75063188Y-84411518D01*
X75050928Y-84536000D01*
X75050928Y-85086000D01*
X75063188Y-85210482D01*
X75063345Y-85211000D01*
X75063188Y-85211518D01*
X75050928Y-85336000D01*
X75050928Y-85886000D01*
X75063188Y-86010482D01*
X75063345Y-86011000D01*
X75063188Y-86011518D01*
X75050928Y-86136000D01*
X75050928Y-86686000D01*
X75063188Y-86810482D01*
X75063345Y-86811000D01*
X75063188Y-86811518D01*
X75050928Y-86936000D01*
X75050928Y-87486000D01*
X75063188Y-87610482D01*
X75063345Y-87611000D01*
X75063188Y-87611518D01*
X75050928Y-87736000D01*
X75050928Y-88286000D01*
X75063188Y-88410482D01*
X75063345Y-88411000D01*
X75063188Y-88411518D01*
X75050928Y-88536000D01*
X75050928Y-89086000D01*
X75063188Y-89210482D01*
X75063345Y-89211000D01*
X75063188Y-89211518D01*
X75050928Y-89336000D01*
X75050928Y-89886000D01*
X75063188Y-90010482D01*
X75063345Y-90011000D01*
X75063188Y-90011518D01*
X75050928Y-90136000D01*
X75050928Y-90686000D01*
X75063188Y-90810482D01*
X75063345Y-90811000D01*
X75063188Y-90811518D01*
X75050928Y-90936000D01*
X75050928Y-91486000D01*
X75063188Y-91610482D01*
X75063345Y-91611000D01*
X75063188Y-91611518D01*
X75050928Y-91736000D01*
X75050928Y-92286000D01*
X75054962Y-92326962D01*
X75014000Y-92322928D01*
X74464000Y-92322928D01*
X74339518Y-92335188D01*
X74338337Y-92335546D01*
X74224750Y-92326000D01*
X74132667Y-92418083D01*
X74109506Y-92430463D01*
X74033304Y-92493000D01*
X73844696Y-92493000D01*
X73768494Y-92430463D01*
X73745333Y-92418083D01*
X73653250Y-92326000D01*
X73539663Y-92335546D01*
X73538482Y-92335188D01*
X73414000Y-92322928D01*
X72864000Y-92322928D01*
X72739518Y-92335188D01*
X72739000Y-92335345D01*
X72738482Y-92335188D01*
X72614000Y-92322928D01*
X72064000Y-92322928D01*
X71939518Y-92335188D01*
X71939000Y-92335345D01*
X71938482Y-92335188D01*
X71814000Y-92322928D01*
X71264000Y-92322928D01*
X71139518Y-92335188D01*
X71139000Y-92335345D01*
X71138482Y-92335188D01*
X71014000Y-92322928D01*
X70464000Y-92322928D01*
X70339518Y-92335188D01*
X70339000Y-92335345D01*
X70338482Y-92335188D01*
X70214000Y-92322928D01*
X69664000Y-92322928D01*
X69539518Y-92335188D01*
X69539000Y-92335345D01*
X69538482Y-92335188D01*
X69414000Y-92322928D01*
X68864000Y-92322928D01*
X68739518Y-92335188D01*
X68739000Y-92335345D01*
X68738482Y-92335188D01*
X68614000Y-92322928D01*
X68064000Y-92322928D01*
X67939518Y-92335188D01*
X67938337Y-92335546D01*
X67824750Y-92326000D01*
X67732667Y-92418083D01*
X67709506Y-92430463D01*
X67633304Y-92493000D01*
X67444696Y-92493000D01*
X67368494Y-92430463D01*
X67345333Y-92418083D01*
X67253250Y-92326000D01*
X67139663Y-92335546D01*
X67138482Y-92335188D01*
X67014000Y-92322928D01*
X66464000Y-92322928D01*
X66423038Y-92326962D01*
X66427072Y-92286000D01*
X66427072Y-91736000D01*
X66414812Y-91611518D01*
X66414655Y-91611000D01*
X66414812Y-91610482D01*
X66427072Y-91486000D01*
X66427072Y-90936000D01*
X66414812Y-90811518D01*
X66414655Y-90811000D01*
X66414812Y-90810482D01*
X66427072Y-90686000D01*
X66427072Y-90136000D01*
X66414812Y-90011518D01*
X66414655Y-90011000D01*
X66414812Y-90010482D01*
X66427072Y-89886000D01*
X66427072Y-89336000D01*
X66414812Y-89211518D01*
X66414454Y-89210337D01*
X66424000Y-89096750D01*
X66331917Y-89004667D01*
X66319537Y-88981506D01*
X66240185Y-88884815D01*
X66187000Y-88841167D01*
X66187000Y-88780833D01*
X66240185Y-88737185D01*
X66319537Y-88640494D01*
X66331917Y-88617333D01*
X66424000Y-88525250D01*
X66414454Y-88411663D01*
X66414812Y-88410482D01*
X66427072Y-88286000D01*
X66427072Y-87736000D01*
X66414812Y-87611518D01*
X66414655Y-87611000D01*
X66414812Y-87610482D01*
X66427072Y-87486000D01*
X66427072Y-86936000D01*
X66414812Y-86811518D01*
X66414655Y-86811000D01*
X66414812Y-86810482D01*
X66427072Y-86686000D01*
X66427072Y-86136000D01*
X66414812Y-86011518D01*
X66414655Y-86011000D01*
X66414812Y-86010482D01*
X66427072Y-85886000D01*
X66427072Y-85336000D01*
X66414812Y-85211518D01*
X66414655Y-85211000D01*
X66414812Y-85210482D01*
X66427072Y-85086000D01*
X66427072Y-84536000D01*
X66414812Y-84411518D01*
X66414655Y-84411000D01*
X66414812Y-84410482D01*
X66427072Y-84286000D01*
X66427072Y-83736000D01*
X66423038Y-83695038D01*
X66464000Y-83699072D01*
X67014000Y-83699072D01*
X67138482Y-83686812D01*
X67139000Y-83686655D01*
X67139518Y-83686812D01*
X67264000Y-83699072D01*
X67814000Y-83699072D01*
X67938482Y-83686812D01*
X67939000Y-83686655D01*
X67939518Y-83686812D01*
X68064000Y-83699072D01*
X68614000Y-83699072D01*
X68738482Y-83686812D01*
X68739663Y-83686454D01*
X68853250Y-83696000D01*
X68945333Y-83603917D01*
X68968494Y-83591537D01*
X69065185Y-83512185D01*
X69110474Y-83457000D01*
X69167526Y-83457000D01*
X69212815Y-83512185D01*
G36*
X78912236Y-79892554D02*
G01*
X71767143Y-79867658D01*
X72481003Y-79153799D01*
X72510001Y-79130001D01*
X72553700Y-79076754D01*
X72604974Y-79014277D01*
X72675546Y-78882247D01*
X72691698Y-78828999D01*
X72719003Y-78738986D01*
X72730000Y-78627333D01*
X72730000Y-78627323D01*
X72733676Y-78590000D01*
X72730000Y-78552677D01*
X72730000Y-78052163D01*
X72794482Y-78045812D01*
X72914180Y-78009502D01*
X73024494Y-77950537D01*
X73121185Y-77871185D01*
X73200537Y-77774494D01*
X73259502Y-77664180D01*
X73285038Y-77580000D01*
X75227707Y-77580000D01*
X75264542Y-77648914D01*
X75374208Y-77782542D01*
X75507836Y-77892208D01*
X75660291Y-77973697D01*
X75825715Y-78023878D01*
X75997750Y-78040822D01*
X76910250Y-78040822D01*
X77082285Y-78023878D01*
X77247709Y-77973697D01*
X77400164Y-77892208D01*
X77533792Y-77782542D01*
X77643458Y-77648914D01*
X77724947Y-77496459D01*
X77775128Y-77331035D01*
X77792072Y-77159000D01*
X77792072Y-76671500D01*
X77775128Y-76499465D01*
X77724947Y-76334041D01*
X77643458Y-76181586D01*
X77533792Y-76047958D01*
X77527436Y-76042742D01*
X77605185Y-75978935D01*
X77684537Y-75882244D01*
X77743502Y-75771930D01*
X77779812Y-75652232D01*
X77792072Y-75527750D01*
X77789000Y-75326000D01*
X77630250Y-75167250D01*
X76581000Y-75167250D01*
X76581000Y-75187250D01*
X76327000Y-75187250D01*
X76327000Y-75167250D01*
X75277750Y-75167250D01*
X75119000Y-75326000D01*
X75115928Y-75527750D01*
X75128188Y-75652232D01*
X75164498Y-75771930D01*
X75223463Y-75882244D01*
X75302815Y-75978935D01*
X75380564Y-76042742D01*
X75374208Y-76047958D01*
X75364325Y-76060000D01*
X73285038Y-76060000D01*
X73259502Y-75975820D01*
X73256391Y-75970000D01*
X73259502Y-75964180D01*
X73295812Y-75844482D01*
X73308072Y-75720000D01*
X73305000Y-75405750D01*
X73146250Y-75247000D01*
X72097000Y-75247000D01*
X72097000Y-75267000D01*
X71843000Y-75267000D01*
X71843000Y-75247000D01*
X71823000Y-75247000D01*
X71823000Y-74993000D01*
X71843000Y-74993000D01*
X71843000Y-74043750D01*
X72097000Y-74043750D01*
X72097000Y-74993000D01*
X73146250Y-74993000D01*
X73305000Y-74834250D01*
X73307751Y-74552750D01*
X75115928Y-74552750D01*
X75119000Y-74754500D01*
X75277750Y-74913250D01*
X76327000Y-74913250D01*
X76327000Y-74076500D01*
X76581000Y-74076500D01*
X76581000Y-74913250D01*
X77630250Y-74913250D01*
X77789000Y-74754500D01*
X77792072Y-74552750D01*
X77779812Y-74428268D01*
X77743502Y-74308570D01*
X77684537Y-74198256D01*
X77605185Y-74101565D01*
X77508494Y-74022213D01*
X77398180Y-73963248D01*
X77278482Y-73926938D01*
X77154000Y-73914678D01*
X76739750Y-73917750D01*
X76581000Y-74076500D01*
X76327000Y-74076500D01*
X76168250Y-73917750D01*
X75754000Y-73914678D01*
X75629518Y-73926938D01*
X75509820Y-73963248D01*
X75399506Y-74022213D01*
X75302815Y-74101565D01*
X75223463Y-74198256D01*
X75164498Y-74308570D01*
X75128188Y-74428268D01*
X75115928Y-74552750D01*
X73307751Y-74552750D01*
X73308072Y-74520000D01*
X73295812Y-74395518D01*
X73259502Y-74275820D01*
X73200537Y-74165506D01*
X73121185Y-74068815D01*
X73024494Y-73989463D01*
X72914180Y-73930498D01*
X72794482Y-73894188D01*
X72670000Y-73881928D01*
X72255750Y-73885000D01*
X72097000Y-74043750D01*
X71843000Y-74043750D01*
X71684250Y-73885000D01*
X71270000Y-73881928D01*
X71145518Y-73894188D01*
X71025820Y-73930498D01*
X70915506Y-73989463D01*
X70870000Y-74026809D01*
X70824494Y-73989463D01*
X70714180Y-73930498D01*
X70594482Y-73894188D01*
X70470000Y-73881928D01*
X69070000Y-73881928D01*
X68945518Y-73894188D01*
X68825820Y-73930498D01*
X68715506Y-73989463D01*
X68618815Y-74068815D01*
X68539463Y-74165506D01*
X68480498Y-74275820D01*
X68479154Y-74280250D01*
X66509345Y-74280250D01*
X66421292Y-74172958D01*
X66287664Y-74063292D01*
X66135209Y-73981803D01*
X65969785Y-73931622D01*
X65797750Y-73914678D01*
X64885250Y-73914678D01*
X64713215Y-73931622D01*
X64547791Y-73981803D01*
X64395336Y-74063292D01*
X64261708Y-74172958D01*
X64152042Y-74306586D01*
X64070553Y-74459041D01*
X64020372Y-74624465D01*
X64003428Y-74796500D01*
X64003428Y-75284000D01*
X64020372Y-75456035D01*
X64070553Y-75621459D01*
X64152042Y-75773914D01*
X64261708Y-75907542D01*
X64268064Y-75912758D01*
X64190315Y-75976565D01*
X64110963Y-76073256D01*
X64051998Y-76183570D01*
X64015688Y-76303268D01*
X64003428Y-76427750D01*
X64006500Y-76629500D01*
X64165250Y-76788250D01*
X65214500Y-76788250D01*
X65214500Y-76768250D01*
X65468500Y-76768250D01*
X65468500Y-76788250D01*
X66517750Y-76788250D01*
X66676500Y-76629500D01*
X66679572Y-76427750D01*
X66667312Y-76303268D01*
X66631002Y-76183570D01*
X66572037Y-76073256D01*
X66492685Y-75976565D01*
X66414936Y-75912758D01*
X66421292Y-75907542D01*
X66509345Y-75800250D01*
X67911586Y-75800250D01*
X67865175Y-75856803D01*
X67825026Y-75905724D01*
X67785894Y-75978935D01*
X67754454Y-76037754D01*
X67710997Y-76181015D01*
X67700000Y-76292668D01*
X67700000Y-76292678D01*
X67696324Y-76330000D01*
X67700000Y-76367323D01*
X67700001Y-77852668D01*
X67696324Y-77890000D01*
X67710998Y-78038985D01*
X67754454Y-78182246D01*
X67825026Y-78314276D01*
X67896201Y-78401002D01*
X67920000Y-78430001D01*
X67948998Y-78453799D01*
X69179000Y-79683802D01*
X69179000Y-79858640D01*
X67972270Y-79854436D01*
X67908744Y-79802301D01*
X67765336Y-79725647D01*
X67609728Y-79678444D01*
X67488455Y-79666500D01*
X67488452Y-79666500D01*
X67447902Y-79662506D01*
X67407352Y-79666500D01*
X63929090Y-79666500D01*
X63894792Y-79624708D01*
X63888436Y-79619492D01*
X63966185Y-79555685D01*
X64045537Y-79458994D01*
X64104502Y-79348680D01*
X64140812Y-79228982D01*
X64153072Y-79104500D01*
X64150000Y-78902750D01*
X63991250Y-78744000D01*
X62942000Y-78744000D01*
X62942000Y-78764000D01*
X62688000Y-78764000D01*
X62688000Y-78744000D01*
X62668000Y-78744000D01*
X62668000Y-78490000D01*
X62688000Y-78490000D01*
X62688000Y-77653250D01*
X62942000Y-77653250D01*
X62942000Y-78490000D01*
X63991250Y-78490000D01*
X64150000Y-78331250D01*
X64153072Y-78129500D01*
X64140812Y-78005018D01*
X64104502Y-77885320D01*
X64045537Y-77775006D01*
X63966185Y-77678315D01*
X63869494Y-77598963D01*
X63759180Y-77539998D01*
X63639482Y-77503688D01*
X63515000Y-77491428D01*
X63100750Y-77494500D01*
X62942000Y-77653250D01*
X62688000Y-77653250D01*
X62529250Y-77494500D01*
X62115000Y-77491428D01*
X61993792Y-77503366D01*
X61995707Y-77402750D01*
X64003428Y-77402750D01*
X64015688Y-77527232D01*
X64051998Y-77646930D01*
X64110963Y-77757244D01*
X64190315Y-77853935D01*
X64287006Y-77933287D01*
X64397320Y-77992252D01*
X64517018Y-78028562D01*
X64641500Y-78040822D01*
X65055750Y-78037750D01*
X65214500Y-77879000D01*
X65214500Y-77042250D01*
X65468500Y-77042250D01*
X65468500Y-77879000D01*
X65627250Y-78037750D01*
X66041500Y-78040822D01*
X66165982Y-78028562D01*
X66285680Y-77992252D01*
X66395994Y-77933287D01*
X66492685Y-77853935D01*
X66572037Y-77757244D01*
X66631002Y-77646930D01*
X66667312Y-77527232D01*
X66679572Y-77402750D01*
X66676500Y-77201000D01*
X66517750Y-77042250D01*
X65468500Y-77042250D01*
X65214500Y-77042250D01*
X64165250Y-77042250D01*
X64006500Y-77201000D01*
X64003428Y-77402750D01*
X61995707Y-77402750D01*
X62134605Y-70107000D01*
X78853756Y-70107000D01*
X78912236Y-79892554D01*
X78912236Y-79892554D01*
G37*
X78912236Y-79892554D02*
X71767143Y-79867658D01*
X72481003Y-79153799D01*
X72510001Y-79130001D01*
X72553700Y-79076754D01*
X72604974Y-79014277D01*
X72675546Y-78882247D01*
X72691698Y-78828999D01*
X72719003Y-78738986D01*
X72730000Y-78627333D01*
X72730000Y-78627323D01*
X72733676Y-78590000D01*
X72730000Y-78552677D01*
X72730000Y-78052163D01*
X72794482Y-78045812D01*
X72914180Y-78009502D01*
X73024494Y-77950537D01*
X73121185Y-77871185D01*
X73200537Y-77774494D01*
X73259502Y-77664180D01*
X73285038Y-77580000D01*
X75227707Y-77580000D01*
X75264542Y-77648914D01*
X75374208Y-77782542D01*
X75507836Y-77892208D01*
X75660291Y-77973697D01*
X75825715Y-78023878D01*
X75997750Y-78040822D01*
X76910250Y-78040822D01*
X77082285Y-78023878D01*
X77247709Y-77973697D01*
X77400164Y-77892208D01*
X77533792Y-77782542D01*
X77643458Y-77648914D01*
X77724947Y-77496459D01*
X77775128Y-77331035D01*
X77792072Y-77159000D01*
X77792072Y-76671500D01*
X77775128Y-76499465D01*
X77724947Y-76334041D01*
X77643458Y-76181586D01*
X77533792Y-76047958D01*
X77527436Y-76042742D01*
X77605185Y-75978935D01*
X77684537Y-75882244D01*
X77743502Y-75771930D01*
X77779812Y-75652232D01*
X77792072Y-75527750D01*
X77789000Y-75326000D01*
X77630250Y-75167250D01*
X76581000Y-75167250D01*
X76581000Y-75187250D01*
X76327000Y-75187250D01*
X76327000Y-75167250D01*
X75277750Y-75167250D01*
X75119000Y-75326000D01*
X75115928Y-75527750D01*
X75128188Y-75652232D01*
X75164498Y-75771930D01*
X75223463Y-75882244D01*
X75302815Y-75978935D01*
X75380564Y-76042742D01*
X75374208Y-76047958D01*
X75364325Y-76060000D01*
X73285038Y-76060000D01*
X73259502Y-75975820D01*
X73256391Y-75970000D01*
X73259502Y-75964180D01*
X73295812Y-75844482D01*
X73308072Y-75720000D01*
X73305000Y-75405750D01*
X73146250Y-75247000D01*
X72097000Y-75247000D01*
X72097000Y-75267000D01*
X71843000Y-75267000D01*
X71843000Y-75247000D01*
X71823000Y-75247000D01*
X71823000Y-74993000D01*
X71843000Y-74993000D01*
X71843000Y-74043750D01*
X72097000Y-74043750D01*
X72097000Y-74993000D01*
X73146250Y-74993000D01*
X73305000Y-74834250D01*
X73307751Y-74552750D01*
X75115928Y-74552750D01*
X75119000Y-74754500D01*
X75277750Y-74913250D01*
X76327000Y-74913250D01*
X76327000Y-74076500D01*
X76581000Y-74076500D01*
X76581000Y-74913250D01*
X77630250Y-74913250D01*
X77789000Y-74754500D01*
X77792072Y-74552750D01*
X77779812Y-74428268D01*
X77743502Y-74308570D01*
X77684537Y-74198256D01*
X77605185Y-74101565D01*
X77508494Y-74022213D01*
X77398180Y-73963248D01*
X77278482Y-73926938D01*
X77154000Y-73914678D01*
X76739750Y-73917750D01*
X76581000Y-74076500D01*
X76327000Y-74076500D01*
X76168250Y-73917750D01*
X75754000Y-73914678D01*
X75629518Y-73926938D01*
X75509820Y-73963248D01*
X75399506Y-74022213D01*
X75302815Y-74101565D01*
X75223463Y-74198256D01*
X75164498Y-74308570D01*
X75128188Y-74428268D01*
X75115928Y-74552750D01*
X73307751Y-74552750D01*
X73308072Y-74520000D01*
X73295812Y-74395518D01*
X73259502Y-74275820D01*
X73200537Y-74165506D01*
X73121185Y-74068815D01*
X73024494Y-73989463D01*
X72914180Y-73930498D01*
X72794482Y-73894188D01*
X72670000Y-73881928D01*
X72255750Y-73885000D01*
X72097000Y-74043750D01*
X71843000Y-74043750D01*
X71684250Y-73885000D01*
X71270000Y-73881928D01*
X71145518Y-73894188D01*
X71025820Y-73930498D01*
X70915506Y-73989463D01*
X70870000Y-74026809D01*
X70824494Y-73989463D01*
X70714180Y-73930498D01*
X70594482Y-73894188D01*
X70470000Y-73881928D01*
X69070000Y-73881928D01*
X68945518Y-73894188D01*
X68825820Y-73930498D01*
X68715506Y-73989463D01*
X68618815Y-74068815D01*
X68539463Y-74165506D01*
X68480498Y-74275820D01*
X68479154Y-74280250D01*
X66509345Y-74280250D01*
X66421292Y-74172958D01*
X66287664Y-74063292D01*
X66135209Y-73981803D01*
X65969785Y-73931622D01*
X65797750Y-73914678D01*
X64885250Y-73914678D01*
X64713215Y-73931622D01*
X64547791Y-73981803D01*
X64395336Y-74063292D01*
X64261708Y-74172958D01*
X64152042Y-74306586D01*
X64070553Y-74459041D01*
X64020372Y-74624465D01*
X64003428Y-74796500D01*
X64003428Y-75284000D01*
X64020372Y-75456035D01*
X64070553Y-75621459D01*
X64152042Y-75773914D01*
X64261708Y-75907542D01*
X64268064Y-75912758D01*
X64190315Y-75976565D01*
X64110963Y-76073256D01*
X64051998Y-76183570D01*
X64015688Y-76303268D01*
X64003428Y-76427750D01*
X64006500Y-76629500D01*
X64165250Y-76788250D01*
X65214500Y-76788250D01*
X65214500Y-76768250D01*
X65468500Y-76768250D01*
X65468500Y-76788250D01*
X66517750Y-76788250D01*
X66676500Y-76629500D01*
X66679572Y-76427750D01*
X66667312Y-76303268D01*
X66631002Y-76183570D01*
X66572037Y-76073256D01*
X66492685Y-75976565D01*
X66414936Y-75912758D01*
X66421292Y-75907542D01*
X66509345Y-75800250D01*
X67911586Y-75800250D01*
X67865175Y-75856803D01*
X67825026Y-75905724D01*
X67785894Y-75978935D01*
X67754454Y-76037754D01*
X67710997Y-76181015D01*
X67700000Y-76292668D01*
X67700000Y-76292678D01*
X67696324Y-76330000D01*
X67700000Y-76367323D01*
X67700001Y-77852668D01*
X67696324Y-77890000D01*
X67710998Y-78038985D01*
X67754454Y-78182246D01*
X67825026Y-78314276D01*
X67896201Y-78401002D01*
X67920000Y-78430001D01*
X67948998Y-78453799D01*
X69179000Y-79683802D01*
X69179000Y-79858640D01*
X67972270Y-79854436D01*
X67908744Y-79802301D01*
X67765336Y-79725647D01*
X67609728Y-79678444D01*
X67488455Y-79666500D01*
X67488452Y-79666500D01*
X67447902Y-79662506D01*
X67407352Y-79666500D01*
X63929090Y-79666500D01*
X63894792Y-79624708D01*
X63888436Y-79619492D01*
X63966185Y-79555685D01*
X64045537Y-79458994D01*
X64104502Y-79348680D01*
X64140812Y-79228982D01*
X64153072Y-79104500D01*
X64150000Y-78902750D01*
X63991250Y-78744000D01*
X62942000Y-78744000D01*
X62942000Y-78764000D01*
X62688000Y-78764000D01*
X62688000Y-78744000D01*
X62668000Y-78744000D01*
X62668000Y-78490000D01*
X62688000Y-78490000D01*
X62688000Y-77653250D01*
X62942000Y-77653250D01*
X62942000Y-78490000D01*
X63991250Y-78490000D01*
X64150000Y-78331250D01*
X64153072Y-78129500D01*
X64140812Y-78005018D01*
X64104502Y-77885320D01*
X64045537Y-77775006D01*
X63966185Y-77678315D01*
X63869494Y-77598963D01*
X63759180Y-77539998D01*
X63639482Y-77503688D01*
X63515000Y-77491428D01*
X63100750Y-77494500D01*
X62942000Y-77653250D01*
X62688000Y-77653250D01*
X62529250Y-77494500D01*
X62115000Y-77491428D01*
X61993792Y-77503366D01*
X61995707Y-77402750D01*
X64003428Y-77402750D01*
X64015688Y-77527232D01*
X64051998Y-77646930D01*
X64110963Y-77757244D01*
X64190315Y-77853935D01*
X64287006Y-77933287D01*
X64397320Y-77992252D01*
X64517018Y-78028562D01*
X64641500Y-78040822D01*
X65055750Y-78037750D01*
X65214500Y-77879000D01*
X65214500Y-77042250D01*
X65468500Y-77042250D01*
X65468500Y-77879000D01*
X65627250Y-78037750D01*
X66041500Y-78040822D01*
X66165982Y-78028562D01*
X66285680Y-77992252D01*
X66395994Y-77933287D01*
X66492685Y-77853935D01*
X66572037Y-77757244D01*
X66631002Y-77646930D01*
X66667312Y-77527232D01*
X66679572Y-77402750D01*
X66676500Y-77201000D01*
X66517750Y-77042250D01*
X65468500Y-77042250D01*
X65214500Y-77042250D01*
X64165250Y-77042250D01*
X64006500Y-77201000D01*
X64003428Y-77402750D01*
X61995707Y-77402750D01*
X62134605Y-70107000D01*
X78853756Y-70107000D01*
X78912236Y-79892554D01*
G36*
X69897000Y-76693000D02*
G01*
X69917000Y-76693000D01*
X69917000Y-76947000D01*
X69897000Y-76947000D01*
X69897000Y-77896250D01*
X70055750Y-78055000D01*
X70470000Y-78058072D01*
X70594482Y-78045812D01*
X70714180Y-78009502D01*
X70824494Y-77950537D01*
X70870000Y-77913191D01*
X70915506Y-77950537D01*
X71025820Y-78009502D01*
X71145518Y-78045812D01*
X71210001Y-78052163D01*
X71210001Y-78275197D01*
X70558874Y-78926325D01*
X70479001Y-78828999D01*
X70450004Y-78805202D01*
X69592026Y-77947224D01*
X69643000Y-77896250D01*
X69643000Y-76947000D01*
X69623000Y-76947000D01*
X69623000Y-76693000D01*
X69643000Y-76693000D01*
X69643000Y-76673000D01*
X69897000Y-76673000D01*
X69897000Y-76693000D01*
X69897000Y-76693000D01*
G37*
X69897000Y-76693000D02*
X69917000Y-76693000D01*
X69917000Y-76947000D01*
X69897000Y-76947000D01*
X69897000Y-77896250D01*
X70055750Y-78055000D01*
X70470000Y-78058072D01*
X70594482Y-78045812D01*
X70714180Y-78009502D01*
X70824494Y-77950537D01*
X70870000Y-77913191D01*
X70915506Y-77950537D01*
X71025820Y-78009502D01*
X71145518Y-78045812D01*
X71210001Y-78052163D01*
X71210001Y-78275197D01*
X70558874Y-78926325D01*
X70479001Y-78828999D01*
X70450004Y-78805202D01*
X69592026Y-77947224D01*
X69643000Y-77896250D01*
X69643000Y-76947000D01*
X69623000Y-76947000D01*
X69623000Y-76693000D01*
X69643000Y-76693000D01*
X69643000Y-76673000D01*
X69897000Y-76673000D01*
X69897000Y-76693000D01*
G36*
X54098294Y-60011986D02*
G01*
X53960401Y-60269966D01*
X53875487Y-60549889D01*
X53854000Y-60768050D01*
X53854000Y-61913949D01*
X53875487Y-62132110D01*
X53960401Y-62412033D01*
X54098294Y-62670013D01*
X54283866Y-62896134D01*
X54509986Y-63081706D01*
X54767966Y-63219599D01*
X55047889Y-63304513D01*
X55339000Y-63333185D01*
X55402784Y-63326903D01*
X55405749Y-63855389D01*
X55339000Y-63848815D01*
X55047890Y-63877487D01*
X54767967Y-63962401D01*
X54509987Y-64100294D01*
X54283867Y-64285866D01*
X54129123Y-64474421D01*
X54073406Y-64367366D01*
X53995123Y-64269807D01*
X53899311Y-64189396D01*
X53789652Y-64129221D01*
X53670361Y-64091596D01*
X53570750Y-64081000D01*
X53412000Y-64239750D01*
X53412000Y-65714000D01*
X53436000Y-65714000D01*
X53436000Y-65968000D01*
X53412000Y-65968000D01*
X53412000Y-65988000D01*
X53377072Y-65988000D01*
X53377072Y-64716000D01*
X53364812Y-64591518D01*
X53328502Y-64471820D01*
X53269537Y-64361506D01*
X53190185Y-64264815D01*
X53166000Y-64244967D01*
X53166000Y-64239750D01*
X53007250Y-64081000D01*
X52907639Y-64091596D01*
X52888266Y-64097706D01*
X52863482Y-64090188D01*
X52739000Y-64077928D01*
X52239000Y-64077928D01*
X52114518Y-64090188D01*
X52089000Y-64097929D01*
X52063482Y-64090188D01*
X51939000Y-64077928D01*
X51439000Y-64077928D01*
X51314518Y-64090188D01*
X51289000Y-64097929D01*
X51263482Y-64090188D01*
X51139000Y-64077928D01*
X50639000Y-64077928D01*
X50514518Y-64090188D01*
X50489000Y-64097929D01*
X50463482Y-64090188D01*
X50339000Y-64077928D01*
X49839000Y-64077928D01*
X49714518Y-64090188D01*
X49594820Y-64126498D01*
X49484506Y-64185463D01*
X49387815Y-64264815D01*
X49308463Y-64361506D01*
X49249498Y-64471820D01*
X49248754Y-64474271D01*
X49094134Y-64285866D01*
X48868014Y-64100294D01*
X48610034Y-63962401D01*
X48330111Y-63877487D01*
X48043739Y-63849282D01*
X48041599Y-63332929D01*
X48330110Y-63304513D01*
X48610033Y-63219599D01*
X48868013Y-63081706D01*
X49094134Y-62896134D01*
X49279706Y-62670014D01*
X49417599Y-62412034D01*
X49502513Y-62132111D01*
X49524000Y-61913950D01*
X49524000Y-60768050D01*
X49502513Y-60549889D01*
X49417599Y-60269966D01*
X49279706Y-60011986D01*
X49209960Y-59927000D01*
X54168041Y-59927000D01*
X54098294Y-60011986D01*
X54098294Y-60011986D01*
G37*
X54098294Y-60011986D02*
X53960401Y-60269966D01*
X53875487Y-60549889D01*
X53854000Y-60768050D01*
X53854000Y-61913949D01*
X53875487Y-62132110D01*
X53960401Y-62412033D01*
X54098294Y-62670013D01*
X54283866Y-62896134D01*
X54509986Y-63081706D01*
X54767966Y-63219599D01*
X55047889Y-63304513D01*
X55339000Y-63333185D01*
X55402784Y-63326903D01*
X55405749Y-63855389D01*
X55339000Y-63848815D01*
X55047890Y-63877487D01*
X54767967Y-63962401D01*
X54509987Y-64100294D01*
X54283867Y-64285866D01*
X54129123Y-64474421D01*
X54073406Y-64367366D01*
X53995123Y-64269807D01*
X53899311Y-64189396D01*
X53789652Y-64129221D01*
X53670361Y-64091596D01*
X53570750Y-64081000D01*
X53412000Y-64239750D01*
X53412000Y-65714000D01*
X53436000Y-65714000D01*
X53436000Y-65968000D01*
X53412000Y-65968000D01*
X53412000Y-65988000D01*
X53377072Y-65988000D01*
X53377072Y-64716000D01*
X53364812Y-64591518D01*
X53328502Y-64471820D01*
X53269537Y-64361506D01*
X53190185Y-64264815D01*
X53166000Y-64244967D01*
X53166000Y-64239750D01*
X53007250Y-64081000D01*
X52907639Y-64091596D01*
X52888266Y-64097706D01*
X52863482Y-64090188D01*
X52739000Y-64077928D01*
X52239000Y-64077928D01*
X52114518Y-64090188D01*
X52089000Y-64097929D01*
X52063482Y-64090188D01*
X51939000Y-64077928D01*
X51439000Y-64077928D01*
X51314518Y-64090188D01*
X51289000Y-64097929D01*
X51263482Y-64090188D01*
X51139000Y-64077928D01*
X50639000Y-64077928D01*
X50514518Y-64090188D01*
X50489000Y-64097929D01*
X50463482Y-64090188D01*
X50339000Y-64077928D01*
X49839000Y-64077928D01*
X49714518Y-64090188D01*
X49594820Y-64126498D01*
X49484506Y-64185463D01*
X49387815Y-64264815D01*
X49308463Y-64361506D01*
X49249498Y-64471820D01*
X49248754Y-64474271D01*
X49094134Y-64285866D01*
X48868014Y-64100294D01*
X48610034Y-63962401D01*
X48330111Y-63877487D01*
X48043739Y-63849282D01*
X48041599Y-63332929D01*
X48330110Y-63304513D01*
X48610033Y-63219599D01*
X48868013Y-63081706D01*
X49094134Y-62896134D01*
X49279706Y-62670014D01*
X49417599Y-62412034D01*
X49502513Y-62132111D01*
X49524000Y-61913950D01*
X49524000Y-60768050D01*
X49502513Y-60549889D01*
X49417599Y-60269966D01*
X49279706Y-60011986D01*
X49209960Y-59927000D01*
X54168041Y-59927000D01*
X54098294Y-60011986D01*
M02*
