G04 #@! TF.GenerationSoftware,KiCad,Pcbnew,(5.1.4)-1*
G04 #@! TF.CreationDate,2022-10-29T17:19:06+02:00*
G04 #@! TF.ProjectId,quaver-keypad,71756176-6572-42d6-9b65-797061642e6b,rev?*
G04 #@! TF.SameCoordinates,Original*
G04 #@! TF.FileFunction,Legend,Bot*
G04 #@! TF.FilePolarity,Positive*
%FSLAX46Y46*%
G04 Gerber Fmt 4.6, Leading zero omitted, Abs format (unit mm)*
G04 Created by KiCad (PCBNEW (5.1.4)-1) date 2022-10-29 17:19:06*
%MOMM*%
%LPD*%
G04 APERTURE LIST*
%ADD10C,0.120000*%
%ADD11C,0.150000*%
G04 APERTURE END LIST*
D10*
X121269000Y-95214000D02*
X121269000Y-91314000D01*
X119269000Y-95214000D02*
X119269000Y-91314000D01*
X121269000Y-95214000D02*
X119269000Y-95214000D01*
X102473000Y-95468000D02*
X102473000Y-91568000D01*
X100473000Y-95468000D02*
X100473000Y-91568000D01*
X102473000Y-95468000D02*
X100473000Y-95468000D01*
X121523000Y-76545000D02*
X121523000Y-72645000D01*
X119523000Y-76545000D02*
X119523000Y-72645000D01*
X121523000Y-76545000D02*
X119523000Y-76545000D01*
X102346000Y-76672000D02*
X102346000Y-72772000D01*
X100346000Y-76672000D02*
X100346000Y-72772000D01*
X102346000Y-76672000D02*
X100346000Y-76672000D01*
X72870000Y-77620000D02*
X68870000Y-77620000D01*
X72870000Y-74320000D02*
X72870000Y-77620000D01*
D11*
X47839000Y-61341000D02*
X47839000Y-66791000D01*
X55539000Y-61341000D02*
X55539000Y-66791000D01*
X47839000Y-66791000D02*
X55539000Y-66791000D01*
X65564000Y-92611000D02*
X64289000Y-92611000D01*
X75914000Y-93186000D02*
X75239000Y-93186000D01*
X75914000Y-82836000D02*
X75239000Y-82836000D01*
X65564000Y-82836000D02*
X66239000Y-82836000D01*
X65564000Y-93186000D02*
X66239000Y-93186000D01*
X65564000Y-82836000D02*
X65564000Y-83511000D01*
X75914000Y-82836000D02*
X75914000Y-83511000D01*
X75914000Y-93186000D02*
X75914000Y-92511000D01*
X65564000Y-93186000D02*
X65564000Y-92611000D01*
X50733000Y-100397000D02*
X45533000Y-100397000D01*
X45533000Y-100397000D02*
X45533000Y-105597000D01*
X45533000Y-105597000D02*
X50733000Y-105597000D01*
X50733000Y-105597000D02*
X50733000Y-100397000D01*
X49133000Y-102997000D02*
G75*
G03X49133000Y-102997000I-1000000J0D01*
G01*
D10*
X81355000Y-92832422D02*
X81355000Y-93349578D01*
X79935000Y-92832422D02*
X79935000Y-93349578D01*
X59969000Y-79344422D02*
X59969000Y-79861578D01*
X58549000Y-79344422D02*
X58549000Y-79861578D01*
X51910000Y-71991078D02*
X51910000Y-71473922D01*
X53330000Y-71991078D02*
X53330000Y-71473922D01*
X49190000Y-71971078D02*
X49190000Y-71453922D01*
X50610000Y-71971078D02*
X50610000Y-71453922D01*
X43540000Y-78961064D02*
X43540000Y-77756936D01*
X45360000Y-78961064D02*
X45360000Y-77756936D01*
X59460000Y-92921422D02*
X59460000Y-93438578D01*
X58040000Y-92921422D02*
X58040000Y-93438578D01*
X58805578Y-88213000D02*
X58288422Y-88213000D01*
X58805578Y-86793000D02*
X58288422Y-86793000D01*
X76077578Y-98119000D02*
X75560422Y-98119000D01*
X76077578Y-96699000D02*
X75560422Y-96699000D01*
X79808000Y-83111078D02*
X79808000Y-82593922D01*
X81228000Y-83111078D02*
X81228000Y-82593922D01*
X66051500Y-75719172D02*
X66051500Y-76236328D01*
X64631500Y-75719172D02*
X64631500Y-76236328D01*
X75744000Y-76236328D02*
X75744000Y-75719172D01*
X77164000Y-76236328D02*
X77164000Y-75719172D01*
X62105000Y-79813078D02*
X62105000Y-79295922D01*
X63525000Y-79813078D02*
X63525000Y-79295922D01*
D11*
X121816619Y-93702095D02*
X122816619Y-93702095D01*
X122816619Y-93464000D01*
X122769000Y-93321142D01*
X122673761Y-93225904D01*
X122578523Y-93178285D01*
X122388047Y-93130666D01*
X122245190Y-93130666D01*
X122054714Y-93178285D01*
X121959476Y-93225904D01*
X121864238Y-93321142D01*
X121816619Y-93464000D01*
X121816619Y-93702095D01*
X122483285Y-92273523D02*
X121816619Y-92273523D01*
X122864238Y-92511619D02*
X122149952Y-92749714D01*
X122149952Y-92130666D01*
X103925380Y-92479904D02*
X102925380Y-92479904D01*
X102925380Y-92718000D01*
X102973000Y-92860857D01*
X103068238Y-92956095D01*
X103163476Y-93003714D01*
X103353952Y-93051333D01*
X103496809Y-93051333D01*
X103687285Y-93003714D01*
X103782523Y-92956095D01*
X103877761Y-92860857D01*
X103925380Y-92718000D01*
X103925380Y-92479904D01*
X102925380Y-93384666D02*
X102925380Y-94003714D01*
X103306333Y-93670380D01*
X103306333Y-93813238D01*
X103353952Y-93908476D01*
X103401571Y-93956095D01*
X103496809Y-94003714D01*
X103734904Y-94003714D01*
X103830142Y-93956095D01*
X103877761Y-93908476D01*
X103925380Y-93813238D01*
X103925380Y-93527523D01*
X103877761Y-93432285D01*
X103830142Y-93384666D01*
X122975380Y-73556904D02*
X121975380Y-73556904D01*
X121975380Y-73795000D01*
X122023000Y-73937857D01*
X122118238Y-74033095D01*
X122213476Y-74080714D01*
X122403952Y-74128333D01*
X122546809Y-74128333D01*
X122737285Y-74080714D01*
X122832523Y-74033095D01*
X122927761Y-73937857D01*
X122975380Y-73795000D01*
X122975380Y-73556904D01*
X122070619Y-74509285D02*
X122023000Y-74556904D01*
X121975380Y-74652142D01*
X121975380Y-74890238D01*
X122023000Y-74985476D01*
X122070619Y-75033095D01*
X122165857Y-75080714D01*
X122261095Y-75080714D01*
X122403952Y-75033095D01*
X122975380Y-74461666D01*
X122975380Y-75080714D01*
X103798380Y-73683904D02*
X102798380Y-73683904D01*
X102798380Y-73922000D01*
X102846000Y-74064857D01*
X102941238Y-74160095D01*
X103036476Y-74207714D01*
X103226952Y-74255333D01*
X103369809Y-74255333D01*
X103560285Y-74207714D01*
X103655523Y-74160095D01*
X103750761Y-74064857D01*
X103798380Y-73922000D01*
X103798380Y-73683904D01*
X103798380Y-75207714D02*
X103798380Y-74636285D01*
X103798380Y-74922000D02*
X102798380Y-74922000D01*
X102941238Y-74826761D01*
X103036476Y-74731523D01*
X103084095Y-74636285D01*
X71346190Y-73496190D02*
X71346190Y-73972380D01*
X71679523Y-72972380D02*
X71346190Y-73496190D01*
X71012857Y-72972380D01*
X70155714Y-73972380D02*
X70727142Y-73972380D01*
X70441428Y-73972380D02*
X70441428Y-72972380D01*
X70536666Y-73115238D01*
X70631904Y-73210476D01*
X70727142Y-73258095D01*
X53427095Y-62825380D02*
X53427095Y-63634904D01*
X53379476Y-63730142D01*
X53331857Y-63777761D01*
X53236619Y-63825380D01*
X53046142Y-63825380D01*
X52950904Y-63777761D01*
X52903285Y-63730142D01*
X52855666Y-63634904D01*
X52855666Y-62825380D01*
X52427095Y-63777761D02*
X52284238Y-63825380D01*
X52046142Y-63825380D01*
X51950904Y-63777761D01*
X51903285Y-63730142D01*
X51855666Y-63634904D01*
X51855666Y-63539666D01*
X51903285Y-63444428D01*
X51950904Y-63396809D01*
X52046142Y-63349190D01*
X52236619Y-63301571D01*
X52331857Y-63253952D01*
X52379476Y-63206333D01*
X52427095Y-63111095D01*
X52427095Y-63015857D01*
X52379476Y-62920619D01*
X52331857Y-62873000D01*
X52236619Y-62825380D01*
X51998523Y-62825380D01*
X51855666Y-62873000D01*
X51093761Y-63301571D02*
X50950904Y-63349190D01*
X50903285Y-63396809D01*
X50855666Y-63492047D01*
X50855666Y-63634904D01*
X50903285Y-63730142D01*
X50950904Y-63777761D01*
X51046142Y-63825380D01*
X51427095Y-63825380D01*
X51427095Y-62825380D01*
X51093761Y-62825380D01*
X50998523Y-62873000D01*
X50950904Y-62920619D01*
X50903285Y-63015857D01*
X50903285Y-63111095D01*
X50950904Y-63206333D01*
X50998523Y-63253952D01*
X51093761Y-63301571D01*
X51427095Y-63301571D01*
X49903285Y-63825380D02*
X50474714Y-63825380D01*
X50189000Y-63825380D02*
X50189000Y-62825380D01*
X50284238Y-62968238D01*
X50379476Y-63063476D01*
X50474714Y-63111095D01*
X71500904Y-94913380D02*
X71500904Y-95722904D01*
X71453285Y-95818142D01*
X71405666Y-95865761D01*
X71310428Y-95913380D01*
X71119952Y-95913380D01*
X71024714Y-95865761D01*
X70977095Y-95818142D01*
X70929476Y-95722904D01*
X70929476Y-94913380D01*
X69929476Y-95913380D02*
X70500904Y-95913380D01*
X70215190Y-95913380D02*
X70215190Y-94913380D01*
X70310428Y-95056238D01*
X70405666Y-95151476D01*
X70500904Y-95199095D01*
X49466333Y-107465761D02*
X49323476Y-107513380D01*
X49085380Y-107513380D01*
X48990142Y-107465761D01*
X48942523Y-107418142D01*
X48894904Y-107322904D01*
X48894904Y-107227666D01*
X48942523Y-107132428D01*
X48990142Y-107084809D01*
X49085380Y-107037190D01*
X49275857Y-106989571D01*
X49371095Y-106941952D01*
X49418714Y-106894333D01*
X49466333Y-106799095D01*
X49466333Y-106703857D01*
X49418714Y-106608619D01*
X49371095Y-106561000D01*
X49275857Y-106513380D01*
X49037761Y-106513380D01*
X48894904Y-106561000D01*
X48561571Y-106513380D02*
X48323476Y-107513380D01*
X48133000Y-106799095D01*
X47942523Y-107513380D01*
X47704428Y-106513380D01*
X46799666Y-107513380D02*
X47371095Y-107513380D01*
X47085380Y-107513380D02*
X47085380Y-106513380D01*
X47180619Y-106656238D01*
X47275857Y-106751476D01*
X47371095Y-106799095D01*
X79447380Y-92924333D02*
X78971190Y-92591000D01*
X79447380Y-92352904D02*
X78447380Y-92352904D01*
X78447380Y-92733857D01*
X78495000Y-92829095D01*
X78542619Y-92876714D01*
X78637857Y-92924333D01*
X78780714Y-92924333D01*
X78875952Y-92876714D01*
X78923571Y-92829095D01*
X78971190Y-92733857D01*
X78971190Y-92352904D01*
X78780714Y-93781476D02*
X79447380Y-93781476D01*
X78399761Y-93543380D02*
X79114047Y-93305285D01*
X79114047Y-93924333D01*
X58061380Y-79436333D02*
X57585190Y-79103000D01*
X58061380Y-78864904D02*
X57061380Y-78864904D01*
X57061380Y-79245857D01*
X57109000Y-79341095D01*
X57156619Y-79388714D01*
X57251857Y-79436333D01*
X57394714Y-79436333D01*
X57489952Y-79388714D01*
X57537571Y-79341095D01*
X57585190Y-79245857D01*
X57585190Y-78864904D01*
X58061380Y-80388714D02*
X58061380Y-79817285D01*
X58061380Y-80103000D02*
X57061380Y-80103000D01*
X57204238Y-80007761D01*
X57299476Y-79912523D01*
X57347095Y-79817285D01*
X54722380Y-71565833D02*
X54246190Y-71232500D01*
X54722380Y-70994404D02*
X53722380Y-70994404D01*
X53722380Y-71375357D01*
X53770000Y-71470595D01*
X53817619Y-71518214D01*
X53912857Y-71565833D01*
X54055714Y-71565833D01*
X54150952Y-71518214D01*
X54198571Y-71470595D01*
X54246190Y-71375357D01*
X54246190Y-70994404D01*
X53817619Y-71946785D02*
X53770000Y-71994404D01*
X53722380Y-72089642D01*
X53722380Y-72327738D01*
X53770000Y-72422976D01*
X53817619Y-72470595D01*
X53912857Y-72518214D01*
X54008095Y-72518214D01*
X54150952Y-72470595D01*
X54722380Y-71899166D01*
X54722380Y-72518214D01*
X52002380Y-71545833D02*
X51526190Y-71212500D01*
X52002380Y-70974404D02*
X51002380Y-70974404D01*
X51002380Y-71355357D01*
X51050000Y-71450595D01*
X51097619Y-71498214D01*
X51192857Y-71545833D01*
X51335714Y-71545833D01*
X51430952Y-71498214D01*
X51478571Y-71450595D01*
X51526190Y-71355357D01*
X51526190Y-70974404D01*
X51002380Y-71879166D02*
X51002380Y-72498214D01*
X51383333Y-72164880D01*
X51383333Y-72307738D01*
X51430952Y-72402976D01*
X51478571Y-72450595D01*
X51573809Y-72498214D01*
X51811904Y-72498214D01*
X51907142Y-72450595D01*
X51954761Y-72402976D01*
X52002380Y-72307738D01*
X52002380Y-72022023D01*
X51954761Y-71926785D01*
X51907142Y-71879166D01*
X46198571Y-78025666D02*
X46198571Y-77692333D01*
X46722380Y-77692333D02*
X45722380Y-77692333D01*
X45722380Y-78168523D01*
X46722380Y-79073285D02*
X46722380Y-78501857D01*
X46722380Y-78787571D02*
X45722380Y-78787571D01*
X45865238Y-78692333D01*
X45960476Y-78597095D01*
X46008095Y-78501857D01*
X57457142Y-93013333D02*
X57504761Y-92965714D01*
X57552380Y-92822857D01*
X57552380Y-92727619D01*
X57504761Y-92584761D01*
X57409523Y-92489523D01*
X57314285Y-92441904D01*
X57123809Y-92394285D01*
X56980952Y-92394285D01*
X56790476Y-92441904D01*
X56695238Y-92489523D01*
X56600000Y-92584761D01*
X56552380Y-92727619D01*
X56552380Y-92822857D01*
X56600000Y-92965714D01*
X56647619Y-93013333D01*
X56552380Y-93346666D02*
X56552380Y-94013333D01*
X57552380Y-93584761D01*
X58713666Y-86210142D02*
X58761285Y-86257761D01*
X58904142Y-86305380D01*
X58999380Y-86305380D01*
X59142238Y-86257761D01*
X59237476Y-86162523D01*
X59285095Y-86067285D01*
X59332714Y-85876809D01*
X59332714Y-85733952D01*
X59285095Y-85543476D01*
X59237476Y-85448238D01*
X59142238Y-85353000D01*
X58999380Y-85305380D01*
X58904142Y-85305380D01*
X58761285Y-85353000D01*
X58713666Y-85400619D01*
X58380333Y-85305380D02*
X57761285Y-85305380D01*
X58094619Y-85686333D01*
X57951761Y-85686333D01*
X57856523Y-85733952D01*
X57808904Y-85781571D01*
X57761285Y-85876809D01*
X57761285Y-86114904D01*
X57808904Y-86210142D01*
X57856523Y-86257761D01*
X57951761Y-86305380D01*
X58237476Y-86305380D01*
X58332714Y-86257761D01*
X58380333Y-86210142D01*
X75985666Y-96116142D02*
X76033285Y-96163761D01*
X76176142Y-96211380D01*
X76271380Y-96211380D01*
X76414238Y-96163761D01*
X76509476Y-96068523D01*
X76557095Y-95973285D01*
X76604714Y-95782809D01*
X76604714Y-95639952D01*
X76557095Y-95449476D01*
X76509476Y-95354238D01*
X76414238Y-95259000D01*
X76271380Y-95211380D01*
X76176142Y-95211380D01*
X76033285Y-95259000D01*
X75985666Y-95306619D01*
X75128523Y-95211380D02*
X75319000Y-95211380D01*
X75414238Y-95259000D01*
X75461857Y-95306619D01*
X75557095Y-95449476D01*
X75604714Y-95639952D01*
X75604714Y-96020904D01*
X75557095Y-96116142D01*
X75509476Y-96163761D01*
X75414238Y-96211380D01*
X75223761Y-96211380D01*
X75128523Y-96163761D01*
X75080904Y-96116142D01*
X75033285Y-96020904D01*
X75033285Y-95782809D01*
X75080904Y-95687571D01*
X75128523Y-95639952D01*
X75223761Y-95592333D01*
X75414238Y-95592333D01*
X75509476Y-95639952D01*
X75557095Y-95687571D01*
X75604714Y-95782809D01*
X82525142Y-82685833D02*
X82572761Y-82638214D01*
X82620380Y-82495357D01*
X82620380Y-82400119D01*
X82572761Y-82257261D01*
X82477523Y-82162023D01*
X82382285Y-82114404D01*
X82191809Y-82066785D01*
X82048952Y-82066785D01*
X81858476Y-82114404D01*
X81763238Y-82162023D01*
X81668000Y-82257261D01*
X81620380Y-82400119D01*
X81620380Y-82495357D01*
X81668000Y-82638214D01*
X81715619Y-82685833D01*
X81620380Y-83590595D02*
X81620380Y-83114404D01*
X82096571Y-83066785D01*
X82048952Y-83114404D01*
X82001333Y-83209642D01*
X82001333Y-83447738D01*
X82048952Y-83542976D01*
X82096571Y-83590595D01*
X82191809Y-83638214D01*
X82429904Y-83638214D01*
X82525142Y-83590595D01*
X82572761Y-83542976D01*
X82620380Y-83447738D01*
X82620380Y-83209642D01*
X82572761Y-83114404D01*
X82525142Y-83066785D01*
X64048642Y-75811083D02*
X64096261Y-75763464D01*
X64143880Y-75620607D01*
X64143880Y-75525369D01*
X64096261Y-75382511D01*
X64001023Y-75287273D01*
X63905785Y-75239654D01*
X63715309Y-75192035D01*
X63572452Y-75192035D01*
X63381976Y-75239654D01*
X63286738Y-75287273D01*
X63191500Y-75382511D01*
X63143880Y-75525369D01*
X63143880Y-75620607D01*
X63191500Y-75763464D01*
X63239119Y-75811083D01*
X63239119Y-76192035D02*
X63191500Y-76239654D01*
X63143880Y-76334892D01*
X63143880Y-76572988D01*
X63191500Y-76668226D01*
X63239119Y-76715845D01*
X63334357Y-76763464D01*
X63429595Y-76763464D01*
X63572452Y-76715845D01*
X64143880Y-76144416D01*
X64143880Y-76763464D01*
X78461142Y-75811083D02*
X78508761Y-75763464D01*
X78556380Y-75620607D01*
X78556380Y-75525369D01*
X78508761Y-75382511D01*
X78413523Y-75287273D01*
X78318285Y-75239654D01*
X78127809Y-75192035D01*
X77984952Y-75192035D01*
X77794476Y-75239654D01*
X77699238Y-75287273D01*
X77604000Y-75382511D01*
X77556380Y-75525369D01*
X77556380Y-75620607D01*
X77604000Y-75763464D01*
X77651619Y-75811083D01*
X78556380Y-76763464D02*
X78556380Y-76192035D01*
X78556380Y-76477750D02*
X77556380Y-76477750D01*
X77699238Y-76382511D01*
X77794476Y-76287273D01*
X77842095Y-76192035D01*
X64822142Y-79387833D02*
X64869761Y-79340214D01*
X64917380Y-79197357D01*
X64917380Y-79102119D01*
X64869761Y-78959261D01*
X64774523Y-78864023D01*
X64679285Y-78816404D01*
X64488809Y-78768785D01*
X64345952Y-78768785D01*
X64155476Y-78816404D01*
X64060238Y-78864023D01*
X63965000Y-78959261D01*
X63917380Y-79102119D01*
X63917380Y-79197357D01*
X63965000Y-79340214D01*
X64012619Y-79387833D01*
X64250714Y-80244976D02*
X64917380Y-80244976D01*
X63869761Y-80006880D02*
X64584047Y-79768785D01*
X64584047Y-80387833D01*
M02*
