G04 #@! TF.GenerationSoftware,KiCad,Pcbnew,(5.1.4)-1*
G04 #@! TF.CreationDate,2022-10-29T17:19:06+02:00*
G04 #@! TF.ProjectId,quaver-keypad,71756176-6572-42d6-9b65-797061642e6b,rev?*
G04 #@! TF.SameCoordinates,Original*
G04 #@! TF.FileFunction,Soldermask,Top*
G04 #@! TF.FilePolarity,Negative*
%FSLAX46Y46*%
G04 Gerber Fmt 4.6, Leading zero omitted, Abs format (unit mm)*
G04 Created by KiCad (PCBNEW (5.1.4)-1) date 2022-10-29 17:19:06*
%MOMM*%
%LPD*%
G04 APERTURE LIST*
%ADD10C,0.100000*%
G04 APERTURE END LIST*
D10*
G36*
X93560474Y-91632684D02*
G01*
X93778474Y-91722983D01*
X93932623Y-91786833D01*
X94267548Y-92010623D01*
X94552377Y-92295452D01*
X94776167Y-92630377D01*
X94808562Y-92708586D01*
X94930316Y-93002526D01*
X95008900Y-93397594D01*
X95008900Y-93800406D01*
X94930316Y-94195474D01*
X94879451Y-94318272D01*
X94776167Y-94567623D01*
X94552377Y-94902548D01*
X94267548Y-95187377D01*
X93932623Y-95411167D01*
X93778474Y-95475017D01*
X93560474Y-95565316D01*
X93165406Y-95643900D01*
X92762594Y-95643900D01*
X92367526Y-95565316D01*
X92149526Y-95475017D01*
X91995377Y-95411167D01*
X91660452Y-95187377D01*
X91375623Y-94902548D01*
X91151833Y-94567623D01*
X91048549Y-94318272D01*
X90997684Y-94195474D01*
X90919100Y-93800406D01*
X90919100Y-93397594D01*
X90997684Y-93002526D01*
X91119438Y-92708586D01*
X91151833Y-92630377D01*
X91375623Y-92295452D01*
X91660452Y-92010623D01*
X91995377Y-91786833D01*
X92149526Y-91722983D01*
X92367526Y-91632684D01*
X92762594Y-91554100D01*
X93165406Y-91554100D01*
X93560474Y-91632684D01*
X93560474Y-91632684D01*
G37*
G36*
X112610474Y-91632684D02*
G01*
X112828474Y-91722983D01*
X112982623Y-91786833D01*
X113317548Y-92010623D01*
X113602377Y-92295452D01*
X113826167Y-92630377D01*
X113858562Y-92708586D01*
X113980316Y-93002526D01*
X114058900Y-93397594D01*
X114058900Y-93800406D01*
X113980316Y-94195474D01*
X113929451Y-94318272D01*
X113826167Y-94567623D01*
X113602377Y-94902548D01*
X113317548Y-95187377D01*
X112982623Y-95411167D01*
X112828474Y-95475017D01*
X112610474Y-95565316D01*
X112215406Y-95643900D01*
X111812594Y-95643900D01*
X111417526Y-95565316D01*
X111199526Y-95475017D01*
X111045377Y-95411167D01*
X110710452Y-95187377D01*
X110425623Y-94902548D01*
X110201833Y-94567623D01*
X110098549Y-94318272D01*
X110047684Y-94195474D01*
X109969100Y-93800406D01*
X109969100Y-93397594D01*
X110047684Y-93002526D01*
X110169438Y-92708586D01*
X110201833Y-92630377D01*
X110425623Y-92295452D01*
X110710452Y-92010623D01*
X111045377Y-91786833D01*
X111199526Y-91722983D01*
X111417526Y-91632684D01*
X111812594Y-91554100D01*
X112215406Y-91554100D01*
X112610474Y-91632684D01*
X112610474Y-91632684D01*
G37*
G36*
X117364104Y-92708585D02*
G01*
X117532626Y-92778389D01*
X117684291Y-92879728D01*
X117813272Y-93008709D01*
X117914611Y-93160374D01*
X117984415Y-93328896D01*
X118020000Y-93507797D01*
X118020000Y-93690203D01*
X117984415Y-93869104D01*
X117914611Y-94037626D01*
X117813272Y-94189291D01*
X117684291Y-94318272D01*
X117532626Y-94419611D01*
X117364104Y-94489415D01*
X117185203Y-94525000D01*
X117002797Y-94525000D01*
X116823896Y-94489415D01*
X116655374Y-94419611D01*
X116503709Y-94318272D01*
X116374728Y-94189291D01*
X116273389Y-94037626D01*
X116203585Y-93869104D01*
X116168000Y-93690203D01*
X116168000Y-93507797D01*
X116203585Y-93328896D01*
X116273389Y-93160374D01*
X116374728Y-93008709D01*
X116503709Y-92879728D01*
X116655374Y-92778389D01*
X116823896Y-92708585D01*
X117002797Y-92673000D01*
X117185203Y-92673000D01*
X117364104Y-92708585D01*
X117364104Y-92708585D01*
G37*
G36*
X88154104Y-92708585D02*
G01*
X88322626Y-92778389D01*
X88474291Y-92879728D01*
X88603272Y-93008709D01*
X88704611Y-93160374D01*
X88774415Y-93328896D01*
X88810000Y-93507797D01*
X88810000Y-93690203D01*
X88774415Y-93869104D01*
X88704611Y-94037626D01*
X88603272Y-94189291D01*
X88474291Y-94318272D01*
X88322626Y-94419611D01*
X88154104Y-94489415D01*
X87975203Y-94525000D01*
X87792797Y-94525000D01*
X87613896Y-94489415D01*
X87445374Y-94419611D01*
X87293709Y-94318272D01*
X87164728Y-94189291D01*
X87063389Y-94037626D01*
X86993585Y-93869104D01*
X86958000Y-93690203D01*
X86958000Y-93507797D01*
X86993585Y-93328896D01*
X87063389Y-93160374D01*
X87164728Y-93008709D01*
X87293709Y-92879728D01*
X87445374Y-92778389D01*
X87613896Y-92708585D01*
X87792797Y-92673000D01*
X87975203Y-92673000D01*
X88154104Y-92708585D01*
X88154104Y-92708585D01*
G37*
G36*
X98314104Y-92708585D02*
G01*
X98482626Y-92778389D01*
X98634291Y-92879728D01*
X98763272Y-93008709D01*
X98864611Y-93160374D01*
X98934415Y-93328896D01*
X98970000Y-93507797D01*
X98970000Y-93690203D01*
X98934415Y-93869104D01*
X98864611Y-94037626D01*
X98763272Y-94189291D01*
X98634291Y-94318272D01*
X98482626Y-94419611D01*
X98314104Y-94489415D01*
X98135203Y-94525000D01*
X97952797Y-94525000D01*
X97773896Y-94489415D01*
X97605374Y-94419611D01*
X97453709Y-94318272D01*
X97324728Y-94189291D01*
X97223389Y-94037626D01*
X97153585Y-93869104D01*
X97118000Y-93690203D01*
X97118000Y-93507797D01*
X97153585Y-93328896D01*
X97223389Y-93160374D01*
X97324728Y-93008709D01*
X97453709Y-92879728D01*
X97605374Y-92778389D01*
X97773896Y-92708585D01*
X97952797Y-92673000D01*
X98135203Y-92673000D01*
X98314104Y-92708585D01*
X98314104Y-92708585D01*
G37*
G36*
X107204104Y-92708585D02*
G01*
X107372626Y-92778389D01*
X107524291Y-92879728D01*
X107653272Y-93008709D01*
X107754611Y-93160374D01*
X107824415Y-93328896D01*
X107860000Y-93507797D01*
X107860000Y-93690203D01*
X107824415Y-93869104D01*
X107754611Y-94037626D01*
X107653272Y-94189291D01*
X107524291Y-94318272D01*
X107372626Y-94419611D01*
X107204104Y-94489415D01*
X107025203Y-94525000D01*
X106842797Y-94525000D01*
X106663896Y-94489415D01*
X106495374Y-94419611D01*
X106343709Y-94318272D01*
X106214728Y-94189291D01*
X106113389Y-94037626D01*
X106043585Y-93869104D01*
X106008000Y-93690203D01*
X106008000Y-93507797D01*
X106043585Y-93328896D01*
X106113389Y-93160374D01*
X106214728Y-93008709D01*
X106343709Y-92879728D01*
X106495374Y-92778389D01*
X106663896Y-92708585D01*
X106842797Y-92673000D01*
X107025203Y-92673000D01*
X107204104Y-92708585D01*
X107204104Y-92708585D01*
G37*
G36*
X93560474Y-72582684D02*
G01*
X93778474Y-72672983D01*
X93932623Y-72736833D01*
X94267548Y-72960623D01*
X94552377Y-73245452D01*
X94776167Y-73580377D01*
X94808562Y-73658586D01*
X94930316Y-73952526D01*
X95008900Y-74347594D01*
X95008900Y-74750406D01*
X94930316Y-75145474D01*
X94879451Y-75268272D01*
X94776167Y-75517623D01*
X94552377Y-75852548D01*
X94267548Y-76137377D01*
X93932623Y-76361167D01*
X93778474Y-76425017D01*
X93560474Y-76515316D01*
X93165406Y-76593900D01*
X92762594Y-76593900D01*
X92367526Y-76515316D01*
X92149526Y-76425017D01*
X91995377Y-76361167D01*
X91660452Y-76137377D01*
X91375623Y-75852548D01*
X91151833Y-75517623D01*
X91048549Y-75268272D01*
X90997684Y-75145474D01*
X90919100Y-74750406D01*
X90919100Y-74347594D01*
X90997684Y-73952526D01*
X91119438Y-73658586D01*
X91151833Y-73580377D01*
X91375623Y-73245452D01*
X91660452Y-72960623D01*
X91995377Y-72736833D01*
X92149526Y-72672983D01*
X92367526Y-72582684D01*
X92762594Y-72504100D01*
X93165406Y-72504100D01*
X93560474Y-72582684D01*
X93560474Y-72582684D01*
G37*
G36*
X112610474Y-72582684D02*
G01*
X112828474Y-72672983D01*
X112982623Y-72736833D01*
X113317548Y-72960623D01*
X113602377Y-73245452D01*
X113826167Y-73580377D01*
X113858562Y-73658586D01*
X113980316Y-73952526D01*
X114058900Y-74347594D01*
X114058900Y-74750406D01*
X113980316Y-75145474D01*
X113929451Y-75268272D01*
X113826167Y-75517623D01*
X113602377Y-75852548D01*
X113317548Y-76137377D01*
X112982623Y-76361167D01*
X112828474Y-76425017D01*
X112610474Y-76515316D01*
X112215406Y-76593900D01*
X111812594Y-76593900D01*
X111417526Y-76515316D01*
X111199526Y-76425017D01*
X111045377Y-76361167D01*
X110710452Y-76137377D01*
X110425623Y-75852548D01*
X110201833Y-75517623D01*
X110098549Y-75268272D01*
X110047684Y-75145474D01*
X109969100Y-74750406D01*
X109969100Y-74347594D01*
X110047684Y-73952526D01*
X110169438Y-73658586D01*
X110201833Y-73580377D01*
X110425623Y-73245452D01*
X110710452Y-72960623D01*
X111045377Y-72736833D01*
X111199526Y-72672983D01*
X111417526Y-72582684D01*
X111812594Y-72504100D01*
X112215406Y-72504100D01*
X112610474Y-72582684D01*
X112610474Y-72582684D01*
G37*
G36*
X107204104Y-73658585D02*
G01*
X107372626Y-73728389D01*
X107524291Y-73829728D01*
X107653272Y-73958709D01*
X107754611Y-74110374D01*
X107824415Y-74278896D01*
X107860000Y-74457797D01*
X107860000Y-74640203D01*
X107824415Y-74819104D01*
X107754611Y-74987626D01*
X107653272Y-75139291D01*
X107524291Y-75268272D01*
X107372626Y-75369611D01*
X107204104Y-75439415D01*
X107025203Y-75475000D01*
X106842797Y-75475000D01*
X106663896Y-75439415D01*
X106495374Y-75369611D01*
X106343709Y-75268272D01*
X106214728Y-75139291D01*
X106113389Y-74987626D01*
X106043585Y-74819104D01*
X106008000Y-74640203D01*
X106008000Y-74457797D01*
X106043585Y-74278896D01*
X106113389Y-74110374D01*
X106214728Y-73958709D01*
X106343709Y-73829728D01*
X106495374Y-73728389D01*
X106663896Y-73658585D01*
X106842797Y-73623000D01*
X107025203Y-73623000D01*
X107204104Y-73658585D01*
X107204104Y-73658585D01*
G37*
G36*
X88154104Y-73658585D02*
G01*
X88322626Y-73728389D01*
X88474291Y-73829728D01*
X88603272Y-73958709D01*
X88704611Y-74110374D01*
X88774415Y-74278896D01*
X88810000Y-74457797D01*
X88810000Y-74640203D01*
X88774415Y-74819104D01*
X88704611Y-74987626D01*
X88603272Y-75139291D01*
X88474291Y-75268272D01*
X88322626Y-75369611D01*
X88154104Y-75439415D01*
X87975203Y-75475000D01*
X87792797Y-75475000D01*
X87613896Y-75439415D01*
X87445374Y-75369611D01*
X87293709Y-75268272D01*
X87164728Y-75139291D01*
X87063389Y-74987626D01*
X86993585Y-74819104D01*
X86958000Y-74640203D01*
X86958000Y-74457797D01*
X86993585Y-74278896D01*
X87063389Y-74110374D01*
X87164728Y-73958709D01*
X87293709Y-73829728D01*
X87445374Y-73728389D01*
X87613896Y-73658585D01*
X87792797Y-73623000D01*
X87975203Y-73623000D01*
X88154104Y-73658585D01*
X88154104Y-73658585D01*
G37*
G36*
X98314104Y-73658585D02*
G01*
X98482626Y-73728389D01*
X98634291Y-73829728D01*
X98763272Y-73958709D01*
X98864611Y-74110374D01*
X98934415Y-74278896D01*
X98970000Y-74457797D01*
X98970000Y-74640203D01*
X98934415Y-74819104D01*
X98864611Y-74987626D01*
X98763272Y-75139291D01*
X98634291Y-75268272D01*
X98482626Y-75369611D01*
X98314104Y-75439415D01*
X98135203Y-75475000D01*
X97952797Y-75475000D01*
X97773896Y-75439415D01*
X97605374Y-75369611D01*
X97453709Y-75268272D01*
X97324728Y-75139291D01*
X97223389Y-74987626D01*
X97153585Y-74819104D01*
X97118000Y-74640203D01*
X97118000Y-74457797D01*
X97153585Y-74278896D01*
X97223389Y-74110374D01*
X97324728Y-73958709D01*
X97453709Y-73829728D01*
X97605374Y-73728389D01*
X97773896Y-73658585D01*
X97952797Y-73623000D01*
X98135203Y-73623000D01*
X98314104Y-73658585D01*
X98314104Y-73658585D01*
G37*
G36*
X117364104Y-73658585D02*
G01*
X117532626Y-73728389D01*
X117684291Y-73829728D01*
X117813272Y-73958709D01*
X117914611Y-74110374D01*
X117984415Y-74278896D01*
X118020000Y-74457797D01*
X118020000Y-74640203D01*
X117984415Y-74819104D01*
X117914611Y-74987626D01*
X117813272Y-75139291D01*
X117684291Y-75268272D01*
X117532626Y-75369611D01*
X117364104Y-75439415D01*
X117185203Y-75475000D01*
X117002797Y-75475000D01*
X116823896Y-75439415D01*
X116655374Y-75369611D01*
X116503709Y-75268272D01*
X116374728Y-75139291D01*
X116273389Y-74987626D01*
X116203585Y-74819104D01*
X116168000Y-74640203D01*
X116168000Y-74457797D01*
X116203585Y-74278896D01*
X116273389Y-74110374D01*
X116374728Y-73958709D01*
X116503709Y-73829728D01*
X116655374Y-73728389D01*
X116823896Y-73658585D01*
X117002797Y-73623000D01*
X117185203Y-73623000D01*
X117364104Y-73658585D01*
X117364104Y-73658585D01*
G37*
G36*
X55515627Y-64453037D02*
G01*
X55685466Y-64504557D01*
X55841991Y-64588222D01*
X55877729Y-64617552D01*
X55979186Y-64700814D01*
X56062448Y-64802271D01*
X56091778Y-64838009D01*
X56175443Y-64994534D01*
X56226963Y-65164373D01*
X56240000Y-65296742D01*
X56240000Y-66385258D01*
X56226963Y-66517627D01*
X56175443Y-66687466D01*
X56091778Y-66843991D01*
X56062448Y-66879729D01*
X55979186Y-66981186D01*
X55841989Y-67093779D01*
X55685467Y-67177442D01*
X55685465Y-67177443D01*
X55515626Y-67228963D01*
X55339000Y-67246359D01*
X55162373Y-67228963D01*
X54992534Y-67177443D01*
X54836009Y-67093778D01*
X54800271Y-67064448D01*
X54698814Y-66981186D01*
X54586221Y-66843989D01*
X54502558Y-66687467D01*
X54502557Y-66687465D01*
X54451037Y-66517626D01*
X54438000Y-66385257D01*
X54438001Y-65296742D01*
X54451038Y-65164373D01*
X54502558Y-64994534D01*
X54586223Y-64838009D01*
X54615553Y-64802271D01*
X54698815Y-64700814D01*
X54800272Y-64617552D01*
X54836010Y-64588222D01*
X54992535Y-64504557D01*
X55162374Y-64453037D01*
X55339000Y-64435641D01*
X55515627Y-64453037D01*
X55515627Y-64453037D01*
G37*
G36*
X48215627Y-64453037D02*
G01*
X48385466Y-64504557D01*
X48541991Y-64588222D01*
X48577729Y-64617552D01*
X48679186Y-64700814D01*
X48762448Y-64802271D01*
X48791778Y-64838009D01*
X48875443Y-64994534D01*
X48926963Y-65164373D01*
X48940000Y-65296742D01*
X48940000Y-66385258D01*
X48926963Y-66517627D01*
X48875443Y-66687466D01*
X48791778Y-66843991D01*
X48762448Y-66879729D01*
X48679186Y-66981186D01*
X48541989Y-67093779D01*
X48385467Y-67177442D01*
X48385465Y-67177443D01*
X48215626Y-67228963D01*
X48039000Y-67246359D01*
X47862373Y-67228963D01*
X47692534Y-67177443D01*
X47536009Y-67093778D01*
X47500271Y-67064448D01*
X47398814Y-66981186D01*
X47286221Y-66843989D01*
X47202558Y-66687467D01*
X47202557Y-66687465D01*
X47151037Y-66517626D01*
X47138000Y-66385257D01*
X47138001Y-65296742D01*
X47151038Y-65164373D01*
X47202558Y-64994534D01*
X47286223Y-64838009D01*
X47315553Y-64802271D01*
X47398815Y-64700814D01*
X47500272Y-64617552D01*
X47536010Y-64588222D01*
X47692535Y-64504557D01*
X47862374Y-64453037D01*
X48039000Y-64435641D01*
X48215627Y-64453037D01*
X48215627Y-64453037D01*
G37*
G36*
X55515627Y-59953037D02*
G01*
X55685466Y-60004557D01*
X55841991Y-60088222D01*
X55877729Y-60117552D01*
X55979186Y-60200814D01*
X56062448Y-60302271D01*
X56091778Y-60338009D01*
X56175443Y-60494534D01*
X56226963Y-60664373D01*
X56240000Y-60796742D01*
X56240000Y-61885258D01*
X56226963Y-62017627D01*
X56175443Y-62187466D01*
X56091778Y-62343991D01*
X56062448Y-62379729D01*
X55979186Y-62481186D01*
X55841989Y-62593779D01*
X55685467Y-62677442D01*
X55685465Y-62677443D01*
X55515626Y-62728963D01*
X55339000Y-62746359D01*
X55162373Y-62728963D01*
X54992534Y-62677443D01*
X54836009Y-62593778D01*
X54800271Y-62564448D01*
X54698814Y-62481186D01*
X54586221Y-62343989D01*
X54502558Y-62187467D01*
X54502557Y-62187465D01*
X54451037Y-62017626D01*
X54438000Y-61885257D01*
X54438001Y-60796742D01*
X54451038Y-60664373D01*
X54502558Y-60494534D01*
X54586223Y-60338009D01*
X54615553Y-60302271D01*
X54698815Y-60200814D01*
X54800272Y-60117552D01*
X54836010Y-60088222D01*
X54992535Y-60004557D01*
X55162374Y-59953037D01*
X55339000Y-59935641D01*
X55515627Y-59953037D01*
X55515627Y-59953037D01*
G37*
G36*
X48215627Y-59953037D02*
G01*
X48385466Y-60004557D01*
X48541991Y-60088222D01*
X48577729Y-60117552D01*
X48679186Y-60200814D01*
X48762448Y-60302271D01*
X48791778Y-60338009D01*
X48875443Y-60494534D01*
X48926963Y-60664373D01*
X48940000Y-60796742D01*
X48940000Y-61885258D01*
X48926963Y-62017627D01*
X48875443Y-62187466D01*
X48791778Y-62343991D01*
X48762448Y-62379729D01*
X48679186Y-62481186D01*
X48541989Y-62593779D01*
X48385467Y-62677442D01*
X48385465Y-62677443D01*
X48215626Y-62728963D01*
X48039000Y-62746359D01*
X47862373Y-62728963D01*
X47692534Y-62677443D01*
X47536009Y-62593778D01*
X47500271Y-62564448D01*
X47398814Y-62481186D01*
X47286221Y-62343989D01*
X47202558Y-62187467D01*
X47202557Y-62187465D01*
X47151037Y-62017626D01*
X47138000Y-61885257D01*
X47138001Y-60796742D01*
X47151038Y-60664373D01*
X47202558Y-60494534D01*
X47286223Y-60338009D01*
X47315553Y-60302271D01*
X47398815Y-60200814D01*
X47500272Y-60117552D01*
X47536010Y-60088222D01*
X47692535Y-60004557D01*
X47862374Y-59953037D01*
X48039000Y-59935641D01*
X48215627Y-59953037D01*
X48215627Y-59953037D01*
G37*
M02*
