G04 #@! TF.GenerationSoftware,KiCad,Pcbnew,(5.1.4)-1*
G04 #@! TF.CreationDate,2022-10-29T17:19:06+02:00*
G04 #@! TF.ProjectId,quaver-keypad,71756176-6572-42d6-9b65-797061642e6b,rev?*
G04 #@! TF.SameCoordinates,Original*
G04 #@! TF.FileFunction,Copper,L1,Top*
G04 #@! TF.FilePolarity,Positive*
%FSLAX46Y46*%
G04 Gerber Fmt 4.6, Leading zero omitted, Abs format (unit mm)*
G04 Created by KiCad (PCBNEW (5.1.4)-1) date 2022-10-29 17:19:06*
%MOMM*%
%LPD*%
G04 APERTURE LIST*
%ADD10R,1.905000X1.905000*%
%ADD11C,1.905000*%
%ADD12C,2.250000*%
%ADD13C,2.250000*%
%ADD14O,1.700000X2.700000*%
%ADD15C,0.800000*%
%ADD16C,0.381000*%
%ADD17C,0.250000*%
G04 APERTURE END LIST*
D10*
X113284000Y-98679000D03*
D11*
X110744000Y-98679000D03*
D12*
X109514000Y-89599000D03*
X108859001Y-90329000D03*
D13*
X108204000Y-91059000D02*
X109514002Y-89599000D01*
D12*
X114554000Y-88519000D03*
X114534000Y-88809000D03*
D13*
X114514000Y-89099000D02*
X114554000Y-88519000D01*
D10*
X94234000Y-98679000D03*
D11*
X91694000Y-98679000D03*
D12*
X90464000Y-89599000D03*
X89809001Y-90329000D03*
D13*
X89154000Y-91059000D02*
X90464002Y-89599000D01*
D12*
X95504000Y-88519000D03*
X95484000Y-88809000D03*
D13*
X95464000Y-89099000D02*
X95504000Y-88519000D01*
D10*
X113284000Y-79629000D03*
D11*
X110744000Y-79629000D03*
D12*
X109514000Y-70549000D03*
X108859001Y-71279000D03*
D13*
X108204000Y-72009000D02*
X109514002Y-70549000D01*
D12*
X114554000Y-69469000D03*
X114534000Y-69759000D03*
D13*
X114514000Y-70049000D02*
X114554000Y-69469000D01*
D10*
X94234000Y-79629000D03*
D11*
X91694000Y-79629000D03*
D12*
X90464000Y-70549000D03*
X89809001Y-71279000D03*
D13*
X89154000Y-72009000D02*
X90464002Y-70549000D01*
D12*
X95504000Y-69469000D03*
X95484000Y-69759000D03*
D13*
X95464000Y-70049000D02*
X95504000Y-69469000D01*
D14*
X48039000Y-61341000D03*
X55339000Y-61341000D03*
X55339000Y-65841000D03*
X48039000Y-65841000D03*
D15*
X62860000Y-86940000D03*
X62931000Y-91211000D03*
X78520000Y-97490000D03*
X82760000Y-83830000D03*
X55270000Y-83380000D03*
X55270000Y-99770000D03*
X61910000Y-81960000D03*
X63830000Y-81960000D03*
D16*
X62860000Y-91140000D02*
X62931000Y-91211000D01*
X62860000Y-86940000D02*
X62860000Y-91140000D01*
X62931000Y-91776685D02*
X68674315Y-97520000D01*
X62931000Y-91211000D02*
X62931000Y-91776685D01*
X68674315Y-97520000D02*
X78490000Y-97520000D01*
X78490000Y-97520000D02*
X78520000Y-97490000D01*
X78919999Y-97090001D02*
X78919999Y-97050001D01*
X78520000Y-97490000D02*
X78919999Y-97090001D01*
X78919999Y-97050001D02*
X82760000Y-93210000D01*
X82760000Y-93210000D02*
X82760000Y-83830000D01*
D17*
X89154000Y-88289000D02*
X89154000Y-91059000D01*
X89154000Y-72009000D02*
X89154000Y-88289000D01*
X108204000Y-72009000D02*
X108204000Y-91059000D01*
X55270000Y-83380000D02*
X55270000Y-97190000D01*
X55270000Y-97190000D02*
X55270000Y-99770000D01*
X61910000Y-81960000D02*
X63830000Y-81960000D01*
M02*
