M48
; DRILL file {KiCad (5.1.4)-1} date 29/10/2022 17:19:17
; FORMAT={-:-/ absolute / inch / decimal}
; #@! TF.CreationDate,2022-10-29T17:19:17+02:00
; #@! TF.GenerationSoftware,Kicad,Pcbnew,(5.1.4)-1
; #@! TF.FileFunction,Plated,1,2,PTH
FMAT,2
INCH
T1C0.0157
T2C0.0276
T3C0.0409
T4C0.0579
%
G90
G05
T1
X2.176Y-3.2827
X2.176Y-3.928
X2.4374Y-3.2268
X2.4748Y-3.4228
X2.4776Y-3.591
X2.513Y-3.2268
X3.0913Y-3.8382
X3.2583Y-3.3004
T3
X3.61Y-3.885
X3.71Y-3.885
X4.36Y-3.885
X4.46Y-3.885
X3.61Y-3.135
X3.71Y-3.135
X4.36Y-3.135
X4.46Y-3.135
T4
X3.51Y-3.585
X3.5616Y-3.5275
X3.7584Y-3.5078
X3.76Y-3.485
X4.26Y-3.585
X4.3116Y-3.5275
X4.5084Y-3.5078
X4.51Y-3.485
X3.51Y-2.835
X3.5616Y-2.7775
X3.7584Y-2.7578
X3.76Y-2.735
X4.26Y-2.835
X4.3116Y-2.7775
X4.5084Y-2.7578
X4.51Y-2.735
T2
G00X1.8913Y-2.3914
M15
G01X1.8913Y-2.4386
M16
G05
G00X1.8913Y-2.5685
M15
G01X1.8913Y-2.6158
M16
G05
G00X2.1787Y-2.3914
M15
G01X2.1787Y-2.4386
M16
G05
G00X2.1787Y-2.5685
M15
G01X2.1787Y-2.6158
M16
G05
T0
M30
