G04 #@! TF.GenerationSoftware,KiCad,Pcbnew,(5.1.4)-1*
G04 #@! TF.CreationDate,2022-10-30T21:37:08+01:00*
G04 #@! TF.ProjectId,quaver-keypadrev1,71756176-6572-42d6-9b65-797061647265,rev?*
G04 #@! TF.SameCoordinates,Original*
G04 #@! TF.FileFunction,Soldermask,Bot*
G04 #@! TF.FilePolarity,Negative*
%FSLAX46Y46*%
G04 Gerber Fmt 4.6, Leading zero omitted, Abs format (unit mm)*
G04 Created by KiCad (PCBNEW (5.1.4)-1) date 2022-10-30 21:37:08*
%MOMM*%
%LPD*%
G04 APERTURE LIST*
%ADD10C,0.100000*%
G04 APERTURE END LIST*
D10*
G36*
X202604468Y-120919565D02*
G01*
X202643138Y-120931296D01*
X202678777Y-120950346D01*
X202710017Y-120975983D01*
X202735654Y-121007223D01*
X202754704Y-121042862D01*
X202766435Y-121081532D01*
X202771000Y-121127888D01*
X202771000Y-122204112D01*
X202766435Y-122250468D01*
X202754704Y-122289138D01*
X202735654Y-122324777D01*
X202710017Y-122356017D01*
X202678777Y-122381654D01*
X202643138Y-122400704D01*
X202604468Y-122412435D01*
X202558112Y-122417000D01*
X201906888Y-122417000D01*
X201860532Y-122412435D01*
X201821862Y-122400704D01*
X201786223Y-122381654D01*
X201754983Y-122356017D01*
X201729346Y-122324777D01*
X201710296Y-122289138D01*
X201698565Y-122250468D01*
X201694000Y-122204112D01*
X201694000Y-121127888D01*
X201698565Y-121081532D01*
X201710296Y-121042862D01*
X201729346Y-121007223D01*
X201754983Y-120975983D01*
X201786223Y-120950346D01*
X201821862Y-120931296D01*
X201860532Y-120919565D01*
X201906888Y-120915000D01*
X202558112Y-120915000D01*
X202604468Y-120919565D01*
X202604468Y-120919565D01*
G37*
G36*
X200729468Y-120919565D02*
G01*
X200768138Y-120931296D01*
X200803777Y-120950346D01*
X200835017Y-120975983D01*
X200860654Y-121007223D01*
X200879704Y-121042862D01*
X200891435Y-121081532D01*
X200896000Y-121127888D01*
X200896000Y-122204112D01*
X200891435Y-122250468D01*
X200879704Y-122289138D01*
X200860654Y-122324777D01*
X200835017Y-122356017D01*
X200803777Y-122381654D01*
X200768138Y-122400704D01*
X200729468Y-122412435D01*
X200683112Y-122417000D01*
X200031888Y-122417000D01*
X199985532Y-122412435D01*
X199946862Y-122400704D01*
X199911223Y-122381654D01*
X199879983Y-122356017D01*
X199854346Y-122324777D01*
X199835296Y-122289138D01*
X199823565Y-122250468D01*
X199819000Y-122204112D01*
X199819000Y-121127888D01*
X199823565Y-121081532D01*
X199835296Y-121042862D01*
X199854346Y-121007223D01*
X199879983Y-120975983D01*
X199911223Y-120950346D01*
X199946862Y-120931296D01*
X199985532Y-120919565D01*
X200031888Y-120915000D01*
X200683112Y-120915000D01*
X200729468Y-120919565D01*
X200729468Y-120919565D01*
G37*
G36*
X207467468Y-118386565D02*
G01*
X207506138Y-118398296D01*
X207541777Y-118417346D01*
X207573017Y-118442983D01*
X207598654Y-118474223D01*
X207617704Y-118509862D01*
X207629435Y-118548532D01*
X207634000Y-118594888D01*
X207634000Y-119246112D01*
X207629435Y-119292468D01*
X207617704Y-119331138D01*
X207598654Y-119366777D01*
X207573017Y-119398017D01*
X207541777Y-119423654D01*
X207506138Y-119442704D01*
X207467468Y-119454435D01*
X207421112Y-119459000D01*
X206344888Y-119459000D01*
X206298532Y-119454435D01*
X206259862Y-119442704D01*
X206224223Y-119423654D01*
X206192983Y-119398017D01*
X206167346Y-119366777D01*
X206148296Y-119331138D01*
X206136565Y-119292468D01*
X206132000Y-119246112D01*
X206132000Y-118594888D01*
X206136565Y-118548532D01*
X206148296Y-118509862D01*
X206167346Y-118474223D01*
X206192983Y-118442983D01*
X206224223Y-118417346D01*
X206259862Y-118398296D01*
X206298532Y-118386565D01*
X206344888Y-118382000D01*
X207421112Y-118382000D01*
X207467468Y-118386565D01*
X207467468Y-118386565D01*
G37*
G36*
X201176000Y-119404000D02*
G01*
X192524000Y-119404000D01*
X192524000Y-117802000D01*
X201176000Y-117802000D01*
X201176000Y-119404000D01*
X201176000Y-119404000D01*
G37*
G36*
X167142000Y-118656000D02*
G01*
X165240000Y-118656000D01*
X165240000Y-117454000D01*
X167142000Y-117454000D01*
X167142000Y-118656000D01*
X167142000Y-118656000D01*
G37*
G36*
X173342000Y-118656000D02*
G01*
X171440000Y-118656000D01*
X171440000Y-117454000D01*
X173342000Y-117454000D01*
X173342000Y-118656000D01*
X173342000Y-118656000D01*
G37*
G36*
X188353968Y-117561065D02*
G01*
X188392638Y-117572796D01*
X188428277Y-117591846D01*
X188459517Y-117617483D01*
X188485154Y-117648723D01*
X188504204Y-117684362D01*
X188515935Y-117723032D01*
X188520500Y-117769388D01*
X188520500Y-118420612D01*
X188515935Y-118466968D01*
X188504204Y-118505638D01*
X188485154Y-118541277D01*
X188459517Y-118572517D01*
X188428277Y-118598154D01*
X188392638Y-118617204D01*
X188353968Y-118628935D01*
X188307612Y-118633500D01*
X187231388Y-118633500D01*
X187185032Y-118628935D01*
X187146362Y-118617204D01*
X187110723Y-118598154D01*
X187079483Y-118572517D01*
X187053846Y-118541277D01*
X187034796Y-118505638D01*
X187023065Y-118466968D01*
X187018500Y-118420612D01*
X187018500Y-117769388D01*
X187023065Y-117723032D01*
X187034796Y-117684362D01*
X187053846Y-117648723D01*
X187079483Y-117617483D01*
X187110723Y-117591846D01*
X187146362Y-117572796D01*
X187185032Y-117561065D01*
X187231388Y-117556500D01*
X188307612Y-117556500D01*
X188353968Y-117561065D01*
X188353968Y-117561065D01*
G37*
G36*
X207467468Y-116511565D02*
G01*
X207506138Y-116523296D01*
X207541777Y-116542346D01*
X207573017Y-116567983D01*
X207598654Y-116599223D01*
X207617704Y-116634862D01*
X207629435Y-116673532D01*
X207634000Y-116719888D01*
X207634000Y-117371112D01*
X207629435Y-117417468D01*
X207617704Y-117456138D01*
X207598654Y-117491777D01*
X207573017Y-117523017D01*
X207541777Y-117548654D01*
X207506138Y-117567704D01*
X207467468Y-117579435D01*
X207421112Y-117584000D01*
X206344888Y-117584000D01*
X206298532Y-117579435D01*
X206259862Y-117567704D01*
X206224223Y-117548654D01*
X206192983Y-117523017D01*
X206167346Y-117491777D01*
X206148296Y-117456138D01*
X206136565Y-117417468D01*
X206132000Y-117371112D01*
X206132000Y-116719888D01*
X206136565Y-116673532D01*
X206148296Y-116634862D01*
X206167346Y-116599223D01*
X206192983Y-116567983D01*
X206224223Y-116542346D01*
X206259862Y-116523296D01*
X206298532Y-116511565D01*
X206344888Y-116507000D01*
X207421112Y-116507000D01*
X207467468Y-116511565D01*
X207467468Y-116511565D01*
G37*
G36*
X191951000Y-117229000D02*
G01*
X190349000Y-117229000D01*
X190349000Y-108577000D01*
X191951000Y-108577000D01*
X191951000Y-117229000D01*
X191951000Y-117229000D01*
G37*
G36*
X203351000Y-117229000D02*
G01*
X201749000Y-117229000D01*
X201749000Y-108577000D01*
X203351000Y-108577000D01*
X203351000Y-117229000D01*
X203351000Y-117229000D01*
G37*
G36*
X188353968Y-115686065D02*
G01*
X188392638Y-115697796D01*
X188428277Y-115716846D01*
X188459517Y-115742483D01*
X188485154Y-115773723D01*
X188504204Y-115809362D01*
X188515935Y-115848032D01*
X188520500Y-115894388D01*
X188520500Y-116545612D01*
X188515935Y-116591968D01*
X188504204Y-116630638D01*
X188485154Y-116666277D01*
X188459517Y-116697517D01*
X188428277Y-116723154D01*
X188392638Y-116742204D01*
X188353968Y-116753935D01*
X188307612Y-116758500D01*
X187231388Y-116758500D01*
X187185032Y-116753935D01*
X187146362Y-116742204D01*
X187110723Y-116723154D01*
X187079483Y-116697517D01*
X187053846Y-116666277D01*
X187034796Y-116630638D01*
X187023065Y-116591968D01*
X187018500Y-116545612D01*
X187018500Y-115894388D01*
X187023065Y-115848032D01*
X187034796Y-115809362D01*
X187053846Y-115773723D01*
X187079483Y-115742483D01*
X187110723Y-115716846D01*
X187146362Y-115697796D01*
X187185032Y-115686065D01*
X187231388Y-115681500D01*
X188307612Y-115681500D01*
X188353968Y-115686065D01*
X188353968Y-115686065D01*
G37*
G36*
X167142000Y-114956000D02*
G01*
X165240000Y-114956000D01*
X165240000Y-113754000D01*
X167142000Y-113754000D01*
X167142000Y-114956000D01*
X167142000Y-114956000D01*
G37*
G36*
X173342000Y-114956000D02*
G01*
X171440000Y-114956000D01*
X171440000Y-113754000D01*
X173342000Y-113754000D01*
X173342000Y-114956000D01*
X173342000Y-114956000D01*
G37*
G36*
X129031425Y-108856988D02*
G01*
X129197710Y-108890063D01*
X129380336Y-108965709D01*
X129544694Y-109075530D01*
X129684470Y-109215306D01*
X129794291Y-109379664D01*
X129869937Y-109562290D01*
X129908500Y-109756164D01*
X129908500Y-109953836D01*
X129869937Y-110147710D01*
X129794291Y-110330336D01*
X129684470Y-110494694D01*
X129544694Y-110634470D01*
X129380336Y-110744291D01*
X129197710Y-110819937D01*
X129031425Y-110853012D01*
X129003837Y-110858500D01*
X128806163Y-110858500D01*
X128778575Y-110853012D01*
X128612290Y-110819937D01*
X128429664Y-110744291D01*
X128265306Y-110634470D01*
X128125530Y-110494694D01*
X128015709Y-110330336D01*
X127940063Y-110147710D01*
X127901500Y-109953836D01*
X127901500Y-109756164D01*
X127940063Y-109562290D01*
X128015709Y-109379664D01*
X128125530Y-109215306D01*
X128265306Y-109075530D01*
X128429664Y-108965709D01*
X128612290Y-108890063D01*
X128778575Y-108856988D01*
X128806163Y-108851500D01*
X129003837Y-108851500D01*
X129031425Y-108856988D01*
X129031425Y-108856988D01*
G37*
G36*
X132448500Y-110858500D02*
G01*
X130441500Y-110858500D01*
X130441500Y-108851500D01*
X132448500Y-108851500D01*
X132448500Y-110858500D01*
X132448500Y-110858500D01*
G37*
G36*
X148081425Y-108856988D02*
G01*
X148247710Y-108890063D01*
X148430336Y-108965709D01*
X148594694Y-109075530D01*
X148734470Y-109215306D01*
X148844291Y-109379664D01*
X148919937Y-109562290D01*
X148958500Y-109756164D01*
X148958500Y-109953836D01*
X148919937Y-110147710D01*
X148844291Y-110330336D01*
X148734470Y-110494694D01*
X148594694Y-110634470D01*
X148430336Y-110744291D01*
X148247710Y-110819937D01*
X148081425Y-110853012D01*
X148053837Y-110858500D01*
X147856163Y-110858500D01*
X147828575Y-110853012D01*
X147662290Y-110819937D01*
X147479664Y-110744291D01*
X147315306Y-110634470D01*
X147175530Y-110494694D01*
X147065709Y-110330336D01*
X146990063Y-110147710D01*
X146951500Y-109953836D01*
X146951500Y-109756164D01*
X146990063Y-109562290D01*
X147065709Y-109379664D01*
X147175530Y-109215306D01*
X147315306Y-109075530D01*
X147479664Y-108965709D01*
X147662290Y-108890063D01*
X147828575Y-108856988D01*
X147856163Y-108851500D01*
X148053837Y-108851500D01*
X148081425Y-108856988D01*
X148081425Y-108856988D01*
G37*
G36*
X151498500Y-110858500D02*
G01*
X149491500Y-110858500D01*
X149491500Y-108851500D01*
X151498500Y-108851500D01*
X151498500Y-110858500D01*
X151498500Y-110858500D01*
G37*
G36*
X264528500Y-110858500D02*
G01*
X262521500Y-110858500D01*
X262521500Y-108851500D01*
X264528500Y-108851500D01*
X264528500Y-110858500D01*
X264528500Y-110858500D01*
G37*
G36*
X245478500Y-110858500D02*
G01*
X243471500Y-110858500D01*
X243471500Y-108851500D01*
X245478500Y-108851500D01*
X245478500Y-110858500D01*
X245478500Y-110858500D01*
G37*
G36*
X242061425Y-108856988D02*
G01*
X242227710Y-108890063D01*
X242410336Y-108965709D01*
X242574694Y-109075530D01*
X242714470Y-109215306D01*
X242824291Y-109379664D01*
X242899937Y-109562290D01*
X242938500Y-109756164D01*
X242938500Y-109953836D01*
X242899937Y-110147710D01*
X242824291Y-110330336D01*
X242714470Y-110494694D01*
X242574694Y-110634470D01*
X242410336Y-110744291D01*
X242227710Y-110819937D01*
X242061425Y-110853012D01*
X242033837Y-110858500D01*
X241836163Y-110858500D01*
X241808575Y-110853012D01*
X241642290Y-110819937D01*
X241459664Y-110744291D01*
X241295306Y-110634470D01*
X241155530Y-110494694D01*
X241045709Y-110330336D01*
X240970063Y-110147710D01*
X240931500Y-109953836D01*
X240931500Y-109756164D01*
X240970063Y-109562290D01*
X241045709Y-109379664D01*
X241155530Y-109215306D01*
X241295306Y-109075530D01*
X241459664Y-108965709D01*
X241642290Y-108890063D01*
X241808575Y-108856988D01*
X241836163Y-108851500D01*
X242033837Y-108851500D01*
X242061425Y-108856988D01*
X242061425Y-108856988D01*
G37*
G36*
X261111425Y-108856988D02*
G01*
X261277710Y-108890063D01*
X261460336Y-108965709D01*
X261624694Y-109075530D01*
X261764470Y-109215306D01*
X261874291Y-109379664D01*
X261949937Y-109562290D01*
X261988500Y-109756164D01*
X261988500Y-109953836D01*
X261949937Y-110147710D01*
X261874291Y-110330336D01*
X261764470Y-110494694D01*
X261624694Y-110634470D01*
X261460336Y-110744291D01*
X261277710Y-110819937D01*
X261111425Y-110853012D01*
X261083837Y-110858500D01*
X260886163Y-110858500D01*
X260858575Y-110853012D01*
X260692290Y-110819937D01*
X260509664Y-110744291D01*
X260345306Y-110634470D01*
X260205530Y-110494694D01*
X260095709Y-110330336D01*
X260020063Y-110147710D01*
X259981500Y-109953836D01*
X259981500Y-109756164D01*
X260020063Y-109562290D01*
X260095709Y-109379664D01*
X260205530Y-109215306D01*
X260345306Y-109075530D01*
X260509664Y-108965709D01*
X260692290Y-108890063D01*
X260858575Y-108856988D01*
X260886163Y-108851500D01*
X261083837Y-108851500D01*
X261111425Y-108856988D01*
X261111425Y-108856988D01*
G37*
G36*
X187491468Y-109267315D02*
G01*
X187530138Y-109279046D01*
X187565777Y-109298096D01*
X187597017Y-109323733D01*
X187622654Y-109354973D01*
X187641704Y-109390612D01*
X187653435Y-109429282D01*
X187658000Y-109475638D01*
X187658000Y-110551862D01*
X187653435Y-110598218D01*
X187641704Y-110636888D01*
X187622654Y-110672527D01*
X187597017Y-110703767D01*
X187565777Y-110729404D01*
X187530138Y-110748454D01*
X187491468Y-110760185D01*
X187445112Y-110764750D01*
X186793888Y-110764750D01*
X186747532Y-110760185D01*
X186708862Y-110748454D01*
X186673223Y-110729404D01*
X186641983Y-110703767D01*
X186616346Y-110672527D01*
X186597296Y-110636888D01*
X186585565Y-110598218D01*
X186581000Y-110551862D01*
X186581000Y-109475638D01*
X186585565Y-109429282D01*
X186597296Y-109390612D01*
X186616346Y-109354973D01*
X186641983Y-109323733D01*
X186673223Y-109298096D01*
X186708862Y-109279046D01*
X186747532Y-109267315D01*
X186793888Y-109262750D01*
X187445112Y-109262750D01*
X187491468Y-109267315D01*
X187491468Y-109267315D01*
G37*
G36*
X185616468Y-109267315D02*
G01*
X185655138Y-109279046D01*
X185690777Y-109298096D01*
X185722017Y-109323733D01*
X185747654Y-109354973D01*
X185766704Y-109390612D01*
X185778435Y-109429282D01*
X185783000Y-109475638D01*
X185783000Y-110551862D01*
X185778435Y-110598218D01*
X185766704Y-110636888D01*
X185747654Y-110672527D01*
X185722017Y-110703767D01*
X185690777Y-110729404D01*
X185655138Y-110748454D01*
X185616468Y-110760185D01*
X185570112Y-110764750D01*
X184918888Y-110764750D01*
X184872532Y-110760185D01*
X184833862Y-110748454D01*
X184798223Y-110729404D01*
X184766983Y-110703767D01*
X184741346Y-110672527D01*
X184722296Y-110636888D01*
X184710565Y-110598218D01*
X184706000Y-110551862D01*
X184706000Y-109475638D01*
X184710565Y-109429282D01*
X184722296Y-109390612D01*
X184741346Y-109354973D01*
X184766983Y-109323733D01*
X184798223Y-109298096D01*
X184833862Y-109279046D01*
X184872532Y-109267315D01*
X184918888Y-109262750D01*
X185570112Y-109262750D01*
X185616468Y-109267315D01*
X185616468Y-109267315D01*
G37*
G36*
X207403968Y-107242315D02*
G01*
X207442638Y-107254046D01*
X207478277Y-107273096D01*
X207509517Y-107298733D01*
X207535154Y-107329973D01*
X207554204Y-107365612D01*
X207565935Y-107404282D01*
X207570500Y-107450638D01*
X207570500Y-108101862D01*
X207565935Y-108148218D01*
X207554204Y-108186888D01*
X207535154Y-108222527D01*
X207509517Y-108253767D01*
X207478277Y-108279404D01*
X207442638Y-108298454D01*
X207403968Y-108310185D01*
X207357612Y-108314750D01*
X206281388Y-108314750D01*
X206235032Y-108310185D01*
X206196362Y-108298454D01*
X206160723Y-108279404D01*
X206129483Y-108253767D01*
X206103846Y-108222527D01*
X206084796Y-108186888D01*
X206073065Y-108148218D01*
X206068500Y-108101862D01*
X206068500Y-107450638D01*
X206073065Y-107404282D01*
X206084796Y-107365612D01*
X206103846Y-107329973D01*
X206129483Y-107298733D01*
X206160723Y-107273096D01*
X206196362Y-107254046D01*
X206235032Y-107242315D01*
X206281388Y-107237750D01*
X207357612Y-107237750D01*
X207403968Y-107242315D01*
X207403968Y-107242315D01*
G37*
G36*
X201176000Y-108004000D02*
G01*
X192524000Y-108004000D01*
X192524000Y-106402000D01*
X201176000Y-106402000D01*
X201176000Y-108004000D01*
X201176000Y-108004000D01*
G37*
G36*
X158004000Y-106926000D02*
G01*
X156702000Y-106926000D01*
X156702000Y-105924000D01*
X158004000Y-105924000D01*
X158004000Y-106926000D01*
X158004000Y-106926000D01*
G37*
G36*
X252111000Y-106926000D02*
G01*
X250809000Y-106926000D01*
X250809000Y-105924000D01*
X252111000Y-105924000D01*
X252111000Y-106926000D01*
X252111000Y-106926000D01*
G37*
G36*
X243801474Y-102808684D02*
G01*
X244019474Y-102898983D01*
X244173623Y-102962833D01*
X244508548Y-103186623D01*
X244793377Y-103471452D01*
X245017167Y-103806377D01*
X245049562Y-103884586D01*
X245171316Y-104178526D01*
X245249900Y-104573594D01*
X245249900Y-104976406D01*
X245171316Y-105371474D01*
X245120451Y-105494272D01*
X245017167Y-105743623D01*
X244793377Y-106078548D01*
X244508548Y-106363377D01*
X244173623Y-106587167D01*
X244019474Y-106651017D01*
X243801474Y-106741316D01*
X243406406Y-106819900D01*
X243003594Y-106819900D01*
X242608526Y-106741316D01*
X242390526Y-106651017D01*
X242236377Y-106587167D01*
X241901452Y-106363377D01*
X241616623Y-106078548D01*
X241392833Y-105743623D01*
X241289549Y-105494272D01*
X241238684Y-105371474D01*
X241160100Y-104976406D01*
X241160100Y-104573594D01*
X241238684Y-104178526D01*
X241360438Y-103884586D01*
X241392833Y-103806377D01*
X241616623Y-103471452D01*
X241901452Y-103186623D01*
X242236377Y-102962833D01*
X242390526Y-102898983D01*
X242608526Y-102808684D01*
X243003594Y-102730100D01*
X243406406Y-102730100D01*
X243801474Y-102808684D01*
X243801474Y-102808684D01*
G37*
G36*
X130771474Y-102808684D02*
G01*
X130989474Y-102898983D01*
X131143623Y-102962833D01*
X131478548Y-103186623D01*
X131763377Y-103471452D01*
X131987167Y-103806377D01*
X132019562Y-103884586D01*
X132141316Y-104178526D01*
X132219900Y-104573594D01*
X132219900Y-104976406D01*
X132141316Y-105371474D01*
X132090451Y-105494272D01*
X131987167Y-105743623D01*
X131763377Y-106078548D01*
X131478548Y-106363377D01*
X131143623Y-106587167D01*
X130989474Y-106651017D01*
X130771474Y-106741316D01*
X130376406Y-106819900D01*
X129973594Y-106819900D01*
X129578526Y-106741316D01*
X129360526Y-106651017D01*
X129206377Y-106587167D01*
X128871452Y-106363377D01*
X128586623Y-106078548D01*
X128362833Y-105743623D01*
X128259549Y-105494272D01*
X128208684Y-105371474D01*
X128130100Y-104976406D01*
X128130100Y-104573594D01*
X128208684Y-104178526D01*
X128330438Y-103884586D01*
X128362833Y-103806377D01*
X128586623Y-103471452D01*
X128871452Y-103186623D01*
X129206377Y-102962833D01*
X129360526Y-102898983D01*
X129578526Y-102808684D01*
X129973594Y-102730100D01*
X130376406Y-102730100D01*
X130771474Y-102808684D01*
X130771474Y-102808684D01*
G37*
G36*
X149821474Y-102808684D02*
G01*
X150039474Y-102898983D01*
X150193623Y-102962833D01*
X150528548Y-103186623D01*
X150813377Y-103471452D01*
X151037167Y-103806377D01*
X151069562Y-103884586D01*
X151191316Y-104178526D01*
X151269900Y-104573594D01*
X151269900Y-104976406D01*
X151191316Y-105371474D01*
X151140451Y-105494272D01*
X151037167Y-105743623D01*
X150813377Y-106078548D01*
X150528548Y-106363377D01*
X150193623Y-106587167D01*
X150039474Y-106651017D01*
X149821474Y-106741316D01*
X149426406Y-106819900D01*
X149023594Y-106819900D01*
X148628526Y-106741316D01*
X148410526Y-106651017D01*
X148256377Y-106587167D01*
X147921452Y-106363377D01*
X147636623Y-106078548D01*
X147412833Y-105743623D01*
X147309549Y-105494272D01*
X147258684Y-105371474D01*
X147180100Y-104976406D01*
X147180100Y-104573594D01*
X147258684Y-104178526D01*
X147380438Y-103884586D01*
X147412833Y-103806377D01*
X147636623Y-103471452D01*
X147921452Y-103186623D01*
X148256377Y-102962833D01*
X148410526Y-102898983D01*
X148628526Y-102808684D01*
X149023594Y-102730100D01*
X149426406Y-102730100D01*
X149821474Y-102808684D01*
X149821474Y-102808684D01*
G37*
G36*
X262851474Y-102808684D02*
G01*
X263069474Y-102898983D01*
X263223623Y-102962833D01*
X263558548Y-103186623D01*
X263843377Y-103471452D01*
X264067167Y-103806377D01*
X264099562Y-103884586D01*
X264221316Y-104178526D01*
X264299900Y-104573594D01*
X264299900Y-104976406D01*
X264221316Y-105371474D01*
X264170451Y-105494272D01*
X264067167Y-105743623D01*
X263843377Y-106078548D01*
X263558548Y-106363377D01*
X263223623Y-106587167D01*
X263069474Y-106651017D01*
X262851474Y-106741316D01*
X262456406Y-106819900D01*
X262053594Y-106819900D01*
X261658526Y-106741316D01*
X261440526Y-106651017D01*
X261286377Y-106587167D01*
X260951452Y-106363377D01*
X260666623Y-106078548D01*
X260442833Y-105743623D01*
X260339549Y-105494272D01*
X260288684Y-105371474D01*
X260210100Y-104976406D01*
X260210100Y-104573594D01*
X260288684Y-104178526D01*
X260410438Y-103884586D01*
X260442833Y-103806377D01*
X260666623Y-103471452D01*
X260951452Y-103186623D01*
X261286377Y-102962833D01*
X261440526Y-102898983D01*
X261658526Y-102808684D01*
X262053594Y-102730100D01*
X262456406Y-102730100D01*
X262851474Y-102808684D01*
X262851474Y-102808684D01*
G37*
G36*
X271034000Y-106799000D02*
G01*
X269732000Y-106799000D01*
X269732000Y-105797000D01*
X271034000Y-105797000D01*
X271034000Y-106799000D01*
X271034000Y-106799000D01*
G37*
G36*
X139081000Y-106672000D02*
G01*
X137779000Y-106672000D01*
X137779000Y-105670000D01*
X139081000Y-105670000D01*
X139081000Y-106672000D01*
X139081000Y-106672000D01*
G37*
G36*
X207403968Y-105367315D02*
G01*
X207442638Y-105379046D01*
X207478277Y-105398096D01*
X207509517Y-105423733D01*
X207535154Y-105454973D01*
X207554204Y-105490612D01*
X207565935Y-105529282D01*
X207570500Y-105575638D01*
X207570500Y-106226862D01*
X207565935Y-106273218D01*
X207554204Y-106311888D01*
X207535154Y-106347527D01*
X207509517Y-106378767D01*
X207478277Y-106404404D01*
X207442638Y-106423454D01*
X207403968Y-106435185D01*
X207357612Y-106439750D01*
X206281388Y-106439750D01*
X206235032Y-106435185D01*
X206196362Y-106423454D01*
X206160723Y-106404404D01*
X206129483Y-106378767D01*
X206103846Y-106347527D01*
X206084796Y-106311888D01*
X206073065Y-106273218D01*
X206068500Y-106226862D01*
X206068500Y-105575638D01*
X206073065Y-105529282D01*
X206084796Y-105490612D01*
X206103846Y-105454973D01*
X206129483Y-105423733D01*
X206160723Y-105398096D01*
X206196362Y-105379046D01*
X206235032Y-105367315D01*
X206281388Y-105362750D01*
X207357612Y-105362750D01*
X207403968Y-105367315D01*
X207403968Y-105367315D01*
G37*
G36*
X257445104Y-103884585D02*
G01*
X257613626Y-103954389D01*
X257765291Y-104055728D01*
X257894272Y-104184709D01*
X257995611Y-104336374D01*
X258065415Y-104504896D01*
X258101000Y-104683797D01*
X258101000Y-104866203D01*
X258065415Y-105045104D01*
X257995611Y-105213626D01*
X257894272Y-105365291D01*
X257765291Y-105494272D01*
X257613626Y-105595611D01*
X257445104Y-105665415D01*
X257266203Y-105701000D01*
X257083797Y-105701000D01*
X256904896Y-105665415D01*
X256736374Y-105595611D01*
X256584709Y-105494272D01*
X256455728Y-105365291D01*
X256354389Y-105213626D01*
X256284585Y-105045104D01*
X256249000Y-104866203D01*
X256249000Y-104683797D01*
X256284585Y-104504896D01*
X256354389Y-104336374D01*
X256455728Y-104184709D01*
X256584709Y-104055728D01*
X256736374Y-103954389D01*
X256904896Y-103884585D01*
X257083797Y-103849000D01*
X257266203Y-103849000D01*
X257445104Y-103884585D01*
X257445104Y-103884585D01*
G37*
G36*
X238395104Y-103884585D02*
G01*
X238563626Y-103954389D01*
X238715291Y-104055728D01*
X238844272Y-104184709D01*
X238945611Y-104336374D01*
X239015415Y-104504896D01*
X239051000Y-104683797D01*
X239051000Y-104866203D01*
X239015415Y-105045104D01*
X238945611Y-105213626D01*
X238844272Y-105365291D01*
X238715291Y-105494272D01*
X238563626Y-105595611D01*
X238395104Y-105665415D01*
X238216203Y-105701000D01*
X238033797Y-105701000D01*
X237854896Y-105665415D01*
X237686374Y-105595611D01*
X237534709Y-105494272D01*
X237405728Y-105365291D01*
X237304389Y-105213626D01*
X237234585Y-105045104D01*
X237199000Y-104866203D01*
X237199000Y-104683797D01*
X237234585Y-104504896D01*
X237304389Y-104336374D01*
X237405728Y-104184709D01*
X237534709Y-104055728D01*
X237686374Y-103954389D01*
X237854896Y-103884585D01*
X238033797Y-103849000D01*
X238216203Y-103849000D01*
X238395104Y-103884585D01*
X238395104Y-103884585D01*
G37*
G36*
X248555104Y-103884585D02*
G01*
X248723626Y-103954389D01*
X248875291Y-104055728D01*
X249004272Y-104184709D01*
X249105611Y-104336374D01*
X249175415Y-104504896D01*
X249211000Y-104683797D01*
X249211000Y-104866203D01*
X249175415Y-105045104D01*
X249105611Y-105213626D01*
X249004272Y-105365291D01*
X248875291Y-105494272D01*
X248723626Y-105595611D01*
X248555104Y-105665415D01*
X248376203Y-105701000D01*
X248193797Y-105701000D01*
X248014896Y-105665415D01*
X247846374Y-105595611D01*
X247694709Y-105494272D01*
X247565728Y-105365291D01*
X247464389Y-105213626D01*
X247394585Y-105045104D01*
X247359000Y-104866203D01*
X247359000Y-104683797D01*
X247394585Y-104504896D01*
X247464389Y-104336374D01*
X247565728Y-104184709D01*
X247694709Y-104055728D01*
X247846374Y-103954389D01*
X248014896Y-103884585D01*
X248193797Y-103849000D01*
X248376203Y-103849000D01*
X248555104Y-103884585D01*
X248555104Y-103884585D01*
G37*
G36*
X135525104Y-103884585D02*
G01*
X135693626Y-103954389D01*
X135845291Y-104055728D01*
X135974272Y-104184709D01*
X136075611Y-104336374D01*
X136145415Y-104504896D01*
X136181000Y-104683797D01*
X136181000Y-104866203D01*
X136145415Y-105045104D01*
X136075611Y-105213626D01*
X135974272Y-105365291D01*
X135845291Y-105494272D01*
X135693626Y-105595611D01*
X135525104Y-105665415D01*
X135346203Y-105701000D01*
X135163797Y-105701000D01*
X134984896Y-105665415D01*
X134816374Y-105595611D01*
X134664709Y-105494272D01*
X134535728Y-105365291D01*
X134434389Y-105213626D01*
X134364585Y-105045104D01*
X134329000Y-104866203D01*
X134329000Y-104683797D01*
X134364585Y-104504896D01*
X134434389Y-104336374D01*
X134535728Y-104184709D01*
X134664709Y-104055728D01*
X134816374Y-103954389D01*
X134984896Y-103884585D01*
X135163797Y-103849000D01*
X135346203Y-103849000D01*
X135525104Y-103884585D01*
X135525104Y-103884585D01*
G37*
G36*
X154575104Y-103884585D02*
G01*
X154743626Y-103954389D01*
X154895291Y-104055728D01*
X155024272Y-104184709D01*
X155125611Y-104336374D01*
X155195415Y-104504896D01*
X155231000Y-104683797D01*
X155231000Y-104866203D01*
X155195415Y-105045104D01*
X155125611Y-105213626D01*
X155024272Y-105365291D01*
X154895291Y-105494272D01*
X154743626Y-105595611D01*
X154575104Y-105665415D01*
X154396203Y-105701000D01*
X154213797Y-105701000D01*
X154034896Y-105665415D01*
X153866374Y-105595611D01*
X153714709Y-105494272D01*
X153585728Y-105365291D01*
X153484389Y-105213626D01*
X153414585Y-105045104D01*
X153379000Y-104866203D01*
X153379000Y-104683797D01*
X153414585Y-104504896D01*
X153484389Y-104336374D01*
X153585728Y-104184709D01*
X153714709Y-104055728D01*
X153866374Y-103954389D01*
X154034896Y-103884585D01*
X154213797Y-103849000D01*
X154396203Y-103849000D01*
X154575104Y-103884585D01*
X154575104Y-103884585D01*
G37*
G36*
X144415104Y-103884585D02*
G01*
X144583626Y-103954389D01*
X144735291Y-104055728D01*
X144864272Y-104184709D01*
X144965611Y-104336374D01*
X145035415Y-104504896D01*
X145071000Y-104683797D01*
X145071000Y-104866203D01*
X145035415Y-105045104D01*
X144965611Y-105213626D01*
X144864272Y-105365291D01*
X144735291Y-105494272D01*
X144583626Y-105595611D01*
X144415104Y-105665415D01*
X144236203Y-105701000D01*
X144053797Y-105701000D01*
X143874896Y-105665415D01*
X143706374Y-105595611D01*
X143554709Y-105494272D01*
X143425728Y-105365291D01*
X143324389Y-105213626D01*
X143254585Y-105045104D01*
X143219000Y-104866203D01*
X143219000Y-104683797D01*
X143254585Y-104504896D01*
X143324389Y-104336374D01*
X143425728Y-104184709D01*
X143554709Y-104055728D01*
X143706374Y-103954389D01*
X143874896Y-103884585D01*
X144053797Y-103849000D01*
X144236203Y-103849000D01*
X144415104Y-103884585D01*
X144415104Y-103884585D01*
G37*
G36*
X267605104Y-103884585D02*
G01*
X267773626Y-103954389D01*
X267925291Y-104055728D01*
X268054272Y-104184709D01*
X268155611Y-104336374D01*
X268225415Y-104504896D01*
X268261000Y-104683797D01*
X268261000Y-104866203D01*
X268225415Y-105045104D01*
X268155611Y-105213626D01*
X268054272Y-105365291D01*
X267925291Y-105494272D01*
X267773626Y-105595611D01*
X267605104Y-105665415D01*
X267426203Y-105701000D01*
X267243797Y-105701000D01*
X267064896Y-105665415D01*
X266896374Y-105595611D01*
X266744709Y-105494272D01*
X266615728Y-105365291D01*
X266514389Y-105213626D01*
X266444585Y-105045104D01*
X266409000Y-104866203D01*
X266409000Y-104683797D01*
X266444585Y-104504896D01*
X266514389Y-104336374D01*
X266615728Y-104184709D01*
X266744709Y-104055728D01*
X266896374Y-103954389D01*
X267064896Y-103884585D01*
X267243797Y-103849000D01*
X267426203Y-103849000D01*
X267605104Y-103884585D01*
X267605104Y-103884585D01*
G37*
G36*
X125365104Y-103884585D02*
G01*
X125533626Y-103954389D01*
X125685291Y-104055728D01*
X125814272Y-104184709D01*
X125915611Y-104336374D01*
X125985415Y-104504896D01*
X126021000Y-104683797D01*
X126021000Y-104866203D01*
X125985415Y-105045104D01*
X125915611Y-105213626D01*
X125814272Y-105365291D01*
X125685291Y-105494272D01*
X125533626Y-105595611D01*
X125365104Y-105665415D01*
X125186203Y-105701000D01*
X125003797Y-105701000D01*
X124824896Y-105665415D01*
X124656374Y-105595611D01*
X124504709Y-105494272D01*
X124375728Y-105365291D01*
X124274389Y-105213626D01*
X124204585Y-105045104D01*
X124169000Y-104866203D01*
X124169000Y-104683797D01*
X124204585Y-104504896D01*
X124274389Y-104336374D01*
X124375728Y-104184709D01*
X124504709Y-104055728D01*
X124656374Y-103954389D01*
X124824896Y-103884585D01*
X125003797Y-103849000D01*
X125186203Y-103849000D01*
X125365104Y-103884585D01*
X125365104Y-103884585D01*
G37*
G36*
X185877468Y-103479065D02*
G01*
X185916138Y-103490796D01*
X185951777Y-103509846D01*
X185983017Y-103535483D01*
X186008654Y-103566723D01*
X186027704Y-103602362D01*
X186039435Y-103641032D01*
X186044000Y-103687388D01*
X186044000Y-104338612D01*
X186039435Y-104384968D01*
X186027704Y-104423638D01*
X186008654Y-104459277D01*
X185983017Y-104490517D01*
X185951777Y-104516154D01*
X185916138Y-104535204D01*
X185877468Y-104546935D01*
X185831112Y-104551500D01*
X184754888Y-104551500D01*
X184708532Y-104546935D01*
X184669862Y-104535204D01*
X184634223Y-104516154D01*
X184602983Y-104490517D01*
X184577346Y-104459277D01*
X184558296Y-104423638D01*
X184546565Y-104384968D01*
X184542000Y-104338612D01*
X184542000Y-103687388D01*
X184546565Y-103641032D01*
X184558296Y-103602362D01*
X184577346Y-103566723D01*
X184602983Y-103535483D01*
X184634223Y-103509846D01*
X184669862Y-103490796D01*
X184708532Y-103479065D01*
X184754888Y-103474500D01*
X185831112Y-103474500D01*
X185877468Y-103479065D01*
X185877468Y-103479065D01*
G37*
G36*
X189941468Y-103417315D02*
G01*
X189980138Y-103429046D01*
X190015777Y-103448096D01*
X190047017Y-103473733D01*
X190072654Y-103504973D01*
X190091704Y-103540612D01*
X190103435Y-103579282D01*
X190108000Y-103625638D01*
X190108000Y-104276862D01*
X190103435Y-104323218D01*
X190091704Y-104361888D01*
X190072654Y-104397527D01*
X190047017Y-104428767D01*
X190015777Y-104454404D01*
X189980138Y-104473454D01*
X189941468Y-104485185D01*
X189895112Y-104489750D01*
X188818888Y-104489750D01*
X188772532Y-104485185D01*
X188733862Y-104473454D01*
X188698223Y-104454404D01*
X188666983Y-104428767D01*
X188641346Y-104397527D01*
X188622296Y-104361888D01*
X188610565Y-104323218D01*
X188606000Y-104276862D01*
X188606000Y-103625638D01*
X188610565Y-103579282D01*
X188622296Y-103540612D01*
X188641346Y-103504973D01*
X188666983Y-103473733D01*
X188698223Y-103448096D01*
X188733862Y-103429046D01*
X188772532Y-103417315D01*
X188818888Y-103412750D01*
X189895112Y-103412750D01*
X189941468Y-103417315D01*
X189941468Y-103417315D01*
G37*
G36*
X158004000Y-103626000D02*
G01*
X156702000Y-103626000D01*
X156702000Y-102624000D01*
X158004000Y-102624000D01*
X158004000Y-103626000D01*
X158004000Y-103626000D01*
G37*
G36*
X252111000Y-103626000D02*
G01*
X250809000Y-103626000D01*
X250809000Y-102624000D01*
X252111000Y-102624000D01*
X252111000Y-103626000D01*
X252111000Y-103626000D01*
G37*
G36*
X271034000Y-103499000D02*
G01*
X269732000Y-103499000D01*
X269732000Y-102497000D01*
X271034000Y-102497000D01*
X271034000Y-103499000D01*
X271034000Y-103499000D01*
G37*
G36*
X240728205Y-99598881D02*
G01*
X240733645Y-99599000D01*
X240820828Y-99599000D01*
X240837097Y-99602236D01*
X240855956Y-99604515D01*
X240872532Y-99605246D01*
X240957223Y-99626010D01*
X240962518Y-99627184D01*
X241048027Y-99644193D01*
X241063362Y-99650545D01*
X241081401Y-99656455D01*
X241097521Y-99660407D01*
X241176504Y-99697280D01*
X241181494Y-99699477D01*
X241262045Y-99732842D01*
X241275841Y-99742060D01*
X241292393Y-99751382D01*
X241307426Y-99758400D01*
X241377694Y-99809971D01*
X241382192Y-99813122D01*
X241454656Y-99861541D01*
X241466383Y-99873268D01*
X241480809Y-99885648D01*
X241494179Y-99895461D01*
X241494180Y-99895462D01*
X241553021Y-99959733D01*
X241556829Y-99963714D01*
X241618459Y-100025344D01*
X241627674Y-100039135D01*
X241639396Y-100054078D01*
X241650605Y-100066321D01*
X241695799Y-100140874D01*
X241698746Y-100145501D01*
X241747158Y-100217955D01*
X241753505Y-100233277D01*
X241762092Y-100250231D01*
X241770691Y-100264417D01*
X241800478Y-100346368D01*
X241802452Y-100351448D01*
X241835807Y-100431973D01*
X241835807Y-100431974D01*
X241839041Y-100448233D01*
X241844158Y-100466542D01*
X241849825Y-100482134D01*
X241863055Y-100568345D01*
X241864001Y-100573713D01*
X241881000Y-100659173D01*
X241881000Y-100675752D01*
X241882444Y-100694692D01*
X241884963Y-100711104D01*
X241881120Y-100798249D01*
X241881000Y-100803689D01*
X241881000Y-100890825D01*
X241877766Y-100907083D01*
X241875488Y-100925941D01*
X241874756Y-100942531D01*
X241853988Y-101027237D01*
X241852812Y-101032537D01*
X241835807Y-101118027D01*
X241829457Y-101133357D01*
X241823549Y-101151393D01*
X241819595Y-101167520D01*
X241782711Y-101246526D01*
X241780511Y-101251523D01*
X241747158Y-101332045D01*
X241737944Y-101345835D01*
X241728622Y-101362387D01*
X241721602Y-101377424D01*
X241670011Y-101447720D01*
X241666866Y-101452210D01*
X241618461Y-101524654D01*
X241561460Y-101581655D01*
X241556811Y-101586563D01*
X240582948Y-102671935D01*
X240231723Y-103063376D01*
X240103679Y-103180602D01*
X240004630Y-103240646D01*
X239905583Y-103300689D01*
X239687866Y-103379823D01*
X239458895Y-103414961D01*
X239227470Y-103404754D01*
X239002481Y-103349593D01*
X238897727Y-103300689D01*
X238792579Y-103251602D01*
X238695838Y-103180602D01*
X238605823Y-103114539D01*
X238531394Y-103033241D01*
X238449398Y-102943679D01*
X238367564Y-102808685D01*
X238329311Y-102745583D01*
X238250177Y-102527866D01*
X238215039Y-102298895D01*
X238225246Y-102067470D01*
X238280407Y-101842481D01*
X238350788Y-101691723D01*
X238378398Y-101632580D01*
X238390716Y-101615796D01*
X238481114Y-101492622D01*
X239236245Y-100651027D01*
X239767787Y-100058621D01*
X239778681Y-100044589D01*
X239791539Y-100025346D01*
X239848573Y-99968312D01*
X239853223Y-99963403D01*
X239868278Y-99946624D01*
X239889701Y-99927011D01*
X239893682Y-99923203D01*
X239955346Y-99861539D01*
X239969143Y-99852320D01*
X239984102Y-99840585D01*
X239996321Y-99829398D01*
X240028385Y-99809961D01*
X240070830Y-99784231D01*
X240075421Y-99781308D01*
X240147955Y-99732842D01*
X240163300Y-99726486D01*
X240180248Y-99717901D01*
X240194416Y-99709312D01*
X240194417Y-99709312D01*
X240194418Y-99709311D01*
X240276312Y-99679545D01*
X240281410Y-99677563D01*
X240361973Y-99644193D01*
X240378252Y-99640955D01*
X240396542Y-99635844D01*
X240412135Y-99630177D01*
X240498300Y-99616954D01*
X240503663Y-99616009D01*
X240589173Y-99599000D01*
X240605766Y-99599000D01*
X240624709Y-99597555D01*
X240641106Y-99595039D01*
X240728205Y-99598881D01*
X240728205Y-99598881D01*
G37*
G36*
X146748205Y-99598881D02*
G01*
X146753645Y-99599000D01*
X146840828Y-99599000D01*
X146857097Y-99602236D01*
X146875956Y-99604515D01*
X146892532Y-99605246D01*
X146977223Y-99626010D01*
X146982518Y-99627184D01*
X147068027Y-99644193D01*
X147083362Y-99650545D01*
X147101401Y-99656455D01*
X147117521Y-99660407D01*
X147196504Y-99697280D01*
X147201494Y-99699477D01*
X147282045Y-99732842D01*
X147295841Y-99742060D01*
X147312393Y-99751382D01*
X147327426Y-99758400D01*
X147397694Y-99809971D01*
X147402192Y-99813122D01*
X147474656Y-99861541D01*
X147486383Y-99873268D01*
X147500809Y-99885648D01*
X147514179Y-99895461D01*
X147514180Y-99895462D01*
X147573021Y-99959733D01*
X147576829Y-99963714D01*
X147638459Y-100025344D01*
X147647674Y-100039135D01*
X147659396Y-100054078D01*
X147670605Y-100066321D01*
X147715799Y-100140874D01*
X147718746Y-100145501D01*
X147767158Y-100217955D01*
X147773505Y-100233277D01*
X147782092Y-100250231D01*
X147790691Y-100264417D01*
X147820478Y-100346368D01*
X147822452Y-100351448D01*
X147855807Y-100431973D01*
X147855807Y-100431974D01*
X147859041Y-100448233D01*
X147864158Y-100466542D01*
X147869825Y-100482134D01*
X147883055Y-100568345D01*
X147884001Y-100573713D01*
X147901000Y-100659173D01*
X147901000Y-100675752D01*
X147902444Y-100694692D01*
X147904963Y-100711104D01*
X147901120Y-100798249D01*
X147901000Y-100803689D01*
X147901000Y-100890825D01*
X147897766Y-100907083D01*
X147895488Y-100925941D01*
X147894756Y-100942531D01*
X147873988Y-101027237D01*
X147872812Y-101032537D01*
X147855807Y-101118027D01*
X147849457Y-101133357D01*
X147843549Y-101151393D01*
X147839595Y-101167520D01*
X147802711Y-101246526D01*
X147800511Y-101251523D01*
X147767158Y-101332045D01*
X147757944Y-101345835D01*
X147748622Y-101362387D01*
X147741602Y-101377424D01*
X147690011Y-101447720D01*
X147686866Y-101452210D01*
X147638461Y-101524654D01*
X147581460Y-101581655D01*
X147576811Y-101586563D01*
X146602948Y-102671935D01*
X146251723Y-103063376D01*
X146123679Y-103180602D01*
X146024630Y-103240646D01*
X145925583Y-103300689D01*
X145707866Y-103379823D01*
X145478895Y-103414961D01*
X145247470Y-103404754D01*
X145022481Y-103349593D01*
X144917727Y-103300689D01*
X144812579Y-103251602D01*
X144715838Y-103180602D01*
X144625823Y-103114539D01*
X144551394Y-103033241D01*
X144469398Y-102943679D01*
X144387564Y-102808685D01*
X144349311Y-102745583D01*
X144270177Y-102527866D01*
X144235039Y-102298895D01*
X144245246Y-102067470D01*
X144300407Y-101842481D01*
X144370788Y-101691723D01*
X144398398Y-101632580D01*
X144410716Y-101615796D01*
X144501114Y-101492622D01*
X145256245Y-100651027D01*
X145787787Y-100058621D01*
X145798681Y-100044589D01*
X145811539Y-100025346D01*
X145868573Y-99968312D01*
X145873223Y-99963403D01*
X145888278Y-99946624D01*
X145909701Y-99927011D01*
X145913682Y-99923203D01*
X145975346Y-99861539D01*
X145989143Y-99852320D01*
X146004102Y-99840585D01*
X146016321Y-99829398D01*
X146048385Y-99809961D01*
X146090830Y-99784231D01*
X146095421Y-99781308D01*
X146167955Y-99732842D01*
X146183300Y-99726486D01*
X146200248Y-99717901D01*
X146214416Y-99709312D01*
X146214417Y-99709312D01*
X146214418Y-99709311D01*
X146296312Y-99679545D01*
X146301410Y-99677563D01*
X146381973Y-99644193D01*
X146398252Y-99640955D01*
X146416542Y-99635844D01*
X146432135Y-99630177D01*
X146518300Y-99616954D01*
X146523663Y-99616009D01*
X146609173Y-99599000D01*
X146625766Y-99599000D01*
X146644709Y-99597555D01*
X146661106Y-99595039D01*
X146748205Y-99598881D01*
X146748205Y-99598881D01*
G37*
G36*
X259778205Y-99598881D02*
G01*
X259783645Y-99599000D01*
X259870828Y-99599000D01*
X259887097Y-99602236D01*
X259905956Y-99604515D01*
X259922532Y-99605246D01*
X260007223Y-99626010D01*
X260012518Y-99627184D01*
X260098027Y-99644193D01*
X260113362Y-99650545D01*
X260131401Y-99656455D01*
X260147521Y-99660407D01*
X260226504Y-99697280D01*
X260231494Y-99699477D01*
X260312045Y-99732842D01*
X260325841Y-99742060D01*
X260342393Y-99751382D01*
X260357426Y-99758400D01*
X260427694Y-99809971D01*
X260432192Y-99813122D01*
X260504656Y-99861541D01*
X260516383Y-99873268D01*
X260530809Y-99885648D01*
X260544179Y-99895461D01*
X260544180Y-99895462D01*
X260603021Y-99959733D01*
X260606829Y-99963714D01*
X260668459Y-100025344D01*
X260677674Y-100039135D01*
X260689396Y-100054078D01*
X260700605Y-100066321D01*
X260745799Y-100140874D01*
X260748746Y-100145501D01*
X260797158Y-100217955D01*
X260803505Y-100233277D01*
X260812092Y-100250231D01*
X260820691Y-100264417D01*
X260850478Y-100346368D01*
X260852452Y-100351448D01*
X260885807Y-100431973D01*
X260885807Y-100431974D01*
X260889041Y-100448233D01*
X260894158Y-100466542D01*
X260899825Y-100482134D01*
X260913055Y-100568345D01*
X260914001Y-100573713D01*
X260931000Y-100659173D01*
X260931000Y-100675752D01*
X260932444Y-100694692D01*
X260934963Y-100711104D01*
X260931120Y-100798249D01*
X260931000Y-100803689D01*
X260931000Y-100890825D01*
X260927766Y-100907083D01*
X260925488Y-100925941D01*
X260924756Y-100942531D01*
X260903988Y-101027237D01*
X260902812Y-101032537D01*
X260885807Y-101118027D01*
X260879457Y-101133357D01*
X260873549Y-101151393D01*
X260869595Y-101167520D01*
X260832711Y-101246526D01*
X260830511Y-101251523D01*
X260797158Y-101332045D01*
X260787944Y-101345835D01*
X260778622Y-101362387D01*
X260771602Y-101377424D01*
X260720011Y-101447720D01*
X260716866Y-101452210D01*
X260668461Y-101524654D01*
X260611460Y-101581655D01*
X260606811Y-101586563D01*
X259632948Y-102671935D01*
X259281723Y-103063376D01*
X259153679Y-103180602D01*
X259054630Y-103240646D01*
X258955583Y-103300689D01*
X258737866Y-103379823D01*
X258508895Y-103414961D01*
X258277470Y-103404754D01*
X258052481Y-103349593D01*
X257947727Y-103300689D01*
X257842579Y-103251602D01*
X257745838Y-103180602D01*
X257655823Y-103114539D01*
X257581394Y-103033241D01*
X257499398Y-102943679D01*
X257417564Y-102808685D01*
X257379311Y-102745583D01*
X257300177Y-102527866D01*
X257265039Y-102298895D01*
X257275246Y-102067470D01*
X257330407Y-101842481D01*
X257400788Y-101691723D01*
X257428398Y-101632580D01*
X257440716Y-101615796D01*
X257531114Y-101492622D01*
X258286245Y-100651027D01*
X258817787Y-100058621D01*
X258828681Y-100044589D01*
X258841539Y-100025346D01*
X258898573Y-99968312D01*
X258903223Y-99963403D01*
X258918278Y-99946624D01*
X258939701Y-99927011D01*
X258943682Y-99923203D01*
X259005346Y-99861539D01*
X259019143Y-99852320D01*
X259034102Y-99840585D01*
X259046321Y-99829398D01*
X259078385Y-99809961D01*
X259120830Y-99784231D01*
X259125421Y-99781308D01*
X259197955Y-99732842D01*
X259213300Y-99726486D01*
X259230248Y-99717901D01*
X259244416Y-99709312D01*
X259244417Y-99709312D01*
X259244418Y-99709311D01*
X259326312Y-99679545D01*
X259331410Y-99677563D01*
X259411973Y-99644193D01*
X259428252Y-99640955D01*
X259446542Y-99635844D01*
X259462135Y-99630177D01*
X259548300Y-99616954D01*
X259553663Y-99616009D01*
X259639173Y-99599000D01*
X259655766Y-99599000D01*
X259674709Y-99597555D01*
X259691106Y-99595039D01*
X259778205Y-99598881D01*
X259778205Y-99598881D01*
G37*
G36*
X127698205Y-99598881D02*
G01*
X127703645Y-99599000D01*
X127790828Y-99599000D01*
X127807097Y-99602236D01*
X127825956Y-99604515D01*
X127842532Y-99605246D01*
X127927223Y-99626010D01*
X127932518Y-99627184D01*
X128018027Y-99644193D01*
X128033362Y-99650545D01*
X128051401Y-99656455D01*
X128067521Y-99660407D01*
X128146504Y-99697280D01*
X128151494Y-99699477D01*
X128232045Y-99732842D01*
X128245841Y-99742060D01*
X128262393Y-99751382D01*
X128277426Y-99758400D01*
X128347694Y-99809971D01*
X128352192Y-99813122D01*
X128424656Y-99861541D01*
X128436383Y-99873268D01*
X128450809Y-99885648D01*
X128464179Y-99895461D01*
X128464180Y-99895462D01*
X128523021Y-99959733D01*
X128526829Y-99963714D01*
X128588459Y-100025344D01*
X128597674Y-100039135D01*
X128609396Y-100054078D01*
X128620605Y-100066321D01*
X128665799Y-100140874D01*
X128668746Y-100145501D01*
X128717158Y-100217955D01*
X128723505Y-100233277D01*
X128732092Y-100250231D01*
X128740691Y-100264417D01*
X128770478Y-100346368D01*
X128772452Y-100351448D01*
X128805807Y-100431973D01*
X128805807Y-100431974D01*
X128809041Y-100448233D01*
X128814158Y-100466542D01*
X128819825Y-100482134D01*
X128833055Y-100568345D01*
X128834001Y-100573713D01*
X128851000Y-100659173D01*
X128851000Y-100675752D01*
X128852444Y-100694692D01*
X128854963Y-100711104D01*
X128851120Y-100798249D01*
X128851000Y-100803689D01*
X128851000Y-100890825D01*
X128847766Y-100907083D01*
X128845488Y-100925941D01*
X128844756Y-100942531D01*
X128823988Y-101027237D01*
X128822812Y-101032537D01*
X128805807Y-101118027D01*
X128799457Y-101133357D01*
X128793549Y-101151393D01*
X128789595Y-101167520D01*
X128752711Y-101246526D01*
X128750511Y-101251523D01*
X128717158Y-101332045D01*
X128707944Y-101345835D01*
X128698622Y-101362387D01*
X128691602Y-101377424D01*
X128640011Y-101447720D01*
X128636866Y-101452210D01*
X128588461Y-101524654D01*
X128531460Y-101581655D01*
X128526811Y-101586563D01*
X127552948Y-102671935D01*
X127201723Y-103063376D01*
X127073679Y-103180602D01*
X126974630Y-103240646D01*
X126875583Y-103300689D01*
X126657866Y-103379823D01*
X126428895Y-103414961D01*
X126197470Y-103404754D01*
X125972481Y-103349593D01*
X125867727Y-103300689D01*
X125762579Y-103251602D01*
X125665838Y-103180602D01*
X125575823Y-103114539D01*
X125501394Y-103033241D01*
X125419398Y-102943679D01*
X125337564Y-102808685D01*
X125299311Y-102745583D01*
X125220177Y-102527866D01*
X125185039Y-102298895D01*
X125195246Y-102067470D01*
X125250407Y-101842481D01*
X125320788Y-101691723D01*
X125348398Y-101632580D01*
X125360716Y-101615796D01*
X125451114Y-101492622D01*
X126206245Y-100651027D01*
X126737787Y-100058621D01*
X126748681Y-100044589D01*
X126761539Y-100025346D01*
X126818573Y-99968312D01*
X126823223Y-99963403D01*
X126838278Y-99946624D01*
X126859701Y-99927011D01*
X126863682Y-99923203D01*
X126925346Y-99861539D01*
X126939143Y-99852320D01*
X126954102Y-99840585D01*
X126966321Y-99829398D01*
X126998385Y-99809961D01*
X127040830Y-99784231D01*
X127045421Y-99781308D01*
X127117955Y-99732842D01*
X127133300Y-99726486D01*
X127150248Y-99717901D01*
X127164416Y-99709312D01*
X127164417Y-99709312D01*
X127164418Y-99709311D01*
X127246312Y-99679545D01*
X127251410Y-99677563D01*
X127331973Y-99644193D01*
X127348252Y-99640955D01*
X127366542Y-99635844D01*
X127382135Y-99630177D01*
X127468300Y-99616954D01*
X127473663Y-99616009D01*
X127559173Y-99599000D01*
X127575766Y-99599000D01*
X127594709Y-99597555D01*
X127611106Y-99595039D01*
X127698205Y-99598881D01*
X127698205Y-99598881D01*
G37*
G36*
X139081000Y-103372000D02*
G01*
X137779000Y-103372000D01*
X137779000Y-102370000D01*
X139081000Y-102370000D01*
X139081000Y-103372000D01*
X139081000Y-103372000D01*
G37*
G36*
X185877468Y-101604065D02*
G01*
X185916138Y-101615796D01*
X185951777Y-101634846D01*
X185983017Y-101660483D01*
X186008654Y-101691723D01*
X186027704Y-101727362D01*
X186039435Y-101766032D01*
X186044000Y-101812388D01*
X186044000Y-102463612D01*
X186039435Y-102509968D01*
X186027704Y-102548638D01*
X186008654Y-102584277D01*
X185983017Y-102615517D01*
X185951777Y-102641154D01*
X185916138Y-102660204D01*
X185877468Y-102671935D01*
X185831112Y-102676500D01*
X184754888Y-102676500D01*
X184708532Y-102671935D01*
X184669862Y-102660204D01*
X184634223Y-102641154D01*
X184602983Y-102615517D01*
X184577346Y-102584277D01*
X184558296Y-102548638D01*
X184546565Y-102509968D01*
X184542000Y-102463612D01*
X184542000Y-101812388D01*
X184546565Y-101766032D01*
X184558296Y-101727362D01*
X184577346Y-101691723D01*
X184602983Y-101660483D01*
X184634223Y-101634846D01*
X184669862Y-101615796D01*
X184708532Y-101604065D01*
X184754888Y-101599500D01*
X185831112Y-101599500D01*
X185877468Y-101604065D01*
X185877468Y-101604065D01*
G37*
G36*
X189941468Y-101542315D02*
G01*
X189980138Y-101554046D01*
X190015777Y-101573096D01*
X190047017Y-101598733D01*
X190072654Y-101629973D01*
X190091704Y-101665612D01*
X190103435Y-101704282D01*
X190108000Y-101750638D01*
X190108000Y-102401862D01*
X190103435Y-102448218D01*
X190091704Y-102486888D01*
X190072654Y-102522527D01*
X190047017Y-102553767D01*
X190015777Y-102579404D01*
X189980138Y-102598454D01*
X189941468Y-102610185D01*
X189895112Y-102614750D01*
X188818888Y-102614750D01*
X188772532Y-102610185D01*
X188733862Y-102598454D01*
X188698223Y-102579404D01*
X188666983Y-102553767D01*
X188641346Y-102522527D01*
X188622296Y-102486888D01*
X188610565Y-102448218D01*
X188606000Y-102401862D01*
X188606000Y-101750638D01*
X188610565Y-101704282D01*
X188622296Y-101665612D01*
X188641346Y-101629973D01*
X188666983Y-101598733D01*
X188698223Y-101573096D01*
X188733862Y-101554046D01*
X188772532Y-101542315D01*
X188818888Y-101537750D01*
X189895112Y-101537750D01*
X189941468Y-101542315D01*
X189941468Y-101542315D01*
G37*
G36*
X151853127Y-98517261D02*
G01*
X151873900Y-98519000D01*
X151880827Y-98519000D01*
X151975754Y-98537882D01*
X151979348Y-98538542D01*
X152074730Y-98554624D01*
X152081203Y-98557085D01*
X152101228Y-98562841D01*
X152108027Y-98564193D01*
X152154638Y-98583500D01*
X152197443Y-98601230D01*
X152200844Y-98602581D01*
X152291255Y-98636961D01*
X152297127Y-98640640D01*
X152315636Y-98650187D01*
X152322045Y-98652842D01*
X152402563Y-98706642D01*
X152405554Y-98708578D01*
X152487557Y-98759959D01*
X152492584Y-98764700D01*
X152508896Y-98777691D01*
X152514652Y-98781537D01*
X152583110Y-98849995D01*
X152585689Y-98852499D01*
X152656090Y-98918889D01*
X152660095Y-98924519D01*
X152673559Y-98940444D01*
X152678459Y-98945344D01*
X152732244Y-99025839D01*
X152734291Y-99028807D01*
X152790380Y-99107645D01*
X152793214Y-99113958D01*
X152803308Y-99132193D01*
X152807158Y-99137955D01*
X152844220Y-99227430D01*
X152845624Y-99230685D01*
X152885265Y-99318973D01*
X152886815Y-99325725D01*
X152893152Y-99345562D01*
X152895807Y-99351973D01*
X152914692Y-99446917D01*
X152915438Y-99450401D01*
X152937098Y-99544751D01*
X152937098Y-99544754D01*
X152937300Y-99551654D01*
X152939647Y-99572370D01*
X152941000Y-99579174D01*
X152941000Y-99675986D01*
X152941053Y-99679584D01*
X152942188Y-99718277D01*
X152941295Y-99731225D01*
X152941000Y-99739797D01*
X152941000Y-99810826D01*
X152935081Y-99840585D01*
X152934604Y-99842979D01*
X152932500Y-99858750D01*
X152894238Y-100413545D01*
X152865376Y-100584730D01*
X152783038Y-100801255D01*
X152660041Y-100997557D01*
X152501111Y-101166090D01*
X152312355Y-101300380D01*
X152101027Y-101395265D01*
X151875249Y-101447098D01*
X151643698Y-101453889D01*
X151643697Y-101453889D01*
X151598012Y-101446186D01*
X151415270Y-101415376D01*
X151198745Y-101333038D01*
X151002443Y-101210041D01*
X150833910Y-101051111D01*
X150699620Y-100862355D01*
X150604735Y-100651027D01*
X150552902Y-100425249D01*
X150547812Y-100251723D01*
X150588704Y-99658794D01*
X150589000Y-99650196D01*
X150589000Y-99579175D01*
X150607882Y-99484250D01*
X150608544Y-99480645D01*
X150614231Y-99446917D01*
X150624624Y-99385270D01*
X150627085Y-99378799D01*
X150632842Y-99358767D01*
X150634193Y-99351974D01*
X150636843Y-99345576D01*
X150671264Y-99262476D01*
X150672553Y-99259230D01*
X150706962Y-99168745D01*
X150710636Y-99162881D01*
X150720187Y-99144365D01*
X150722842Y-99137955D01*
X150776657Y-99057415D01*
X150778577Y-99054449D01*
X150829959Y-98972443D01*
X150834711Y-98967404D01*
X150847689Y-98951107D01*
X150851537Y-98945348D01*
X150919993Y-98876892D01*
X150922546Y-98874262D01*
X150943023Y-98852548D01*
X150988889Y-98803910D01*
X150994521Y-98799903D01*
X151010447Y-98786438D01*
X151015346Y-98781539D01*
X151095824Y-98727766D01*
X151098806Y-98725710D01*
X151177645Y-98669620D01*
X151183955Y-98666787D01*
X151202194Y-98656691D01*
X151207951Y-98652844D01*
X151207954Y-98652843D01*
X151207955Y-98652842D01*
X151297429Y-98615781D01*
X151300687Y-98614375D01*
X151388973Y-98574735D01*
X151395725Y-98573185D01*
X151415562Y-98566848D01*
X151421973Y-98564193D01*
X151516899Y-98545311D01*
X151520446Y-98544551D01*
X151614751Y-98522901D01*
X151617130Y-98522831D01*
X151621665Y-98522698D01*
X151642381Y-98520351D01*
X151649174Y-98519000D01*
X151745959Y-98519000D01*
X151749584Y-98518947D01*
X151846302Y-98516110D01*
X151853127Y-98517261D01*
X151853127Y-98517261D01*
G37*
G36*
X245833127Y-98517261D02*
G01*
X245853900Y-98519000D01*
X245860827Y-98519000D01*
X245955754Y-98537882D01*
X245959348Y-98538542D01*
X246054730Y-98554624D01*
X246061203Y-98557085D01*
X246081228Y-98562841D01*
X246088027Y-98564193D01*
X246134638Y-98583500D01*
X246177443Y-98601230D01*
X246180844Y-98602581D01*
X246271255Y-98636961D01*
X246277127Y-98640640D01*
X246295636Y-98650187D01*
X246302045Y-98652842D01*
X246382563Y-98706642D01*
X246385554Y-98708578D01*
X246467557Y-98759959D01*
X246472584Y-98764700D01*
X246488896Y-98777691D01*
X246494652Y-98781537D01*
X246563110Y-98849995D01*
X246565689Y-98852499D01*
X246636090Y-98918889D01*
X246640095Y-98924519D01*
X246653559Y-98940444D01*
X246658459Y-98945344D01*
X246712244Y-99025839D01*
X246714291Y-99028807D01*
X246770380Y-99107645D01*
X246773214Y-99113958D01*
X246783308Y-99132193D01*
X246787158Y-99137955D01*
X246824220Y-99227430D01*
X246825624Y-99230685D01*
X246865265Y-99318973D01*
X246866815Y-99325725D01*
X246873152Y-99345562D01*
X246875807Y-99351973D01*
X246894692Y-99446917D01*
X246895438Y-99450401D01*
X246917098Y-99544751D01*
X246917098Y-99544754D01*
X246917300Y-99551654D01*
X246919647Y-99572370D01*
X246921000Y-99579174D01*
X246921000Y-99675986D01*
X246921053Y-99679584D01*
X246922188Y-99718277D01*
X246921295Y-99731225D01*
X246921000Y-99739797D01*
X246921000Y-99810826D01*
X246915081Y-99840585D01*
X246914604Y-99842979D01*
X246912500Y-99858750D01*
X246874238Y-100413545D01*
X246845376Y-100584730D01*
X246763038Y-100801255D01*
X246640041Y-100997557D01*
X246481111Y-101166090D01*
X246292355Y-101300380D01*
X246081027Y-101395265D01*
X245855249Y-101447098D01*
X245623698Y-101453889D01*
X245623697Y-101453889D01*
X245578012Y-101446186D01*
X245395270Y-101415376D01*
X245178745Y-101333038D01*
X244982443Y-101210041D01*
X244813910Y-101051111D01*
X244679620Y-100862355D01*
X244584735Y-100651027D01*
X244532902Y-100425249D01*
X244527812Y-100251723D01*
X244568704Y-99658794D01*
X244569000Y-99650196D01*
X244569000Y-99579175D01*
X244587882Y-99484250D01*
X244588544Y-99480645D01*
X244594231Y-99446917D01*
X244604624Y-99385270D01*
X244607085Y-99378799D01*
X244612842Y-99358767D01*
X244614193Y-99351974D01*
X244616843Y-99345576D01*
X244651264Y-99262476D01*
X244652553Y-99259230D01*
X244686962Y-99168745D01*
X244690636Y-99162881D01*
X244700187Y-99144365D01*
X244702842Y-99137955D01*
X244756657Y-99057415D01*
X244758577Y-99054449D01*
X244809959Y-98972443D01*
X244814711Y-98967404D01*
X244827689Y-98951107D01*
X244831537Y-98945348D01*
X244899993Y-98876892D01*
X244902546Y-98874262D01*
X244923023Y-98852548D01*
X244968889Y-98803910D01*
X244974521Y-98799903D01*
X244990447Y-98786438D01*
X244995346Y-98781539D01*
X245075824Y-98727766D01*
X245078806Y-98725710D01*
X245157645Y-98669620D01*
X245163955Y-98666787D01*
X245182194Y-98656691D01*
X245187951Y-98652844D01*
X245187954Y-98652843D01*
X245187955Y-98652842D01*
X245277429Y-98615781D01*
X245280687Y-98614375D01*
X245368973Y-98574735D01*
X245375725Y-98573185D01*
X245395562Y-98566848D01*
X245401973Y-98564193D01*
X245496899Y-98545311D01*
X245500446Y-98544551D01*
X245594751Y-98522901D01*
X245597130Y-98522831D01*
X245601665Y-98522698D01*
X245622381Y-98520351D01*
X245629174Y-98519000D01*
X245725959Y-98519000D01*
X245729584Y-98518947D01*
X245826302Y-98516110D01*
X245833127Y-98517261D01*
X245833127Y-98517261D01*
G37*
G36*
X264883127Y-98517261D02*
G01*
X264903900Y-98519000D01*
X264910827Y-98519000D01*
X265005754Y-98537882D01*
X265009348Y-98538542D01*
X265104730Y-98554624D01*
X265111203Y-98557085D01*
X265131228Y-98562841D01*
X265138027Y-98564193D01*
X265184638Y-98583500D01*
X265227443Y-98601230D01*
X265230844Y-98602581D01*
X265321255Y-98636961D01*
X265327127Y-98640640D01*
X265345636Y-98650187D01*
X265352045Y-98652842D01*
X265432563Y-98706642D01*
X265435554Y-98708578D01*
X265517557Y-98759959D01*
X265522584Y-98764700D01*
X265538896Y-98777691D01*
X265544652Y-98781537D01*
X265613110Y-98849995D01*
X265615689Y-98852499D01*
X265686090Y-98918889D01*
X265690095Y-98924519D01*
X265703559Y-98940444D01*
X265708459Y-98945344D01*
X265762244Y-99025839D01*
X265764291Y-99028807D01*
X265820380Y-99107645D01*
X265823214Y-99113958D01*
X265833308Y-99132193D01*
X265837158Y-99137955D01*
X265874220Y-99227430D01*
X265875624Y-99230685D01*
X265915265Y-99318973D01*
X265916815Y-99325725D01*
X265923152Y-99345562D01*
X265925807Y-99351973D01*
X265944692Y-99446917D01*
X265945438Y-99450401D01*
X265967098Y-99544751D01*
X265967098Y-99544754D01*
X265967300Y-99551654D01*
X265969647Y-99572370D01*
X265971000Y-99579174D01*
X265971000Y-99675986D01*
X265971053Y-99679584D01*
X265972188Y-99718277D01*
X265971295Y-99731225D01*
X265971000Y-99739797D01*
X265971000Y-99810826D01*
X265965081Y-99840585D01*
X265964604Y-99842979D01*
X265962500Y-99858750D01*
X265924238Y-100413545D01*
X265895376Y-100584730D01*
X265813038Y-100801255D01*
X265690041Y-100997557D01*
X265531111Y-101166090D01*
X265342355Y-101300380D01*
X265131027Y-101395265D01*
X264905249Y-101447098D01*
X264673698Y-101453889D01*
X264673697Y-101453889D01*
X264628012Y-101446186D01*
X264445270Y-101415376D01*
X264228745Y-101333038D01*
X264032443Y-101210041D01*
X263863910Y-101051111D01*
X263729620Y-100862355D01*
X263634735Y-100651027D01*
X263582902Y-100425249D01*
X263577812Y-100251723D01*
X263618704Y-99658794D01*
X263619000Y-99650196D01*
X263619000Y-99579175D01*
X263637882Y-99484250D01*
X263638544Y-99480645D01*
X263644231Y-99446917D01*
X263654624Y-99385270D01*
X263657085Y-99378799D01*
X263662842Y-99358767D01*
X263664193Y-99351974D01*
X263666843Y-99345576D01*
X263701264Y-99262476D01*
X263702553Y-99259230D01*
X263736962Y-99168745D01*
X263740636Y-99162881D01*
X263750187Y-99144365D01*
X263752842Y-99137955D01*
X263806657Y-99057415D01*
X263808577Y-99054449D01*
X263859959Y-98972443D01*
X263864711Y-98967404D01*
X263877689Y-98951107D01*
X263881537Y-98945348D01*
X263949993Y-98876892D01*
X263952546Y-98874262D01*
X263973023Y-98852548D01*
X264018889Y-98803910D01*
X264024521Y-98799903D01*
X264040447Y-98786438D01*
X264045346Y-98781539D01*
X264125824Y-98727766D01*
X264128806Y-98725710D01*
X264207645Y-98669620D01*
X264213955Y-98666787D01*
X264232194Y-98656691D01*
X264237951Y-98652844D01*
X264237954Y-98652843D01*
X264237955Y-98652842D01*
X264327429Y-98615781D01*
X264330687Y-98614375D01*
X264418973Y-98574735D01*
X264425725Y-98573185D01*
X264445562Y-98566848D01*
X264451973Y-98564193D01*
X264546899Y-98545311D01*
X264550446Y-98544551D01*
X264644751Y-98522901D01*
X264647130Y-98522831D01*
X264651665Y-98522698D01*
X264672381Y-98520351D01*
X264679174Y-98519000D01*
X264775959Y-98519000D01*
X264779584Y-98518947D01*
X264876302Y-98516110D01*
X264883127Y-98517261D01*
X264883127Y-98517261D01*
G37*
G36*
X132803127Y-98517261D02*
G01*
X132823900Y-98519000D01*
X132830827Y-98519000D01*
X132925754Y-98537882D01*
X132929348Y-98538542D01*
X133024730Y-98554624D01*
X133031203Y-98557085D01*
X133051228Y-98562841D01*
X133058027Y-98564193D01*
X133104638Y-98583500D01*
X133147443Y-98601230D01*
X133150844Y-98602581D01*
X133241255Y-98636961D01*
X133247127Y-98640640D01*
X133265636Y-98650187D01*
X133272045Y-98652842D01*
X133352563Y-98706642D01*
X133355554Y-98708578D01*
X133437557Y-98759959D01*
X133442584Y-98764700D01*
X133458896Y-98777691D01*
X133464652Y-98781537D01*
X133533110Y-98849995D01*
X133535689Y-98852499D01*
X133606090Y-98918889D01*
X133610095Y-98924519D01*
X133623559Y-98940444D01*
X133628459Y-98945344D01*
X133682244Y-99025839D01*
X133684291Y-99028807D01*
X133740380Y-99107645D01*
X133743214Y-99113958D01*
X133753308Y-99132193D01*
X133757158Y-99137955D01*
X133794220Y-99227430D01*
X133795624Y-99230685D01*
X133835265Y-99318973D01*
X133836815Y-99325725D01*
X133843152Y-99345562D01*
X133845807Y-99351973D01*
X133864692Y-99446917D01*
X133865438Y-99450401D01*
X133887098Y-99544751D01*
X133887098Y-99544754D01*
X133887300Y-99551654D01*
X133889647Y-99572370D01*
X133891000Y-99579174D01*
X133891000Y-99675986D01*
X133891053Y-99679584D01*
X133892188Y-99718277D01*
X133891295Y-99731225D01*
X133891000Y-99739797D01*
X133891000Y-99810826D01*
X133885081Y-99840585D01*
X133884604Y-99842979D01*
X133882500Y-99858750D01*
X133844238Y-100413545D01*
X133815376Y-100584730D01*
X133733038Y-100801255D01*
X133610041Y-100997557D01*
X133451111Y-101166090D01*
X133262355Y-101300380D01*
X133051027Y-101395265D01*
X132825249Y-101447098D01*
X132593698Y-101453889D01*
X132593697Y-101453889D01*
X132548012Y-101446186D01*
X132365270Y-101415376D01*
X132148745Y-101333038D01*
X131952443Y-101210041D01*
X131783910Y-101051111D01*
X131649620Y-100862355D01*
X131554735Y-100651027D01*
X131502902Y-100425249D01*
X131497812Y-100251723D01*
X131538704Y-99658794D01*
X131539000Y-99650196D01*
X131539000Y-99579175D01*
X131557882Y-99484250D01*
X131558544Y-99480645D01*
X131564231Y-99446917D01*
X131574624Y-99385270D01*
X131577085Y-99378799D01*
X131582842Y-99358767D01*
X131584193Y-99351974D01*
X131586843Y-99345576D01*
X131621264Y-99262476D01*
X131622553Y-99259230D01*
X131656962Y-99168745D01*
X131660636Y-99162881D01*
X131670187Y-99144365D01*
X131672842Y-99137955D01*
X131726657Y-99057415D01*
X131728577Y-99054449D01*
X131779959Y-98972443D01*
X131784711Y-98967404D01*
X131797689Y-98951107D01*
X131801537Y-98945348D01*
X131869993Y-98876892D01*
X131872546Y-98874262D01*
X131893023Y-98852548D01*
X131938889Y-98803910D01*
X131944521Y-98799903D01*
X131960447Y-98786438D01*
X131965346Y-98781539D01*
X132045824Y-98727766D01*
X132048806Y-98725710D01*
X132127645Y-98669620D01*
X132133955Y-98666787D01*
X132152194Y-98656691D01*
X132157951Y-98652844D01*
X132157954Y-98652843D01*
X132157955Y-98652842D01*
X132247429Y-98615781D01*
X132250687Y-98614375D01*
X132338973Y-98574735D01*
X132345725Y-98573185D01*
X132365562Y-98566848D01*
X132371973Y-98564193D01*
X132466899Y-98545311D01*
X132470446Y-98544551D01*
X132564751Y-98522901D01*
X132567130Y-98522831D01*
X132571665Y-98522698D01*
X132592381Y-98520351D01*
X132599174Y-98519000D01*
X132695959Y-98519000D01*
X132699584Y-98518947D01*
X132796302Y-98516110D01*
X132803127Y-98517261D01*
X132803127Y-98517261D01*
G37*
G36*
X196108750Y-101347500D02*
G01*
X194606750Y-101347500D01*
X194606750Y-100045500D01*
X196108750Y-100045500D01*
X196108750Y-101347500D01*
X196108750Y-101347500D01*
G37*
G36*
X198308750Y-101347500D02*
G01*
X196806750Y-101347500D01*
X196806750Y-100045500D01*
X198308750Y-100045500D01*
X198308750Y-101347500D01*
X198308750Y-101347500D01*
G37*
G36*
X192767218Y-100193815D02*
G01*
X192805888Y-100205546D01*
X192841527Y-100224596D01*
X192872767Y-100250233D01*
X192898404Y-100281473D01*
X192917454Y-100317112D01*
X192929185Y-100355782D01*
X192933750Y-100402138D01*
X192933750Y-101053362D01*
X192929185Y-101099718D01*
X192917454Y-101138388D01*
X192898404Y-101174027D01*
X192872767Y-101205267D01*
X192841527Y-101230904D01*
X192805888Y-101249954D01*
X192767218Y-101261685D01*
X192720862Y-101266250D01*
X191644638Y-101266250D01*
X191598282Y-101261685D01*
X191559612Y-101249954D01*
X191523973Y-101230904D01*
X191492733Y-101205267D01*
X191467096Y-101174027D01*
X191448046Y-101138388D01*
X191436315Y-101099718D01*
X191431750Y-101053362D01*
X191431750Y-100402138D01*
X191436315Y-100355782D01*
X191448046Y-100317112D01*
X191467096Y-100281473D01*
X191492733Y-100250233D01*
X191523973Y-100224596D01*
X191559612Y-100205546D01*
X191598282Y-100193815D01*
X191644638Y-100189250D01*
X192720862Y-100189250D01*
X192767218Y-100193815D01*
X192767218Y-100193815D01*
G37*
G36*
X201498468Y-100193815D02*
G01*
X201537138Y-100205546D01*
X201572777Y-100224596D01*
X201604017Y-100250233D01*
X201629654Y-100281473D01*
X201648704Y-100317112D01*
X201660435Y-100355782D01*
X201665000Y-100402138D01*
X201665000Y-101053362D01*
X201660435Y-101099718D01*
X201648704Y-101138388D01*
X201629654Y-101174027D01*
X201604017Y-101205267D01*
X201572777Y-101230904D01*
X201537138Y-101249954D01*
X201498468Y-101261685D01*
X201452112Y-101266250D01*
X200375888Y-101266250D01*
X200329532Y-101261685D01*
X200290862Y-101249954D01*
X200255223Y-101230904D01*
X200223983Y-101205267D01*
X200198346Y-101174027D01*
X200179296Y-101138388D01*
X200167565Y-101099718D01*
X200163000Y-101053362D01*
X200163000Y-100402138D01*
X200167565Y-100355782D01*
X200179296Y-100317112D01*
X200198346Y-100281473D01*
X200223983Y-100250233D01*
X200255223Y-100224596D01*
X200290862Y-100205546D01*
X200329532Y-100193815D01*
X200375888Y-100189250D01*
X201452112Y-100189250D01*
X201498468Y-100193815D01*
X201498468Y-100193815D01*
G37*
G36*
X168789604Y-99658347D02*
G01*
X168826144Y-99669432D01*
X168859821Y-99687433D01*
X168889341Y-99711659D01*
X168913567Y-99741179D01*
X168931568Y-99774856D01*
X168942653Y-99811396D01*
X168947000Y-99855538D01*
X168947000Y-100804462D01*
X168942653Y-100848604D01*
X168931568Y-100885144D01*
X168913567Y-100918821D01*
X168889341Y-100948341D01*
X168859821Y-100972567D01*
X168826144Y-100990568D01*
X168789604Y-101001653D01*
X168745462Y-101006000D01*
X167296538Y-101006000D01*
X167252396Y-101001653D01*
X167215856Y-100990568D01*
X167182179Y-100972567D01*
X167152659Y-100948341D01*
X167128433Y-100918821D01*
X167110432Y-100885144D01*
X167099347Y-100848604D01*
X167095000Y-100804462D01*
X167095000Y-99855538D01*
X167099347Y-99811396D01*
X167110432Y-99774856D01*
X167128433Y-99741179D01*
X167152659Y-99711659D01*
X167182179Y-99687433D01*
X167215856Y-99669432D01*
X167252396Y-99658347D01*
X167296538Y-99654000D01*
X168745462Y-99654000D01*
X168789604Y-99658347D01*
X168789604Y-99658347D01*
G37*
G36*
X172415468Y-99209565D02*
G01*
X172454138Y-99221296D01*
X172489777Y-99240346D01*
X172521017Y-99265983D01*
X172546654Y-99297223D01*
X172565704Y-99332862D01*
X172577435Y-99371532D01*
X172582000Y-99417888D01*
X172582000Y-100069112D01*
X172577435Y-100115468D01*
X172565704Y-100154138D01*
X172546654Y-100189777D01*
X172521017Y-100221017D01*
X172489777Y-100246654D01*
X172454138Y-100265704D01*
X172415468Y-100277435D01*
X172369112Y-100282000D01*
X171292888Y-100282000D01*
X171246532Y-100277435D01*
X171207862Y-100265704D01*
X171172223Y-100246654D01*
X171140983Y-100221017D01*
X171115346Y-100189777D01*
X171096296Y-100154138D01*
X171084565Y-100115468D01*
X171080000Y-100069112D01*
X171080000Y-99417888D01*
X171084565Y-99371532D01*
X171096296Y-99332862D01*
X171115346Y-99297223D01*
X171140983Y-99265983D01*
X171172223Y-99240346D01*
X171207862Y-99221296D01*
X171246532Y-99209565D01*
X171292888Y-99205000D01*
X172369112Y-99205000D01*
X172415468Y-99209565D01*
X172415468Y-99209565D01*
G37*
G36*
X175082468Y-99209565D02*
G01*
X175121138Y-99221296D01*
X175156777Y-99240346D01*
X175188017Y-99265983D01*
X175213654Y-99297223D01*
X175232704Y-99332862D01*
X175244435Y-99371532D01*
X175249000Y-99417888D01*
X175249000Y-100069112D01*
X175244435Y-100115468D01*
X175232704Y-100154138D01*
X175213654Y-100189777D01*
X175188017Y-100221017D01*
X175156777Y-100246654D01*
X175121138Y-100265704D01*
X175082468Y-100277435D01*
X175036112Y-100282000D01*
X173959888Y-100282000D01*
X173913532Y-100277435D01*
X173874862Y-100265704D01*
X173839223Y-100246654D01*
X173807983Y-100221017D01*
X173782346Y-100189777D01*
X173763296Y-100154138D01*
X173751565Y-100115468D01*
X173747000Y-100069112D01*
X173747000Y-99417888D01*
X173751565Y-99371532D01*
X173763296Y-99332862D01*
X173782346Y-99297223D01*
X173807983Y-99265983D01*
X173839223Y-99240346D01*
X173874862Y-99221296D01*
X173913532Y-99209565D01*
X173959888Y-99205000D01*
X175036112Y-99205000D01*
X175082468Y-99209565D01*
X175082468Y-99209565D01*
G37*
G36*
X196108750Y-99647500D02*
G01*
X194606750Y-99647500D01*
X194606750Y-98345500D01*
X196108750Y-98345500D01*
X196108750Y-99647500D01*
X196108750Y-99647500D01*
G37*
G36*
X198308750Y-99647500D02*
G01*
X196806750Y-99647500D01*
X196806750Y-98345500D01*
X198308750Y-98345500D01*
X198308750Y-99647500D01*
X198308750Y-99647500D01*
G37*
G36*
X201498468Y-98318815D02*
G01*
X201537138Y-98330546D01*
X201572777Y-98349596D01*
X201604017Y-98375233D01*
X201629654Y-98406473D01*
X201648704Y-98442112D01*
X201660435Y-98480782D01*
X201665000Y-98527138D01*
X201665000Y-99178362D01*
X201660435Y-99224718D01*
X201648704Y-99263388D01*
X201629654Y-99299027D01*
X201604017Y-99330267D01*
X201572777Y-99355904D01*
X201537138Y-99374954D01*
X201498468Y-99386685D01*
X201452112Y-99391250D01*
X200375888Y-99391250D01*
X200329532Y-99386685D01*
X200290862Y-99374954D01*
X200255223Y-99355904D01*
X200223983Y-99330267D01*
X200198346Y-99299027D01*
X200179296Y-99263388D01*
X200167565Y-99224718D01*
X200163000Y-99178362D01*
X200163000Y-98527138D01*
X200167565Y-98480782D01*
X200179296Y-98442112D01*
X200198346Y-98406473D01*
X200223983Y-98375233D01*
X200255223Y-98349596D01*
X200290862Y-98330546D01*
X200329532Y-98318815D01*
X200375888Y-98314250D01*
X201452112Y-98314250D01*
X201498468Y-98318815D01*
X201498468Y-98318815D01*
G37*
G36*
X192767218Y-98318815D02*
G01*
X192805888Y-98330546D01*
X192841527Y-98349596D01*
X192872767Y-98375233D01*
X192898404Y-98406473D01*
X192917454Y-98442112D01*
X192929185Y-98480782D01*
X192933750Y-98527138D01*
X192933750Y-99178362D01*
X192929185Y-99224718D01*
X192917454Y-99263388D01*
X192898404Y-99299027D01*
X192872767Y-99330267D01*
X192841527Y-99355904D01*
X192805888Y-99374954D01*
X192767218Y-99386685D01*
X192720862Y-99391250D01*
X191644638Y-99391250D01*
X191598282Y-99386685D01*
X191559612Y-99374954D01*
X191523973Y-99355904D01*
X191492733Y-99330267D01*
X191467096Y-99299027D01*
X191448046Y-99263388D01*
X191436315Y-99224718D01*
X191431750Y-99178362D01*
X191431750Y-98527138D01*
X191436315Y-98480782D01*
X191448046Y-98442112D01*
X191467096Y-98406473D01*
X191492733Y-98375233D01*
X191523973Y-98349596D01*
X191559612Y-98330546D01*
X191598282Y-98318815D01*
X191644638Y-98314250D01*
X192720862Y-98314250D01*
X192767218Y-98318815D01*
X192767218Y-98318815D01*
G37*
G36*
X175082468Y-97334565D02*
G01*
X175121138Y-97346296D01*
X175156777Y-97365346D01*
X175188017Y-97390983D01*
X175213654Y-97422223D01*
X175232704Y-97457862D01*
X175244435Y-97496532D01*
X175249000Y-97542888D01*
X175249000Y-98194112D01*
X175244435Y-98240468D01*
X175232704Y-98279138D01*
X175213654Y-98314777D01*
X175188017Y-98346017D01*
X175156777Y-98371654D01*
X175121138Y-98390704D01*
X175082468Y-98402435D01*
X175036112Y-98407000D01*
X173959888Y-98407000D01*
X173913532Y-98402435D01*
X173874862Y-98390704D01*
X173839223Y-98371654D01*
X173807983Y-98346017D01*
X173782346Y-98314777D01*
X173763296Y-98279138D01*
X173751565Y-98240468D01*
X173747000Y-98194112D01*
X173747000Y-97542888D01*
X173751565Y-97496532D01*
X173763296Y-97457862D01*
X173782346Y-97422223D01*
X173807983Y-97390983D01*
X173839223Y-97365346D01*
X173874862Y-97346296D01*
X173913532Y-97334565D01*
X173959888Y-97330000D01*
X175036112Y-97330000D01*
X175082468Y-97334565D01*
X175082468Y-97334565D01*
G37*
G36*
X172415468Y-97334565D02*
G01*
X172454138Y-97346296D01*
X172489777Y-97365346D01*
X172521017Y-97390983D01*
X172546654Y-97422223D01*
X172565704Y-97457862D01*
X172577435Y-97496532D01*
X172582000Y-97542888D01*
X172582000Y-98194112D01*
X172577435Y-98240468D01*
X172565704Y-98279138D01*
X172546654Y-98314777D01*
X172521017Y-98346017D01*
X172489777Y-98371654D01*
X172454138Y-98390704D01*
X172415468Y-98402435D01*
X172369112Y-98407000D01*
X171292888Y-98407000D01*
X171246532Y-98402435D01*
X171207862Y-98390704D01*
X171172223Y-98371654D01*
X171140983Y-98346017D01*
X171115346Y-98314777D01*
X171096296Y-98279138D01*
X171084565Y-98240468D01*
X171080000Y-98194112D01*
X171080000Y-97542888D01*
X171084565Y-97496532D01*
X171096296Y-97457862D01*
X171115346Y-97422223D01*
X171140983Y-97390983D01*
X171172223Y-97365346D01*
X171207862Y-97346296D01*
X171246532Y-97334565D01*
X171292888Y-97330000D01*
X172369112Y-97330000D01*
X172415468Y-97334565D01*
X172415468Y-97334565D01*
G37*
G36*
X168789604Y-96858347D02*
G01*
X168826144Y-96869432D01*
X168859821Y-96887433D01*
X168889341Y-96911659D01*
X168913567Y-96941179D01*
X168931568Y-96974856D01*
X168942653Y-97011396D01*
X168947000Y-97055538D01*
X168947000Y-98004462D01*
X168942653Y-98048604D01*
X168931568Y-98085144D01*
X168913567Y-98118821D01*
X168889341Y-98148341D01*
X168859821Y-98172567D01*
X168826144Y-98190568D01*
X168789604Y-98201653D01*
X168745462Y-98206000D01*
X167296538Y-98206000D01*
X167252396Y-98201653D01*
X167215856Y-98190568D01*
X167182179Y-98172567D01*
X167152659Y-98148341D01*
X167128433Y-98118821D01*
X167110432Y-98085144D01*
X167099347Y-98048604D01*
X167095000Y-98004462D01*
X167095000Y-97055538D01*
X167099347Y-97011396D01*
X167110432Y-96974856D01*
X167128433Y-96941179D01*
X167152659Y-96911659D01*
X167182179Y-96887433D01*
X167215856Y-96869432D01*
X167252396Y-96858347D01*
X167296538Y-96854000D01*
X168745462Y-96854000D01*
X168789604Y-96858347D01*
X168789604Y-96858347D01*
G37*
G36*
X177473627Y-90052037D02*
G01*
X177643466Y-90103557D01*
X177799991Y-90187222D01*
X177835729Y-90216552D01*
X177937186Y-90299814D01*
X178020448Y-90401271D01*
X178049778Y-90437009D01*
X178133443Y-90593534D01*
X178184963Y-90763373D01*
X178198000Y-90895742D01*
X178198000Y-91984258D01*
X178184963Y-92116627D01*
X178133443Y-92286466D01*
X178049778Y-92442991D01*
X178020448Y-92478729D01*
X177937186Y-92580186D01*
X177799989Y-92692779D01*
X177643467Y-92776442D01*
X177643465Y-92776443D01*
X177473626Y-92827963D01*
X177297000Y-92845359D01*
X177120373Y-92827963D01*
X176950534Y-92776443D01*
X176794009Y-92692778D01*
X176758271Y-92663448D01*
X176656814Y-92580186D01*
X176544221Y-92442989D01*
X176460558Y-92286467D01*
X176460557Y-92286465D01*
X176409037Y-92116626D01*
X176396000Y-91984257D01*
X176396001Y-90895742D01*
X176409038Y-90763373D01*
X176460558Y-90593534D01*
X176544223Y-90437009D01*
X176573553Y-90401271D01*
X176656815Y-90299814D01*
X176758272Y-90216552D01*
X176794010Y-90187222D01*
X176950535Y-90103557D01*
X177120374Y-90052037D01*
X177297000Y-90034641D01*
X177473627Y-90052037D01*
X177473627Y-90052037D01*
G37*
G36*
X170173627Y-90052037D02*
G01*
X170343466Y-90103557D01*
X170499991Y-90187222D01*
X170535729Y-90216552D01*
X170637186Y-90299814D01*
X170720448Y-90401271D01*
X170749778Y-90437009D01*
X170833443Y-90593534D01*
X170884963Y-90763373D01*
X170898000Y-90895742D01*
X170898000Y-91984258D01*
X170884963Y-92116627D01*
X170833443Y-92286466D01*
X170749778Y-92442991D01*
X170720448Y-92478729D01*
X170637186Y-92580186D01*
X170499989Y-92692779D01*
X170343467Y-92776442D01*
X170343465Y-92776443D01*
X170173626Y-92827963D01*
X169997000Y-92845359D01*
X169820373Y-92827963D01*
X169650534Y-92776443D01*
X169494009Y-92692778D01*
X169458271Y-92663448D01*
X169356814Y-92580186D01*
X169244221Y-92442989D01*
X169160558Y-92286467D01*
X169160557Y-92286465D01*
X169109037Y-92116626D01*
X169096000Y-91984257D01*
X169096001Y-90895742D01*
X169109038Y-90763373D01*
X169160558Y-90593534D01*
X169244223Y-90437009D01*
X169273553Y-90401271D01*
X169356815Y-90299814D01*
X169458272Y-90216552D01*
X169494010Y-90187222D01*
X169650535Y-90103557D01*
X169820374Y-90052037D01*
X169997000Y-90034641D01*
X170173627Y-90052037D01*
X170173627Y-90052037D01*
G37*
G36*
X175548000Y-92616000D02*
G01*
X171746000Y-92616000D01*
X171746000Y-90264000D01*
X175548000Y-90264000D01*
X175548000Y-92616000D01*
X175548000Y-92616000D01*
G37*
G36*
X177473627Y-85552037D02*
G01*
X177643466Y-85603557D01*
X177799991Y-85687222D01*
X177835729Y-85716552D01*
X177937186Y-85799814D01*
X178020448Y-85901271D01*
X178049778Y-85937009D01*
X178133443Y-86093534D01*
X178184963Y-86263373D01*
X178198000Y-86395742D01*
X178198000Y-87484258D01*
X178184963Y-87616627D01*
X178133443Y-87786466D01*
X178049778Y-87942991D01*
X178020448Y-87978729D01*
X177937186Y-88080186D01*
X177799989Y-88192779D01*
X177643467Y-88276442D01*
X177643465Y-88276443D01*
X177473626Y-88327963D01*
X177297000Y-88345359D01*
X177120373Y-88327963D01*
X176950534Y-88276443D01*
X176794009Y-88192778D01*
X176758271Y-88163448D01*
X176656814Y-88080186D01*
X176544221Y-87942989D01*
X176460558Y-87786467D01*
X176460557Y-87786465D01*
X176409037Y-87616626D01*
X176396000Y-87484257D01*
X176396001Y-86395742D01*
X176409038Y-86263373D01*
X176460558Y-86093534D01*
X176544223Y-85937009D01*
X176573553Y-85901271D01*
X176656815Y-85799814D01*
X176758272Y-85716552D01*
X176794010Y-85687222D01*
X176950535Y-85603557D01*
X177120374Y-85552037D01*
X177297000Y-85534641D01*
X177473627Y-85552037D01*
X177473627Y-85552037D01*
G37*
G36*
X170173627Y-85552037D02*
G01*
X170343466Y-85603557D01*
X170499991Y-85687222D01*
X170535729Y-85716552D01*
X170637186Y-85799814D01*
X170720448Y-85901271D01*
X170749778Y-85937009D01*
X170833443Y-86093534D01*
X170884963Y-86263373D01*
X170898000Y-86395742D01*
X170898000Y-87484258D01*
X170884963Y-87616627D01*
X170833443Y-87786466D01*
X170749778Y-87942991D01*
X170720448Y-87978729D01*
X170637186Y-88080186D01*
X170499989Y-88192779D01*
X170343467Y-88276442D01*
X170343465Y-88276443D01*
X170173626Y-88327963D01*
X169997000Y-88345359D01*
X169820373Y-88327963D01*
X169650534Y-88276443D01*
X169494009Y-88192778D01*
X169458271Y-88163448D01*
X169356814Y-88080186D01*
X169244221Y-87942989D01*
X169160558Y-87786467D01*
X169160557Y-87786465D01*
X169109037Y-87616626D01*
X169096000Y-87484257D01*
X169096001Y-86395742D01*
X169109038Y-86263373D01*
X169160558Y-86093534D01*
X169244223Y-85937009D01*
X169273553Y-85901271D01*
X169356815Y-85799814D01*
X169458272Y-85716552D01*
X169494010Y-85687222D01*
X169650535Y-85603557D01*
X169820374Y-85552037D01*
X169997000Y-85534641D01*
X170173627Y-85552037D01*
X170173627Y-85552037D01*
G37*
M02*
