M48
; DRILL file {KiCad (5.1.4)-1} date 30/10/2022 21:38:41
; FORMAT={-:-/ absolute / inch / decimal}
; #@! TF.CreationDate,2022-10-30T21:38:41+01:00
; #@! TF.GenerationSoftware,Kicad,Pcbnew,(5.1.4)-1
; #@! TF.FileFunction,Plated,1,2,PTH
FMAT,2
INCH
T1C0.0157
T2C0.0276
T3C0.0409
T4C0.0579
%
G90
G05
T1
X5.45Y-4.255
X5.58Y-4.59
X5.655Y-4.85
X6.86Y-4.5
X7.065Y-3.745
X7.17Y-4.095
X7.39Y-4.025
X7.45Y-4.415
X7.45Y-4.575
X8.025Y-4.79
X8.025Y-4.79
X8.025Y-4.79
X8.2182Y-4.2432
T3
X5.075Y-4.325
X5.175Y-4.325
X5.825Y-4.325
X5.925Y-4.325
X9.525Y-4.325
X9.625Y-4.325
X10.275Y-4.325
X10.375Y-4.325
T4
X4.975Y-4.025
X5.0266Y-3.9675
X5.2234Y-3.9478
X5.225Y-3.925
X5.725Y-4.025
X5.7766Y-3.9675
X5.9734Y-3.9478
X5.975Y-3.925
X9.425Y-4.025
X9.4766Y-3.9675
X9.6734Y-3.9478
X9.675Y-3.925
X10.175Y-4.025
X10.2266Y-3.9675
X10.4234Y-3.9478
X10.425Y-3.925
T2
G00X6.6928Y-3.3992
M15
G01X6.6928Y-3.4465
M16
G05
G00X6.6928Y-3.5764
M15
G01X6.6928Y-3.6236
M16
G05
G00X6.9802Y-3.3992
M15
G01X6.9802Y-3.4465
M16
G05
G00X6.9802Y-3.5764
M15
G01X6.9802Y-3.6236
M16
G05
T0
M30
